M48
; DRILL file {KiCad 5.1.5+dfsg1-2build2} date 2020-05-22T20:55:38 CEST
; FORMAT={3:3/ absolute / metric / suppress leading zeros}
; #@! TF.CreationDate,2020-05-22T20:55:38+02:00
; #@! TF.GenerationSoftware,Kicad,Pcbnew,5.1.5+dfsg1-2build2
FMAT,2
METRIC,TZ
T1C0.400
T2C0.500
T3C0.600
T4C0.800
T5C1.000
T6C1.100
T7C1.000
%
G90
G05
T1
X77661Y-69342
X77724Y-110998
X77724Y-111760
X77724Y-112522
X78232Y-119634
X78232Y-120396
X78232Y-121158
X80518Y-110998
X80518Y-111760
X80518Y-112522
X83312Y-118173
X86868Y-117348
X87376Y-118618
X87693Y-82487
X87884Y-109474
X87948Y-78994
X89113Y-120650
X89154Y-69850
X89980Y-121222
X90170Y-115734
X91504Y-114363
X91694Y-109220
X91948Y-101918
X91948Y-117983
X91985Y-87122
X91985Y-100584
X92075Y-82550
X92710Y-96520
X92964Y-78994
X93435Y-105918
X93472Y-98806
X93726Y-99859
X93914Y-114667
X94234Y-120650
X94234Y-97383
X94869Y-117983
X94936Y-114669
X95377Y-82868
X96012Y-73152
X96012Y-109728
X96877Y-97534
X96901Y-118047
X97346Y-120777
X97741Y-113895
X97874Y-97616
X98347Y-112609
X98675Y-98214
X98992Y-109469
X99123Y-100838
X99157Y-93136
X99192Y-94196
X99267Y-97393
X99367Y-120676
X99913Y-117919
X99987Y-82768
X100034Y-91915
X100046Y-107169
X100156Y-108305
X100363Y-120587
X100706Y-84196
X101156Y-94107
X101473Y-113157
X101959Y-82884
X102362Y-78994
X102616Y-100838
X102616Y-104966
X102897Y-118083
X103124Y-82804
X103378Y-73152
X103533Y-105677
X103720Y-103971
X104437Y-110363
X104458Y-118047
X104712Y-121158
X104746Y-102263
X104983Y-105556
X105161Y-93985
X105185Y-109308
X105209Y-104574
X105259Y-92353
X105799Y-101217
X106100Y-103325
X106109Y-98417
X106456Y-93255
X106490Y-114046
X106553Y-116268
X106934Y-78994
X106998Y-120523
X107229Y-92583
X107450Y-111323
X107559Y-104255
X107696Y-98044
X107696Y-114846
X108047Y-110123
X108094Y-91881
X108428Y-104749
X108712Y-103188
X108728Y-120523
X108839Y-116840
X109003Y-109665
X109220Y-91186
X109427Y-104694
X109538Y-69787
X109653Y-116260
X109745Y-101854
X109914Y-103256
X109918Y-98325
X109918Y-120523
X110449Y-116866
X110554Y-99822
X110832Y-112801
X110998Y-110681
X111187Y-120448
X111252Y-116205
X111302Y-107954
X111402Y-97386
X111690Y-111924
X111823Y-95504
X112268Y-107696
X112586Y-81661
X112586Y-116840
X113030Y-97409
X113448Y-105221
X113474Y-99697
X113602Y-104076
X114300Y-91223
X114681Y-113396
X115257Y-101341
X116009Y-102197
X117221Y-97092
X117221Y-101409
X117565Y-91223
X117919Y-102589
X118110Y-77978
X118926Y-112770
X118933Y-103119
X118938Y-111581
X119190Y-120396
X119380Y-104076
X119951Y-111697
X120383Y-108997
X120433Y-103061
X120650Y-93980
X120650Y-120968
X120650Y-78994
X121383Y-108975
X121447Y-120099
X121476Y-111633
X122383Y-108974
X122809Y-91250
X123381Y-108902
X123698Y-77978
X125413Y-92329
X125730Y-80772
X127762Y-119317
X131572Y-119380
X131572Y-120142
X131572Y-120904
X131826Y-80010
X132207Y-69469
T4
X85090Y-106426
X109855Y-82550
T5
X125413Y-94424
X125413Y-96965
X125413Y-99504
X125413Y-102044
X125413Y-104584
X122873Y-86423
X125413Y-86423
T6
X79606Y-70367
X79606Y-74867
X86106Y-70367
X86106Y-74867
X123675Y-70358
X123675Y-74858
X130175Y-70358
X130175Y-74858
X112331Y-70367
X112331Y-74867
X118831Y-70367
X118831Y-74867
T7
X96134Y-70149
X104114Y-70149
T2
G00X135214Y-82893
M15
G01X135914Y-82893
M16
G05
G00X135214Y-90043
M15
G01X135914Y-90043
M16
G05
T3
G00X132714Y-84043
M15
G01X132914Y-84043
M16
G05
G00X132714Y-88893
M15
G01X132914Y-88893
M16
G05
T0
M30
