G04 #@! TF.GenerationSoftware,KiCad,Pcbnew,5.1.5+dfsg1-2build2*
G04 #@! TF.CreationDate,2020-05-22T20:54:53+02:00*
G04 #@! TF.ProjectId,KungFuFlash,4b756e67-4675-4466-9c61-73682e6b6963,1*
G04 #@! TF.SameCoordinates,Original*
G04 #@! TF.FileFunction,Legend,Top*
G04 #@! TF.FilePolarity,Positive*
%FSLAX46Y46*%
G04 Gerber Fmt 4.6, Leading zero omitted, Abs format (unit mm)*
G04 Created by KiCad (PCBNEW 5.1.5+dfsg1-2build2) date 2020-05-22 20:54:53*
%MOMM*%
%LPD*%
G04 APERTURE LIST*
%ADD10C,0.150000*%
%ADD11C,0.300000*%
%ADD12C,0.250000*%
%ADD13C,0.010000*%
%ADD14C,0.120000*%
G04 APERTURE END LIST*
D10*
X129286047Y-77922428D02*
X130047952Y-77922428D01*
X129667000Y-78303380D02*
X129667000Y-77541476D01*
D11*
X110509000Y-98488500D02*
G75*
G03X110509000Y-98488500I-400000J0D01*
G01*
D12*
X90560738Y-118995071D02*
X90560738Y-120209357D01*
X90513119Y-120352214D01*
X90465500Y-120423642D01*
X90370261Y-120495071D01*
X90227404Y-120495071D01*
X90132166Y-120423642D01*
X90560738Y-119923642D02*
X90465500Y-119995071D01*
X90275023Y-119995071D01*
X90179785Y-119923642D01*
X90132166Y-119852214D01*
X90084547Y-119709357D01*
X90084547Y-119280785D01*
X90132166Y-119137928D01*
X90179785Y-119066500D01*
X90275023Y-118995071D01*
X90465500Y-118995071D01*
X90560738Y-119066500D01*
X91036928Y-119995071D02*
X91036928Y-118995071D01*
X91036928Y-118495071D02*
X90989309Y-118566500D01*
X91036928Y-118637928D01*
X91084547Y-118566500D01*
X91036928Y-118495071D01*
X91036928Y-118637928D01*
X91370261Y-118995071D02*
X91751214Y-118995071D01*
X91513119Y-118495071D02*
X91513119Y-119780785D01*
X91560738Y-119923642D01*
X91655976Y-119995071D01*
X91751214Y-119995071D01*
X92084547Y-119995071D02*
X92084547Y-118495071D01*
X92513119Y-119995071D02*
X92513119Y-119209357D01*
X92465500Y-119066500D01*
X92370261Y-118995071D01*
X92227404Y-118995071D01*
X92132166Y-119066500D01*
X92084547Y-119137928D01*
X93417880Y-118995071D02*
X93417880Y-119995071D01*
X92989309Y-118995071D02*
X92989309Y-119780785D01*
X93036928Y-119923642D01*
X93132166Y-119995071D01*
X93275023Y-119995071D01*
X93370261Y-119923642D01*
X93417880Y-119852214D01*
X93894071Y-119995071D02*
X93894071Y-118495071D01*
X93894071Y-119066500D02*
X93989309Y-118995071D01*
X94179785Y-118995071D01*
X94275023Y-119066500D01*
X94322642Y-119137928D01*
X94370261Y-119280785D01*
X94370261Y-119709357D01*
X94322642Y-119852214D01*
X94275023Y-119923642D01*
X94179785Y-119995071D01*
X93989309Y-119995071D01*
X93894071Y-119923642D01*
X94798833Y-119852214D02*
X94846452Y-119923642D01*
X94798833Y-119995071D01*
X94751214Y-119923642D01*
X94798833Y-119852214D01*
X94798833Y-119995071D01*
X95703595Y-119923642D02*
X95608357Y-119995071D01*
X95417880Y-119995071D01*
X95322642Y-119923642D01*
X95275023Y-119852214D01*
X95227404Y-119709357D01*
X95227404Y-119280785D01*
X95275023Y-119137928D01*
X95322642Y-119066500D01*
X95417880Y-118995071D01*
X95608357Y-118995071D01*
X95703595Y-119066500D01*
X96275023Y-119995071D02*
X96179785Y-119923642D01*
X96132166Y-119852214D01*
X96084547Y-119709357D01*
X96084547Y-119280785D01*
X96132166Y-119137928D01*
X96179785Y-119066500D01*
X96275023Y-118995071D01*
X96417880Y-118995071D01*
X96513119Y-119066500D01*
X96560738Y-119137928D01*
X96608357Y-119280785D01*
X96608357Y-119709357D01*
X96560738Y-119852214D01*
X96513119Y-119923642D01*
X96417880Y-119995071D01*
X96275023Y-119995071D01*
X97036928Y-119995071D02*
X97036928Y-118995071D01*
X97036928Y-119137928D02*
X97084547Y-119066500D01*
X97179785Y-118995071D01*
X97322642Y-118995071D01*
X97417880Y-119066500D01*
X97465500Y-119209357D01*
X97465500Y-119995071D01*
X97465500Y-119209357D02*
X97513119Y-119066500D01*
X97608357Y-118995071D01*
X97751214Y-118995071D01*
X97846452Y-119066500D01*
X97894071Y-119209357D01*
X97894071Y-119995071D01*
X99084547Y-118423642D02*
X98227404Y-120352214D01*
X99417880Y-119995071D02*
X99417880Y-118495071D01*
X99989309Y-119995071D02*
X99560738Y-119137928D01*
X99989309Y-118495071D02*
X99417880Y-119352214D01*
X100417880Y-119995071D02*
X100417880Y-118995071D01*
X100417880Y-118495071D02*
X100370261Y-118566500D01*
X100417880Y-118637928D01*
X100465500Y-118566500D01*
X100417880Y-118495071D01*
X100417880Y-118637928D01*
X100894071Y-119995071D02*
X100894071Y-118995071D01*
X100894071Y-119137928D02*
X100941690Y-119066500D01*
X101036928Y-118995071D01*
X101179785Y-118995071D01*
X101275023Y-119066500D01*
X101322642Y-119209357D01*
X101322642Y-119995071D01*
X101322642Y-119209357D02*
X101370261Y-119066500D01*
X101465500Y-118995071D01*
X101608357Y-118995071D01*
X101703595Y-119066500D01*
X101751214Y-119209357D01*
X101751214Y-119995071D01*
X102513119Y-118495071D02*
X102513119Y-119566500D01*
X102465500Y-119780785D01*
X102370261Y-119923642D01*
X102227404Y-119995071D01*
X102132166Y-119995071D01*
X103132166Y-119995071D02*
X103036928Y-119923642D01*
X102989309Y-119852214D01*
X102941690Y-119709357D01*
X102941690Y-119280785D01*
X102989309Y-119137928D01*
X103036928Y-119066500D01*
X103132166Y-118995071D01*
X103275023Y-118995071D01*
X103370261Y-119066500D01*
X103417880Y-119137928D01*
X103465500Y-119280785D01*
X103465500Y-119709357D01*
X103417880Y-119852214D01*
X103370261Y-119923642D01*
X103275023Y-119995071D01*
X103132166Y-119995071D01*
X103894071Y-119995071D02*
X103894071Y-118995071D01*
X103894071Y-119280785D02*
X103941690Y-119137928D01*
X103989309Y-119066500D01*
X104084547Y-118995071D01*
X104179785Y-118995071D01*
X104941690Y-118995071D02*
X104941690Y-120209357D01*
X104894071Y-120352214D01*
X104846452Y-120423642D01*
X104751214Y-120495071D01*
X104608357Y-120495071D01*
X104513119Y-120423642D01*
X104941690Y-119923642D02*
X104846452Y-119995071D01*
X104655976Y-119995071D01*
X104560738Y-119923642D01*
X104513119Y-119852214D01*
X104465500Y-119709357D01*
X104465500Y-119280785D01*
X104513119Y-119137928D01*
X104560738Y-119066500D01*
X104655976Y-118995071D01*
X104846452Y-118995071D01*
X104941690Y-119066500D01*
X105798833Y-119923642D02*
X105703595Y-119995071D01*
X105513119Y-119995071D01*
X105417880Y-119923642D01*
X105370261Y-119780785D01*
X105370261Y-119209357D01*
X105417880Y-119066500D01*
X105513119Y-118995071D01*
X105703595Y-118995071D01*
X105798833Y-119066500D01*
X105846452Y-119209357D01*
X105846452Y-119352214D01*
X105370261Y-119495071D01*
X106275023Y-118995071D02*
X106275023Y-119995071D01*
X106275023Y-119137928D02*
X106322642Y-119066500D01*
X106417880Y-118995071D01*
X106560738Y-118995071D01*
X106655976Y-119066500D01*
X106703595Y-119209357D01*
X106703595Y-119995071D01*
X107132166Y-119923642D02*
X107227404Y-119995071D01*
X107417880Y-119995071D01*
X107513119Y-119923642D01*
X107560738Y-119780785D01*
X107560738Y-119709357D01*
X107513119Y-119566500D01*
X107417880Y-119495071D01*
X107275023Y-119495071D01*
X107179785Y-119423642D01*
X107132166Y-119280785D01*
X107132166Y-119209357D01*
X107179785Y-119066500D01*
X107275023Y-118995071D01*
X107417880Y-118995071D01*
X107513119Y-119066500D01*
X108370261Y-119923642D02*
X108275023Y-119995071D01*
X108084547Y-119995071D01*
X107989309Y-119923642D01*
X107941690Y-119780785D01*
X107941690Y-119209357D01*
X107989309Y-119066500D01*
X108084547Y-118995071D01*
X108275023Y-118995071D01*
X108370261Y-119066500D01*
X108417880Y-119209357D01*
X108417880Y-119352214D01*
X107941690Y-119495071D01*
X108846452Y-118995071D02*
X108846452Y-119995071D01*
X108846452Y-119137928D02*
X108894071Y-119066500D01*
X108989309Y-118995071D01*
X109132166Y-118995071D01*
X109227404Y-119066500D01*
X109275023Y-119209357D01*
X109275023Y-119995071D01*
X110465500Y-118423642D02*
X109608357Y-120352214D01*
X110798833Y-119995071D02*
X110798833Y-118495071D01*
X111370261Y-119995071D02*
X110941690Y-119137928D01*
X111370261Y-118495071D02*
X110798833Y-119352214D01*
X112227404Y-118995071D02*
X112227404Y-119995071D01*
X111798833Y-118995071D02*
X111798833Y-119780785D01*
X111846452Y-119923642D01*
X111941690Y-119995071D01*
X112084547Y-119995071D01*
X112179785Y-119923642D01*
X112227404Y-119852214D01*
X112703595Y-118995071D02*
X112703595Y-119995071D01*
X112703595Y-119137928D02*
X112751214Y-119066500D01*
X112846452Y-118995071D01*
X112989309Y-118995071D01*
X113084547Y-119066500D01*
X113132166Y-119209357D01*
X113132166Y-119995071D01*
X114036928Y-118995071D02*
X114036928Y-120209357D01*
X113989309Y-120352214D01*
X113941690Y-120423642D01*
X113846452Y-120495071D01*
X113703595Y-120495071D01*
X113608357Y-120423642D01*
X114036928Y-119923642D02*
X113941690Y-119995071D01*
X113751214Y-119995071D01*
X113655976Y-119923642D01*
X113608357Y-119852214D01*
X113560738Y-119709357D01*
X113560738Y-119280785D01*
X113608357Y-119137928D01*
X113655976Y-119066500D01*
X113751214Y-118995071D01*
X113941690Y-118995071D01*
X114036928Y-119066500D01*
X114846452Y-119209357D02*
X114513119Y-119209357D01*
X114513119Y-119995071D02*
X114513119Y-118495071D01*
X114989309Y-118495071D01*
X115798833Y-118995071D02*
X115798833Y-119995071D01*
X115370261Y-118995071D02*
X115370261Y-119780785D01*
X115417880Y-119923642D01*
X115513119Y-119995071D01*
X115655976Y-119995071D01*
X115751214Y-119923642D01*
X115798833Y-119852214D01*
X116608357Y-119209357D02*
X116275023Y-119209357D01*
X116275023Y-119995071D02*
X116275023Y-118495071D01*
X116751214Y-118495071D01*
X117275023Y-119995071D02*
X117179785Y-119923642D01*
X117132166Y-119780785D01*
X117132166Y-118495071D01*
X118084547Y-119995071D02*
X118084547Y-119209357D01*
X118036928Y-119066500D01*
X117941690Y-118995071D01*
X117751214Y-118995071D01*
X117655976Y-119066500D01*
X118084547Y-119923642D02*
X117989309Y-119995071D01*
X117751214Y-119995071D01*
X117655976Y-119923642D01*
X117608357Y-119780785D01*
X117608357Y-119637928D01*
X117655976Y-119495071D01*
X117751214Y-119423642D01*
X117989309Y-119423642D01*
X118084547Y-119352214D01*
X118513119Y-119923642D02*
X118608357Y-119995071D01*
X118798833Y-119995071D01*
X118894071Y-119923642D01*
X118941690Y-119780785D01*
X118941690Y-119709357D01*
X118894071Y-119566500D01*
X118798833Y-119495071D01*
X118655976Y-119495071D01*
X118560738Y-119423642D01*
X118513119Y-119280785D01*
X118513119Y-119209357D01*
X118560738Y-119066500D01*
X118655976Y-118995071D01*
X118798833Y-118995071D01*
X118894071Y-119066500D01*
X119370261Y-119995071D02*
X119370261Y-118495071D01*
X119798833Y-119995071D02*
X119798833Y-119209357D01*
X119751214Y-119066500D01*
X119655976Y-118995071D01*
X119513119Y-118995071D01*
X119417880Y-119066500D01*
X119370261Y-119137928D01*
X78287761Y-98750380D02*
X77954428Y-98274190D01*
X77716333Y-98750380D02*
X77716333Y-97750380D01*
X78097285Y-97750380D01*
X78192523Y-97798000D01*
X78240142Y-97845619D01*
X78287761Y-97940857D01*
X78287761Y-98083714D01*
X78240142Y-98178952D01*
X78192523Y-98226571D01*
X78097285Y-98274190D01*
X77716333Y-98274190D01*
X79097285Y-98702761D02*
X79002047Y-98750380D01*
X78811571Y-98750380D01*
X78716333Y-98702761D01*
X78668714Y-98607523D01*
X78668714Y-98226571D01*
X78716333Y-98131333D01*
X78811571Y-98083714D01*
X79002047Y-98083714D01*
X79097285Y-98131333D01*
X79144904Y-98226571D01*
X79144904Y-98321809D01*
X78668714Y-98417047D01*
X79478238Y-98083714D02*
X79716333Y-98750380D01*
X79954428Y-98083714D01*
X80335380Y-98655142D02*
X80383000Y-98702761D01*
X80335380Y-98750380D01*
X80287761Y-98702761D01*
X80335380Y-98655142D01*
X80335380Y-98750380D01*
X81525857Y-97845619D02*
X81573476Y-97798000D01*
X81668714Y-97750380D01*
X81906809Y-97750380D01*
X82002047Y-97798000D01*
X82049666Y-97845619D01*
X82097285Y-97940857D01*
X82097285Y-98036095D01*
X82049666Y-98178952D01*
X81478238Y-98750380D01*
X82097285Y-98750380D01*
D11*
X120217785Y-78212071D02*
X119717785Y-77497785D01*
X119360642Y-78212071D02*
X119360642Y-76712071D01*
X119932071Y-76712071D01*
X120074928Y-76783500D01*
X120146357Y-76854928D01*
X120217785Y-76997785D01*
X120217785Y-77212071D01*
X120146357Y-77354928D01*
X120074928Y-77426357D01*
X119932071Y-77497785D01*
X119360642Y-77497785D01*
X121432071Y-78140642D02*
X121289214Y-78212071D01*
X121003500Y-78212071D01*
X120860642Y-78140642D01*
X120789214Y-77997785D01*
X120789214Y-77426357D01*
X120860642Y-77283500D01*
X121003500Y-77212071D01*
X121289214Y-77212071D01*
X121432071Y-77283500D01*
X121503500Y-77426357D01*
X121503500Y-77569214D01*
X120789214Y-77712071D01*
X122074928Y-78140642D02*
X122217785Y-78212071D01*
X122503500Y-78212071D01*
X122646357Y-78140642D01*
X122717785Y-77997785D01*
X122717785Y-77926357D01*
X122646357Y-77783500D01*
X122503500Y-77712071D01*
X122289214Y-77712071D01*
X122146357Y-77640642D01*
X122074928Y-77497785D01*
X122074928Y-77426357D01*
X122146357Y-77283500D01*
X122289214Y-77212071D01*
X122503500Y-77212071D01*
X122646357Y-77283500D01*
X123932071Y-78140642D02*
X123789214Y-78212071D01*
X123503500Y-78212071D01*
X123360642Y-78140642D01*
X123289214Y-77997785D01*
X123289214Y-77426357D01*
X123360642Y-77283500D01*
X123503500Y-77212071D01*
X123789214Y-77212071D01*
X123932071Y-77283500D01*
X124003500Y-77426357D01*
X124003500Y-77569214D01*
X123289214Y-77712071D01*
X124432071Y-77212071D02*
X125003500Y-77212071D01*
X124646357Y-76712071D02*
X124646357Y-77997785D01*
X124717785Y-78140642D01*
X124860642Y-78212071D01*
X125003500Y-78212071D01*
X112693142Y-78212071D02*
X112693142Y-76712071D01*
X113193142Y-77783500D01*
X113693142Y-76712071D01*
X113693142Y-78212071D01*
X114978857Y-78140642D02*
X114836000Y-78212071D01*
X114550285Y-78212071D01*
X114407428Y-78140642D01*
X114336000Y-77997785D01*
X114336000Y-77426357D01*
X114407428Y-77283500D01*
X114550285Y-77212071D01*
X114836000Y-77212071D01*
X114978857Y-77283500D01*
X115050285Y-77426357D01*
X115050285Y-77569214D01*
X114336000Y-77712071D01*
X115693142Y-77212071D02*
X115693142Y-78212071D01*
X115693142Y-77354928D02*
X115764571Y-77283500D01*
X115907428Y-77212071D01*
X116121714Y-77212071D01*
X116264571Y-77283500D01*
X116336000Y-77426357D01*
X116336000Y-78212071D01*
X117693142Y-77212071D02*
X117693142Y-78212071D01*
X117050285Y-77212071D02*
X117050285Y-77997785D01*
X117121714Y-78140642D01*
X117264571Y-78212071D01*
X117478857Y-78212071D01*
X117621714Y-78140642D01*
X117693142Y-78069214D01*
X79030214Y-78077142D02*
X79244500Y-78148571D01*
X79601642Y-78148571D01*
X79744500Y-78077142D01*
X79815928Y-78005714D01*
X79887357Y-77862857D01*
X79887357Y-77720000D01*
X79815928Y-77577142D01*
X79744500Y-77505714D01*
X79601642Y-77434285D01*
X79315928Y-77362857D01*
X79173071Y-77291428D01*
X79101642Y-77220000D01*
X79030214Y-77077142D01*
X79030214Y-76934285D01*
X79101642Y-76791428D01*
X79173071Y-76720000D01*
X79315928Y-76648571D01*
X79673071Y-76648571D01*
X79887357Y-76720000D01*
X80530214Y-77148571D02*
X80530214Y-78648571D01*
X80530214Y-77220000D02*
X80673071Y-77148571D01*
X80958785Y-77148571D01*
X81101642Y-77220000D01*
X81173071Y-77291428D01*
X81244500Y-77434285D01*
X81244500Y-77862857D01*
X81173071Y-78005714D01*
X81101642Y-78077142D01*
X80958785Y-78148571D01*
X80673071Y-78148571D01*
X80530214Y-78077142D01*
X82458785Y-78077142D02*
X82315928Y-78148571D01*
X82030214Y-78148571D01*
X81887357Y-78077142D01*
X81815928Y-77934285D01*
X81815928Y-77362857D01*
X81887357Y-77220000D01*
X82030214Y-77148571D01*
X82315928Y-77148571D01*
X82458785Y-77220000D01*
X82530214Y-77362857D01*
X82530214Y-77505714D01*
X81815928Y-77648571D01*
X83815928Y-78077142D02*
X83673071Y-78148571D01*
X83387357Y-78148571D01*
X83244500Y-78077142D01*
X83173071Y-78005714D01*
X83101642Y-77862857D01*
X83101642Y-77434285D01*
X83173071Y-77291428D01*
X83244500Y-77220000D01*
X83387357Y-77148571D01*
X83673071Y-77148571D01*
X83815928Y-77220000D01*
X84458785Y-78148571D02*
X84458785Y-77148571D01*
X84458785Y-76648571D02*
X84387357Y-76720000D01*
X84458785Y-76791428D01*
X84530214Y-76720000D01*
X84458785Y-76648571D01*
X84458785Y-76791428D01*
X85815928Y-78148571D02*
X85815928Y-77362857D01*
X85744500Y-77220000D01*
X85601642Y-77148571D01*
X85315928Y-77148571D01*
X85173071Y-77220000D01*
X85815928Y-78077142D02*
X85673071Y-78148571D01*
X85315928Y-78148571D01*
X85173071Y-78077142D01*
X85101642Y-77934285D01*
X85101642Y-77791428D01*
X85173071Y-77648571D01*
X85315928Y-77577142D01*
X85673071Y-77577142D01*
X85815928Y-77505714D01*
X86744500Y-78148571D02*
X86601642Y-78077142D01*
X86530214Y-77934285D01*
X86530214Y-76648571D01*
D12*
X120987095Y-88653928D02*
X121749000Y-88653928D01*
X121368047Y-89034880D02*
X121368047Y-88272976D01*
X122701380Y-88034880D02*
X122225190Y-88034880D01*
X122177571Y-88511071D01*
X122225190Y-88463452D01*
X122320428Y-88415833D01*
X122558523Y-88415833D01*
X122653761Y-88463452D01*
X122701380Y-88511071D01*
X122749000Y-88606309D01*
X122749000Y-88844404D01*
X122701380Y-88939642D01*
X122653761Y-88987261D01*
X122558523Y-89034880D01*
X122320428Y-89034880D01*
X122225190Y-88987261D01*
X122177571Y-88939642D01*
X123034714Y-88034880D02*
X123368047Y-89034880D01*
X123701380Y-88034880D01*
X124796619Y-88034880D02*
X124796619Y-88844404D01*
X124844238Y-88939642D01*
X124891857Y-88987261D01*
X124987095Y-89034880D01*
X125177571Y-89034880D01*
X125272809Y-88987261D01*
X125320428Y-88939642D01*
X125368047Y-88844404D01*
X125368047Y-88034880D01*
X125796619Y-88987261D02*
X125939476Y-89034880D01*
X126177571Y-89034880D01*
X126272809Y-88987261D01*
X126320428Y-88939642D01*
X126368047Y-88844404D01*
X126368047Y-88749166D01*
X126320428Y-88653928D01*
X126272809Y-88606309D01*
X126177571Y-88558690D01*
X125987095Y-88511071D01*
X125891857Y-88463452D01*
X125844238Y-88415833D01*
X125796619Y-88320595D01*
X125796619Y-88225357D01*
X125844238Y-88130119D01*
X125891857Y-88082500D01*
X125987095Y-88034880D01*
X126225190Y-88034880D01*
X126368047Y-88082500D01*
X127129952Y-88511071D02*
X127272809Y-88558690D01*
X127320428Y-88606309D01*
X127368047Y-88701547D01*
X127368047Y-88844404D01*
X127320428Y-88939642D01*
X127272809Y-88987261D01*
X127177571Y-89034880D01*
X126796619Y-89034880D01*
X126796619Y-88034880D01*
X127129952Y-88034880D01*
X127225190Y-88082500D01*
X127272809Y-88130119D01*
X127320428Y-88225357D01*
X127320428Y-88320595D01*
X127272809Y-88415833D01*
X127225190Y-88463452D01*
X127129952Y-88511071D01*
X126796619Y-88511071D01*
X127352976Y-105052761D02*
X127495833Y-105100380D01*
X127733928Y-105100380D01*
X127829166Y-105052761D01*
X127876785Y-105005142D01*
X127924404Y-104909904D01*
X127924404Y-104814666D01*
X127876785Y-104719428D01*
X127829166Y-104671809D01*
X127733928Y-104624190D01*
X127543452Y-104576571D01*
X127448214Y-104528952D01*
X127400595Y-104481333D01*
X127352976Y-104386095D01*
X127352976Y-104290857D01*
X127400595Y-104195619D01*
X127448214Y-104148000D01*
X127543452Y-104100380D01*
X127781547Y-104100380D01*
X127924404Y-104148000D01*
X128257738Y-104100380D02*
X128495833Y-105100380D01*
X128686309Y-104386095D01*
X128876785Y-105100380D01*
X129114880Y-104100380D01*
X130067261Y-105005142D02*
X130019642Y-105052761D01*
X129876785Y-105100380D01*
X129781547Y-105100380D01*
X129638690Y-105052761D01*
X129543452Y-104957523D01*
X129495833Y-104862285D01*
X129448214Y-104671809D01*
X129448214Y-104528952D01*
X129495833Y-104338476D01*
X129543452Y-104243238D01*
X129638690Y-104148000D01*
X129781547Y-104100380D01*
X129876785Y-104100380D01*
X130019642Y-104148000D01*
X130067261Y-104195619D01*
X130972023Y-105100380D02*
X130495833Y-105100380D01*
X130495833Y-104100380D01*
X131305357Y-105100380D02*
X131305357Y-104100380D01*
X131876785Y-105100380D02*
X131448214Y-104528952D01*
X131876785Y-104100380D02*
X131305357Y-104671809D01*
X127352976Y-102512761D02*
X127495833Y-102560380D01*
X127733928Y-102560380D01*
X127829166Y-102512761D01*
X127876785Y-102465142D01*
X127924404Y-102369904D01*
X127924404Y-102274666D01*
X127876785Y-102179428D01*
X127829166Y-102131809D01*
X127733928Y-102084190D01*
X127543452Y-102036571D01*
X127448214Y-101988952D01*
X127400595Y-101941333D01*
X127352976Y-101846095D01*
X127352976Y-101750857D01*
X127400595Y-101655619D01*
X127448214Y-101608000D01*
X127543452Y-101560380D01*
X127781547Y-101560380D01*
X127924404Y-101608000D01*
X128257738Y-101560380D02*
X128495833Y-102560380D01*
X128686309Y-101846095D01*
X128876785Y-102560380D01*
X129114880Y-101560380D01*
X129495833Y-102560380D02*
X129495833Y-101560380D01*
X129733928Y-101560380D01*
X129876785Y-101608000D01*
X129972023Y-101703238D01*
X130019642Y-101798476D01*
X130067261Y-101988952D01*
X130067261Y-102131809D01*
X130019642Y-102322285D01*
X129972023Y-102417523D01*
X129876785Y-102512761D01*
X129733928Y-102560380D01*
X129495833Y-102560380D01*
X130495833Y-102560380D02*
X130495833Y-101560380D01*
X131162500Y-101560380D02*
X131352976Y-101560380D01*
X131448214Y-101608000D01*
X131543452Y-101703238D01*
X131591071Y-101893714D01*
X131591071Y-102227047D01*
X131543452Y-102417523D01*
X131448214Y-102512761D01*
X131352976Y-102560380D01*
X131162500Y-102560380D01*
X131067261Y-102512761D01*
X130972023Y-102417523D01*
X130924404Y-102227047D01*
X130924404Y-101893714D01*
X130972023Y-101703238D01*
X131067261Y-101608000D01*
X131162500Y-101560380D01*
X127797904Y-99068000D02*
X127702666Y-99020380D01*
X127559809Y-99020380D01*
X127416952Y-99068000D01*
X127321714Y-99163238D01*
X127274095Y-99258476D01*
X127226476Y-99448952D01*
X127226476Y-99591809D01*
X127274095Y-99782285D01*
X127321714Y-99877523D01*
X127416952Y-99972761D01*
X127559809Y-100020380D01*
X127655047Y-100020380D01*
X127797904Y-99972761D01*
X127845523Y-99925142D01*
X127845523Y-99591809D01*
X127655047Y-99591809D01*
X128274095Y-100020380D02*
X128274095Y-99020380D01*
X128845523Y-100020380D01*
X128845523Y-99020380D01*
X129321714Y-100020380D02*
X129321714Y-99020380D01*
X129559809Y-99020380D01*
X129702666Y-99068000D01*
X129797904Y-99163238D01*
X129845523Y-99258476D01*
X129893142Y-99448952D01*
X129893142Y-99591809D01*
X129845523Y-99782285D01*
X129797904Y-99877523D01*
X129702666Y-99972761D01*
X129559809Y-100020380D01*
X129321714Y-100020380D01*
X127273595Y-97099428D02*
X128035500Y-97099428D01*
X127654547Y-97480380D02*
X127654547Y-96718476D01*
X128416452Y-96480380D02*
X129035500Y-96480380D01*
X128702166Y-96861333D01*
X128845023Y-96861333D01*
X128940261Y-96908952D01*
X128987880Y-96956571D01*
X129035500Y-97051809D01*
X129035500Y-97289904D01*
X128987880Y-97385142D01*
X128940261Y-97432761D01*
X128845023Y-97480380D01*
X128559309Y-97480380D01*
X128464071Y-97432761D01*
X128416452Y-97385142D01*
X129464071Y-97385142D02*
X129511690Y-97432761D01*
X129464071Y-97480380D01*
X129416452Y-97432761D01*
X129464071Y-97385142D01*
X129464071Y-97480380D01*
X129845023Y-96480380D02*
X130464071Y-96480380D01*
X130130738Y-96861333D01*
X130273595Y-96861333D01*
X130368833Y-96908952D01*
X130416452Y-96956571D01*
X130464071Y-97051809D01*
X130464071Y-97289904D01*
X130416452Y-97385142D01*
X130368833Y-97432761D01*
X130273595Y-97480380D01*
X129987880Y-97480380D01*
X129892642Y-97432761D01*
X129845023Y-97385142D01*
X130749785Y-96480380D02*
X131083119Y-97480380D01*
X131416452Y-96480380D01*
X127606928Y-94416571D02*
X127749785Y-94464190D01*
X127797404Y-94511809D01*
X127845023Y-94607047D01*
X127845023Y-94749904D01*
X127797404Y-94845142D01*
X127749785Y-94892761D01*
X127654547Y-94940380D01*
X127273595Y-94940380D01*
X127273595Y-93940380D01*
X127606928Y-93940380D01*
X127702166Y-93988000D01*
X127749785Y-94035619D01*
X127797404Y-94130857D01*
X127797404Y-94226095D01*
X127749785Y-94321333D01*
X127702166Y-94368952D01*
X127606928Y-94416571D01*
X127273595Y-94416571D01*
X128464071Y-93940380D02*
X128654547Y-93940380D01*
X128749785Y-93988000D01*
X128845023Y-94083238D01*
X128892642Y-94273714D01*
X128892642Y-94607047D01*
X128845023Y-94797523D01*
X128749785Y-94892761D01*
X128654547Y-94940380D01*
X128464071Y-94940380D01*
X128368833Y-94892761D01*
X128273595Y-94797523D01*
X128225976Y-94607047D01*
X128225976Y-94273714D01*
X128273595Y-94083238D01*
X128368833Y-93988000D01*
X128464071Y-93940380D01*
X129511690Y-93940380D02*
X129702166Y-93940380D01*
X129797404Y-93988000D01*
X129892642Y-94083238D01*
X129940261Y-94273714D01*
X129940261Y-94607047D01*
X129892642Y-94797523D01*
X129797404Y-94892761D01*
X129702166Y-94940380D01*
X129511690Y-94940380D01*
X129416452Y-94892761D01*
X129321214Y-94797523D01*
X129273595Y-94607047D01*
X129273595Y-94273714D01*
X129321214Y-94083238D01*
X129416452Y-93988000D01*
X129511690Y-93940380D01*
X130225976Y-93940380D02*
X130797404Y-93940380D01*
X130511690Y-94940380D02*
X130511690Y-93940380D01*
X131321214Y-93940380D02*
X131416452Y-93940380D01*
X131511690Y-93988000D01*
X131559309Y-94035619D01*
X131606928Y-94130857D01*
X131654547Y-94321333D01*
X131654547Y-94559428D01*
X131606928Y-94749904D01*
X131559309Y-94845142D01*
X131511690Y-94892761D01*
X131416452Y-94940380D01*
X131321214Y-94940380D01*
X131225976Y-94892761D01*
X131178357Y-94845142D01*
X131130738Y-94749904D01*
X131083119Y-94559428D01*
X131083119Y-94321333D01*
X131130738Y-94130857D01*
X131178357Y-94035619D01*
X131225976Y-93988000D01*
X131321214Y-93940380D01*
D13*
G36*
X99725203Y-87461713D02*
G01*
X99785161Y-87470482D01*
X99870370Y-87485700D01*
X99938687Y-87499129D01*
X100152471Y-87534398D01*
X100367217Y-87554733D01*
X100574043Y-87560234D01*
X100764063Y-87550999D01*
X100928392Y-87527127D01*
X101058147Y-87488718D01*
X101063136Y-87486604D01*
X101083727Y-87482079D01*
X101095861Y-87496125D01*
X101101720Y-87537157D01*
X101103487Y-87613587D01*
X101103546Y-87642401D01*
X101089206Y-87993557D01*
X101047245Y-88332400D01*
X100979251Y-88654541D01*
X100886810Y-88955593D01*
X100771511Y-89231167D01*
X100634939Y-89476874D01*
X100478684Y-89688327D01*
X100304331Y-89861137D01*
X100299565Y-89865080D01*
X100091393Y-90010427D01*
X99858908Y-90127075D01*
X99614110Y-90210166D01*
X99369004Y-90254841D01*
X99328418Y-90258248D01*
X99234624Y-90265013D01*
X99152178Y-90271495D01*
X99097680Y-90276386D01*
X99094636Y-90276711D01*
X99046780Y-90277580D01*
X98966570Y-90274628D01*
X98867623Y-90268458D01*
X98814387Y-90264272D01*
X98711863Y-90254111D01*
X98622012Y-90242483D01*
X98558110Y-90231229D01*
X98539648Y-90226175D01*
X98509608Y-90212619D01*
X98509072Y-90198022D01*
X98542119Y-90173287D01*
X98571670Y-90154796D01*
X98623261Y-90119608D01*
X98652839Y-90093028D01*
X98655606Y-90087299D01*
X98636215Y-90070421D01*
X98585562Y-90040739D01*
X98514430Y-90004549D01*
X98511287Y-90003043D01*
X98348555Y-89901761D01*
X98195855Y-89760926D01*
X98058006Y-89586873D01*
X97939829Y-89385936D01*
X97846143Y-89164448D01*
X97825703Y-89102046D01*
X97770327Y-88876353D01*
X97732112Y-88623158D01*
X97712186Y-88358267D01*
X97711678Y-88097486D01*
X97731716Y-87856624D01*
X97735080Y-87832989D01*
X97760978Y-87658864D01*
X98087216Y-87658771D01*
X98369935Y-87649306D01*
X98632519Y-87621857D01*
X98865275Y-87577597D01*
X98952596Y-87554042D01*
X99022141Y-87535785D01*
X99071972Y-87527366D01*
X99087829Y-87528905D01*
X99084221Y-87553549D01*
X99065870Y-87612299D01*
X99035699Y-87696590D01*
X98996627Y-87797858D01*
X98992966Y-87807033D01*
X98912401Y-88022365D01*
X98854997Y-88211300D01*
X98818108Y-88385740D01*
X98799089Y-88557588D01*
X98794958Y-88697955D01*
X98807727Y-88939872D01*
X98846189Y-89147082D01*
X98911156Y-89323783D01*
X98919085Y-89339825D01*
X98954301Y-89404122D01*
X98986254Y-89437980D01*
X99031095Y-89452863D01*
X99086659Y-89458775D01*
X99261379Y-89465630D01*
X99401811Y-89453040D01*
X99516608Y-89418561D01*
X99614419Y-89359747D01*
X99691538Y-89287854D01*
X99795933Y-89156221D01*
X99872317Y-89014634D01*
X99923359Y-88854821D01*
X99951729Y-88668507D01*
X99960112Y-88455500D01*
X99959160Y-88326819D01*
X99955109Y-88230025D01*
X99945870Y-88150837D01*
X99929356Y-88074971D01*
X99903475Y-87988146D01*
X99882436Y-87924409D01*
X99843305Y-87813387D01*
X99802040Y-87705439D01*
X99764911Y-87616610D01*
X99748427Y-87581522D01*
X99718638Y-87518243D01*
X99701797Y-87473884D01*
X99700453Y-87460987D01*
X99725203Y-87461713D01*
G37*
X99725203Y-87461713D02*
X99785161Y-87470482D01*
X99870370Y-87485700D01*
X99938687Y-87499129D01*
X100152471Y-87534398D01*
X100367217Y-87554733D01*
X100574043Y-87560234D01*
X100764063Y-87550999D01*
X100928392Y-87527127D01*
X101058147Y-87488718D01*
X101063136Y-87486604D01*
X101083727Y-87482079D01*
X101095861Y-87496125D01*
X101101720Y-87537157D01*
X101103487Y-87613587D01*
X101103546Y-87642401D01*
X101089206Y-87993557D01*
X101047245Y-88332400D01*
X100979251Y-88654541D01*
X100886810Y-88955593D01*
X100771511Y-89231167D01*
X100634939Y-89476874D01*
X100478684Y-89688327D01*
X100304331Y-89861137D01*
X100299565Y-89865080D01*
X100091393Y-90010427D01*
X99858908Y-90127075D01*
X99614110Y-90210166D01*
X99369004Y-90254841D01*
X99328418Y-90258248D01*
X99234624Y-90265013D01*
X99152178Y-90271495D01*
X99097680Y-90276386D01*
X99094636Y-90276711D01*
X99046780Y-90277580D01*
X98966570Y-90274628D01*
X98867623Y-90268458D01*
X98814387Y-90264272D01*
X98711863Y-90254111D01*
X98622012Y-90242483D01*
X98558110Y-90231229D01*
X98539648Y-90226175D01*
X98509608Y-90212619D01*
X98509072Y-90198022D01*
X98542119Y-90173287D01*
X98571670Y-90154796D01*
X98623261Y-90119608D01*
X98652839Y-90093028D01*
X98655606Y-90087299D01*
X98636215Y-90070421D01*
X98585562Y-90040739D01*
X98514430Y-90004549D01*
X98511287Y-90003043D01*
X98348555Y-89901761D01*
X98195855Y-89760926D01*
X98058006Y-89586873D01*
X97939829Y-89385936D01*
X97846143Y-89164448D01*
X97825703Y-89102046D01*
X97770327Y-88876353D01*
X97732112Y-88623158D01*
X97712186Y-88358267D01*
X97711678Y-88097486D01*
X97731716Y-87856624D01*
X97735080Y-87832989D01*
X97760978Y-87658864D01*
X98087216Y-87658771D01*
X98369935Y-87649306D01*
X98632519Y-87621857D01*
X98865275Y-87577597D01*
X98952596Y-87554042D01*
X99022141Y-87535785D01*
X99071972Y-87527366D01*
X99087829Y-87528905D01*
X99084221Y-87553549D01*
X99065870Y-87612299D01*
X99035699Y-87696590D01*
X98996627Y-87797858D01*
X98992966Y-87807033D01*
X98912401Y-88022365D01*
X98854997Y-88211300D01*
X98818108Y-88385740D01*
X98799089Y-88557588D01*
X98794958Y-88697955D01*
X98807727Y-88939872D01*
X98846189Y-89147082D01*
X98911156Y-89323783D01*
X98919085Y-89339825D01*
X98954301Y-89404122D01*
X98986254Y-89437980D01*
X99031095Y-89452863D01*
X99086659Y-89458775D01*
X99261379Y-89465630D01*
X99401811Y-89453040D01*
X99516608Y-89418561D01*
X99614419Y-89359747D01*
X99691538Y-89287854D01*
X99795933Y-89156221D01*
X99872317Y-89014634D01*
X99923359Y-88854821D01*
X99951729Y-88668507D01*
X99960112Y-88455500D01*
X99959160Y-88326819D01*
X99955109Y-88230025D01*
X99945870Y-88150837D01*
X99929356Y-88074971D01*
X99903475Y-87988146D01*
X99882436Y-87924409D01*
X99843305Y-87813387D01*
X99802040Y-87705439D01*
X99764911Y-87616610D01*
X99748427Y-87581522D01*
X99718638Y-87518243D01*
X99701797Y-87473884D01*
X99700453Y-87460987D01*
X99725203Y-87461713D01*
G36*
X83446112Y-87461713D02*
G01*
X83506070Y-87470482D01*
X83591279Y-87485700D01*
X83659596Y-87499129D01*
X83873380Y-87534398D01*
X84088126Y-87554733D01*
X84294952Y-87560234D01*
X84484972Y-87550999D01*
X84649301Y-87527127D01*
X84779056Y-87488718D01*
X84784046Y-87486604D01*
X84804636Y-87482079D01*
X84816770Y-87496125D01*
X84822629Y-87537157D01*
X84824396Y-87613587D01*
X84824455Y-87642401D01*
X84810115Y-87993557D01*
X84768154Y-88332400D01*
X84700160Y-88654541D01*
X84607719Y-88955593D01*
X84492420Y-89231167D01*
X84355848Y-89476874D01*
X84199593Y-89688327D01*
X84025240Y-89861137D01*
X84020474Y-89865080D01*
X83812302Y-90010427D01*
X83579817Y-90127075D01*
X83335020Y-90210166D01*
X83089913Y-90254841D01*
X83049327Y-90258248D01*
X82955533Y-90265013D01*
X82873088Y-90271495D01*
X82818589Y-90276386D01*
X82815546Y-90276711D01*
X82767689Y-90277580D01*
X82687480Y-90274628D01*
X82588532Y-90268458D01*
X82535296Y-90264272D01*
X82432773Y-90254111D01*
X82342921Y-90242483D01*
X82279019Y-90231229D01*
X82260557Y-90226175D01*
X82230517Y-90212619D01*
X82229981Y-90198022D01*
X82263028Y-90173287D01*
X82292579Y-90154796D01*
X82344170Y-90119608D01*
X82373748Y-90093028D01*
X82376515Y-90087299D01*
X82357124Y-90070421D01*
X82306471Y-90040739D01*
X82235339Y-90004549D01*
X82232197Y-90003043D01*
X82069464Y-89901761D01*
X81916764Y-89760926D01*
X81778915Y-89586873D01*
X81660738Y-89385936D01*
X81567052Y-89164448D01*
X81546612Y-89102046D01*
X81491236Y-88876353D01*
X81453021Y-88623158D01*
X81433095Y-88358267D01*
X81432587Y-88097486D01*
X81452626Y-87856624D01*
X81455989Y-87832989D01*
X81481887Y-87658864D01*
X81808125Y-87658771D01*
X82090844Y-87649306D01*
X82353428Y-87621857D01*
X82586184Y-87577597D01*
X82673505Y-87554042D01*
X82743050Y-87535785D01*
X82792881Y-87527366D01*
X82808738Y-87528905D01*
X82805130Y-87553549D01*
X82786779Y-87612299D01*
X82756608Y-87696590D01*
X82717536Y-87797858D01*
X82713875Y-87807033D01*
X82633310Y-88022365D01*
X82575906Y-88211300D01*
X82539017Y-88385740D01*
X82519998Y-88557588D01*
X82515867Y-88697955D01*
X82528636Y-88939872D01*
X82567098Y-89147082D01*
X82632065Y-89323783D01*
X82639994Y-89339825D01*
X82675210Y-89404122D01*
X82707163Y-89437980D01*
X82752004Y-89452863D01*
X82807568Y-89458775D01*
X82982288Y-89465630D01*
X83122720Y-89453040D01*
X83237517Y-89418561D01*
X83335329Y-89359747D01*
X83412447Y-89287854D01*
X83516842Y-89156221D01*
X83593226Y-89014634D01*
X83644268Y-88854821D01*
X83672639Y-88668507D01*
X83681021Y-88455500D01*
X83680069Y-88326819D01*
X83676018Y-88230025D01*
X83666780Y-88150837D01*
X83650265Y-88074971D01*
X83624384Y-87988146D01*
X83603345Y-87924409D01*
X83564215Y-87813387D01*
X83522950Y-87705439D01*
X83485820Y-87616610D01*
X83469336Y-87581522D01*
X83439547Y-87518243D01*
X83422706Y-87473884D01*
X83421362Y-87460987D01*
X83446112Y-87461713D01*
G37*
X83446112Y-87461713D02*
X83506070Y-87470482D01*
X83591279Y-87485700D01*
X83659596Y-87499129D01*
X83873380Y-87534398D01*
X84088126Y-87554733D01*
X84294952Y-87560234D01*
X84484972Y-87550999D01*
X84649301Y-87527127D01*
X84779056Y-87488718D01*
X84784046Y-87486604D01*
X84804636Y-87482079D01*
X84816770Y-87496125D01*
X84822629Y-87537157D01*
X84824396Y-87613587D01*
X84824455Y-87642401D01*
X84810115Y-87993557D01*
X84768154Y-88332400D01*
X84700160Y-88654541D01*
X84607719Y-88955593D01*
X84492420Y-89231167D01*
X84355848Y-89476874D01*
X84199593Y-89688327D01*
X84025240Y-89861137D01*
X84020474Y-89865080D01*
X83812302Y-90010427D01*
X83579817Y-90127075D01*
X83335020Y-90210166D01*
X83089913Y-90254841D01*
X83049327Y-90258248D01*
X82955533Y-90265013D01*
X82873088Y-90271495D01*
X82818589Y-90276386D01*
X82815546Y-90276711D01*
X82767689Y-90277580D01*
X82687480Y-90274628D01*
X82588532Y-90268458D01*
X82535296Y-90264272D01*
X82432773Y-90254111D01*
X82342921Y-90242483D01*
X82279019Y-90231229D01*
X82260557Y-90226175D01*
X82230517Y-90212619D01*
X82229981Y-90198022D01*
X82263028Y-90173287D01*
X82292579Y-90154796D01*
X82344170Y-90119608D01*
X82373748Y-90093028D01*
X82376515Y-90087299D01*
X82357124Y-90070421D01*
X82306471Y-90040739D01*
X82235339Y-90004549D01*
X82232197Y-90003043D01*
X82069464Y-89901761D01*
X81916764Y-89760926D01*
X81778915Y-89586873D01*
X81660738Y-89385936D01*
X81567052Y-89164448D01*
X81546612Y-89102046D01*
X81491236Y-88876353D01*
X81453021Y-88623158D01*
X81433095Y-88358267D01*
X81432587Y-88097486D01*
X81452626Y-87856624D01*
X81455989Y-87832989D01*
X81481887Y-87658864D01*
X81808125Y-87658771D01*
X82090844Y-87649306D01*
X82353428Y-87621857D01*
X82586184Y-87577597D01*
X82673505Y-87554042D01*
X82743050Y-87535785D01*
X82792881Y-87527366D01*
X82808738Y-87528905D01*
X82805130Y-87553549D01*
X82786779Y-87612299D01*
X82756608Y-87696590D01*
X82717536Y-87797858D01*
X82713875Y-87807033D01*
X82633310Y-88022365D01*
X82575906Y-88211300D01*
X82539017Y-88385740D01*
X82519998Y-88557588D01*
X82515867Y-88697955D01*
X82528636Y-88939872D01*
X82567098Y-89147082D01*
X82632065Y-89323783D01*
X82639994Y-89339825D01*
X82675210Y-89404122D01*
X82707163Y-89437980D01*
X82752004Y-89452863D01*
X82807568Y-89458775D01*
X82982288Y-89465630D01*
X83122720Y-89453040D01*
X83237517Y-89418561D01*
X83335329Y-89359747D01*
X83412447Y-89287854D01*
X83516842Y-89156221D01*
X83593226Y-89014634D01*
X83644268Y-88854821D01*
X83672639Y-88668507D01*
X83681021Y-88455500D01*
X83680069Y-88326819D01*
X83676018Y-88230025D01*
X83666780Y-88150837D01*
X83650265Y-88074971D01*
X83624384Y-87988146D01*
X83603345Y-87924409D01*
X83564215Y-87813387D01*
X83522950Y-87705439D01*
X83485820Y-87616610D01*
X83469336Y-87581522D01*
X83439547Y-87518243D01*
X83422706Y-87473884D01*
X83421362Y-87460987D01*
X83446112Y-87461713D01*
G36*
X87701456Y-87300499D02*
G01*
X87750912Y-87329176D01*
X87799529Y-87358628D01*
X87991984Y-87459477D01*
X88212435Y-87545621D01*
X88443553Y-87611210D01*
X88661625Y-87649667D01*
X88792704Y-87664824D01*
X88669841Y-87829253D01*
X88497546Y-88094437D01*
X88368098Y-88372098D01*
X88281341Y-88663375D01*
X88237119Y-88969403D01*
X88235278Y-89291319D01*
X88275663Y-89630260D01*
X88358118Y-89987362D01*
X88369847Y-90028131D01*
X88373823Y-90051890D01*
X88363289Y-90067482D01*
X88329896Y-90077867D01*
X88265298Y-90086000D01*
X88187588Y-90092707D01*
X88054178Y-90108702D01*
X87902176Y-90135175D01*
X87745566Y-90168940D01*
X87598329Y-90206811D01*
X87474449Y-90245599D01*
X87415629Y-90268656D01*
X87347870Y-90298255D01*
X87310926Y-90310318D01*
X87293074Y-90305297D01*
X87282594Y-90283643D01*
X87279113Y-90273909D01*
X87202026Y-90089088D01*
X87097949Y-89882141D01*
X86972789Y-89663357D01*
X86832453Y-89443021D01*
X86682849Y-89231421D01*
X86672692Y-89217879D01*
X86498546Y-88986591D01*
X86482773Y-89272088D01*
X86472464Y-89413287D01*
X86457092Y-89565095D01*
X86437887Y-89719866D01*
X86416082Y-89869948D01*
X86392906Y-90007694D01*
X86369592Y-90125453D01*
X86347370Y-90215577D01*
X86327472Y-90270415D01*
X86320417Y-90280780D01*
X86296084Y-90278840D01*
X86238678Y-90266618D01*
X86159513Y-90246589D01*
X86140003Y-90241299D01*
X86023586Y-90217343D01*
X85875366Y-90198520D01*
X85709510Y-90185539D01*
X85540185Y-90179110D01*
X85381558Y-90179943D01*
X85247796Y-90188747D01*
X85205455Y-90194489D01*
X85131607Y-90205597D01*
X85079010Y-90211599D01*
X85060768Y-90211524D01*
X85070819Y-90192134D01*
X85103077Y-90146799D01*
X85150314Y-90085644D01*
X85321242Y-89834737D01*
X85455868Y-89559928D01*
X85552169Y-89268205D01*
X85608125Y-88966555D01*
X85621714Y-88661965D01*
X85610364Y-88495416D01*
X85595765Y-88362816D01*
X85581642Y-88261588D01*
X85562706Y-88183647D01*
X85533668Y-88120909D01*
X85489237Y-88065288D01*
X85424126Y-88008698D01*
X85333043Y-87943055D01*
X85210701Y-87860274D01*
X85182364Y-87841184D01*
X84997636Y-87716591D01*
X85344000Y-87701960D01*
X85565274Y-87686759D01*
X85758481Y-87658947D01*
X85940900Y-87614664D01*
X86129811Y-87550046D01*
X86259425Y-87497376D01*
X86417949Y-87429918D01*
X86450299Y-87480891D01*
X86469775Y-87512287D01*
X86510262Y-87578097D01*
X86568701Y-87673324D01*
X86642027Y-87792974D01*
X86727178Y-87932048D01*
X86821093Y-88085551D01*
X86891988Y-88201500D01*
X86990235Y-88362033D01*
X87081916Y-88511475D01*
X87163974Y-88644872D01*
X87233353Y-88757270D01*
X87286998Y-88843715D01*
X87321850Y-88899253D01*
X87333591Y-88917318D01*
X87348148Y-88933605D01*
X87356300Y-88926888D01*
X87358674Y-88890967D01*
X87355899Y-88819644D01*
X87351150Y-88744137D01*
X87349955Y-88444195D01*
X87383927Y-88137736D01*
X87450636Y-87838197D01*
X87547655Y-87559014D01*
X87577528Y-87491455D01*
X87618375Y-87405107D01*
X87651955Y-87337170D01*
X87673703Y-87296716D01*
X87679184Y-87289409D01*
X87701456Y-87300499D01*
G37*
X87701456Y-87300499D02*
X87750912Y-87329176D01*
X87799529Y-87358628D01*
X87991984Y-87459477D01*
X88212435Y-87545621D01*
X88443553Y-87611210D01*
X88661625Y-87649667D01*
X88792704Y-87664824D01*
X88669841Y-87829253D01*
X88497546Y-88094437D01*
X88368098Y-88372098D01*
X88281341Y-88663375D01*
X88237119Y-88969403D01*
X88235278Y-89291319D01*
X88275663Y-89630260D01*
X88358118Y-89987362D01*
X88369847Y-90028131D01*
X88373823Y-90051890D01*
X88363289Y-90067482D01*
X88329896Y-90077867D01*
X88265298Y-90086000D01*
X88187588Y-90092707D01*
X88054178Y-90108702D01*
X87902176Y-90135175D01*
X87745566Y-90168940D01*
X87598329Y-90206811D01*
X87474449Y-90245599D01*
X87415629Y-90268656D01*
X87347870Y-90298255D01*
X87310926Y-90310318D01*
X87293074Y-90305297D01*
X87282594Y-90283643D01*
X87279113Y-90273909D01*
X87202026Y-90089088D01*
X87097949Y-89882141D01*
X86972789Y-89663357D01*
X86832453Y-89443021D01*
X86682849Y-89231421D01*
X86672692Y-89217879D01*
X86498546Y-88986591D01*
X86482773Y-89272088D01*
X86472464Y-89413287D01*
X86457092Y-89565095D01*
X86437887Y-89719866D01*
X86416082Y-89869948D01*
X86392906Y-90007694D01*
X86369592Y-90125453D01*
X86347370Y-90215577D01*
X86327472Y-90270415D01*
X86320417Y-90280780D01*
X86296084Y-90278840D01*
X86238678Y-90266618D01*
X86159513Y-90246589D01*
X86140003Y-90241299D01*
X86023586Y-90217343D01*
X85875366Y-90198520D01*
X85709510Y-90185539D01*
X85540185Y-90179110D01*
X85381558Y-90179943D01*
X85247796Y-90188747D01*
X85205455Y-90194489D01*
X85131607Y-90205597D01*
X85079010Y-90211599D01*
X85060768Y-90211524D01*
X85070819Y-90192134D01*
X85103077Y-90146799D01*
X85150314Y-90085644D01*
X85321242Y-89834737D01*
X85455868Y-89559928D01*
X85552169Y-89268205D01*
X85608125Y-88966555D01*
X85621714Y-88661965D01*
X85610364Y-88495416D01*
X85595765Y-88362816D01*
X85581642Y-88261588D01*
X85562706Y-88183647D01*
X85533668Y-88120909D01*
X85489237Y-88065288D01*
X85424126Y-88008698D01*
X85333043Y-87943055D01*
X85210701Y-87860274D01*
X85182364Y-87841184D01*
X84997636Y-87716591D01*
X85344000Y-87701960D01*
X85565274Y-87686759D01*
X85758481Y-87658947D01*
X85940900Y-87614664D01*
X86129811Y-87550046D01*
X86259425Y-87497376D01*
X86417949Y-87429918D01*
X86450299Y-87480891D01*
X86469775Y-87512287D01*
X86510262Y-87578097D01*
X86568701Y-87673324D01*
X86642027Y-87792974D01*
X86727178Y-87932048D01*
X86821093Y-88085551D01*
X86891988Y-88201500D01*
X86990235Y-88362033D01*
X87081916Y-88511475D01*
X87163974Y-88644872D01*
X87233353Y-88757270D01*
X87286998Y-88843715D01*
X87321850Y-88899253D01*
X87333591Y-88917318D01*
X87348148Y-88933605D01*
X87356300Y-88926888D01*
X87358674Y-88890967D01*
X87355899Y-88819644D01*
X87351150Y-88744137D01*
X87349955Y-88444195D01*
X87383927Y-88137736D01*
X87450636Y-87838197D01*
X87547655Y-87559014D01*
X87577528Y-87491455D01*
X87618375Y-87405107D01*
X87651955Y-87337170D01*
X87673703Y-87296716D01*
X87679184Y-87289409D01*
X87701456Y-87300499D01*
G36*
X91305006Y-87428200D02*
G01*
X91514871Y-87435066D01*
X91711176Y-87447889D01*
X91882486Y-87466494D01*
X91996859Y-87486062D01*
X92045719Y-87496554D01*
X92001819Y-87675845D01*
X91978464Y-87802894D01*
X91962016Y-87956166D01*
X91953216Y-88119283D01*
X91952803Y-88275870D01*
X91961518Y-88409549D01*
X91966905Y-88448153D01*
X91984994Y-88556261D01*
X91811783Y-88457552D01*
X91628421Y-88362982D01*
X91458306Y-88298827D01*
X91284909Y-88260201D01*
X91091701Y-88242218D01*
X91082091Y-88241808D01*
X90814405Y-88250595D01*
X90567977Y-88300008D01*
X90341248Y-88390523D01*
X90132658Y-88522615D01*
X90114278Y-88536909D01*
X90054631Y-88590519D01*
X89992737Y-88656546D01*
X89935049Y-88726459D01*
X89888022Y-88791732D01*
X89858110Y-88843834D01*
X89851766Y-88874239D01*
X89856078Y-88878102D01*
X89888724Y-88876584D01*
X89950100Y-88865146D01*
X90000565Y-88853007D01*
X90123818Y-88820834D01*
X90124400Y-88996777D01*
X90144397Y-89178598D01*
X90202264Y-89334706D01*
X90296734Y-89463914D01*
X90426545Y-89565030D01*
X90590430Y-89636866D01*
X90787127Y-89678232D01*
X90855760Y-89684767D01*
X91033519Y-89697299D01*
X90974479Y-89527530D01*
X90952274Y-89456765D01*
X90926245Y-89363188D01*
X90898586Y-89256136D01*
X90871495Y-89144944D01*
X90847166Y-89038950D01*
X90827797Y-88947489D01*
X90815582Y-88879898D01*
X90812719Y-88845514D01*
X90813557Y-88843337D01*
X90837506Y-88843671D01*
X90893831Y-88850435D01*
X90956513Y-88859960D01*
X91184396Y-88880545D01*
X91422053Y-88867958D01*
X91676878Y-88821448D01*
X91874772Y-88766646D01*
X91948220Y-88745137D01*
X92001643Y-88732036D01*
X92022443Y-88730064D01*
X92020759Y-88754174D01*
X92010133Y-88812421D01*
X91992612Y-88894087D01*
X91984068Y-88931177D01*
X91960207Y-89039846D01*
X91938815Y-89149519D01*
X91923975Y-89239050D01*
X91922440Y-89250418D01*
X91906338Y-89375700D01*
X91991884Y-89322830D01*
X92045867Y-89292847D01*
X92081504Y-89279338D01*
X92087553Y-89280083D01*
X92089714Y-89310100D01*
X92077211Y-89371239D01*
X92053625Y-89452199D01*
X92022538Y-89541680D01*
X91987533Y-89628379D01*
X91956878Y-89692373D01*
X91924291Y-89756531D01*
X91904086Y-89809748D01*
X91893773Y-89866070D01*
X91890860Y-89939542D01*
X91892858Y-90044210D01*
X91893091Y-90052163D01*
X91899804Y-90279682D01*
X91704538Y-90306989D01*
X91603818Y-90321213D01*
X91511389Y-90334508D01*
X91443940Y-90344467D01*
X91433150Y-90346121D01*
X91377063Y-90348686D01*
X91345630Y-90327644D01*
X91331308Y-90301496D01*
X91314297Y-90269670D01*
X91292608Y-90252369D01*
X91256497Y-90248865D01*
X91196220Y-90258431D01*
X91102033Y-90280342D01*
X91089297Y-90283447D01*
X90961383Y-90305509D01*
X90802257Y-90319173D01*
X90626119Y-90324439D01*
X90447168Y-90321309D01*
X90279603Y-90309786D01*
X90137625Y-90289869D01*
X90106732Y-90283335D01*
X89826001Y-90197486D01*
X89575961Y-90077239D01*
X89357303Y-89923273D01*
X89170715Y-89736261D01*
X89016889Y-89516882D01*
X88896514Y-89265810D01*
X88819310Y-89021228D01*
X88800668Y-88948194D01*
X88784729Y-88888340D01*
X88780617Y-88873765D01*
X88778678Y-88849405D01*
X88796617Y-88840416D01*
X88841964Y-88846757D01*
X88922251Y-88868389D01*
X88937665Y-88872918D01*
X88959952Y-88870425D01*
X88977574Y-88842269D01*
X88994338Y-88780397D01*
X89003884Y-88732725D01*
X89047531Y-88575355D01*
X89117817Y-88406603D01*
X89206135Y-88244927D01*
X89282757Y-88134648D01*
X89456005Y-87950948D01*
X89666398Y-87791692D01*
X89910966Y-87658441D01*
X90186739Y-87552757D01*
X90490749Y-87476200D01*
X90558615Y-87463848D01*
X90708384Y-87445116D01*
X90890328Y-87433049D01*
X91093013Y-87427469D01*
X91305006Y-87428200D01*
G37*
X91305006Y-87428200D02*
X91514871Y-87435066D01*
X91711176Y-87447889D01*
X91882486Y-87466494D01*
X91996859Y-87486062D01*
X92045719Y-87496554D01*
X92001819Y-87675845D01*
X91978464Y-87802894D01*
X91962016Y-87956166D01*
X91953216Y-88119283D01*
X91952803Y-88275870D01*
X91961518Y-88409549D01*
X91966905Y-88448153D01*
X91984994Y-88556261D01*
X91811783Y-88457552D01*
X91628421Y-88362982D01*
X91458306Y-88298827D01*
X91284909Y-88260201D01*
X91091701Y-88242218D01*
X91082091Y-88241808D01*
X90814405Y-88250595D01*
X90567977Y-88300008D01*
X90341248Y-88390523D01*
X90132658Y-88522615D01*
X90114278Y-88536909D01*
X90054631Y-88590519D01*
X89992737Y-88656546D01*
X89935049Y-88726459D01*
X89888022Y-88791732D01*
X89858110Y-88843834D01*
X89851766Y-88874239D01*
X89856078Y-88878102D01*
X89888724Y-88876584D01*
X89950100Y-88865146D01*
X90000565Y-88853007D01*
X90123818Y-88820834D01*
X90124400Y-88996777D01*
X90144397Y-89178598D01*
X90202264Y-89334706D01*
X90296734Y-89463914D01*
X90426545Y-89565030D01*
X90590430Y-89636866D01*
X90787127Y-89678232D01*
X90855760Y-89684767D01*
X91033519Y-89697299D01*
X90974479Y-89527530D01*
X90952274Y-89456765D01*
X90926245Y-89363188D01*
X90898586Y-89256136D01*
X90871495Y-89144944D01*
X90847166Y-89038950D01*
X90827797Y-88947489D01*
X90815582Y-88879898D01*
X90812719Y-88845514D01*
X90813557Y-88843337D01*
X90837506Y-88843671D01*
X90893831Y-88850435D01*
X90956513Y-88859960D01*
X91184396Y-88880545D01*
X91422053Y-88867958D01*
X91676878Y-88821448D01*
X91874772Y-88766646D01*
X91948220Y-88745137D01*
X92001643Y-88732036D01*
X92022443Y-88730064D01*
X92020759Y-88754174D01*
X92010133Y-88812421D01*
X91992612Y-88894087D01*
X91984068Y-88931177D01*
X91960207Y-89039846D01*
X91938815Y-89149519D01*
X91923975Y-89239050D01*
X91922440Y-89250418D01*
X91906338Y-89375700D01*
X91991884Y-89322830D01*
X92045867Y-89292847D01*
X92081504Y-89279338D01*
X92087553Y-89280083D01*
X92089714Y-89310100D01*
X92077211Y-89371239D01*
X92053625Y-89452199D01*
X92022538Y-89541680D01*
X91987533Y-89628379D01*
X91956878Y-89692373D01*
X91924291Y-89756531D01*
X91904086Y-89809748D01*
X91893773Y-89866070D01*
X91890860Y-89939542D01*
X91892858Y-90044210D01*
X91893091Y-90052163D01*
X91899804Y-90279682D01*
X91704538Y-90306989D01*
X91603818Y-90321213D01*
X91511389Y-90334508D01*
X91443940Y-90344467D01*
X91433150Y-90346121D01*
X91377063Y-90348686D01*
X91345630Y-90327644D01*
X91331308Y-90301496D01*
X91314297Y-90269670D01*
X91292608Y-90252369D01*
X91256497Y-90248865D01*
X91196220Y-90258431D01*
X91102033Y-90280342D01*
X91089297Y-90283447D01*
X90961383Y-90305509D01*
X90802257Y-90319173D01*
X90626119Y-90324439D01*
X90447168Y-90321309D01*
X90279603Y-90309786D01*
X90137625Y-90289869D01*
X90106732Y-90283335D01*
X89826001Y-90197486D01*
X89575961Y-90077239D01*
X89357303Y-89923273D01*
X89170715Y-89736261D01*
X89016889Y-89516882D01*
X88896514Y-89265810D01*
X88819310Y-89021228D01*
X88800668Y-88948194D01*
X88784729Y-88888340D01*
X88780617Y-88873765D01*
X88778678Y-88849405D01*
X88796617Y-88840416D01*
X88841964Y-88846757D01*
X88922251Y-88868389D01*
X88937665Y-88872918D01*
X88959952Y-88870425D01*
X88977574Y-88842269D01*
X88994338Y-88780397D01*
X89003884Y-88732725D01*
X89047531Y-88575355D01*
X89117817Y-88406603D01*
X89206135Y-88244927D01*
X89282757Y-88134648D01*
X89456005Y-87950948D01*
X89666398Y-87791692D01*
X89910966Y-87658441D01*
X90186739Y-87552757D01*
X90490749Y-87476200D01*
X90558615Y-87463848D01*
X90708384Y-87445116D01*
X90890328Y-87433049D01*
X91093013Y-87427469D01*
X91305006Y-87428200D01*
G36*
X94748752Y-86859115D02*
G01*
X94837003Y-86864513D01*
X94957095Y-86869015D01*
X95094690Y-86872217D01*
X95235452Y-86873713D01*
X95267500Y-86873773D01*
X95401576Y-86874322D01*
X95495709Y-86876402D01*
X95556133Y-86880664D01*
X95589077Y-86887757D01*
X95600774Y-86898331D01*
X95599559Y-86908409D01*
X95593176Y-86924004D01*
X95592579Y-86934280D01*
X95604586Y-86939219D01*
X95636017Y-86938798D01*
X95693691Y-86932999D01*
X95784429Y-86921801D01*
X95896546Y-86907528D01*
X96049609Y-86892666D01*
X96235144Y-86881821D01*
X96440836Y-86875092D01*
X96654371Y-86872577D01*
X96863438Y-86874377D01*
X97055723Y-86880591D01*
X97218913Y-86891319D01*
X97269276Y-86896432D01*
X97364188Y-86908028D01*
X97440074Y-86918649D01*
X97486457Y-86926756D01*
X97495666Y-86929651D01*
X97496632Y-86954505D01*
X97492937Y-87015533D01*
X97485299Y-87103042D01*
X97476495Y-87188678D01*
X97464671Y-87345424D01*
X97459208Y-87532462D01*
X97460446Y-87734292D01*
X97462761Y-87812071D01*
X97476401Y-88184642D01*
X97217564Y-88086521D01*
X97071069Y-88032737D01*
X96905647Y-87974973D01*
X96727523Y-87915131D01*
X96542923Y-87855111D01*
X96358071Y-87796815D01*
X96179192Y-87742143D01*
X96012512Y-87692996D01*
X95864256Y-87651276D01*
X95740649Y-87618884D01*
X95647916Y-87597721D01*
X95592282Y-87589687D01*
X95590591Y-87589664D01*
X95579027Y-87601331D01*
X95570757Y-87639707D01*
X95565382Y-87709757D01*
X95562507Y-87816447D01*
X95561727Y-87950503D01*
X95561727Y-88311415D01*
X95671409Y-88296432D01*
X95733791Y-88290141D01*
X95830825Y-88283019D01*
X95951007Y-88275797D01*
X96082834Y-88269207D01*
X96134958Y-88266964D01*
X96488825Y-88252481D01*
X96469776Y-88423263D01*
X96462908Y-88512296D01*
X96457865Y-88632485D01*
X96455087Y-88768824D01*
X96455013Y-88906308D01*
X96455201Y-88921717D01*
X96459674Y-89249388D01*
X96235837Y-89103708D01*
X96130546Y-89037144D01*
X96017715Y-88969124D01*
X95904123Y-88903340D01*
X95796546Y-88843487D01*
X95701761Y-88793257D01*
X95626547Y-88756344D01*
X95577681Y-88736443D01*
X95561821Y-88736371D01*
X95564565Y-88806573D01*
X95571757Y-88913862D01*
X95582548Y-89049451D01*
X95596088Y-89204550D01*
X95611528Y-89370370D01*
X95628019Y-89538123D01*
X95644711Y-89699019D01*
X95660755Y-89844270D01*
X95675302Y-89965086D01*
X95687502Y-90052680D01*
X95691087Y-90074010D01*
X95704052Y-90145428D01*
X95430844Y-90160963D01*
X95086924Y-90192976D01*
X94770111Y-90249332D01*
X94551829Y-90306055D01*
X94457200Y-90333939D01*
X94376212Y-90357744D01*
X94321458Y-90373769D01*
X94309046Y-90377368D01*
X94275310Y-90382068D01*
X94268636Y-90377914D01*
X94272960Y-90352288D01*
X94284741Y-90290583D01*
X94302196Y-90201968D01*
X94323540Y-90095613D01*
X94324198Y-90092357D01*
X94440959Y-89413946D01*
X94520570Y-88719610D01*
X94557159Y-88143773D01*
X94563101Y-88002082D01*
X94569808Y-87852076D01*
X94576424Y-87712426D01*
X94581679Y-87609420D01*
X94593678Y-87386794D01*
X94396521Y-87358808D01*
X94307951Y-87345406D01*
X94239994Y-87333546D01*
X94203093Y-87325117D01*
X94199364Y-87323093D01*
X94219741Y-87313060D01*
X94274339Y-87292643D01*
X94353356Y-87265415D01*
X94398312Y-87250574D01*
X94597260Y-87185784D01*
X94586307Y-87015121D01*
X94575355Y-86844458D01*
X94748752Y-86859115D01*
G37*
X94748752Y-86859115D02*
X94837003Y-86864513D01*
X94957095Y-86869015D01*
X95094690Y-86872217D01*
X95235452Y-86873713D01*
X95267500Y-86873773D01*
X95401576Y-86874322D01*
X95495709Y-86876402D01*
X95556133Y-86880664D01*
X95589077Y-86887757D01*
X95600774Y-86898331D01*
X95599559Y-86908409D01*
X95593176Y-86924004D01*
X95592579Y-86934280D01*
X95604586Y-86939219D01*
X95636017Y-86938798D01*
X95693691Y-86932999D01*
X95784429Y-86921801D01*
X95896546Y-86907528D01*
X96049609Y-86892666D01*
X96235144Y-86881821D01*
X96440836Y-86875092D01*
X96654371Y-86872577D01*
X96863438Y-86874377D01*
X97055723Y-86880591D01*
X97218913Y-86891319D01*
X97269276Y-86896432D01*
X97364188Y-86908028D01*
X97440074Y-86918649D01*
X97486457Y-86926756D01*
X97495666Y-86929651D01*
X97496632Y-86954505D01*
X97492937Y-87015533D01*
X97485299Y-87103042D01*
X97476495Y-87188678D01*
X97464671Y-87345424D01*
X97459208Y-87532462D01*
X97460446Y-87734292D01*
X97462761Y-87812071D01*
X97476401Y-88184642D01*
X97217564Y-88086521D01*
X97071069Y-88032737D01*
X96905647Y-87974973D01*
X96727523Y-87915131D01*
X96542923Y-87855111D01*
X96358071Y-87796815D01*
X96179192Y-87742143D01*
X96012512Y-87692996D01*
X95864256Y-87651276D01*
X95740649Y-87618884D01*
X95647916Y-87597721D01*
X95592282Y-87589687D01*
X95590591Y-87589664D01*
X95579027Y-87601331D01*
X95570757Y-87639707D01*
X95565382Y-87709757D01*
X95562507Y-87816447D01*
X95561727Y-87950503D01*
X95561727Y-88311415D01*
X95671409Y-88296432D01*
X95733791Y-88290141D01*
X95830825Y-88283019D01*
X95951007Y-88275797D01*
X96082834Y-88269207D01*
X96134958Y-88266964D01*
X96488825Y-88252481D01*
X96469776Y-88423263D01*
X96462908Y-88512296D01*
X96457865Y-88632485D01*
X96455087Y-88768824D01*
X96455013Y-88906308D01*
X96455201Y-88921717D01*
X96459674Y-89249388D01*
X96235837Y-89103708D01*
X96130546Y-89037144D01*
X96017715Y-88969124D01*
X95904123Y-88903340D01*
X95796546Y-88843487D01*
X95701761Y-88793257D01*
X95626547Y-88756344D01*
X95577681Y-88736443D01*
X95561821Y-88736371D01*
X95564565Y-88806573D01*
X95571757Y-88913862D01*
X95582548Y-89049451D01*
X95596088Y-89204550D01*
X95611528Y-89370370D01*
X95628019Y-89538123D01*
X95644711Y-89699019D01*
X95660755Y-89844270D01*
X95675302Y-89965086D01*
X95687502Y-90052680D01*
X95691087Y-90074010D01*
X95704052Y-90145428D01*
X95430844Y-90160963D01*
X95086924Y-90192976D01*
X94770111Y-90249332D01*
X94551829Y-90306055D01*
X94457200Y-90333939D01*
X94376212Y-90357744D01*
X94321458Y-90373769D01*
X94309046Y-90377368D01*
X94275310Y-90382068D01*
X94268636Y-90377914D01*
X94272960Y-90352288D01*
X94284741Y-90290583D01*
X94302196Y-90201968D01*
X94323540Y-90095613D01*
X94324198Y-90092357D01*
X94440959Y-89413946D01*
X94520570Y-88719610D01*
X94557159Y-88143773D01*
X94563101Y-88002082D01*
X94569808Y-87852076D01*
X94576424Y-87712426D01*
X94581679Y-87609420D01*
X94593678Y-87386794D01*
X94396521Y-87358808D01*
X94307951Y-87345406D01*
X94239994Y-87333546D01*
X94203093Y-87325117D01*
X94199364Y-87323093D01*
X94219741Y-87313060D01*
X94274339Y-87292643D01*
X94353356Y-87265415D01*
X94398312Y-87250574D01*
X94597260Y-87185784D01*
X94586307Y-87015121D01*
X94575355Y-86844458D01*
X94748752Y-86859115D01*
G36*
X80236133Y-86788889D02*
G01*
X80275684Y-86817233D01*
X80337636Y-86872885D01*
X80374310Y-86907671D01*
X80542331Y-87056702D01*
X80719498Y-87188756D01*
X80919135Y-87313128D01*
X81084924Y-87403481D01*
X81338032Y-87535098D01*
X81193562Y-87651795D01*
X80853967Y-87909191D01*
X80500679Y-88145275D01*
X80148686Y-88350111D01*
X80104703Y-88373455D01*
X79884322Y-88489087D01*
X80020158Y-88691657D01*
X80207679Y-88949657D01*
X80428516Y-89213188D01*
X80686447Y-89486597D01*
X80853112Y-89650055D01*
X81177505Y-89960289D01*
X81044288Y-89990102D01*
X80871516Y-90035605D01*
X80674327Y-90098876D01*
X80468188Y-90174396D01*
X80268563Y-90256646D01*
X80163767Y-90304353D01*
X79901898Y-90428556D01*
X79864054Y-90331028D01*
X79778302Y-90133146D01*
X79669579Y-89917560D01*
X79546723Y-89699948D01*
X79418571Y-89495985D01*
X79297353Y-89325740D01*
X79234087Y-89247021D01*
X79160351Y-89160486D01*
X79082748Y-89073253D01*
X79007884Y-88992438D01*
X78942361Y-88925161D01*
X78892785Y-88878538D01*
X78865758Y-88859687D01*
X78864838Y-88859591D01*
X78856245Y-88881454D01*
X78850032Y-88942256D01*
X78846172Y-89034819D01*
X78844636Y-89151961D01*
X78845397Y-89286504D01*
X78848428Y-89431267D01*
X78853702Y-89579072D01*
X78861191Y-89722739D01*
X78868536Y-89827107D01*
X78877000Y-89940892D01*
X78882894Y-90036943D01*
X78885776Y-90106512D01*
X78885201Y-90140851D01*
X78884527Y-90142852D01*
X78859367Y-90148882D01*
X78798491Y-90158206D01*
X78712118Y-90169359D01*
X78646309Y-90176989D01*
X78472878Y-90200430D01*
X78281862Y-90233312D01*
X78085138Y-90273011D01*
X77894583Y-90316904D01*
X77722071Y-90362368D01*
X77579479Y-90406779D01*
X77538830Y-90421592D01*
X77510162Y-90426724D01*
X77507902Y-90402332D01*
X77513220Y-90381713D01*
X77611304Y-90008369D01*
X77696857Y-89620066D01*
X77766610Y-89233569D01*
X77817295Y-88865642D01*
X77827396Y-88770554D01*
X77834567Y-88673128D01*
X77840798Y-88540890D01*
X77845741Y-88385205D01*
X77849049Y-88217438D01*
X77850373Y-88048956D01*
X77850374Y-88020099D01*
X77849101Y-87804341D01*
X77845366Y-87620988D01*
X77838426Y-87456296D01*
X77827540Y-87296520D01*
X77811965Y-87127916D01*
X77792689Y-86951721D01*
X77776419Y-86810306D01*
X77981119Y-86868034D01*
X78070412Y-86891246D01*
X78155378Y-86908007D01*
X78247489Y-86919612D01*
X78358214Y-86927356D01*
X78499026Y-86932537D01*
X78566818Y-86934191D01*
X78715187Y-86938344D01*
X78822188Y-86943570D01*
X78892632Y-86950348D01*
X78931331Y-86959160D01*
X78943095Y-86970483D01*
X78942988Y-86971697D01*
X78930250Y-87063394D01*
X78916017Y-87190716D01*
X78901182Y-87343167D01*
X78886640Y-87510250D01*
X78873285Y-87681471D01*
X78862012Y-87846335D01*
X78853715Y-87994344D01*
X78851443Y-88046137D01*
X78836217Y-88432409D01*
X79005134Y-88282668D01*
X79146047Y-88149462D01*
X79302620Y-87987004D01*
X79465848Y-87805085D01*
X79626728Y-87613496D01*
X79670265Y-87559279D01*
X79726949Y-87484999D01*
X79799112Y-87386120D01*
X79880429Y-87271781D01*
X79964572Y-87151119D01*
X80045214Y-87033272D01*
X80116029Y-86927378D01*
X80170688Y-86842574D01*
X80197684Y-86797577D01*
X80212345Y-86783716D01*
X80236133Y-86788889D01*
G37*
X80236133Y-86788889D02*
X80275684Y-86817233D01*
X80337636Y-86872885D01*
X80374310Y-86907671D01*
X80542331Y-87056702D01*
X80719498Y-87188756D01*
X80919135Y-87313128D01*
X81084924Y-87403481D01*
X81338032Y-87535098D01*
X81193562Y-87651795D01*
X80853967Y-87909191D01*
X80500679Y-88145275D01*
X80148686Y-88350111D01*
X80104703Y-88373455D01*
X79884322Y-88489087D01*
X80020158Y-88691657D01*
X80207679Y-88949657D01*
X80428516Y-89213188D01*
X80686447Y-89486597D01*
X80853112Y-89650055D01*
X81177505Y-89960289D01*
X81044288Y-89990102D01*
X80871516Y-90035605D01*
X80674327Y-90098876D01*
X80468188Y-90174396D01*
X80268563Y-90256646D01*
X80163767Y-90304353D01*
X79901898Y-90428556D01*
X79864054Y-90331028D01*
X79778302Y-90133146D01*
X79669579Y-89917560D01*
X79546723Y-89699948D01*
X79418571Y-89495985D01*
X79297353Y-89325740D01*
X79234087Y-89247021D01*
X79160351Y-89160486D01*
X79082748Y-89073253D01*
X79007884Y-88992438D01*
X78942361Y-88925161D01*
X78892785Y-88878538D01*
X78865758Y-88859687D01*
X78864838Y-88859591D01*
X78856245Y-88881454D01*
X78850032Y-88942256D01*
X78846172Y-89034819D01*
X78844636Y-89151961D01*
X78845397Y-89286504D01*
X78848428Y-89431267D01*
X78853702Y-89579072D01*
X78861191Y-89722739D01*
X78868536Y-89827107D01*
X78877000Y-89940892D01*
X78882894Y-90036943D01*
X78885776Y-90106512D01*
X78885201Y-90140851D01*
X78884527Y-90142852D01*
X78859367Y-90148882D01*
X78798491Y-90158206D01*
X78712118Y-90169359D01*
X78646309Y-90176989D01*
X78472878Y-90200430D01*
X78281862Y-90233312D01*
X78085138Y-90273011D01*
X77894583Y-90316904D01*
X77722071Y-90362368D01*
X77579479Y-90406779D01*
X77538830Y-90421592D01*
X77510162Y-90426724D01*
X77507902Y-90402332D01*
X77513220Y-90381713D01*
X77611304Y-90008369D01*
X77696857Y-89620066D01*
X77766610Y-89233569D01*
X77817295Y-88865642D01*
X77827396Y-88770554D01*
X77834567Y-88673128D01*
X77840798Y-88540890D01*
X77845741Y-88385205D01*
X77849049Y-88217438D01*
X77850373Y-88048956D01*
X77850374Y-88020099D01*
X77849101Y-87804341D01*
X77845366Y-87620988D01*
X77838426Y-87456296D01*
X77827540Y-87296520D01*
X77811965Y-87127916D01*
X77792689Y-86951721D01*
X77776419Y-86810306D01*
X77981119Y-86868034D01*
X78070412Y-86891246D01*
X78155378Y-86908007D01*
X78247489Y-86919612D01*
X78358214Y-86927356D01*
X78499026Y-86932537D01*
X78566818Y-86934191D01*
X78715187Y-86938344D01*
X78822188Y-86943570D01*
X78892632Y-86950348D01*
X78931331Y-86959160D01*
X78943095Y-86970483D01*
X78942988Y-86971697D01*
X78930250Y-87063394D01*
X78916017Y-87190716D01*
X78901182Y-87343167D01*
X78886640Y-87510250D01*
X78873285Y-87681471D01*
X78862012Y-87846335D01*
X78853715Y-87994344D01*
X78851443Y-88046137D01*
X78836217Y-88432409D01*
X79005134Y-88282668D01*
X79146047Y-88149462D01*
X79302620Y-87987004D01*
X79465848Y-87805085D01*
X79626728Y-87613496D01*
X79670265Y-87559279D01*
X79726949Y-87484999D01*
X79799112Y-87386120D01*
X79880429Y-87271781D01*
X79964572Y-87151119D01*
X80045214Y-87033272D01*
X80116029Y-86927378D01*
X80170688Y-86842574D01*
X80197684Y-86797577D01*
X80212345Y-86783716D01*
X80236133Y-86788889D01*
G36*
X96733093Y-92982034D02*
G01*
X96922548Y-93045457D01*
X97143755Y-93092500D01*
X97384457Y-93120783D01*
X97473756Y-93125923D01*
X97605704Y-93133132D01*
X97693537Y-93142078D01*
X97739301Y-93153040D01*
X97747001Y-93163439D01*
X97676965Y-93329956D01*
X97622776Y-93461556D01*
X97581656Y-93565583D01*
X97550825Y-93649379D01*
X97527506Y-93720287D01*
X97508920Y-93785649D01*
X97503263Y-93807609D01*
X97479978Y-93903279D01*
X97459441Y-93993360D01*
X97446203Y-94057797D01*
X97431132Y-94141366D01*
X97629362Y-94095836D01*
X97718500Y-94076395D01*
X97788607Y-94063055D01*
X97829078Y-94057747D01*
X97834758Y-94058448D01*
X97835637Y-94083838D01*
X97830377Y-94140765D01*
X97823420Y-94193591D01*
X97813479Y-94296126D01*
X97807596Y-94429302D01*
X97805799Y-94577756D01*
X97808117Y-94726122D01*
X97814580Y-94859037D01*
X97822029Y-94938273D01*
X97838615Y-95071046D01*
X97429998Y-95071046D01*
X97445534Y-95157637D01*
X97458758Y-95221785D01*
X97479328Y-95311089D01*
X97504130Y-95413150D01*
X97530046Y-95515569D01*
X97553960Y-95605948D01*
X97572756Y-95671887D01*
X97580844Y-95695995D01*
X97581882Y-95710959D01*
X97566329Y-95721224D01*
X97527446Y-95727677D01*
X97458491Y-95731206D01*
X97352726Y-95732695D01*
X97300147Y-95732914D01*
X97169853Y-95735214D01*
X97051803Y-95742470D01*
X96934420Y-95756344D01*
X96806122Y-95778498D01*
X96655331Y-95810591D01*
X96494278Y-95848510D01*
X96470806Y-95851252D01*
X96455386Y-95840174D01*
X96445280Y-95806935D01*
X96437752Y-95743198D01*
X96431151Y-95656182D01*
X96423663Y-95544041D01*
X96415031Y-95406500D01*
X96406533Y-95264278D01*
X96401758Y-95180374D01*
X96395018Y-95064948D01*
X96388585Y-94987491D01*
X96380303Y-94939855D01*
X96368018Y-94913894D01*
X96349576Y-94901459D01*
X96326339Y-94895189D01*
X96280298Y-94883369D01*
X96201636Y-94861662D01*
X96102003Y-94833329D01*
X96009328Y-94806416D01*
X95752657Y-94731156D01*
X95741609Y-95247714D01*
X95737934Y-95397409D01*
X95733747Y-95531081D01*
X95729335Y-95642004D01*
X95724983Y-95723451D01*
X95720974Y-95768695D01*
X95719247Y-95775586D01*
X95692038Y-95777941D01*
X95635064Y-95771459D01*
X95594421Y-95764204D01*
X95430689Y-95740420D01*
X95238763Y-95726811D01*
X95035549Y-95723616D01*
X94837955Y-95731074D01*
X94662886Y-95749424D01*
X94653314Y-95750901D01*
X94551213Y-95765836D01*
X94466954Y-95775967D01*
X94410311Y-95780262D01*
X94391258Y-95778637D01*
X94393639Y-95753261D01*
X94410159Y-95695801D01*
X94437591Y-95616966D01*
X94449431Y-95585637D01*
X94582660Y-95177434D01*
X94671122Y-94761430D01*
X94714561Y-94340642D01*
X94712723Y-93918085D01*
X94665351Y-93496776D01*
X94638438Y-93352462D01*
X94613816Y-93232846D01*
X94599150Y-93152220D01*
X94596049Y-93104149D01*
X94606124Y-93082203D01*
X94630983Y-93079948D01*
X94672236Y-93090952D01*
X94701591Y-93100050D01*
X94797301Y-93124541D01*
X94926226Y-93151035D01*
X95075584Y-93177422D01*
X95232591Y-93201592D01*
X95384463Y-93221436D01*
X95517988Y-93234808D01*
X95716703Y-93250455D01*
X95731579Y-93460025D01*
X95737049Y-93562042D01*
X95741613Y-93694725D01*
X95744863Y-93842563D01*
X95746390Y-93990042D01*
X95746455Y-94023957D01*
X95746455Y-94378318D01*
X95833046Y-94377451D01*
X95894121Y-94374352D01*
X95979753Y-94366856D01*
X96079043Y-94356305D01*
X96181092Y-94344045D01*
X96275004Y-94331419D01*
X96349878Y-94319771D01*
X96394817Y-94310444D01*
X96402511Y-94307232D01*
X96409158Y-94281390D01*
X96419530Y-94218425D01*
X96432332Y-94127123D01*
X96446270Y-94016268D01*
X96449722Y-93987025D01*
X96470581Y-93829197D01*
X96497808Y-93654220D01*
X96529097Y-93474675D01*
X96562142Y-93303143D01*
X96594635Y-93152204D01*
X96624270Y-93034439D01*
X96624564Y-93033402D01*
X96649100Y-92946940D01*
X96733093Y-92982034D01*
G37*
X96733093Y-92982034D02*
X96922548Y-93045457D01*
X97143755Y-93092500D01*
X97384457Y-93120783D01*
X97473756Y-93125923D01*
X97605704Y-93133132D01*
X97693537Y-93142078D01*
X97739301Y-93153040D01*
X97747001Y-93163439D01*
X97676965Y-93329956D01*
X97622776Y-93461556D01*
X97581656Y-93565583D01*
X97550825Y-93649379D01*
X97527506Y-93720287D01*
X97508920Y-93785649D01*
X97503263Y-93807609D01*
X97479978Y-93903279D01*
X97459441Y-93993360D01*
X97446203Y-94057797D01*
X97431132Y-94141366D01*
X97629362Y-94095836D01*
X97718500Y-94076395D01*
X97788607Y-94063055D01*
X97829078Y-94057747D01*
X97834758Y-94058448D01*
X97835637Y-94083838D01*
X97830377Y-94140765D01*
X97823420Y-94193591D01*
X97813479Y-94296126D01*
X97807596Y-94429302D01*
X97805799Y-94577756D01*
X97808117Y-94726122D01*
X97814580Y-94859037D01*
X97822029Y-94938273D01*
X97838615Y-95071046D01*
X97429998Y-95071046D01*
X97445534Y-95157637D01*
X97458758Y-95221785D01*
X97479328Y-95311089D01*
X97504130Y-95413150D01*
X97530046Y-95515569D01*
X97553960Y-95605948D01*
X97572756Y-95671887D01*
X97580844Y-95695995D01*
X97581882Y-95710959D01*
X97566329Y-95721224D01*
X97527446Y-95727677D01*
X97458491Y-95731206D01*
X97352726Y-95732695D01*
X97300147Y-95732914D01*
X97169853Y-95735214D01*
X97051803Y-95742470D01*
X96934420Y-95756344D01*
X96806122Y-95778498D01*
X96655331Y-95810591D01*
X96494278Y-95848510D01*
X96470806Y-95851252D01*
X96455386Y-95840174D01*
X96445280Y-95806935D01*
X96437752Y-95743198D01*
X96431151Y-95656182D01*
X96423663Y-95544041D01*
X96415031Y-95406500D01*
X96406533Y-95264278D01*
X96401758Y-95180374D01*
X96395018Y-95064948D01*
X96388585Y-94987491D01*
X96380303Y-94939855D01*
X96368018Y-94913894D01*
X96349576Y-94901459D01*
X96326339Y-94895189D01*
X96280298Y-94883369D01*
X96201636Y-94861662D01*
X96102003Y-94833329D01*
X96009328Y-94806416D01*
X95752657Y-94731156D01*
X95741609Y-95247714D01*
X95737934Y-95397409D01*
X95733747Y-95531081D01*
X95729335Y-95642004D01*
X95724983Y-95723451D01*
X95720974Y-95768695D01*
X95719247Y-95775586D01*
X95692038Y-95777941D01*
X95635064Y-95771459D01*
X95594421Y-95764204D01*
X95430689Y-95740420D01*
X95238763Y-95726811D01*
X95035549Y-95723616D01*
X94837955Y-95731074D01*
X94662886Y-95749424D01*
X94653314Y-95750901D01*
X94551213Y-95765836D01*
X94466954Y-95775967D01*
X94410311Y-95780262D01*
X94391258Y-95778637D01*
X94393639Y-95753261D01*
X94410159Y-95695801D01*
X94437591Y-95616966D01*
X94449431Y-95585637D01*
X94582660Y-95177434D01*
X94671122Y-94761430D01*
X94714561Y-94340642D01*
X94712723Y-93918085D01*
X94665351Y-93496776D01*
X94638438Y-93352462D01*
X94613816Y-93232846D01*
X94599150Y-93152220D01*
X94596049Y-93104149D01*
X94606124Y-93082203D01*
X94630983Y-93079948D01*
X94672236Y-93090952D01*
X94701591Y-93100050D01*
X94797301Y-93124541D01*
X94926226Y-93151035D01*
X95075584Y-93177422D01*
X95232591Y-93201592D01*
X95384463Y-93221436D01*
X95517988Y-93234808D01*
X95716703Y-93250455D01*
X95731579Y-93460025D01*
X95737049Y-93562042D01*
X95741613Y-93694725D01*
X95744863Y-93842563D01*
X95746390Y-93990042D01*
X95746455Y-94023957D01*
X95746455Y-94378318D01*
X95833046Y-94377451D01*
X95894121Y-94374352D01*
X95979753Y-94366856D01*
X96079043Y-94356305D01*
X96181092Y-94344045D01*
X96275004Y-94331419D01*
X96349878Y-94319771D01*
X96394817Y-94310444D01*
X96402511Y-94307232D01*
X96409158Y-94281390D01*
X96419530Y-94218425D01*
X96432332Y-94127123D01*
X96446270Y-94016268D01*
X96449722Y-93987025D01*
X96470581Y-93829197D01*
X96497808Y-93654220D01*
X96529097Y-93474675D01*
X96562142Y-93303143D01*
X96594635Y-93152204D01*
X96624270Y-93034439D01*
X96624564Y-93033402D01*
X96649100Y-92946940D01*
X96733093Y-92982034D01*
G36*
X81240570Y-92424025D02*
G01*
X81328821Y-92429422D01*
X81448913Y-92433924D01*
X81586508Y-92437126D01*
X81727270Y-92438622D01*
X81759318Y-92438682D01*
X81893394Y-92439231D01*
X81987527Y-92441311D01*
X82047951Y-92445573D01*
X82080895Y-92452666D01*
X82092592Y-92463240D01*
X82091377Y-92473318D01*
X82084994Y-92488913D01*
X82084397Y-92499189D01*
X82096404Y-92504128D01*
X82127835Y-92503707D01*
X82185510Y-92497908D01*
X82276247Y-92486710D01*
X82388364Y-92472437D01*
X82541428Y-92457576D01*
X82726962Y-92446730D01*
X82932654Y-92440001D01*
X83146190Y-92437486D01*
X83355256Y-92439286D01*
X83547541Y-92445500D01*
X83710731Y-92456228D01*
X83761095Y-92461341D01*
X83856007Y-92472937D01*
X83931893Y-92483558D01*
X83978275Y-92491665D01*
X83987484Y-92494560D01*
X83988450Y-92519414D01*
X83984755Y-92580442D01*
X83977117Y-92667951D01*
X83968314Y-92753587D01*
X83956489Y-92910334D01*
X83951026Y-93097371D01*
X83952264Y-93299202D01*
X83954579Y-93376980D01*
X83968219Y-93749551D01*
X83709382Y-93651430D01*
X83562887Y-93597646D01*
X83397465Y-93539882D01*
X83219341Y-93480040D01*
X83034741Y-93420020D01*
X82849889Y-93361724D01*
X82671010Y-93307052D01*
X82504331Y-93257905D01*
X82356074Y-93216186D01*
X82232467Y-93183793D01*
X82139734Y-93162630D01*
X82084100Y-93154596D01*
X82082409Y-93154574D01*
X82070845Y-93166240D01*
X82062575Y-93204616D01*
X82057200Y-93274667D01*
X82054325Y-93381356D01*
X82053546Y-93515412D01*
X82053546Y-93876324D01*
X82163227Y-93861341D01*
X82225609Y-93855050D01*
X82322643Y-93847928D01*
X82442825Y-93840707D01*
X82574652Y-93834116D01*
X82626776Y-93831873D01*
X82980643Y-93817390D01*
X82961594Y-93988172D01*
X82954726Y-94077205D01*
X82949683Y-94197394D01*
X82946906Y-94333733D01*
X82946831Y-94471217D01*
X82947019Y-94486626D01*
X82951492Y-94814297D01*
X82727655Y-94668617D01*
X82622364Y-94602054D01*
X82509534Y-94534033D01*
X82395941Y-94468249D01*
X82288364Y-94408396D01*
X82193580Y-94358166D01*
X82118366Y-94321253D01*
X82069500Y-94301352D01*
X82053639Y-94301280D01*
X82056384Y-94371482D01*
X82063576Y-94478771D01*
X82074366Y-94614360D01*
X82087907Y-94769459D01*
X82103347Y-94935279D01*
X82119837Y-95103032D01*
X82136530Y-95263928D01*
X82152574Y-95409179D01*
X82167120Y-95529996D01*
X82179320Y-95617589D01*
X82182906Y-95638919D01*
X82195870Y-95710337D01*
X81922662Y-95725872D01*
X81578742Y-95757885D01*
X81261930Y-95814241D01*
X81043647Y-95870965D01*
X80949019Y-95898848D01*
X80868030Y-95922653D01*
X80813276Y-95938679D01*
X80800864Y-95942277D01*
X80767129Y-95946977D01*
X80760455Y-95942823D01*
X80764778Y-95917197D01*
X80776559Y-95855492D01*
X80794014Y-95766877D01*
X80815358Y-95660522D01*
X80816017Y-95657267D01*
X80932777Y-94978855D01*
X81012388Y-94284519D01*
X81048977Y-93708682D01*
X81054919Y-93566991D01*
X81061627Y-93416985D01*
X81068242Y-93277335D01*
X81073497Y-93174329D01*
X81085496Y-92951703D01*
X80888339Y-92923717D01*
X80799769Y-92910315D01*
X80731812Y-92898455D01*
X80694911Y-92890026D01*
X80691182Y-92888002D01*
X80711559Y-92877969D01*
X80766157Y-92857552D01*
X80845174Y-92830324D01*
X80890130Y-92815484D01*
X81089078Y-92750693D01*
X81078125Y-92580030D01*
X81067173Y-92409367D01*
X81240570Y-92424025D01*
G37*
X81240570Y-92424025D02*
X81328821Y-92429422D01*
X81448913Y-92433924D01*
X81586508Y-92437126D01*
X81727270Y-92438622D01*
X81759318Y-92438682D01*
X81893394Y-92439231D01*
X81987527Y-92441311D01*
X82047951Y-92445573D01*
X82080895Y-92452666D01*
X82092592Y-92463240D01*
X82091377Y-92473318D01*
X82084994Y-92488913D01*
X82084397Y-92499189D01*
X82096404Y-92504128D01*
X82127835Y-92503707D01*
X82185510Y-92497908D01*
X82276247Y-92486710D01*
X82388364Y-92472437D01*
X82541428Y-92457576D01*
X82726962Y-92446730D01*
X82932654Y-92440001D01*
X83146190Y-92437486D01*
X83355256Y-92439286D01*
X83547541Y-92445500D01*
X83710731Y-92456228D01*
X83761095Y-92461341D01*
X83856007Y-92472937D01*
X83931893Y-92483558D01*
X83978275Y-92491665D01*
X83987484Y-92494560D01*
X83988450Y-92519414D01*
X83984755Y-92580442D01*
X83977117Y-92667951D01*
X83968314Y-92753587D01*
X83956489Y-92910334D01*
X83951026Y-93097371D01*
X83952264Y-93299202D01*
X83954579Y-93376980D01*
X83968219Y-93749551D01*
X83709382Y-93651430D01*
X83562887Y-93597646D01*
X83397465Y-93539882D01*
X83219341Y-93480040D01*
X83034741Y-93420020D01*
X82849889Y-93361724D01*
X82671010Y-93307052D01*
X82504331Y-93257905D01*
X82356074Y-93216186D01*
X82232467Y-93183793D01*
X82139734Y-93162630D01*
X82084100Y-93154596D01*
X82082409Y-93154574D01*
X82070845Y-93166240D01*
X82062575Y-93204616D01*
X82057200Y-93274667D01*
X82054325Y-93381356D01*
X82053546Y-93515412D01*
X82053546Y-93876324D01*
X82163227Y-93861341D01*
X82225609Y-93855050D01*
X82322643Y-93847928D01*
X82442825Y-93840707D01*
X82574652Y-93834116D01*
X82626776Y-93831873D01*
X82980643Y-93817390D01*
X82961594Y-93988172D01*
X82954726Y-94077205D01*
X82949683Y-94197394D01*
X82946906Y-94333733D01*
X82946831Y-94471217D01*
X82947019Y-94486626D01*
X82951492Y-94814297D01*
X82727655Y-94668617D01*
X82622364Y-94602054D01*
X82509534Y-94534033D01*
X82395941Y-94468249D01*
X82288364Y-94408396D01*
X82193580Y-94358166D01*
X82118366Y-94321253D01*
X82069500Y-94301352D01*
X82053639Y-94301280D01*
X82056384Y-94371482D01*
X82063576Y-94478771D01*
X82074366Y-94614360D01*
X82087907Y-94769459D01*
X82103347Y-94935279D01*
X82119837Y-95103032D01*
X82136530Y-95263928D01*
X82152574Y-95409179D01*
X82167120Y-95529996D01*
X82179320Y-95617589D01*
X82182906Y-95638919D01*
X82195870Y-95710337D01*
X81922662Y-95725872D01*
X81578742Y-95757885D01*
X81261930Y-95814241D01*
X81043647Y-95870965D01*
X80949019Y-95898848D01*
X80868030Y-95922653D01*
X80813276Y-95938679D01*
X80800864Y-95942277D01*
X80767129Y-95946977D01*
X80760455Y-95942823D01*
X80764778Y-95917197D01*
X80776559Y-95855492D01*
X80794014Y-95766877D01*
X80815358Y-95660522D01*
X80816017Y-95657267D01*
X80932777Y-94978855D01*
X81012388Y-94284519D01*
X81048977Y-93708682D01*
X81054919Y-93566991D01*
X81061627Y-93416985D01*
X81068242Y-93277335D01*
X81073497Y-93174329D01*
X81085496Y-92951703D01*
X80888339Y-92923717D01*
X80799769Y-92910315D01*
X80731812Y-92898455D01*
X80694911Y-92890026D01*
X80691182Y-92888002D01*
X80711559Y-92877969D01*
X80766157Y-92857552D01*
X80845174Y-92830324D01*
X80890130Y-92815484D01*
X81089078Y-92750693D01*
X81078125Y-92580030D01*
X81067173Y-92409367D01*
X81240570Y-92424025D01*
G36*
X94023894Y-93026009D02*
G01*
X93969836Y-93177478D01*
X93930115Y-93357458D01*
X93907353Y-93549789D01*
X93904173Y-93738311D01*
X93905119Y-93757909D01*
X93916164Y-93957227D01*
X93728718Y-93888480D01*
X93520500Y-93818407D01*
X93322146Y-93766239D01*
X93120002Y-93729526D01*
X92900413Y-93705816D01*
X92649725Y-93692659D01*
X92635087Y-93692203D01*
X92213810Y-93679460D01*
X92238822Y-93751209D01*
X92272648Y-93818671D01*
X92327165Y-93877518D01*
X92408323Y-93931559D01*
X92522069Y-93984608D01*
X92674354Y-94040476D01*
X92707460Y-94051502D01*
X92978768Y-94151425D01*
X93224528Y-94263471D01*
X93439593Y-94384736D01*
X93618815Y-94512315D01*
X93757045Y-94643303D01*
X93757950Y-94644332D01*
X93803808Y-94692226D01*
X93838683Y-94720976D01*
X93847685Y-94724682D01*
X93872980Y-94710313D01*
X93922411Y-94672303D01*
X93986144Y-94618303D01*
X93998493Y-94607370D01*
X94071508Y-94546147D01*
X94119056Y-94519377D01*
X94145076Y-94529619D01*
X94153508Y-94579433D01*
X94148291Y-94671379D01*
X94145169Y-94702656D01*
X94100023Y-94919073D01*
X94012747Y-95120347D01*
X93885597Y-95304079D01*
X93720833Y-95467874D01*
X93520711Y-95609332D01*
X93287489Y-95726056D01*
X93125564Y-95785497D01*
X92925973Y-95839561D01*
X92722743Y-95872852D01*
X92504039Y-95886497D01*
X92258028Y-95881623D01*
X92171679Y-95876341D01*
X91924007Y-95866520D01*
X91712693Y-95873837D01*
X91540055Y-95898115D01*
X91419010Y-95934589D01*
X91340848Y-95967247D01*
X91245619Y-95697180D01*
X91197180Y-95568886D01*
X91135338Y-95418232D01*
X91067985Y-95263837D01*
X91003009Y-95124322D01*
X91001918Y-95122079D01*
X90950165Y-95014975D01*
X90907082Y-94924315D01*
X90876048Y-94857334D01*
X90860444Y-94821265D01*
X90859372Y-94817046D01*
X90881905Y-94825095D01*
X90937495Y-94846701D01*
X91016409Y-94878051D01*
X91065642Y-94897831D01*
X91444418Y-95025915D01*
X91839942Y-95112073D01*
X92248091Y-95155577D01*
X92549270Y-95160039D01*
X92672954Y-95155999D01*
X92780308Y-95150271D01*
X92862844Y-95143481D01*
X92912074Y-95136255D01*
X92921668Y-95132558D01*
X92919236Y-95106813D01*
X92887483Y-95070038D01*
X92883252Y-95066512D01*
X92783233Y-95000177D01*
X92645680Y-94933609D01*
X92467912Y-94865687D01*
X92247253Y-94795291D01*
X92205282Y-94782997D01*
X92072147Y-94743732D01*
X91943599Y-94704561D01*
X91831194Y-94669090D01*
X91746482Y-94640929D01*
X91720471Y-94631600D01*
X91602363Y-94575905D01*
X91482079Y-94499935D01*
X91376186Y-94415211D01*
X91311730Y-94347312D01*
X91270674Y-94281946D01*
X91229780Y-94196063D01*
X91196096Y-94107051D01*
X91176669Y-94032301D01*
X91174455Y-94008616D01*
X91167992Y-93976616D01*
X91143944Y-93965949D01*
X91095323Y-93977095D01*
X91015140Y-94010533D01*
X90992144Y-94021127D01*
X90924790Y-94050689D01*
X90876441Y-94068546D01*
X90859599Y-94071160D01*
X90864727Y-94048026D01*
X90886079Y-93995909D01*
X90913323Y-93937895D01*
X90972397Y-93843501D01*
X91060263Y-93734849D01*
X91166650Y-93622323D01*
X91281291Y-93516302D01*
X91393916Y-93427170D01*
X91463091Y-93382093D01*
X91730464Y-93249356D01*
X92030068Y-93141222D01*
X92353366Y-93060597D01*
X92467546Y-93039906D01*
X92539679Y-93030711D01*
X92647249Y-93020407D01*
X92779554Y-93009857D01*
X92925892Y-92999923D01*
X93056364Y-92992449D01*
X93289415Y-92978956D01*
X93505133Y-92963762D01*
X93696791Y-92947454D01*
X93857668Y-92930622D01*
X93981037Y-92913853D01*
X94008753Y-92909102D01*
X94083688Y-92895402D01*
X94023894Y-93026009D01*
G37*
X94023894Y-93026009D02*
X93969836Y-93177478D01*
X93930115Y-93357458D01*
X93907353Y-93549789D01*
X93904173Y-93738311D01*
X93905119Y-93757909D01*
X93916164Y-93957227D01*
X93728718Y-93888480D01*
X93520500Y-93818407D01*
X93322146Y-93766239D01*
X93120002Y-93729526D01*
X92900413Y-93705816D01*
X92649725Y-93692659D01*
X92635087Y-93692203D01*
X92213810Y-93679460D01*
X92238822Y-93751209D01*
X92272648Y-93818671D01*
X92327165Y-93877518D01*
X92408323Y-93931559D01*
X92522069Y-93984608D01*
X92674354Y-94040476D01*
X92707460Y-94051502D01*
X92978768Y-94151425D01*
X93224528Y-94263471D01*
X93439593Y-94384736D01*
X93618815Y-94512315D01*
X93757045Y-94643303D01*
X93757950Y-94644332D01*
X93803808Y-94692226D01*
X93838683Y-94720976D01*
X93847685Y-94724682D01*
X93872980Y-94710313D01*
X93922411Y-94672303D01*
X93986144Y-94618303D01*
X93998493Y-94607370D01*
X94071508Y-94546147D01*
X94119056Y-94519377D01*
X94145076Y-94529619D01*
X94153508Y-94579433D01*
X94148291Y-94671379D01*
X94145169Y-94702656D01*
X94100023Y-94919073D01*
X94012747Y-95120347D01*
X93885597Y-95304079D01*
X93720833Y-95467874D01*
X93520711Y-95609332D01*
X93287489Y-95726056D01*
X93125564Y-95785497D01*
X92925973Y-95839561D01*
X92722743Y-95872852D01*
X92504039Y-95886497D01*
X92258028Y-95881623D01*
X92171679Y-95876341D01*
X91924007Y-95866520D01*
X91712693Y-95873837D01*
X91540055Y-95898115D01*
X91419010Y-95934589D01*
X91340848Y-95967247D01*
X91245619Y-95697180D01*
X91197180Y-95568886D01*
X91135338Y-95418232D01*
X91067985Y-95263837D01*
X91003009Y-95124322D01*
X91001918Y-95122079D01*
X90950165Y-95014975D01*
X90907082Y-94924315D01*
X90876048Y-94857334D01*
X90860444Y-94821265D01*
X90859372Y-94817046D01*
X90881905Y-94825095D01*
X90937495Y-94846701D01*
X91016409Y-94878051D01*
X91065642Y-94897831D01*
X91444418Y-95025915D01*
X91839942Y-95112073D01*
X92248091Y-95155577D01*
X92549270Y-95160039D01*
X92672954Y-95155999D01*
X92780308Y-95150271D01*
X92862844Y-95143481D01*
X92912074Y-95136255D01*
X92921668Y-95132558D01*
X92919236Y-95106813D01*
X92887483Y-95070038D01*
X92883252Y-95066512D01*
X92783233Y-95000177D01*
X92645680Y-94933609D01*
X92467912Y-94865687D01*
X92247253Y-94795291D01*
X92205282Y-94782997D01*
X92072147Y-94743732D01*
X91943599Y-94704561D01*
X91831194Y-94669090D01*
X91746482Y-94640929D01*
X91720471Y-94631600D01*
X91602363Y-94575905D01*
X91482079Y-94499935D01*
X91376186Y-94415211D01*
X91311730Y-94347312D01*
X91270674Y-94281946D01*
X91229780Y-94196063D01*
X91196096Y-94107051D01*
X91176669Y-94032301D01*
X91174455Y-94008616D01*
X91167992Y-93976616D01*
X91143944Y-93965949D01*
X91095323Y-93977095D01*
X91015140Y-94010533D01*
X90992144Y-94021127D01*
X90924790Y-94050689D01*
X90876441Y-94068546D01*
X90859599Y-94071160D01*
X90864727Y-94048026D01*
X90886079Y-93995909D01*
X90913323Y-93937895D01*
X90972397Y-93843501D01*
X91060263Y-93734849D01*
X91166650Y-93622323D01*
X91281291Y-93516302D01*
X91393916Y-93427170D01*
X91463091Y-93382093D01*
X91730464Y-93249356D01*
X92030068Y-93141222D01*
X92353366Y-93060597D01*
X92467546Y-93039906D01*
X92539679Y-93030711D01*
X92647249Y-93020407D01*
X92779554Y-93009857D01*
X92925892Y-92999923D01*
X93056364Y-92992449D01*
X93289415Y-92978956D01*
X93505133Y-92963762D01*
X93696791Y-92947454D01*
X93857668Y-92930622D01*
X93981037Y-92913853D01*
X94008753Y-92909102D01*
X94083688Y-92895402D01*
X94023894Y-93026009D01*
G36*
X89194306Y-92918948D02*
G01*
X89171806Y-92967761D01*
X89135690Y-93037140D01*
X89127740Y-93051707D01*
X89089218Y-93125661D01*
X89063416Y-93182837D01*
X89055092Y-93212508D01*
X89055743Y-93214031D01*
X89081964Y-93215763D01*
X89143078Y-93211185D01*
X89228369Y-93201249D01*
X89279187Y-93194211D01*
X89372271Y-93182047D01*
X89446217Y-93175026D01*
X89490578Y-93174004D01*
X89498530Y-93176205D01*
X89507694Y-93202000D01*
X89527638Y-93263058D01*
X89555511Y-93350519D01*
X89588464Y-93455522D01*
X89591798Y-93466228D01*
X89633983Y-93597869D01*
X89680278Y-93735819D01*
X89728122Y-93873147D01*
X89774954Y-94002919D01*
X89818214Y-94118203D01*
X89855342Y-94212068D01*
X89883776Y-94277581D01*
X89900957Y-94307811D01*
X89903112Y-94309046D01*
X89928162Y-94297662D01*
X89982795Y-94267129D01*
X90057494Y-94222868D01*
X90101456Y-94196014D01*
X90284667Y-94082982D01*
X90359609Y-94294150D01*
X90405517Y-94415055D01*
X90460084Y-94546393D01*
X90513119Y-94663866D01*
X90524419Y-94687158D01*
X90614287Y-94868998D01*
X90438326Y-94949753D01*
X90357078Y-94987391D01*
X90293738Y-95017395D01*
X90258593Y-95034867D01*
X90254871Y-95037102D01*
X90262661Y-95058626D01*
X90290797Y-95110718D01*
X90334329Y-95185307D01*
X90388307Y-95274324D01*
X90447782Y-95369699D01*
X90507803Y-95463362D01*
X90563421Y-95547242D01*
X90600516Y-95600622D01*
X90692657Y-95729137D01*
X90432531Y-95756699D01*
X90063474Y-95812335D01*
X89726511Y-95897420D01*
X89442636Y-96003047D01*
X89426886Y-96003920D01*
X89416651Y-95985127D01*
X89410799Y-95939485D01*
X89408200Y-95859813D01*
X89407712Y-95781351D01*
X89404523Y-95663600D01*
X89396223Y-95546717D01*
X89384301Y-95448915D01*
X89377630Y-95413656D01*
X89347837Y-95282903D01*
X89008464Y-95283380D01*
X88822327Y-95280703D01*
X88671012Y-95271318D01*
X88543492Y-95254064D01*
X88428742Y-95227781D01*
X88399567Y-95219303D01*
X88380913Y-95222844D01*
X88362745Y-95248162D01*
X88343794Y-95299761D01*
X88322788Y-95382143D01*
X88298457Y-95499813D01*
X88269531Y-95657273D01*
X88258958Y-95717591D01*
X88239970Y-95811485D01*
X88221743Y-95865393D01*
X88201961Y-95885407D01*
X88194978Y-95885657D01*
X88158929Y-95876051D01*
X88091432Y-95854731D01*
X88004512Y-95825559D01*
X87964428Y-95811656D01*
X87682808Y-95734093D01*
X87406051Y-95701367D01*
X87129168Y-95713195D01*
X86914182Y-95752143D01*
X86816005Y-95774544D01*
X86756421Y-95784721D01*
X86729489Y-95782685D01*
X86729271Y-95768450D01*
X86740773Y-95752501D01*
X86753640Y-95734206D01*
X86753517Y-95720346D01*
X86734555Y-95709507D01*
X86690908Y-95700278D01*
X86616730Y-95691247D01*
X86506173Y-95681001D01*
X86411518Y-95672977D01*
X86167059Y-95657719D01*
X85893852Y-95649642D01*
X85602268Y-95648431D01*
X85302676Y-95653768D01*
X85005444Y-95665340D01*
X84720943Y-95682829D01*
X84459542Y-95705920D01*
X84231611Y-95734298D01*
X84190808Y-95740604D01*
X84116949Y-95751024D01*
X84063999Y-95755792D01*
X84045499Y-95754515D01*
X84060011Y-95739499D01*
X84105648Y-95705739D01*
X84174385Y-95658986D01*
X84222822Y-95627445D01*
X84324355Y-95557223D01*
X84391217Y-95499604D01*
X84419734Y-95457763D01*
X84419873Y-95457178D01*
X84446912Y-95305856D01*
X84468724Y-95120151D01*
X84484801Y-94911623D01*
X84494635Y-94691828D01*
X84497719Y-94472325D01*
X84493544Y-94264671D01*
X84481603Y-94080426D01*
X84480756Y-94071655D01*
X84460510Y-93895384D01*
X84432714Y-93693945D01*
X84400375Y-93487127D01*
X84366503Y-93294719D01*
X84349185Y-93206455D01*
X84333773Y-93131409D01*
X84607977Y-93130959D01*
X84721540Y-93129350D01*
X84833466Y-93124330D01*
X84952914Y-93115028D01*
X85089042Y-93100575D01*
X85251009Y-93080101D01*
X85447971Y-93052735D01*
X85480488Y-93048070D01*
X85593885Y-93031750D01*
X85578097Y-93387534D01*
X85545565Y-93862508D01*
X85491557Y-94317779D01*
X85423558Y-94711753D01*
X85400786Y-94827667D01*
X85382632Y-94926357D01*
X85370521Y-94999552D01*
X85365881Y-95038980D01*
X85366382Y-95043398D01*
X85390234Y-95039985D01*
X85448845Y-95024541D01*
X85533152Y-94999614D01*
X85624829Y-94970749D01*
X85762937Y-94928438D01*
X85919725Y-94884223D01*
X86087234Y-94839975D01*
X86257506Y-94797563D01*
X86422583Y-94758860D01*
X86574506Y-94725736D01*
X86705316Y-94700061D01*
X86807056Y-94683706D01*
X86868077Y-94678500D01*
X86881901Y-94686635D01*
X86890886Y-94715512D01*
X86895696Y-94771840D01*
X86896991Y-94862328D01*
X86895981Y-94961364D01*
X86896044Y-95125922D01*
X86901389Y-95266881D01*
X86911472Y-95379364D01*
X86925753Y-95458491D01*
X86943688Y-95499383D01*
X86956224Y-95503456D01*
X86984291Y-95480655D01*
X87033865Y-95427102D01*
X87099528Y-95349566D01*
X87175860Y-95254816D01*
X87257444Y-95149621D01*
X87338860Y-95040749D01*
X87414690Y-94934971D01*
X87436294Y-94903753D01*
X87574651Y-94701823D01*
X87539749Y-94650804D01*
X88509607Y-94650804D01*
X88510639Y-94660562D01*
X88538627Y-94669032D01*
X88601729Y-94672568D01*
X88689187Y-94671589D01*
X88790245Y-94666517D01*
X88894146Y-94657770D01*
X88990133Y-94645769D01*
X89021227Y-94640634D01*
X89072039Y-94627566D01*
X89095653Y-94613682D01*
X89095871Y-94612430D01*
X89085167Y-94582603D01*
X89056737Y-94522700D01*
X89015121Y-94441037D01*
X88964859Y-94345928D01*
X88910489Y-94245688D01*
X88856553Y-94148630D01*
X88807589Y-94063069D01*
X88768137Y-93997320D01*
X88742738Y-93959696D01*
X88736363Y-93954008D01*
X88721455Y-93975980D01*
X88697125Y-94033259D01*
X88666308Y-94116654D01*
X88631940Y-94216976D01*
X88596958Y-94325032D01*
X88564297Y-94431634D01*
X88536895Y-94527590D01*
X88517686Y-94603710D01*
X88509607Y-94650804D01*
X87539749Y-94650804D01*
X87507436Y-94603571D01*
X87460330Y-94530794D01*
X87416369Y-94456321D01*
X87382407Y-94392486D01*
X87365297Y-94351620D01*
X87364455Y-94346277D01*
X87383609Y-94349474D01*
X87434100Y-94368363D01*
X87505471Y-94398991D01*
X87514038Y-94402857D01*
X87590876Y-94436442D01*
X87651654Y-94460698D01*
X87683855Y-94470649D01*
X87684589Y-94470682D01*
X87705094Y-94452099D01*
X87741506Y-94402585D01*
X87787149Y-94331494D01*
X87804053Y-94303273D01*
X87865221Y-94202815D01*
X87939233Y-94086315D01*
X88012269Y-93975436D01*
X88028211Y-93951929D01*
X88086149Y-93865699D01*
X88121378Y-93806793D01*
X88137847Y-93764823D01*
X88139504Y-93729404D01*
X88130300Y-93690147D01*
X88129169Y-93686383D01*
X88107817Y-93635023D01*
X88067849Y-93555232D01*
X88014952Y-93457849D01*
X87954810Y-93353715D01*
X87953824Y-93352059D01*
X87897192Y-93256769D01*
X87850280Y-93177287D01*
X87817539Y-93121196D01*
X87803419Y-93096078D01*
X87803182Y-93095462D01*
X87823840Y-93098607D01*
X87878728Y-93110401D01*
X87957213Y-93128529D01*
X87982136Y-93134464D01*
X88086832Y-93156313D01*
X88216145Y-93178629D01*
X88348688Y-93197861D01*
X88405245Y-93204737D01*
X88649400Y-93232125D01*
X88843973Y-93103654D01*
X88964213Y-93026219D01*
X89066025Y-92964524D01*
X89143586Y-92921904D01*
X89191073Y-92901694D01*
X89198598Y-92900500D01*
X89194306Y-92918948D01*
G37*
X89194306Y-92918948D02*
X89171806Y-92967761D01*
X89135690Y-93037140D01*
X89127740Y-93051707D01*
X89089218Y-93125661D01*
X89063416Y-93182837D01*
X89055092Y-93212508D01*
X89055743Y-93214031D01*
X89081964Y-93215763D01*
X89143078Y-93211185D01*
X89228369Y-93201249D01*
X89279187Y-93194211D01*
X89372271Y-93182047D01*
X89446217Y-93175026D01*
X89490578Y-93174004D01*
X89498530Y-93176205D01*
X89507694Y-93202000D01*
X89527638Y-93263058D01*
X89555511Y-93350519D01*
X89588464Y-93455522D01*
X89591798Y-93466228D01*
X89633983Y-93597869D01*
X89680278Y-93735819D01*
X89728122Y-93873147D01*
X89774954Y-94002919D01*
X89818214Y-94118203D01*
X89855342Y-94212068D01*
X89883776Y-94277581D01*
X89900957Y-94307811D01*
X89903112Y-94309046D01*
X89928162Y-94297662D01*
X89982795Y-94267129D01*
X90057494Y-94222868D01*
X90101456Y-94196014D01*
X90284667Y-94082982D01*
X90359609Y-94294150D01*
X90405517Y-94415055D01*
X90460084Y-94546393D01*
X90513119Y-94663866D01*
X90524419Y-94687158D01*
X90614287Y-94868998D01*
X90438326Y-94949753D01*
X90357078Y-94987391D01*
X90293738Y-95017395D01*
X90258593Y-95034867D01*
X90254871Y-95037102D01*
X90262661Y-95058626D01*
X90290797Y-95110718D01*
X90334329Y-95185307D01*
X90388307Y-95274324D01*
X90447782Y-95369699D01*
X90507803Y-95463362D01*
X90563421Y-95547242D01*
X90600516Y-95600622D01*
X90692657Y-95729137D01*
X90432531Y-95756699D01*
X90063474Y-95812335D01*
X89726511Y-95897420D01*
X89442636Y-96003047D01*
X89426886Y-96003920D01*
X89416651Y-95985127D01*
X89410799Y-95939485D01*
X89408200Y-95859813D01*
X89407712Y-95781351D01*
X89404523Y-95663600D01*
X89396223Y-95546717D01*
X89384301Y-95448915D01*
X89377630Y-95413656D01*
X89347837Y-95282903D01*
X89008464Y-95283380D01*
X88822327Y-95280703D01*
X88671012Y-95271318D01*
X88543492Y-95254064D01*
X88428742Y-95227781D01*
X88399567Y-95219303D01*
X88380913Y-95222844D01*
X88362745Y-95248162D01*
X88343794Y-95299761D01*
X88322788Y-95382143D01*
X88298457Y-95499813D01*
X88269531Y-95657273D01*
X88258958Y-95717591D01*
X88239970Y-95811485D01*
X88221743Y-95865393D01*
X88201961Y-95885407D01*
X88194978Y-95885657D01*
X88158929Y-95876051D01*
X88091432Y-95854731D01*
X88004512Y-95825559D01*
X87964428Y-95811656D01*
X87682808Y-95734093D01*
X87406051Y-95701367D01*
X87129168Y-95713195D01*
X86914182Y-95752143D01*
X86816005Y-95774544D01*
X86756421Y-95784721D01*
X86729489Y-95782685D01*
X86729271Y-95768450D01*
X86740773Y-95752501D01*
X86753640Y-95734206D01*
X86753517Y-95720346D01*
X86734555Y-95709507D01*
X86690908Y-95700278D01*
X86616730Y-95691247D01*
X86506173Y-95681001D01*
X86411518Y-95672977D01*
X86167059Y-95657719D01*
X85893852Y-95649642D01*
X85602268Y-95648431D01*
X85302676Y-95653768D01*
X85005444Y-95665340D01*
X84720943Y-95682829D01*
X84459542Y-95705920D01*
X84231611Y-95734298D01*
X84190808Y-95740604D01*
X84116949Y-95751024D01*
X84063999Y-95755792D01*
X84045499Y-95754515D01*
X84060011Y-95739499D01*
X84105648Y-95705739D01*
X84174385Y-95658986D01*
X84222822Y-95627445D01*
X84324355Y-95557223D01*
X84391217Y-95499604D01*
X84419734Y-95457763D01*
X84419873Y-95457178D01*
X84446912Y-95305856D01*
X84468724Y-95120151D01*
X84484801Y-94911623D01*
X84494635Y-94691828D01*
X84497719Y-94472325D01*
X84493544Y-94264671D01*
X84481603Y-94080426D01*
X84480756Y-94071655D01*
X84460510Y-93895384D01*
X84432714Y-93693945D01*
X84400375Y-93487127D01*
X84366503Y-93294719D01*
X84349185Y-93206455D01*
X84333773Y-93131409D01*
X84607977Y-93130959D01*
X84721540Y-93129350D01*
X84833466Y-93124330D01*
X84952914Y-93115028D01*
X85089042Y-93100575D01*
X85251009Y-93080101D01*
X85447971Y-93052735D01*
X85480488Y-93048070D01*
X85593885Y-93031750D01*
X85578097Y-93387534D01*
X85545565Y-93862508D01*
X85491557Y-94317779D01*
X85423558Y-94711753D01*
X85400786Y-94827667D01*
X85382632Y-94926357D01*
X85370521Y-94999552D01*
X85365881Y-95038980D01*
X85366382Y-95043398D01*
X85390234Y-95039985D01*
X85448845Y-95024541D01*
X85533152Y-94999614D01*
X85624829Y-94970749D01*
X85762937Y-94928438D01*
X85919725Y-94884223D01*
X86087234Y-94839975D01*
X86257506Y-94797563D01*
X86422583Y-94758860D01*
X86574506Y-94725736D01*
X86705316Y-94700061D01*
X86807056Y-94683706D01*
X86868077Y-94678500D01*
X86881901Y-94686635D01*
X86890886Y-94715512D01*
X86895696Y-94771840D01*
X86896991Y-94862328D01*
X86895981Y-94961364D01*
X86896044Y-95125922D01*
X86901389Y-95266881D01*
X86911472Y-95379364D01*
X86925753Y-95458491D01*
X86943688Y-95499383D01*
X86956224Y-95503456D01*
X86984291Y-95480655D01*
X87033865Y-95427102D01*
X87099528Y-95349566D01*
X87175860Y-95254816D01*
X87257444Y-95149621D01*
X87338860Y-95040749D01*
X87414690Y-94934971D01*
X87436294Y-94903753D01*
X87574651Y-94701823D01*
X87539749Y-94650804D01*
X88509607Y-94650804D01*
X88510639Y-94660562D01*
X88538627Y-94669032D01*
X88601729Y-94672568D01*
X88689187Y-94671589D01*
X88790245Y-94666517D01*
X88894146Y-94657770D01*
X88990133Y-94645769D01*
X89021227Y-94640634D01*
X89072039Y-94627566D01*
X89095653Y-94613682D01*
X89095871Y-94612430D01*
X89085167Y-94582603D01*
X89056737Y-94522700D01*
X89015121Y-94441037D01*
X88964859Y-94345928D01*
X88910489Y-94245688D01*
X88856553Y-94148630D01*
X88807589Y-94063069D01*
X88768137Y-93997320D01*
X88742738Y-93959696D01*
X88736363Y-93954008D01*
X88721455Y-93975980D01*
X88697125Y-94033259D01*
X88666308Y-94116654D01*
X88631940Y-94216976D01*
X88596958Y-94325032D01*
X88564297Y-94431634D01*
X88536895Y-94527590D01*
X88517686Y-94603710D01*
X88509607Y-94650804D01*
X87539749Y-94650804D01*
X87507436Y-94603571D01*
X87460330Y-94530794D01*
X87416369Y-94456321D01*
X87382407Y-94392486D01*
X87365297Y-94351620D01*
X87364455Y-94346277D01*
X87383609Y-94349474D01*
X87434100Y-94368363D01*
X87505471Y-94398991D01*
X87514038Y-94402857D01*
X87590876Y-94436442D01*
X87651654Y-94460698D01*
X87683855Y-94470649D01*
X87684589Y-94470682D01*
X87705094Y-94452099D01*
X87741506Y-94402585D01*
X87787149Y-94331494D01*
X87804053Y-94303273D01*
X87865221Y-94202815D01*
X87939233Y-94086315D01*
X88012269Y-93975436D01*
X88028211Y-93951929D01*
X88086149Y-93865699D01*
X88121378Y-93806793D01*
X88137847Y-93764823D01*
X88139504Y-93729404D01*
X88130300Y-93690147D01*
X88129169Y-93686383D01*
X88107817Y-93635023D01*
X88067849Y-93555232D01*
X88014952Y-93457849D01*
X87954810Y-93353715D01*
X87953824Y-93352059D01*
X87897192Y-93256769D01*
X87850280Y-93177287D01*
X87817539Y-93121196D01*
X87803419Y-93096078D01*
X87803182Y-93095462D01*
X87823840Y-93098607D01*
X87878728Y-93110401D01*
X87957213Y-93128529D01*
X87982136Y-93134464D01*
X88086832Y-93156313D01*
X88216145Y-93178629D01*
X88348688Y-93197861D01*
X88405245Y-93204737D01*
X88649400Y-93232125D01*
X88843973Y-93103654D01*
X88964213Y-93026219D01*
X89066025Y-92964524D01*
X89143586Y-92921904D01*
X89191073Y-92901694D01*
X89198598Y-92900500D01*
X89194306Y-92918948D01*
D14*
X110522500Y-97061500D02*
X110522500Y-95721500D01*
X111472500Y-97061500D02*
X110522500Y-97061500D01*
X111472500Y-98011500D02*
X111472500Y-97061500D01*
X111472500Y-107281500D02*
X110522500Y-107281500D01*
X111472500Y-106331500D02*
X111472500Y-107281500D01*
X101252500Y-97061500D02*
X102202500Y-97061500D01*
X101252500Y-98011500D02*
X101252500Y-97061500D01*
X101252500Y-107281500D02*
X102202500Y-107281500D01*
X101252500Y-106331500D02*
X101252500Y-107281500D01*
D10*
X130463800Y-87645800D02*
X130463800Y-88345800D01*
X130463800Y-88345800D02*
X130963800Y-88345800D01*
X134364000Y-82668000D02*
X132564000Y-82668000D01*
X132564000Y-82668000D02*
X132564000Y-83268000D01*
X134164000Y-90268000D02*
X132564000Y-90268000D01*
X132564000Y-90268000D02*
X132564000Y-89668000D01*
X96384000Y-80148500D02*
X93384000Y-80148500D01*
X96834000Y-79248500D02*
X96834000Y-79548500D01*
X97134000Y-79248500D02*
X96834000Y-79248500D01*
X97134000Y-79548500D02*
X97134000Y-79248500D01*
X96834000Y-79548500D02*
X97134000Y-79548500D01*
X91834000Y-79148500D02*
X91834000Y-71948500D01*
X91834000Y-66148500D02*
X91834000Y-69148500D01*
X94534000Y-66148500D02*
X91834000Y-66148500D01*
X106534000Y-69148500D02*
X106534000Y-66848500D01*
X106534000Y-71948500D02*
X106534000Y-79148500D01*
X96384000Y-80148500D02*
X96384000Y-81448500D01*
X95584000Y-66448500D02*
X94534000Y-66148500D01*
X96684000Y-66648500D02*
X95584000Y-66448500D01*
X97834000Y-66798500D02*
X96684000Y-66648500D01*
X99184000Y-66848500D02*
X97834000Y-66798500D01*
X106534000Y-66848500D02*
X99184000Y-66848500D01*
D14*
X117290000Y-87354000D02*
X111540000Y-87354000D01*
X117290000Y-90954000D02*
X117290000Y-87354000D01*
X111540000Y-90954000D02*
X117290000Y-90954000D01*
X88676267Y-83500500D02*
X88333733Y-83500500D01*
X88676267Y-84520500D02*
X88333733Y-84520500D01*
X113416233Y-80647000D02*
X113758767Y-80647000D01*
X113416233Y-79627000D02*
X113758767Y-79627000D01*
X86356000Y-73366500D02*
X86356000Y-71866500D01*
X85106000Y-69366500D02*
X80606000Y-69366500D01*
X79356000Y-71866500D02*
X79356000Y-73366500D01*
X80606000Y-75866500D02*
X85106000Y-75866500D01*
X119081500Y-73366500D02*
X119081500Y-71866500D01*
X117831500Y-69366500D02*
X113331500Y-69366500D01*
X112081500Y-71866500D02*
X112081500Y-73366500D01*
X113331500Y-75866500D02*
X117831500Y-75866500D01*
X130425000Y-73358000D02*
X130425000Y-71858000D01*
X129175000Y-69358000D02*
X124675000Y-69358000D01*
X123425000Y-71858000D02*
X123425000Y-73358000D01*
X124675000Y-75858000D02*
X129175000Y-75858000D01*
X94673267Y-83500500D02*
X94330733Y-83500500D01*
X94673267Y-84520500D02*
X94330733Y-84520500D01*
X91438000Y-105605733D02*
X91438000Y-105948267D01*
X92458000Y-105605733D02*
X92458000Y-105948267D01*
X96500767Y-98931000D02*
X96158233Y-98931000D01*
X96500767Y-99951000D02*
X96158233Y-99951000D01*
X96835500Y-108717233D02*
X96835500Y-109059767D01*
X97855500Y-108717233D02*
X97855500Y-109059767D01*
X116160733Y-98935000D02*
X116503267Y-98935000D01*
X116160733Y-97915000D02*
X116503267Y-97915000D01*
X115081233Y-93283500D02*
X115423767Y-93283500D01*
X115081233Y-92263500D02*
X115423767Y-92263500D01*
X110495233Y-93220000D02*
X110837767Y-93220000D01*
X110495233Y-92200000D02*
X110837767Y-92200000D01*
X119120767Y-79627000D02*
X118778233Y-79627000D01*
X119120767Y-80647000D02*
X118778233Y-80647000D01*
X112971733Y-110174500D02*
X113314267Y-110174500D01*
X112971733Y-109154500D02*
X113314267Y-109154500D01*
X102889233Y-93537500D02*
X103231767Y-93537500D01*
X102889233Y-92517500D02*
X103231767Y-92517500D01*
X114333233Y-96077500D02*
X114675767Y-96077500D01*
X114333233Y-95057500D02*
X114675767Y-95057500D01*
X90231752Y-98794500D02*
X89709248Y-98794500D01*
X90231752Y-100214500D02*
X89709248Y-100214500D01*
X95932248Y-106120000D02*
X96454752Y-106120000D01*
X95932248Y-104700000D02*
X96454752Y-104700000D01*
X108827500Y-111934248D02*
X108827500Y-112456752D01*
X110247500Y-111934248D02*
X110247500Y-112456752D01*
X79831000Y-105607752D02*
X79831000Y-105085248D01*
X78411000Y-105607752D02*
X78411000Y-105085248D01*
X121542500Y-87753500D02*
X121542500Y-86423500D01*
X122872500Y-87753500D02*
X121542500Y-87753500D01*
X124142500Y-87753500D02*
X124142500Y-85093500D01*
X124142500Y-85093500D02*
X126742500Y-85093500D01*
X124142500Y-87753500D02*
X126742500Y-87753500D01*
X126742500Y-87753500D02*
X126742500Y-85093500D01*
X124082500Y-93094500D02*
X125412500Y-93094500D01*
X124082500Y-94424500D02*
X124082500Y-93094500D01*
X124082500Y-95694500D02*
X126742500Y-95694500D01*
X126742500Y-95694500D02*
X126742500Y-105914500D01*
X124082500Y-95694500D02*
X124082500Y-105914500D01*
X124082500Y-105914500D02*
X126742500Y-105914500D01*
X125194500Y-78811000D02*
X128054500Y-78811000D01*
X125194500Y-76891000D02*
X125194500Y-78811000D01*
X128054500Y-76891000D02*
X125194500Y-76891000D01*
X81459500Y-100666500D02*
X87469500Y-100666500D01*
X83709500Y-107486500D02*
X87469500Y-107486500D01*
X87469500Y-100666500D02*
X87469500Y-101926500D01*
X87469500Y-107486500D02*
X87469500Y-106226500D01*
X81732000Y-116473000D02*
X81732000Y-115013000D01*
X84892000Y-116473000D02*
X84892000Y-114313000D01*
X84892000Y-116473000D02*
X83962000Y-116473000D01*
X81732000Y-116473000D02*
X82662000Y-116473000D01*
X122983248Y-80910500D02*
X123505752Y-80910500D01*
X122983248Y-79490500D02*
X123505752Y-79490500D01*
X119363748Y-101103500D02*
X119886252Y-101103500D01*
X119363748Y-99683500D02*
X119886252Y-99683500D01*
X90249752Y-110923000D02*
X89727248Y-110923000D01*
X90249752Y-112343000D02*
X89727248Y-112343000D01*
X85082748Y-112343000D02*
X85605252Y-112343000D01*
X85082748Y-110923000D02*
X85605252Y-110923000D01*
X108510000Y-76265248D02*
X108510000Y-76787752D01*
X109930000Y-76265248D02*
X109930000Y-76787752D01*
X88888500Y-76265248D02*
X88888500Y-76787752D01*
X90308500Y-76265248D02*
X90308500Y-76787752D01*
X113706000Y-115313000D02*
X113706000Y-116313000D01*
X117066000Y-115313000D02*
X117066000Y-116313000D01*
X123281500Y-115335000D02*
X123281500Y-116335000D01*
X126641500Y-115335000D02*
X126641500Y-116335000D01*
D13*
G36*
X125552378Y-106460276D02*
G01*
X125658112Y-106460855D01*
X125734632Y-106462422D01*
X125786872Y-106465472D01*
X125819763Y-106470496D01*
X125838237Y-106477989D01*
X125847227Y-106488444D01*
X125851663Y-106502353D01*
X125852094Y-106504154D01*
X125858833Y-106536645D01*
X125871308Y-106600752D01*
X125888219Y-106689651D01*
X125908271Y-106796519D01*
X125930164Y-106914533D01*
X125930929Y-106918678D01*
X125952859Y-107034331D01*
X125973377Y-107136514D01*
X125991159Y-107219098D01*
X126004881Y-107275956D01*
X126013218Y-107300958D01*
X126013616Y-107301401D01*
X126038177Y-107313610D01*
X126088815Y-107333956D01*
X126154595Y-107358045D01*
X126154961Y-107358174D01*
X126237817Y-107389318D01*
X126335500Y-107428991D01*
X126427577Y-107468881D01*
X126431934Y-107470853D01*
X126581907Y-107538920D01*
X126913998Y-107312139D01*
X127015874Y-107243004D01*
X127108157Y-107181197D01*
X127185503Y-107130233D01*
X127242564Y-107093627D01*
X127273995Y-107074894D01*
X127276979Y-107073504D01*
X127299821Y-107079690D01*
X127342482Y-107109535D01*
X127406628Y-107164447D01*
X127493921Y-107245834D01*
X127583035Y-107332422D01*
X127668941Y-107417747D01*
X127745827Y-107495608D01*
X127809064Y-107561197D01*
X127854023Y-107609705D01*
X127876076Y-107636325D01*
X127876896Y-107637695D01*
X127879334Y-107655963D01*
X127870150Y-107685795D01*
X127847074Y-107731221D01*
X127807837Y-107796270D01*
X127750170Y-107884970D01*
X127673295Y-107999157D01*
X127605070Y-108099662D01*
X127544082Y-108189803D01*
X127493856Y-108264349D01*
X127457916Y-108318065D01*
X127439787Y-108345718D01*
X127438646Y-108347595D01*
X127440859Y-108374090D01*
X127457638Y-108425586D01*
X127485642Y-108492351D01*
X127495622Y-108513672D01*
X127539172Y-108608659D01*
X127585634Y-108716437D01*
X127623377Y-108809692D01*
X127650573Y-108878906D01*
X127672175Y-108931506D01*
X127684658Y-108958997D01*
X127686209Y-108961116D01*
X127709168Y-108964624D01*
X127763286Y-108974238D01*
X127841368Y-108988589D01*
X127936219Y-109006307D01*
X128040643Y-109026025D01*
X128147444Y-109046374D01*
X128249426Y-109065986D01*
X128339394Y-109083491D01*
X128410153Y-109097522D01*
X128454506Y-109106709D01*
X128465385Y-109109307D01*
X128476622Y-109115718D01*
X128485105Y-109130197D01*
X128491214Y-109157633D01*
X128495332Y-109202911D01*
X128497841Y-109270920D01*
X128499121Y-109366547D01*
X128499554Y-109494680D01*
X128499577Y-109547201D01*
X128499577Y-109974345D01*
X128397000Y-109994591D01*
X128339931Y-110005570D01*
X128254769Y-110021595D01*
X128151872Y-110040733D01*
X128041596Y-110061051D01*
X128011115Y-110066632D01*
X127909355Y-110086417D01*
X127820705Y-110105873D01*
X127752608Y-110123197D01*
X127712504Y-110136588D01*
X127705823Y-110140579D01*
X127689419Y-110168842D01*
X127665899Y-110223609D01*
X127639816Y-110294088D01*
X127634642Y-110309269D01*
X127600456Y-110403396D01*
X127558023Y-110509601D01*
X127516497Y-110604973D01*
X127516292Y-110605416D01*
X127447140Y-110755025D01*
X127902012Y-111424117D01*
X127610000Y-111716616D01*
X127521680Y-111803670D01*
X127441125Y-111880409D01*
X127372860Y-111942737D01*
X127321408Y-111986556D01*
X127291294Y-112007770D01*
X127286974Y-112009116D01*
X127261611Y-111998516D01*
X127209858Y-111969047D01*
X127137368Y-111924205D01*
X127049794Y-111867484D01*
X126955112Y-111803962D01*
X126859016Y-111739168D01*
X126773337Y-111682787D01*
X126703516Y-111638288D01*
X126654994Y-111609139D01*
X126633282Y-111598808D01*
X126606793Y-111607550D01*
X126556562Y-111630587D01*
X126492951Y-111663131D01*
X126486208Y-111666749D01*
X126400546Y-111709710D01*
X126341806Y-111730779D01*
X126305272Y-111731003D01*
X126286231Y-111711428D01*
X126286120Y-111711154D01*
X126276602Y-111687972D01*
X126253903Y-111632941D01*
X126219782Y-111550322D01*
X126176000Y-111444372D01*
X126124316Y-111319352D01*
X126066492Y-111179520D01*
X126010491Y-111044137D01*
X125948947Y-110894734D01*
X125892439Y-110756332D01*
X125842661Y-110633173D01*
X125801306Y-110529502D01*
X125770068Y-110449559D01*
X125750641Y-110397588D01*
X125744654Y-110378192D01*
X125759668Y-110355943D01*
X125798939Y-110320482D01*
X125851307Y-110281387D01*
X126000441Y-110157745D01*
X126117011Y-110016022D01*
X126199618Y-109859204D01*
X126246866Y-109690275D01*
X126257357Y-109512222D01*
X126249731Y-109430039D01*
X126208182Y-109259531D01*
X126136623Y-109108959D01*
X126039495Y-108979809D01*
X125921234Y-108873564D01*
X125786280Y-108791710D01*
X125639071Y-108735732D01*
X125484044Y-108707115D01*
X125325639Y-108707344D01*
X125168294Y-108737905D01*
X125016446Y-108800282D01*
X124874535Y-108895960D01*
X124815303Y-108950072D01*
X124701703Y-109089020D01*
X124622606Y-109240861D01*
X124577486Y-109401167D01*
X124565816Y-109565512D01*
X124587069Y-109729471D01*
X124640720Y-109888618D01*
X124726240Y-110038525D01*
X124843105Y-110174767D01*
X124973693Y-110281387D01*
X125028088Y-110322142D01*
X125066514Y-110357218D01*
X125080346Y-110378226D01*
X125073103Y-110401135D01*
X125052505Y-110455865D01*
X125020246Y-110538172D01*
X124978021Y-110643815D01*
X124927523Y-110768550D01*
X124870448Y-110908136D01*
X124814354Y-111044170D01*
X124752467Y-111193701D01*
X124695144Y-111332267D01*
X124644144Y-111455607D01*
X124601227Y-111559464D01*
X124568153Y-111639580D01*
X124546681Y-111691695D01*
X124538725Y-111711154D01*
X124519929Y-111730923D01*
X124483574Y-111730865D01*
X124424979Y-111709941D01*
X124339468Y-111667113D01*
X124338792Y-111666749D01*
X124274407Y-111633512D01*
X124222361Y-111609302D01*
X124193012Y-111598904D01*
X124191717Y-111598808D01*
X124169624Y-111609355D01*
X124120848Y-111638684D01*
X124050831Y-111683327D01*
X123965014Y-111739814D01*
X123869888Y-111803962D01*
X123773040Y-111868911D01*
X123685753Y-111925396D01*
X123613681Y-111969921D01*
X123562477Y-111998990D01*
X123538026Y-112009116D01*
X123515510Y-111995807D01*
X123470242Y-111958612D01*
X123406744Y-111901628D01*
X123329539Y-111828949D01*
X123243151Y-111744671D01*
X123214899Y-111716516D01*
X122922787Y-111423916D01*
X123145131Y-111097604D01*
X123212702Y-110997397D01*
X123272007Y-110907463D01*
X123319717Y-110833010D01*
X123352507Y-110779251D01*
X123367048Y-110751394D01*
X123367474Y-110749412D01*
X123359808Y-110723155D01*
X123339189Y-110670337D01*
X123309185Y-110599810D01*
X123288125Y-110552593D01*
X123248748Y-110462194D01*
X123211665Y-110370866D01*
X123182915Y-110293700D01*
X123175105Y-110270192D01*
X123152917Y-110207416D01*
X123131227Y-110158911D01*
X123119313Y-110140579D01*
X123093023Y-110129359D01*
X123035642Y-110113454D01*
X122954618Y-110094667D01*
X122857395Y-110074799D01*
X122813885Y-110066632D01*
X122703396Y-110046329D01*
X122597416Y-110026670D01*
X122506301Y-110009588D01*
X122440408Y-109997018D01*
X122428000Y-109994591D01*
X122325423Y-109974345D01*
X122325423Y-109547201D01*
X122325653Y-109406746D01*
X122326599Y-109300479D01*
X122328641Y-109223513D01*
X122332162Y-109170960D01*
X122337543Y-109137933D01*
X122345166Y-109119545D01*
X122355412Y-109110908D01*
X122359615Y-109109307D01*
X122384970Y-109103627D01*
X122440984Y-109092295D01*
X122520464Y-109076679D01*
X122616212Y-109058147D01*
X122721033Y-109038069D01*
X122827732Y-109017812D01*
X122929113Y-108998746D01*
X123017979Y-108982239D01*
X123087137Y-108969659D01*
X123129389Y-108962375D01*
X123138790Y-108961116D01*
X123147307Y-108944263D01*
X123166160Y-108899370D01*
X123191824Y-108834930D01*
X123201623Y-108809692D01*
X123241148Y-108712186D01*
X123287692Y-108604459D01*
X123329377Y-108513672D01*
X123360050Y-108444253D01*
X123380456Y-108387210D01*
X123387268Y-108352277D01*
X123386182Y-108347595D01*
X123371785Y-108325491D01*
X123338912Y-108276331D01*
X123291090Y-108205348D01*
X123231848Y-108117778D01*
X123164715Y-108018857D01*
X123151441Y-107999330D01*
X123073546Y-107883640D01*
X123016287Y-107795544D01*
X122977381Y-107730986D01*
X122954544Y-107685911D01*
X122945494Y-107656263D01*
X122947948Y-107637985D01*
X122948011Y-107637869D01*
X122967327Y-107613861D01*
X123010051Y-107567447D01*
X123071551Y-107503437D01*
X123147198Y-107426645D01*
X123232361Y-107341882D01*
X123241965Y-107332422D01*
X123349290Y-107228489D01*
X123432115Y-107152175D01*
X123492105Y-107102071D01*
X123530923Y-107076770D01*
X123548020Y-107073504D01*
X123572973Y-107087750D01*
X123624755Y-107120656D01*
X123698020Y-107168708D01*
X123787420Y-107228390D01*
X123887611Y-107296188D01*
X123911001Y-107312139D01*
X124243093Y-107538920D01*
X124393065Y-107470853D01*
X124484270Y-107431185D01*
X124582169Y-107391291D01*
X124666331Y-107359483D01*
X124670038Y-107358174D01*
X124735869Y-107334076D01*
X124786616Y-107313700D01*
X124811342Y-107301436D01*
X124811384Y-107301401D01*
X124819229Y-107279234D01*
X124832566Y-107224717D01*
X124850070Y-107143980D01*
X124870417Y-107043150D01*
X124892282Y-106928356D01*
X124894071Y-106918678D01*
X124916004Y-106800404D01*
X124936140Y-106693042D01*
X124953180Y-106603417D01*
X124965828Y-106538351D01*
X124972784Y-106504668D01*
X124972906Y-106504154D01*
X124977139Y-106489825D01*
X124985371Y-106479007D01*
X125002533Y-106471206D01*
X125033558Y-106465929D01*
X125083378Y-106462682D01*
X125156924Y-106460972D01*
X125259129Y-106460307D01*
X125394925Y-106460193D01*
X125412500Y-106460192D01*
X125552378Y-106460276D01*
G37*
X125552378Y-106460276D02*
X125658112Y-106460855D01*
X125734632Y-106462422D01*
X125786872Y-106465472D01*
X125819763Y-106470496D01*
X125838237Y-106477989D01*
X125847227Y-106488444D01*
X125851663Y-106502353D01*
X125852094Y-106504154D01*
X125858833Y-106536645D01*
X125871308Y-106600752D01*
X125888219Y-106689651D01*
X125908271Y-106796519D01*
X125930164Y-106914533D01*
X125930929Y-106918678D01*
X125952859Y-107034331D01*
X125973377Y-107136514D01*
X125991159Y-107219098D01*
X126004881Y-107275956D01*
X126013218Y-107300958D01*
X126013616Y-107301401D01*
X126038177Y-107313610D01*
X126088815Y-107333956D01*
X126154595Y-107358045D01*
X126154961Y-107358174D01*
X126237817Y-107389318D01*
X126335500Y-107428991D01*
X126427577Y-107468881D01*
X126431934Y-107470853D01*
X126581907Y-107538920D01*
X126913998Y-107312139D01*
X127015874Y-107243004D01*
X127108157Y-107181197D01*
X127185503Y-107130233D01*
X127242564Y-107093627D01*
X127273995Y-107074894D01*
X127276979Y-107073504D01*
X127299821Y-107079690D01*
X127342482Y-107109535D01*
X127406628Y-107164447D01*
X127493921Y-107245834D01*
X127583035Y-107332422D01*
X127668941Y-107417747D01*
X127745827Y-107495608D01*
X127809064Y-107561197D01*
X127854023Y-107609705D01*
X127876076Y-107636325D01*
X127876896Y-107637695D01*
X127879334Y-107655963D01*
X127870150Y-107685795D01*
X127847074Y-107731221D01*
X127807837Y-107796270D01*
X127750170Y-107884970D01*
X127673295Y-107999157D01*
X127605070Y-108099662D01*
X127544082Y-108189803D01*
X127493856Y-108264349D01*
X127457916Y-108318065D01*
X127439787Y-108345718D01*
X127438646Y-108347595D01*
X127440859Y-108374090D01*
X127457638Y-108425586D01*
X127485642Y-108492351D01*
X127495622Y-108513672D01*
X127539172Y-108608659D01*
X127585634Y-108716437D01*
X127623377Y-108809692D01*
X127650573Y-108878906D01*
X127672175Y-108931506D01*
X127684658Y-108958997D01*
X127686209Y-108961116D01*
X127709168Y-108964624D01*
X127763286Y-108974238D01*
X127841368Y-108988589D01*
X127936219Y-109006307D01*
X128040643Y-109026025D01*
X128147444Y-109046374D01*
X128249426Y-109065986D01*
X128339394Y-109083491D01*
X128410153Y-109097522D01*
X128454506Y-109106709D01*
X128465385Y-109109307D01*
X128476622Y-109115718D01*
X128485105Y-109130197D01*
X128491214Y-109157633D01*
X128495332Y-109202911D01*
X128497841Y-109270920D01*
X128499121Y-109366547D01*
X128499554Y-109494680D01*
X128499577Y-109547201D01*
X128499577Y-109974345D01*
X128397000Y-109994591D01*
X128339931Y-110005570D01*
X128254769Y-110021595D01*
X128151872Y-110040733D01*
X128041596Y-110061051D01*
X128011115Y-110066632D01*
X127909355Y-110086417D01*
X127820705Y-110105873D01*
X127752608Y-110123197D01*
X127712504Y-110136588D01*
X127705823Y-110140579D01*
X127689419Y-110168842D01*
X127665899Y-110223609D01*
X127639816Y-110294088D01*
X127634642Y-110309269D01*
X127600456Y-110403396D01*
X127558023Y-110509601D01*
X127516497Y-110604973D01*
X127516292Y-110605416D01*
X127447140Y-110755025D01*
X127902012Y-111424117D01*
X127610000Y-111716616D01*
X127521680Y-111803670D01*
X127441125Y-111880409D01*
X127372860Y-111942737D01*
X127321408Y-111986556D01*
X127291294Y-112007770D01*
X127286974Y-112009116D01*
X127261611Y-111998516D01*
X127209858Y-111969047D01*
X127137368Y-111924205D01*
X127049794Y-111867484D01*
X126955112Y-111803962D01*
X126859016Y-111739168D01*
X126773337Y-111682787D01*
X126703516Y-111638288D01*
X126654994Y-111609139D01*
X126633282Y-111598808D01*
X126606793Y-111607550D01*
X126556562Y-111630587D01*
X126492951Y-111663131D01*
X126486208Y-111666749D01*
X126400546Y-111709710D01*
X126341806Y-111730779D01*
X126305272Y-111731003D01*
X126286231Y-111711428D01*
X126286120Y-111711154D01*
X126276602Y-111687972D01*
X126253903Y-111632941D01*
X126219782Y-111550322D01*
X126176000Y-111444372D01*
X126124316Y-111319352D01*
X126066492Y-111179520D01*
X126010491Y-111044137D01*
X125948947Y-110894734D01*
X125892439Y-110756332D01*
X125842661Y-110633173D01*
X125801306Y-110529502D01*
X125770068Y-110449559D01*
X125750641Y-110397588D01*
X125744654Y-110378192D01*
X125759668Y-110355943D01*
X125798939Y-110320482D01*
X125851307Y-110281387D01*
X126000441Y-110157745D01*
X126117011Y-110016022D01*
X126199618Y-109859204D01*
X126246866Y-109690275D01*
X126257357Y-109512222D01*
X126249731Y-109430039D01*
X126208182Y-109259531D01*
X126136623Y-109108959D01*
X126039495Y-108979809D01*
X125921234Y-108873564D01*
X125786280Y-108791710D01*
X125639071Y-108735732D01*
X125484044Y-108707115D01*
X125325639Y-108707344D01*
X125168294Y-108737905D01*
X125016446Y-108800282D01*
X124874535Y-108895960D01*
X124815303Y-108950072D01*
X124701703Y-109089020D01*
X124622606Y-109240861D01*
X124577486Y-109401167D01*
X124565816Y-109565512D01*
X124587069Y-109729471D01*
X124640720Y-109888618D01*
X124726240Y-110038525D01*
X124843105Y-110174767D01*
X124973693Y-110281387D01*
X125028088Y-110322142D01*
X125066514Y-110357218D01*
X125080346Y-110378226D01*
X125073103Y-110401135D01*
X125052505Y-110455865D01*
X125020246Y-110538172D01*
X124978021Y-110643815D01*
X124927523Y-110768550D01*
X124870448Y-110908136D01*
X124814354Y-111044170D01*
X124752467Y-111193701D01*
X124695144Y-111332267D01*
X124644144Y-111455607D01*
X124601227Y-111559464D01*
X124568153Y-111639580D01*
X124546681Y-111691695D01*
X124538725Y-111711154D01*
X124519929Y-111730923D01*
X124483574Y-111730865D01*
X124424979Y-111709941D01*
X124339468Y-111667113D01*
X124338792Y-111666749D01*
X124274407Y-111633512D01*
X124222361Y-111609302D01*
X124193012Y-111598904D01*
X124191717Y-111598808D01*
X124169624Y-111609355D01*
X124120848Y-111638684D01*
X124050831Y-111683327D01*
X123965014Y-111739814D01*
X123869888Y-111803962D01*
X123773040Y-111868911D01*
X123685753Y-111925396D01*
X123613681Y-111969921D01*
X123562477Y-111998990D01*
X123538026Y-112009116D01*
X123515510Y-111995807D01*
X123470242Y-111958612D01*
X123406744Y-111901628D01*
X123329539Y-111828949D01*
X123243151Y-111744671D01*
X123214899Y-111716516D01*
X122922787Y-111423916D01*
X123145131Y-111097604D01*
X123212702Y-110997397D01*
X123272007Y-110907463D01*
X123319717Y-110833010D01*
X123352507Y-110779251D01*
X123367048Y-110751394D01*
X123367474Y-110749412D01*
X123359808Y-110723155D01*
X123339189Y-110670337D01*
X123309185Y-110599810D01*
X123288125Y-110552593D01*
X123248748Y-110462194D01*
X123211665Y-110370866D01*
X123182915Y-110293700D01*
X123175105Y-110270192D01*
X123152917Y-110207416D01*
X123131227Y-110158911D01*
X123119313Y-110140579D01*
X123093023Y-110129359D01*
X123035642Y-110113454D01*
X122954618Y-110094667D01*
X122857395Y-110074799D01*
X122813885Y-110066632D01*
X122703396Y-110046329D01*
X122597416Y-110026670D01*
X122506301Y-110009588D01*
X122440408Y-109997018D01*
X122428000Y-109994591D01*
X122325423Y-109974345D01*
X122325423Y-109547201D01*
X122325653Y-109406746D01*
X122326599Y-109300479D01*
X122328641Y-109223513D01*
X122332162Y-109170960D01*
X122337543Y-109137933D01*
X122345166Y-109119545D01*
X122355412Y-109110908D01*
X122359615Y-109109307D01*
X122384970Y-109103627D01*
X122440984Y-109092295D01*
X122520464Y-109076679D01*
X122616212Y-109058147D01*
X122721033Y-109038069D01*
X122827732Y-109017812D01*
X122929113Y-108998746D01*
X123017979Y-108982239D01*
X123087137Y-108969659D01*
X123129389Y-108962375D01*
X123138790Y-108961116D01*
X123147307Y-108944263D01*
X123166160Y-108899370D01*
X123191824Y-108834930D01*
X123201623Y-108809692D01*
X123241148Y-108712186D01*
X123287692Y-108604459D01*
X123329377Y-108513672D01*
X123360050Y-108444253D01*
X123380456Y-108387210D01*
X123387268Y-108352277D01*
X123386182Y-108347595D01*
X123371785Y-108325491D01*
X123338912Y-108276331D01*
X123291090Y-108205348D01*
X123231848Y-108117778D01*
X123164715Y-108018857D01*
X123151441Y-107999330D01*
X123073546Y-107883640D01*
X123016287Y-107795544D01*
X122977381Y-107730986D01*
X122954544Y-107685911D01*
X122945494Y-107656263D01*
X122947948Y-107637985D01*
X122948011Y-107637869D01*
X122967327Y-107613861D01*
X123010051Y-107567447D01*
X123071551Y-107503437D01*
X123147198Y-107426645D01*
X123232361Y-107341882D01*
X123241965Y-107332422D01*
X123349290Y-107228489D01*
X123432115Y-107152175D01*
X123492105Y-107102071D01*
X123530923Y-107076770D01*
X123548020Y-107073504D01*
X123572973Y-107087750D01*
X123624755Y-107120656D01*
X123698020Y-107168708D01*
X123787420Y-107228390D01*
X123887611Y-107296188D01*
X123911001Y-107312139D01*
X124243093Y-107538920D01*
X124393065Y-107470853D01*
X124484270Y-107431185D01*
X124582169Y-107391291D01*
X124666331Y-107359483D01*
X124670038Y-107358174D01*
X124735869Y-107334076D01*
X124786616Y-107313700D01*
X124811342Y-107301436D01*
X124811384Y-107301401D01*
X124819229Y-107279234D01*
X124832566Y-107224717D01*
X124850070Y-107143980D01*
X124870417Y-107043150D01*
X124892282Y-106928356D01*
X124894071Y-106918678D01*
X124916004Y-106800404D01*
X124936140Y-106693042D01*
X124953180Y-106603417D01*
X124965828Y-106538351D01*
X124972784Y-106504668D01*
X124972906Y-106504154D01*
X124977139Y-106489825D01*
X124985371Y-106479007D01*
X125002533Y-106471206D01*
X125033558Y-106465929D01*
X125083378Y-106462682D01*
X125156924Y-106460972D01*
X125259129Y-106460307D01*
X125394925Y-106460193D01*
X125412500Y-106460192D01*
X125552378Y-106460276D01*
G36*
X129657724Y-112820338D02*
G01*
X129735028Y-112870861D01*
X129772314Y-112916090D01*
X129801853Y-112998163D01*
X129804199Y-113063107D01*
X129798885Y-113149945D01*
X129598615Y-113237603D01*
X129501239Y-113282387D01*
X129437613Y-113318413D01*
X129404529Y-113349617D01*
X129398780Y-113379936D01*
X129417158Y-113413305D01*
X129437423Y-113435423D01*
X129496389Y-113470893D01*
X129560524Y-113473379D01*
X129619426Y-113445735D01*
X129662697Y-113390820D01*
X129670436Y-113371428D01*
X129707506Y-113310864D01*
X129750154Y-113285052D01*
X129808654Y-113262971D01*
X129808654Y-113346684D01*
X129803482Y-113403650D01*
X129783223Y-113451689D01*
X129740762Y-113506846D01*
X129734451Y-113514014D01*
X129687220Y-113563085D01*
X129646621Y-113589420D01*
X129595828Y-113601535D01*
X129553720Y-113605503D01*
X129478402Y-113606491D01*
X129424786Y-113593966D01*
X129391338Y-113575369D01*
X129338768Y-113534475D01*
X129302379Y-113490248D01*
X129279350Y-113434626D01*
X129266859Y-113359547D01*
X129262087Y-113256949D01*
X129261706Y-113204876D01*
X129263001Y-113142448D01*
X129380971Y-113142448D01*
X129382339Y-113175938D01*
X129385749Y-113181423D01*
X129408253Y-113173972D01*
X129456682Y-113154253D01*
X129521408Y-113126218D01*
X129534943Y-113120192D01*
X129616744Y-113078596D01*
X129661812Y-113042038D01*
X129671717Y-113007796D01*
X129648026Y-112973148D01*
X129628460Y-112957839D01*
X129557860Y-112927221D01*
X129491780Y-112932280D01*
X129436459Y-112969651D01*
X129398136Y-113035973D01*
X129385849Y-113088616D01*
X129380971Y-113142448D01*
X129263001Y-113142448D01*
X129264230Y-113083220D01*
X129273532Y-112993210D01*
X129291960Y-112927667D01*
X129321860Y-112879412D01*
X129365580Y-112841267D01*
X129384641Y-112828940D01*
X129471226Y-112796836D01*
X129566022Y-112794816D01*
X129657724Y-112820338D01*
G37*
X129657724Y-112820338D02*
X129735028Y-112870861D01*
X129772314Y-112916090D01*
X129801853Y-112998163D01*
X129804199Y-113063107D01*
X129798885Y-113149945D01*
X129598615Y-113237603D01*
X129501239Y-113282387D01*
X129437613Y-113318413D01*
X129404529Y-113349617D01*
X129398780Y-113379936D01*
X129417158Y-113413305D01*
X129437423Y-113435423D01*
X129496389Y-113470893D01*
X129560524Y-113473379D01*
X129619426Y-113445735D01*
X129662697Y-113390820D01*
X129670436Y-113371428D01*
X129707506Y-113310864D01*
X129750154Y-113285052D01*
X129808654Y-113262971D01*
X129808654Y-113346684D01*
X129803482Y-113403650D01*
X129783223Y-113451689D01*
X129740762Y-113506846D01*
X129734451Y-113514014D01*
X129687220Y-113563085D01*
X129646621Y-113589420D01*
X129595828Y-113601535D01*
X129553720Y-113605503D01*
X129478402Y-113606491D01*
X129424786Y-113593966D01*
X129391338Y-113575369D01*
X129338768Y-113534475D01*
X129302379Y-113490248D01*
X129279350Y-113434626D01*
X129266859Y-113359547D01*
X129262087Y-113256949D01*
X129261706Y-113204876D01*
X129263001Y-113142448D01*
X129380971Y-113142448D01*
X129382339Y-113175938D01*
X129385749Y-113181423D01*
X129408253Y-113173972D01*
X129456682Y-113154253D01*
X129521408Y-113126218D01*
X129534943Y-113120192D01*
X129616744Y-113078596D01*
X129661812Y-113042038D01*
X129671717Y-113007796D01*
X129648026Y-112973148D01*
X129628460Y-112957839D01*
X129557860Y-112927221D01*
X129491780Y-112932280D01*
X129436459Y-112969651D01*
X129398136Y-113035973D01*
X129385849Y-113088616D01*
X129380971Y-113142448D01*
X129263001Y-113142448D01*
X129264230Y-113083220D01*
X129273532Y-112993210D01*
X129291960Y-112927667D01*
X129321860Y-112879412D01*
X129365580Y-112841267D01*
X129384641Y-112828940D01*
X129471226Y-112796836D01*
X129566022Y-112794816D01*
X129657724Y-112820338D01*
G36*
X128983307Y-112809282D02*
G01*
X129006661Y-112819488D01*
X129062402Y-112863634D01*
X129110069Y-112927467D01*
X129139548Y-112995587D01*
X129144346Y-113029170D01*
X129128260Y-113076056D01*
X129092975Y-113100865D01*
X129055144Y-113115887D01*
X129037821Y-113118655D01*
X129029386Y-113098566D01*
X129012730Y-113054851D01*
X129005423Y-113035098D01*
X128964448Y-112966771D01*
X128905122Y-112932691D01*
X128829052Y-112933739D01*
X128823418Y-112935081D01*
X128782805Y-112954336D01*
X128752948Y-112991875D01*
X128732555Y-113052309D01*
X128720336Y-113140251D01*
X128715000Y-113260313D01*
X128714500Y-113324198D01*
X128714252Y-113424903D01*
X128712626Y-113493554D01*
X128708301Y-113537173D01*
X128699954Y-113562782D01*
X128686265Y-113577403D01*
X128665911Y-113588058D01*
X128664734Y-113588595D01*
X128625538Y-113605167D01*
X128606119Y-113611269D01*
X128603135Y-113592819D01*
X128600581Y-113541823D01*
X128598640Y-113464808D01*
X128597497Y-113368305D01*
X128597269Y-113297684D01*
X128598432Y-113161025D01*
X128602979Y-113057351D01*
X128612499Y-112980608D01*
X128628581Y-112924746D01*
X128652813Y-112883712D01*
X128686786Y-112851454D01*
X128720333Y-112828940D01*
X128800999Y-112798976D01*
X128894881Y-112792218D01*
X128983307Y-112809282D01*
G37*
X128983307Y-112809282D02*
X129006661Y-112819488D01*
X129062402Y-112863634D01*
X129110069Y-112927467D01*
X129139548Y-112995587D01*
X129144346Y-113029170D01*
X129128260Y-113076056D01*
X129092975Y-113100865D01*
X129055144Y-113115887D01*
X129037821Y-113118655D01*
X129029386Y-113098566D01*
X129012730Y-113054851D01*
X129005423Y-113035098D01*
X128964448Y-112966771D01*
X128905122Y-112932691D01*
X128829052Y-112933739D01*
X128823418Y-112935081D01*
X128782805Y-112954336D01*
X128752948Y-112991875D01*
X128732555Y-113052309D01*
X128720336Y-113140251D01*
X128715000Y-113260313D01*
X128714500Y-113324198D01*
X128714252Y-113424903D01*
X128712626Y-113493554D01*
X128708301Y-113537173D01*
X128699954Y-113562782D01*
X128686265Y-113577403D01*
X128665911Y-113588058D01*
X128664734Y-113588595D01*
X128625538Y-113605167D01*
X128606119Y-113611269D01*
X128603135Y-113592819D01*
X128600581Y-113541823D01*
X128598640Y-113464808D01*
X128597497Y-113368305D01*
X128597269Y-113297684D01*
X128598432Y-113161025D01*
X128602979Y-113057351D01*
X128612499Y-112980608D01*
X128628581Y-112924746D01*
X128652813Y-112883712D01*
X128686786Y-112851454D01*
X128720333Y-112828940D01*
X128800999Y-112798976D01*
X128894881Y-112792218D01*
X128983307Y-112809282D01*
G36*
X128299833Y-112806028D02*
G01*
X128356090Y-112831617D01*
X128400247Y-112862624D01*
X128432601Y-112897295D01*
X128454938Y-112942020D01*
X128469046Y-113003192D01*
X128476711Y-113087201D01*
X128479720Y-113200440D01*
X128480038Y-113275009D01*
X128480038Y-113565920D01*
X128430273Y-113588595D01*
X128391076Y-113605167D01*
X128371657Y-113611269D01*
X128367942Y-113593110D01*
X128364995Y-113544148D01*
X128363191Y-113472653D01*
X128362808Y-113415885D01*
X128361161Y-113333871D01*
X128356722Y-113268809D01*
X128350240Y-113228967D01*
X128345090Y-113220500D01*
X128310477Y-113229146D01*
X128256140Y-113251323D01*
X128193222Y-113281386D01*
X128132868Y-113313692D01*
X128086221Y-113342598D01*
X128064426Y-113362461D01*
X128064339Y-113362675D01*
X128066214Y-113399435D01*
X128083025Y-113434526D01*
X128112539Y-113463028D01*
X128155616Y-113472561D01*
X128192432Y-113471450D01*
X128244574Y-113470633D01*
X128271944Y-113482849D01*
X128288382Y-113515124D01*
X128290455Y-113521210D01*
X128297581Y-113567239D01*
X128278524Y-113595187D01*
X128228853Y-113608507D01*
X128175197Y-113610970D01*
X128078642Y-113592710D01*
X128028659Y-113566631D01*
X127966929Y-113505368D01*
X127934190Y-113430170D01*
X127931253Y-113350711D01*
X127958924Y-113276667D01*
X128000547Y-113230269D01*
X128042104Y-113204293D01*
X128107422Y-113171407D01*
X128183538Y-113138057D01*
X128196226Y-113132961D01*
X128279833Y-113096065D01*
X128328030Y-113063546D01*
X128343530Y-113031218D01*
X128329050Y-112994894D01*
X128304192Y-112966500D01*
X128245439Y-112931539D01*
X128180793Y-112928917D01*
X128121508Y-112955858D01*
X128078839Y-113009588D01*
X128073239Y-113023450D01*
X128040633Y-113074436D01*
X127993030Y-113112287D01*
X127932961Y-113143350D01*
X127932961Y-113055268D01*
X127936497Y-113001451D01*
X127951656Y-112959034D01*
X127985268Y-112913779D01*
X128017535Y-112878920D01*
X128067709Y-112829562D01*
X128106693Y-112803047D01*
X128148564Y-112792411D01*
X128195960Y-112790654D01*
X128299833Y-112806028D01*
G37*
X128299833Y-112806028D02*
X128356090Y-112831617D01*
X128400247Y-112862624D01*
X128432601Y-112897295D01*
X128454938Y-112942020D01*
X128469046Y-113003192D01*
X128476711Y-113087201D01*
X128479720Y-113200440D01*
X128480038Y-113275009D01*
X128480038Y-113565920D01*
X128430273Y-113588595D01*
X128391076Y-113605167D01*
X128371657Y-113611269D01*
X128367942Y-113593110D01*
X128364995Y-113544148D01*
X128363191Y-113472653D01*
X128362808Y-113415885D01*
X128361161Y-113333871D01*
X128356722Y-113268809D01*
X128350240Y-113228967D01*
X128345090Y-113220500D01*
X128310477Y-113229146D01*
X128256140Y-113251323D01*
X128193222Y-113281386D01*
X128132868Y-113313692D01*
X128086221Y-113342598D01*
X128064426Y-113362461D01*
X128064339Y-113362675D01*
X128066214Y-113399435D01*
X128083025Y-113434526D01*
X128112539Y-113463028D01*
X128155616Y-113472561D01*
X128192432Y-113471450D01*
X128244574Y-113470633D01*
X128271944Y-113482849D01*
X128288382Y-113515124D01*
X128290455Y-113521210D01*
X128297581Y-113567239D01*
X128278524Y-113595187D01*
X128228853Y-113608507D01*
X128175197Y-113610970D01*
X128078642Y-113592710D01*
X128028659Y-113566631D01*
X127966929Y-113505368D01*
X127934190Y-113430170D01*
X127931253Y-113350711D01*
X127958924Y-113276667D01*
X128000547Y-113230269D01*
X128042104Y-113204293D01*
X128107422Y-113171407D01*
X128183538Y-113138057D01*
X128196226Y-113132961D01*
X128279833Y-113096065D01*
X128328030Y-113063546D01*
X128343530Y-113031218D01*
X128329050Y-112994894D01*
X128304192Y-112966500D01*
X128245439Y-112931539D01*
X128180793Y-112928917D01*
X128121508Y-112955858D01*
X128078839Y-113009588D01*
X128073239Y-113023450D01*
X128040633Y-113074436D01*
X127993030Y-113112287D01*
X127932961Y-113143350D01*
X127932961Y-113055268D01*
X127936497Y-113001451D01*
X127951656Y-112959034D01*
X127985268Y-112913779D01*
X128017535Y-112878920D01*
X128067709Y-112829562D01*
X128106693Y-112803047D01*
X128148564Y-112792411D01*
X128195960Y-112790654D01*
X128299833Y-112806028D01*
G36*
X127808429Y-112809162D02*
G01*
X127811411Y-112860568D01*
X127813747Y-112938692D01*
X127815249Y-113037357D01*
X127815731Y-113140843D01*
X127815731Y-113491033D01*
X127753901Y-113552863D01*
X127711293Y-113590962D01*
X127673890Y-113606395D01*
X127622770Y-113605418D01*
X127602478Y-113602933D01*
X127539054Y-113595700D01*
X127486595Y-113591555D01*
X127473808Y-113591172D01*
X127430699Y-113593676D01*
X127369044Y-113599962D01*
X127345138Y-113602933D01*
X127286422Y-113607528D01*
X127246964Y-113597546D01*
X127207838Y-113566728D01*
X127193715Y-113552863D01*
X127131885Y-113491033D01*
X127131885Y-112836003D01*
X127181650Y-112813329D01*
X127224502Y-112796534D01*
X127249573Y-112790654D01*
X127256001Y-112809236D01*
X127262009Y-112861155D01*
X127267197Y-112940672D01*
X127271164Y-113042046D01*
X127273077Y-113127692D01*
X127278423Y-113464731D01*
X127325060Y-113471325D01*
X127367476Y-113466714D01*
X127388260Y-113451787D01*
X127394070Y-113423877D01*
X127399030Y-113364425D01*
X127402746Y-113280966D01*
X127404824Y-113181032D01*
X127405124Y-113129604D01*
X127405423Y-112833554D01*
X127466954Y-112812104D01*
X127510504Y-112797520D01*
X127534194Y-112790719D01*
X127534877Y-112790654D01*
X127537254Y-112809142D01*
X127539866Y-112860406D01*
X127542495Y-112938149D01*
X127544921Y-113036074D01*
X127546615Y-113127692D01*
X127551961Y-113464731D01*
X127669192Y-113464731D01*
X127674572Y-113157246D01*
X127679951Y-112849761D01*
X127737101Y-112820207D01*
X127779297Y-112799913D01*
X127804270Y-112790704D01*
X127804991Y-112790654D01*
X127808429Y-112809162D01*
G37*
X127808429Y-112809162D02*
X127811411Y-112860568D01*
X127813747Y-112938692D01*
X127815249Y-113037357D01*
X127815731Y-113140843D01*
X127815731Y-113491033D01*
X127753901Y-113552863D01*
X127711293Y-113590962D01*
X127673890Y-113606395D01*
X127622770Y-113605418D01*
X127602478Y-113602933D01*
X127539054Y-113595700D01*
X127486595Y-113591555D01*
X127473808Y-113591172D01*
X127430699Y-113593676D01*
X127369044Y-113599962D01*
X127345138Y-113602933D01*
X127286422Y-113607528D01*
X127246964Y-113597546D01*
X127207838Y-113566728D01*
X127193715Y-113552863D01*
X127131885Y-113491033D01*
X127131885Y-112836003D01*
X127181650Y-112813329D01*
X127224502Y-112796534D01*
X127249573Y-112790654D01*
X127256001Y-112809236D01*
X127262009Y-112861155D01*
X127267197Y-112940672D01*
X127271164Y-113042046D01*
X127273077Y-113127692D01*
X127278423Y-113464731D01*
X127325060Y-113471325D01*
X127367476Y-113466714D01*
X127388260Y-113451787D01*
X127394070Y-113423877D01*
X127399030Y-113364425D01*
X127402746Y-113280966D01*
X127404824Y-113181032D01*
X127405124Y-113129604D01*
X127405423Y-112833554D01*
X127466954Y-112812104D01*
X127510504Y-112797520D01*
X127534194Y-112790719D01*
X127534877Y-112790654D01*
X127537254Y-112809142D01*
X127539866Y-112860406D01*
X127542495Y-112938149D01*
X127544921Y-113036074D01*
X127546615Y-113127692D01*
X127551961Y-113464731D01*
X127669192Y-113464731D01*
X127674572Y-113157246D01*
X127679951Y-112849761D01*
X127737101Y-112820207D01*
X127779297Y-112799913D01*
X127804270Y-112790704D01*
X127804991Y-112790654D01*
X127808429Y-112809162D01*
G36*
X127014581Y-112952789D02*
G01*
X127014333Y-113098820D01*
X127013372Y-113211155D01*
X127011294Y-113295178D01*
X127007693Y-113356269D01*
X127002165Y-113399809D01*
X126994304Y-113431179D01*
X126983707Y-113455762D01*
X126975682Y-113469794D01*
X126909228Y-113545888D01*
X126824970Y-113593584D01*
X126731749Y-113610699D01*
X126638400Y-113595046D01*
X126582812Y-113566918D01*
X126524457Y-113518260D01*
X126484686Y-113458833D01*
X126460690Y-113381007D01*
X126449661Y-113277152D01*
X126448099Y-113200962D01*
X126448309Y-113195486D01*
X126584808Y-113195486D01*
X126585641Y-113282855D01*
X126589461Y-113340692D01*
X126598246Y-113378529D01*
X126613974Y-113405898D01*
X126632766Y-113426542D01*
X126695875Y-113466390D01*
X126763637Y-113469795D01*
X126827679Y-113436525D01*
X126832664Y-113432017D01*
X126853939Y-113408567D01*
X126867279Y-113380666D01*
X126874501Y-113339141D01*
X126877423Y-113274816D01*
X126877885Y-113203700D01*
X126876883Y-113114358D01*
X126872738Y-113054758D01*
X126863736Y-113015589D01*
X126848167Y-112987540D01*
X126835402Y-112972644D01*
X126776100Y-112935075D01*
X126707801Y-112930557D01*
X126642610Y-112959253D01*
X126630028Y-112969906D01*
X126608611Y-112993563D01*
X126595244Y-113021751D01*
X126588066Y-113063745D01*
X126585219Y-113128819D01*
X126584808Y-113195486D01*
X126448309Y-113195486D01*
X126452822Y-113078265D01*
X126468862Y-112986077D01*
X126499028Y-112916769D01*
X126546129Y-112862711D01*
X126582812Y-112835005D01*
X126649490Y-112805072D01*
X126726772Y-112791178D01*
X126798610Y-112794897D01*
X126838808Y-112809900D01*
X126854582Y-112814170D01*
X126865050Y-112798250D01*
X126872356Y-112755589D01*
X126877885Y-112690606D01*
X126883937Y-112618232D01*
X126892344Y-112574687D01*
X126907641Y-112549787D01*
X126934364Y-112533345D01*
X126951154Y-112526064D01*
X127014654Y-112499463D01*
X127014581Y-112952789D01*
G37*
X127014581Y-112952789D02*
X127014333Y-113098820D01*
X127013372Y-113211155D01*
X127011294Y-113295178D01*
X127007693Y-113356269D01*
X127002165Y-113399809D01*
X126994304Y-113431179D01*
X126983707Y-113455762D01*
X126975682Y-113469794D01*
X126909228Y-113545888D01*
X126824970Y-113593584D01*
X126731749Y-113610699D01*
X126638400Y-113595046D01*
X126582812Y-113566918D01*
X126524457Y-113518260D01*
X126484686Y-113458833D01*
X126460690Y-113381007D01*
X126449661Y-113277152D01*
X126448099Y-113200962D01*
X126448309Y-113195486D01*
X126584808Y-113195486D01*
X126585641Y-113282855D01*
X126589461Y-113340692D01*
X126598246Y-113378529D01*
X126613974Y-113405898D01*
X126632766Y-113426542D01*
X126695875Y-113466390D01*
X126763637Y-113469795D01*
X126827679Y-113436525D01*
X126832664Y-113432017D01*
X126853939Y-113408567D01*
X126867279Y-113380666D01*
X126874501Y-113339141D01*
X126877423Y-113274816D01*
X126877885Y-113203700D01*
X126876883Y-113114358D01*
X126872738Y-113054758D01*
X126863736Y-113015589D01*
X126848167Y-112987540D01*
X126835402Y-112972644D01*
X126776100Y-112935075D01*
X126707801Y-112930557D01*
X126642610Y-112959253D01*
X126630028Y-112969906D01*
X126608611Y-112993563D01*
X126595244Y-113021751D01*
X126588066Y-113063745D01*
X126585219Y-113128819D01*
X126584808Y-113195486D01*
X126448309Y-113195486D01*
X126452822Y-113078265D01*
X126468862Y-112986077D01*
X126499028Y-112916769D01*
X126546129Y-112862711D01*
X126582812Y-112835005D01*
X126649490Y-112805072D01*
X126726772Y-112791178D01*
X126798610Y-112794897D01*
X126838808Y-112809900D01*
X126854582Y-112814170D01*
X126865050Y-112798250D01*
X126872356Y-112755589D01*
X126877885Y-112690606D01*
X126883937Y-112618232D01*
X126892344Y-112574687D01*
X126907641Y-112549787D01*
X126934364Y-112533345D01*
X126951154Y-112526064D01*
X127014654Y-112499463D01*
X127014581Y-112952789D01*
G36*
X126125862Y-112797170D02*
G01*
X126214617Y-112829921D01*
X126286522Y-112887850D01*
X126314644Y-112928628D01*
X126345302Y-113003454D01*
X126344665Y-113057558D01*
X126312487Y-113093946D01*
X126300581Y-113100133D01*
X126249175Y-113119425D01*
X126222922Y-113114482D01*
X126214030Y-113082087D01*
X126213577Y-113064192D01*
X126197297Y-112998359D01*
X126154865Y-112952307D01*
X126095888Y-112930064D01*
X126029975Y-112935661D01*
X125976395Y-112964729D01*
X125958298Y-112981310D01*
X125945471Y-113001425D01*
X125936806Y-113031832D01*
X125931196Y-113079288D01*
X125927535Y-113150550D01*
X125924715Y-113252375D01*
X125923984Y-113284615D01*
X125921320Y-113394910D01*
X125918292Y-113472536D01*
X125913750Y-113523896D01*
X125906546Y-113555390D01*
X125895533Y-113573420D01*
X125879560Y-113584388D01*
X125869334Y-113589233D01*
X125825906Y-113605801D01*
X125800342Y-113611269D01*
X125791895Y-113593007D01*
X125786739Y-113537796D01*
X125784846Y-113444999D01*
X125786189Y-113313978D01*
X125786607Y-113293769D01*
X125789558Y-113174233D01*
X125793048Y-113086949D01*
X125798014Y-113025091D01*
X125805393Y-112981836D01*
X125816124Y-112950360D01*
X125831145Y-112923839D01*
X125839002Y-112912475D01*
X125884053Y-112862192D01*
X125934440Y-112823081D01*
X125940608Y-112819667D01*
X126030958Y-112792712D01*
X126125862Y-112797170D01*
G37*
X126125862Y-112797170D02*
X126214617Y-112829921D01*
X126286522Y-112887850D01*
X126314644Y-112928628D01*
X126345302Y-113003454D01*
X126344665Y-113057558D01*
X126312487Y-113093946D01*
X126300581Y-113100133D01*
X126249175Y-113119425D01*
X126222922Y-113114482D01*
X126214030Y-113082087D01*
X126213577Y-113064192D01*
X126197297Y-112998359D01*
X126154865Y-112952307D01*
X126095888Y-112930064D01*
X126029975Y-112935661D01*
X125976395Y-112964729D01*
X125958298Y-112981310D01*
X125945471Y-113001425D01*
X125936806Y-113031832D01*
X125931196Y-113079288D01*
X125927535Y-113150550D01*
X125924715Y-113252375D01*
X125923984Y-113284615D01*
X125921320Y-113394910D01*
X125918292Y-113472536D01*
X125913750Y-113523896D01*
X125906546Y-113555390D01*
X125895533Y-113573420D01*
X125879560Y-113584388D01*
X125869334Y-113589233D01*
X125825906Y-113605801D01*
X125800342Y-113611269D01*
X125791895Y-113593007D01*
X125786739Y-113537796D01*
X125784846Y-113444999D01*
X125786189Y-113313978D01*
X125786607Y-113293769D01*
X125789558Y-113174233D01*
X125793048Y-113086949D01*
X125798014Y-113025091D01*
X125805393Y-112981836D01*
X125816124Y-112950360D01*
X125831145Y-112923839D01*
X125839002Y-112912475D01*
X125884053Y-112862192D01*
X125934440Y-112823081D01*
X125940608Y-112819667D01*
X126030958Y-112792712D01*
X126125862Y-112797170D01*
G36*
X125466001Y-112798803D02*
G01*
X125542560Y-112827233D01*
X125543436Y-112827779D01*
X125590785Y-112862627D01*
X125625741Y-112903352D01*
X125650325Y-112956425D01*
X125666562Y-113028314D01*
X125676475Y-113125492D01*
X125682086Y-113254428D01*
X125682577Y-113272798D01*
X125689641Y-113549787D01*
X125630195Y-113580528D01*
X125587181Y-113601302D01*
X125561210Y-113611146D01*
X125560009Y-113611269D01*
X125555514Y-113593106D01*
X125551944Y-113544112D01*
X125549748Y-113472531D01*
X125549269Y-113414568D01*
X125549258Y-113320670D01*
X125544966Y-113261703D01*
X125530003Y-113233579D01*
X125497982Y-113232206D01*
X125442514Y-113253498D01*
X125358769Y-113292636D01*
X125297189Y-113325143D01*
X125265517Y-113353345D01*
X125256206Y-113384082D01*
X125256192Y-113385604D01*
X125271557Y-113438554D01*
X125317047Y-113467160D01*
X125386666Y-113471303D01*
X125436813Y-113470584D01*
X125463254Y-113485027D01*
X125479743Y-113519718D01*
X125489233Y-113563916D01*
X125475557Y-113588993D01*
X125470407Y-113592582D01*
X125421925Y-113606996D01*
X125354031Y-113609037D01*
X125284112Y-113599483D01*
X125234568Y-113582022D01*
X125166070Y-113523864D01*
X125127134Y-113442908D01*
X125119423Y-113379660D01*
X125125307Y-113322611D01*
X125146601Y-113276042D01*
X125188765Y-113234681D01*
X125257259Y-113193255D01*
X125357544Y-113146493D01*
X125363654Y-113143850D01*
X125453990Y-113102117D01*
X125509735Y-113067891D01*
X125533629Y-113037135D01*
X125528413Y-113005811D01*
X125496828Y-112969883D01*
X125487383Y-112961616D01*
X125424117Y-112929558D01*
X125358564Y-112930907D01*
X125301472Y-112962338D01*
X125263593Y-113020524D01*
X125260074Y-113031946D01*
X125225800Y-113087337D01*
X125182309Y-113114018D01*
X125119423Y-113140460D01*
X125119423Y-113072048D01*
X125138552Y-112972610D01*
X125195331Y-112881402D01*
X125224878Y-112850889D01*
X125292042Y-112811728D01*
X125377456Y-112794000D01*
X125466001Y-112798803D01*
G37*
X125466001Y-112798803D02*
X125542560Y-112827233D01*
X125543436Y-112827779D01*
X125590785Y-112862627D01*
X125625741Y-112903352D01*
X125650325Y-112956425D01*
X125666562Y-113028314D01*
X125676475Y-113125492D01*
X125682086Y-113254428D01*
X125682577Y-113272798D01*
X125689641Y-113549787D01*
X125630195Y-113580528D01*
X125587181Y-113601302D01*
X125561210Y-113611146D01*
X125560009Y-113611269D01*
X125555514Y-113593106D01*
X125551944Y-113544112D01*
X125549748Y-113472531D01*
X125549269Y-113414568D01*
X125549258Y-113320670D01*
X125544966Y-113261703D01*
X125530003Y-113233579D01*
X125497982Y-113232206D01*
X125442514Y-113253498D01*
X125358769Y-113292636D01*
X125297189Y-113325143D01*
X125265517Y-113353345D01*
X125256206Y-113384082D01*
X125256192Y-113385604D01*
X125271557Y-113438554D01*
X125317047Y-113467160D01*
X125386666Y-113471303D01*
X125436813Y-113470584D01*
X125463254Y-113485027D01*
X125479743Y-113519718D01*
X125489233Y-113563916D01*
X125475557Y-113588993D01*
X125470407Y-113592582D01*
X125421925Y-113606996D01*
X125354031Y-113609037D01*
X125284112Y-113599483D01*
X125234568Y-113582022D01*
X125166070Y-113523864D01*
X125127134Y-113442908D01*
X125119423Y-113379660D01*
X125125307Y-113322611D01*
X125146601Y-113276042D01*
X125188765Y-113234681D01*
X125257259Y-113193255D01*
X125357544Y-113146493D01*
X125363654Y-113143850D01*
X125453990Y-113102117D01*
X125509735Y-113067891D01*
X125533629Y-113037135D01*
X125528413Y-113005811D01*
X125496828Y-112969883D01*
X125487383Y-112961616D01*
X125424117Y-112929558D01*
X125358564Y-112930907D01*
X125301472Y-112962338D01*
X125263593Y-113020524D01*
X125260074Y-113031946D01*
X125225800Y-113087337D01*
X125182309Y-113114018D01*
X125119423Y-113140460D01*
X125119423Y-113072048D01*
X125138552Y-112972610D01*
X125195331Y-112881402D01*
X125224878Y-112850889D01*
X125292042Y-112811728D01*
X125377456Y-112794000D01*
X125466001Y-112798803D01*
G36*
X124572346Y-112664620D02*
G01*
X124578072Y-112744480D01*
X124584649Y-112791539D01*
X124593762Y-112812066D01*
X124607098Y-112812329D01*
X124611423Y-112809878D01*
X124668944Y-112792136D01*
X124743768Y-112793172D01*
X124819839Y-112811410D01*
X124867418Y-112835005D01*
X124916202Y-112872698D01*
X124951864Y-112915355D01*
X124976345Y-112969557D01*
X124991587Y-113041884D01*
X124999530Y-113138919D01*
X125002116Y-113267242D01*
X125002162Y-113291858D01*
X125002192Y-113568370D01*
X124940661Y-113589820D01*
X124896959Y-113604412D01*
X124872982Y-113611206D01*
X124872277Y-113611269D01*
X124869915Y-113592845D01*
X124867906Y-113542026D01*
X124866401Y-113465493D01*
X124865553Y-113369930D01*
X124865423Y-113311829D01*
X124865151Y-113197271D01*
X124863752Y-113115167D01*
X124860349Y-113058893D01*
X124854067Y-113021826D01*
X124844029Y-112997344D01*
X124829361Y-112978825D01*
X124820202Y-112969906D01*
X124757289Y-112933966D01*
X124688636Y-112931275D01*
X124626348Y-112961670D01*
X124614829Y-112972644D01*
X124597933Y-112993279D01*
X124586214Y-113017756D01*
X124578733Y-113053147D01*
X124574554Y-113106526D01*
X124572737Y-113184966D01*
X124572346Y-113293117D01*
X124572346Y-113568370D01*
X124510815Y-113589820D01*
X124467113Y-113604412D01*
X124443136Y-113611206D01*
X124442430Y-113611269D01*
X124440626Y-113592569D01*
X124439000Y-113539822D01*
X124437617Y-113458057D01*
X124436542Y-113352305D01*
X124435840Y-113227594D01*
X124435577Y-113088955D01*
X124435577Y-112554306D01*
X124562577Y-112500736D01*
X124572346Y-112664620D01*
G37*
X124572346Y-112664620D02*
X124578072Y-112744480D01*
X124584649Y-112791539D01*
X124593762Y-112812066D01*
X124607098Y-112812329D01*
X124611423Y-112809878D01*
X124668944Y-112792136D01*
X124743768Y-112793172D01*
X124819839Y-112811410D01*
X124867418Y-112835005D01*
X124916202Y-112872698D01*
X124951864Y-112915355D01*
X124976345Y-112969557D01*
X124991587Y-113041884D01*
X124999530Y-113138919D01*
X125002116Y-113267242D01*
X125002162Y-113291858D01*
X125002192Y-113568370D01*
X124940661Y-113589820D01*
X124896959Y-113604412D01*
X124872982Y-113611206D01*
X124872277Y-113611269D01*
X124869915Y-113592845D01*
X124867906Y-113542026D01*
X124866401Y-113465493D01*
X124865553Y-113369930D01*
X124865423Y-113311829D01*
X124865151Y-113197271D01*
X124863752Y-113115167D01*
X124860349Y-113058893D01*
X124854067Y-113021826D01*
X124844029Y-112997344D01*
X124829361Y-112978825D01*
X124820202Y-112969906D01*
X124757289Y-112933966D01*
X124688636Y-112931275D01*
X124626348Y-112961670D01*
X124614829Y-112972644D01*
X124597933Y-112993279D01*
X124586214Y-113017756D01*
X124578733Y-113053147D01*
X124574554Y-113106526D01*
X124572737Y-113184966D01*
X124572346Y-113293117D01*
X124572346Y-113568370D01*
X124510815Y-113589820D01*
X124467113Y-113604412D01*
X124443136Y-113611206D01*
X124442430Y-113611269D01*
X124440626Y-113592569D01*
X124439000Y-113539822D01*
X124437617Y-113458057D01*
X124436542Y-113352305D01*
X124435840Y-113227594D01*
X124435577Y-113088955D01*
X124435577Y-112554306D01*
X124562577Y-112500736D01*
X124572346Y-112664620D01*
G36*
X122946754Y-112772245D02*
G01*
X123023786Y-112824067D01*
X123083316Y-112898912D01*
X123118878Y-112994154D01*
X123126071Y-113064256D01*
X123125254Y-113093509D01*
X123118414Y-113115907D01*
X123099612Y-113135974D01*
X123062908Y-113158233D01*
X123002362Y-113187209D01*
X122912034Y-113227427D01*
X122911577Y-113227629D01*
X122828433Y-113265710D01*
X122760253Y-113299525D01*
X122714005Y-113325433D01*
X122696658Y-113339795D01*
X122696654Y-113339911D01*
X122711943Y-113371185D01*
X122747696Y-113405657D01*
X122788742Y-113430490D01*
X122809537Y-113435423D01*
X122866270Y-113418362D01*
X122915127Y-113375633D01*
X122938965Y-113328655D01*
X122961897Y-113294022D01*
X123006818Y-113254581D01*
X123059623Y-113220509D01*
X123106210Y-113201980D01*
X123115952Y-113200962D01*
X123126918Y-113217715D01*
X123127579Y-113260539D01*
X123119520Y-113318281D01*
X123104327Y-113379789D01*
X123083586Y-113433909D01*
X123082538Y-113436010D01*
X123020121Y-113523160D01*
X122939226Y-113582439D01*
X122847356Y-113611534D01*
X122752013Y-113608134D01*
X122660698Y-113569928D01*
X122656638Y-113567241D01*
X122584806Y-113502142D01*
X122537573Y-113417205D01*
X122511434Y-113305521D01*
X122507926Y-113274143D01*
X122501713Y-113126036D01*
X122509161Y-113056968D01*
X122696654Y-113056968D01*
X122699090Y-113100052D01*
X122712414Y-113112626D01*
X122745632Y-113103219D01*
X122797994Y-113080983D01*
X122856524Y-113053110D01*
X122857979Y-113052372D01*
X122907589Y-113026277D01*
X122927500Y-113008863D01*
X122922590Y-112990607D01*
X122901916Y-112966620D01*
X122849319Y-112931906D01*
X122792677Y-112929356D01*
X122741869Y-112954619D01*
X122706776Y-113003347D01*
X122696654Y-113056968D01*
X122509161Y-113056968D01*
X122514492Y-113007536D01*
X122547278Y-112913555D01*
X122592921Y-112847715D01*
X122675302Y-112781181D01*
X122766046Y-112748176D01*
X122858685Y-112746073D01*
X122946754Y-112772245D01*
G37*
X122946754Y-112772245D02*
X123023786Y-112824067D01*
X123083316Y-112898912D01*
X123118878Y-112994154D01*
X123126071Y-113064256D01*
X123125254Y-113093509D01*
X123118414Y-113115907D01*
X123099612Y-113135974D01*
X123062908Y-113158233D01*
X123002362Y-113187209D01*
X122912034Y-113227427D01*
X122911577Y-113227629D01*
X122828433Y-113265710D01*
X122760253Y-113299525D01*
X122714005Y-113325433D01*
X122696658Y-113339795D01*
X122696654Y-113339911D01*
X122711943Y-113371185D01*
X122747696Y-113405657D01*
X122788742Y-113430490D01*
X122809537Y-113435423D01*
X122866270Y-113418362D01*
X122915127Y-113375633D01*
X122938965Y-113328655D01*
X122961897Y-113294022D01*
X123006818Y-113254581D01*
X123059623Y-113220509D01*
X123106210Y-113201980D01*
X123115952Y-113200962D01*
X123126918Y-113217715D01*
X123127579Y-113260539D01*
X123119520Y-113318281D01*
X123104327Y-113379789D01*
X123083586Y-113433909D01*
X123082538Y-113436010D01*
X123020121Y-113523160D01*
X122939226Y-113582439D01*
X122847356Y-113611534D01*
X122752013Y-113608134D01*
X122660698Y-113569928D01*
X122656638Y-113567241D01*
X122584806Y-113502142D01*
X122537573Y-113417205D01*
X122511434Y-113305521D01*
X122507926Y-113274143D01*
X122501713Y-113126036D01*
X122509161Y-113056968D01*
X122696654Y-113056968D01*
X122699090Y-113100052D01*
X122712414Y-113112626D01*
X122745632Y-113103219D01*
X122797994Y-113080983D01*
X122856524Y-113053110D01*
X122857979Y-113052372D01*
X122907589Y-113026277D01*
X122927500Y-113008863D01*
X122922590Y-112990607D01*
X122901916Y-112966620D01*
X122849319Y-112931906D01*
X122792677Y-112929356D01*
X122741869Y-112954619D01*
X122706776Y-113003347D01*
X122696654Y-113056968D01*
X122509161Y-113056968D01*
X122514492Y-113007536D01*
X122547278Y-112913555D01*
X122592921Y-112847715D01*
X122675302Y-112781181D01*
X122766046Y-112748176D01*
X122858685Y-112746073D01*
X122946754Y-112772245D01*
G36*
X121429386Y-112759756D02*
G01*
X121520964Y-112807909D01*
X121588549Y-112885405D01*
X121612557Y-112935227D01*
X121631238Y-113010033D01*
X121640801Y-113104552D01*
X121641708Y-113207710D01*
X121634421Y-113308435D01*
X121619403Y-113395653D01*
X121597115Y-113458291D01*
X121590265Y-113469079D01*
X121509132Y-113549605D01*
X121412766Y-113597836D01*
X121308201Y-113611950D01*
X121202468Y-113590129D01*
X121173043Y-113577047D01*
X121115741Y-113536731D01*
X121065450Y-113483275D01*
X121060697Y-113476495D01*
X121041378Y-113443821D01*
X121028608Y-113408894D01*
X121021064Y-113362914D01*
X121017424Y-113297084D01*
X121016365Y-113202605D01*
X121016346Y-113181423D01*
X121016394Y-113174682D01*
X121211731Y-113174682D01*
X121212868Y-113263849D01*
X121217341Y-113323020D01*
X121226746Y-113361241D01*
X121242676Y-113387553D01*
X121250808Y-113396346D01*
X121297558Y-113429761D01*
X121342947Y-113428237D01*
X121388840Y-113399252D01*
X121416212Y-113368309D01*
X121432423Y-113323143D01*
X121441526Y-113251920D01*
X121442151Y-113243614D01*
X121443704Y-113114537D01*
X121427465Y-113018672D01*
X121393652Y-112956607D01*
X121342484Y-112928932D01*
X121324220Y-112927423D01*
X121276260Y-112935013D01*
X121243453Y-112961308D01*
X121223395Y-113011595D01*
X121213678Y-113091164D01*
X121211731Y-113174682D01*
X121016394Y-113174682D01*
X121017074Y-113080749D01*
X121020129Y-113010406D01*
X121026822Y-112961663D01*
X121038460Y-112925788D01*
X121056353Y-112894048D01*
X121060308Y-112888148D01*
X121126767Y-112808604D01*
X121199185Y-112762429D01*
X121287349Y-112744099D01*
X121317287Y-112743203D01*
X121429386Y-112759756D01*
G37*
X121429386Y-112759756D02*
X121520964Y-112807909D01*
X121588549Y-112885405D01*
X121612557Y-112935227D01*
X121631238Y-113010033D01*
X121640801Y-113104552D01*
X121641708Y-113207710D01*
X121634421Y-113308435D01*
X121619403Y-113395653D01*
X121597115Y-113458291D01*
X121590265Y-113469079D01*
X121509132Y-113549605D01*
X121412766Y-113597836D01*
X121308201Y-113611950D01*
X121202468Y-113590129D01*
X121173043Y-113577047D01*
X121115741Y-113536731D01*
X121065450Y-113483275D01*
X121060697Y-113476495D01*
X121041378Y-113443821D01*
X121028608Y-113408894D01*
X121021064Y-113362914D01*
X121017424Y-113297084D01*
X121016365Y-113202605D01*
X121016346Y-113181423D01*
X121016394Y-113174682D01*
X121211731Y-113174682D01*
X121212868Y-113263849D01*
X121217341Y-113323020D01*
X121226746Y-113361241D01*
X121242676Y-113387553D01*
X121250808Y-113396346D01*
X121297558Y-113429761D01*
X121342947Y-113428237D01*
X121388840Y-113399252D01*
X121416212Y-113368309D01*
X121432423Y-113323143D01*
X121441526Y-113251920D01*
X121442151Y-113243614D01*
X121443704Y-113114537D01*
X121427465Y-113018672D01*
X121393652Y-112956607D01*
X121342484Y-112928932D01*
X121324220Y-112927423D01*
X121276260Y-112935013D01*
X121243453Y-112961308D01*
X121223395Y-113011595D01*
X121213678Y-113091164D01*
X121211731Y-113174682D01*
X121016394Y-113174682D01*
X121017074Y-113080749D01*
X121020129Y-113010406D01*
X121026822Y-112961663D01*
X121038460Y-112925788D01*
X121056353Y-112894048D01*
X121060308Y-112888148D01*
X121126767Y-112808604D01*
X121199185Y-112762429D01*
X121287349Y-112744099D01*
X121317287Y-112743203D01*
X121429386Y-112759756D01*
G36*
X123684164Y-112767589D02*
G01*
X123746867Y-112803858D01*
X123790461Y-112839858D01*
X123822345Y-112877575D01*
X123844310Y-112923699D01*
X123858149Y-112984921D01*
X123865653Y-113067931D01*
X123868617Y-113179419D01*
X123868961Y-113259562D01*
X123868961Y-113554565D01*
X123702885Y-113629015D01*
X123693115Y-113305902D01*
X123689079Y-113185229D01*
X123684844Y-113097641D01*
X123679597Y-113037150D01*
X123672525Y-112997768D01*
X123662811Y-112973507D01*
X123649644Y-112958380D01*
X123645419Y-112955106D01*
X123581409Y-112929534D01*
X123516708Y-112939653D01*
X123478192Y-112966500D01*
X123462525Y-112985524D01*
X123451680Y-113010488D01*
X123444788Y-113048334D01*
X123440979Y-113106002D01*
X123439383Y-113190435D01*
X123439115Y-113278428D01*
X123439063Y-113388823D01*
X123437172Y-113466963D01*
X123430845Y-113519665D01*
X123417483Y-113553742D01*
X123394485Y-113576011D01*
X123359254Y-113593287D01*
X123312197Y-113611238D01*
X123260803Y-113630778D01*
X123266921Y-113283985D01*
X123269384Y-113158968D01*
X123272267Y-113066582D01*
X123276398Y-113000381D01*
X123282607Y-112953920D01*
X123291726Y-112920756D01*
X123304583Y-112894444D01*
X123320084Y-112871229D01*
X123394871Y-112797069D01*
X123486128Y-112754184D01*
X123585383Y-112743912D01*
X123684164Y-112767589D01*
G37*
X123684164Y-112767589D02*
X123746867Y-112803858D01*
X123790461Y-112839858D01*
X123822345Y-112877575D01*
X123844310Y-112923699D01*
X123858149Y-112984921D01*
X123865653Y-113067931D01*
X123868617Y-113179419D01*
X123868961Y-113259562D01*
X123868961Y-113554565D01*
X123702885Y-113629015D01*
X123693115Y-113305902D01*
X123689079Y-113185229D01*
X123684844Y-113097641D01*
X123679597Y-113037150D01*
X123672525Y-112997768D01*
X123662811Y-112973507D01*
X123649644Y-112958380D01*
X123645419Y-112955106D01*
X123581409Y-112929534D01*
X123516708Y-112939653D01*
X123478192Y-112966500D01*
X123462525Y-112985524D01*
X123451680Y-113010488D01*
X123444788Y-113048334D01*
X123440979Y-113106002D01*
X123439383Y-113190435D01*
X123439115Y-113278428D01*
X123439063Y-113388823D01*
X123437172Y-113466963D01*
X123430845Y-113519665D01*
X123417483Y-113553742D01*
X123394485Y-113576011D01*
X123359254Y-113593287D01*
X123312197Y-113611238D01*
X123260803Y-113630778D01*
X123266921Y-113283985D01*
X123269384Y-113158968D01*
X123272267Y-113066582D01*
X123276398Y-113000381D01*
X123282607Y-112953920D01*
X123291726Y-112920756D01*
X123304583Y-112894444D01*
X123320084Y-112871229D01*
X123394871Y-112797069D01*
X123486128Y-112754184D01*
X123585383Y-112743912D01*
X123684164Y-112767589D01*
G36*
X122181386Y-112757005D02*
G01*
X122256039Y-112794227D01*
X122321931Y-112862761D01*
X122340077Y-112888148D01*
X122359845Y-112921366D01*
X122372672Y-112957445D01*
X122380010Y-113005598D01*
X122383313Y-113075036D01*
X122384038Y-113166706D01*
X122380763Y-113292330D01*
X122369377Y-113386654D01*
X122347541Y-113457023D01*
X122312919Y-113510786D01*
X122263170Y-113555288D01*
X122259514Y-113557923D01*
X122210485Y-113584877D01*
X122151445Y-113598212D01*
X122076359Y-113601500D01*
X121954295Y-113601500D01*
X121954244Y-113719997D01*
X121953108Y-113785992D01*
X121946186Y-113824702D01*
X121928098Y-113847919D01*
X121893462Y-113867433D01*
X121885145Y-113871420D01*
X121846220Y-113890103D01*
X121816083Y-113901903D01*
X121793674Y-113902922D01*
X121777933Y-113889261D01*
X121767802Y-113857022D01*
X121762223Y-113802304D01*
X121760135Y-113721211D01*
X121760481Y-113609844D01*
X121762200Y-113464302D01*
X121762737Y-113420769D01*
X121764672Y-113270705D01*
X121766404Y-113172542D01*
X121954192Y-113172542D01*
X121955248Y-113255864D01*
X121959938Y-113310380D01*
X121970551Y-113346337D01*
X121989372Y-113373982D01*
X122002150Y-113387465D01*
X122054390Y-113426917D01*
X122100642Y-113430128D01*
X122148367Y-113397549D01*
X122149577Y-113396346D01*
X122168994Y-113371168D01*
X122180807Y-113336947D01*
X122186765Y-113284248D01*
X122188620Y-113203631D01*
X122188654Y-113185771D01*
X122184170Y-113074675D01*
X122169574Y-112997661D01*
X122143150Y-112950647D01*
X122103183Y-112929550D01*
X122080084Y-112927423D01*
X122025262Y-112937400D01*
X121987658Y-112970252D01*
X121965023Y-113030357D01*
X121955106Y-113122098D01*
X121954192Y-113172542D01*
X121766404Y-113172542D01*
X121766722Y-113154560D01*
X121769373Y-113067179D01*
X121773106Y-113003405D01*
X121778407Y-112958082D01*
X121785758Y-112926055D01*
X121795643Y-112902168D01*
X121808546Y-112881264D01*
X121814079Y-112873398D01*
X121887469Y-112799095D01*
X121980260Y-112756967D01*
X122087596Y-112745222D01*
X122181386Y-112757005D01*
G37*
X122181386Y-112757005D02*
X122256039Y-112794227D01*
X122321931Y-112862761D01*
X122340077Y-112888148D01*
X122359845Y-112921366D01*
X122372672Y-112957445D01*
X122380010Y-113005598D01*
X122383313Y-113075036D01*
X122384038Y-113166706D01*
X122380763Y-113292330D01*
X122369377Y-113386654D01*
X122347541Y-113457023D01*
X122312919Y-113510786D01*
X122263170Y-113555288D01*
X122259514Y-113557923D01*
X122210485Y-113584877D01*
X122151445Y-113598212D01*
X122076359Y-113601500D01*
X121954295Y-113601500D01*
X121954244Y-113719997D01*
X121953108Y-113785992D01*
X121946186Y-113824702D01*
X121928098Y-113847919D01*
X121893462Y-113867433D01*
X121885145Y-113871420D01*
X121846220Y-113890103D01*
X121816083Y-113901903D01*
X121793674Y-113902922D01*
X121777933Y-113889261D01*
X121767802Y-113857022D01*
X121762223Y-113802304D01*
X121760135Y-113721211D01*
X121760481Y-113609844D01*
X121762200Y-113464302D01*
X121762737Y-113420769D01*
X121764672Y-113270705D01*
X121766404Y-113172542D01*
X121954192Y-113172542D01*
X121955248Y-113255864D01*
X121959938Y-113310380D01*
X121970551Y-113346337D01*
X121989372Y-113373982D01*
X122002150Y-113387465D01*
X122054390Y-113426917D01*
X122100642Y-113430128D01*
X122148367Y-113397549D01*
X122149577Y-113396346D01*
X122168994Y-113371168D01*
X122180807Y-113336947D01*
X122186765Y-113284248D01*
X122188620Y-113203631D01*
X122188654Y-113185771D01*
X122184170Y-113074675D01*
X122169574Y-112997661D01*
X122143150Y-112950647D01*
X122103183Y-112929550D01*
X122080084Y-112927423D01*
X122025262Y-112937400D01*
X121987658Y-112970252D01*
X121965023Y-113030357D01*
X121955106Y-113122098D01*
X121954192Y-113172542D01*
X121766404Y-113172542D01*
X121766722Y-113154560D01*
X121769373Y-113067179D01*
X121773106Y-113003405D01*
X121778407Y-112958082D01*
X121785758Y-112926055D01*
X121795643Y-112902168D01*
X121808546Y-112881264D01*
X121814079Y-112873398D01*
X121887469Y-112799095D01*
X121980260Y-112756967D01*
X122087596Y-112745222D01*
X122181386Y-112757005D01*
D10*
X105664095Y-101560380D02*
X105664095Y-102369904D01*
X105711714Y-102465142D01*
X105759333Y-102512761D01*
X105854571Y-102560380D01*
X106045047Y-102560380D01*
X106140285Y-102512761D01*
X106187904Y-102465142D01*
X106235523Y-102369904D01*
X106235523Y-101560380D01*
X106616476Y-101560380D02*
X107235523Y-101560380D01*
X106902190Y-101941333D01*
X107045047Y-101941333D01*
X107140285Y-101988952D01*
X107187904Y-102036571D01*
X107235523Y-102131809D01*
X107235523Y-102369904D01*
X107187904Y-102465142D01*
X107140285Y-102512761D01*
X107045047Y-102560380D01*
X106759333Y-102560380D01*
X106664095Y-102512761D01*
X106616476Y-102465142D01*
X113763809Y-86399690D02*
X113763809Y-86875880D01*
X113430476Y-85875880D02*
X113763809Y-86399690D01*
X114097142Y-85875880D01*
X114954285Y-86875880D02*
X114382857Y-86875880D01*
X114668571Y-86875880D02*
X114668571Y-85875880D01*
X114573333Y-86018738D01*
X114478095Y-86113976D01*
X114382857Y-86161595D01*
X87862142Y-85797642D02*
X87814523Y-85845261D01*
X87671666Y-85892880D01*
X87576428Y-85892880D01*
X87433571Y-85845261D01*
X87338333Y-85750023D01*
X87290714Y-85654785D01*
X87243095Y-85464309D01*
X87243095Y-85321452D01*
X87290714Y-85130976D01*
X87338333Y-85035738D01*
X87433571Y-84940500D01*
X87576428Y-84892880D01*
X87671666Y-84892880D01*
X87814523Y-84940500D01*
X87862142Y-84988119D01*
X88814523Y-85892880D02*
X88243095Y-85892880D01*
X88528809Y-85892880D02*
X88528809Y-84892880D01*
X88433571Y-85035738D01*
X88338333Y-85130976D01*
X88243095Y-85178595D01*
X89147857Y-84892880D02*
X89814523Y-84892880D01*
X89385952Y-85892880D01*
X112704642Y-82081642D02*
X112657023Y-82129261D01*
X112514166Y-82176880D01*
X112418928Y-82176880D01*
X112276071Y-82129261D01*
X112180833Y-82034023D01*
X112133214Y-81938785D01*
X112085595Y-81748309D01*
X112085595Y-81605452D01*
X112133214Y-81414976D01*
X112180833Y-81319738D01*
X112276071Y-81224500D01*
X112418928Y-81176880D01*
X112514166Y-81176880D01*
X112657023Y-81224500D01*
X112704642Y-81272119D01*
X113657023Y-82176880D02*
X113085595Y-82176880D01*
X113371309Y-82176880D02*
X113371309Y-81176880D01*
X113276071Y-81319738D01*
X113180833Y-81414976D01*
X113085595Y-81462595D01*
X114514166Y-81176880D02*
X114323690Y-81176880D01*
X114228452Y-81224500D01*
X114180833Y-81272119D01*
X114085595Y-81414976D01*
X114037976Y-81605452D01*
X114037976Y-81986404D01*
X114085595Y-82081642D01*
X114133214Y-82129261D01*
X114228452Y-82176880D01*
X114418928Y-82176880D01*
X114514166Y-82129261D01*
X114561785Y-82081642D01*
X114609404Y-81986404D01*
X114609404Y-81748309D01*
X114561785Y-81653071D01*
X114514166Y-81605452D01*
X114418928Y-81557833D01*
X114228452Y-81557833D01*
X114133214Y-81605452D01*
X114085595Y-81653071D01*
X114037976Y-81748309D01*
X81574666Y-73057261D02*
X81717523Y-73104880D01*
X81955619Y-73104880D01*
X82050857Y-73057261D01*
X82098476Y-73009642D01*
X82146095Y-72914404D01*
X82146095Y-72819166D01*
X82098476Y-72723928D01*
X82050857Y-72676309D01*
X81955619Y-72628690D01*
X81765142Y-72581071D01*
X81669904Y-72533452D01*
X81622285Y-72485833D01*
X81574666Y-72390595D01*
X81574666Y-72295357D01*
X81622285Y-72200119D01*
X81669904Y-72152500D01*
X81765142Y-72104880D01*
X82003238Y-72104880D01*
X82146095Y-72152500D01*
X82479428Y-72104880D02*
X82717523Y-73104880D01*
X82908000Y-72390595D01*
X83098476Y-73104880D01*
X83336571Y-72104880D01*
X83622285Y-72104880D02*
X84241333Y-72104880D01*
X83908000Y-72485833D01*
X84050857Y-72485833D01*
X84146095Y-72533452D01*
X84193714Y-72581071D01*
X84241333Y-72676309D01*
X84241333Y-72914404D01*
X84193714Y-73009642D01*
X84146095Y-73057261D01*
X84050857Y-73104880D01*
X83765142Y-73104880D01*
X83669904Y-73057261D01*
X83622285Y-73009642D01*
X114248166Y-72993761D02*
X114391023Y-73041380D01*
X114629119Y-73041380D01*
X114724357Y-72993761D01*
X114771976Y-72946142D01*
X114819595Y-72850904D01*
X114819595Y-72755666D01*
X114771976Y-72660428D01*
X114724357Y-72612809D01*
X114629119Y-72565190D01*
X114438642Y-72517571D01*
X114343404Y-72469952D01*
X114295785Y-72422333D01*
X114248166Y-72327095D01*
X114248166Y-72231857D01*
X114295785Y-72136619D01*
X114343404Y-72089000D01*
X114438642Y-72041380D01*
X114676738Y-72041380D01*
X114819595Y-72089000D01*
X115152928Y-72041380D02*
X115391023Y-73041380D01*
X115581500Y-72327095D01*
X115771976Y-73041380D01*
X116010071Y-72041380D01*
X116343404Y-72136619D02*
X116391023Y-72089000D01*
X116486261Y-72041380D01*
X116724357Y-72041380D01*
X116819595Y-72089000D01*
X116867214Y-72136619D01*
X116914833Y-72231857D01*
X116914833Y-72327095D01*
X116867214Y-72469952D01*
X116295785Y-73041380D01*
X116914833Y-73041380D01*
X125591666Y-73048761D02*
X125734523Y-73096380D01*
X125972619Y-73096380D01*
X126067857Y-73048761D01*
X126115476Y-73001142D01*
X126163095Y-72905904D01*
X126163095Y-72810666D01*
X126115476Y-72715428D01*
X126067857Y-72667809D01*
X125972619Y-72620190D01*
X125782142Y-72572571D01*
X125686904Y-72524952D01*
X125639285Y-72477333D01*
X125591666Y-72382095D01*
X125591666Y-72286857D01*
X125639285Y-72191619D01*
X125686904Y-72144000D01*
X125782142Y-72096380D01*
X126020238Y-72096380D01*
X126163095Y-72144000D01*
X126496428Y-72096380D02*
X126734523Y-73096380D01*
X126925000Y-72382095D01*
X127115476Y-73096380D01*
X127353571Y-72096380D01*
X128258333Y-73096380D02*
X127686904Y-73096380D01*
X127972619Y-73096380D02*
X127972619Y-72096380D01*
X127877380Y-72239238D01*
X127782142Y-72334476D01*
X127686904Y-72382095D01*
X93859142Y-85797642D02*
X93811523Y-85845261D01*
X93668666Y-85892880D01*
X93573428Y-85892880D01*
X93430571Y-85845261D01*
X93335333Y-85750023D01*
X93287714Y-85654785D01*
X93240095Y-85464309D01*
X93240095Y-85321452D01*
X93287714Y-85130976D01*
X93335333Y-85035738D01*
X93430571Y-84940500D01*
X93573428Y-84892880D01*
X93668666Y-84892880D01*
X93811523Y-84940500D01*
X93859142Y-84988119D01*
X94811523Y-85892880D02*
X94240095Y-85892880D01*
X94525809Y-85892880D02*
X94525809Y-84892880D01*
X94430571Y-85035738D01*
X94335333Y-85130976D01*
X94240095Y-85178595D01*
X95716285Y-84892880D02*
X95240095Y-84892880D01*
X95192476Y-85369071D01*
X95240095Y-85321452D01*
X95335333Y-85273833D01*
X95573428Y-85273833D01*
X95668666Y-85321452D01*
X95716285Y-85369071D01*
X95763904Y-85464309D01*
X95763904Y-85702404D01*
X95716285Y-85797642D01*
X95668666Y-85845261D01*
X95573428Y-85892880D01*
X95335333Y-85892880D01*
X95240095Y-85845261D01*
X95192476Y-85797642D01*
X91781333Y-108561142D02*
X91733714Y-108608761D01*
X91590857Y-108656380D01*
X91495619Y-108656380D01*
X91352761Y-108608761D01*
X91257523Y-108513523D01*
X91209904Y-108418285D01*
X91162285Y-108227809D01*
X91162285Y-108084952D01*
X91209904Y-107894476D01*
X91257523Y-107799238D01*
X91352761Y-107704000D01*
X91495619Y-107656380D01*
X91590857Y-107656380D01*
X91733714Y-107704000D01*
X91781333Y-107751619D01*
X92114666Y-107656380D02*
X92733714Y-107656380D01*
X92400380Y-108037333D01*
X92543238Y-108037333D01*
X92638476Y-108084952D01*
X92686095Y-108132571D01*
X92733714Y-108227809D01*
X92733714Y-108465904D01*
X92686095Y-108561142D01*
X92638476Y-108608761D01*
X92543238Y-108656380D01*
X92257523Y-108656380D01*
X92162285Y-108608761D01*
X92114666Y-108561142D01*
X96162833Y-101228142D02*
X96115214Y-101275761D01*
X95972357Y-101323380D01*
X95877119Y-101323380D01*
X95734261Y-101275761D01*
X95639023Y-101180523D01*
X95591404Y-101085285D01*
X95543785Y-100894809D01*
X95543785Y-100751952D01*
X95591404Y-100561476D01*
X95639023Y-100466238D01*
X95734261Y-100371000D01*
X95877119Y-100323380D01*
X95972357Y-100323380D01*
X96115214Y-100371000D01*
X96162833Y-100418619D01*
X97019976Y-100656714D02*
X97019976Y-101323380D01*
X96781880Y-100275761D02*
X96543785Y-100990047D01*
X97162833Y-100990047D01*
X97115333Y-111609142D02*
X97067714Y-111656761D01*
X96924857Y-111704380D01*
X96829619Y-111704380D01*
X96686761Y-111656761D01*
X96591523Y-111561523D01*
X96543904Y-111466285D01*
X96496285Y-111275809D01*
X96496285Y-111132952D01*
X96543904Y-110942476D01*
X96591523Y-110847238D01*
X96686761Y-110752000D01*
X96829619Y-110704380D01*
X96924857Y-110704380D01*
X97067714Y-110752000D01*
X97115333Y-110799619D01*
X98020095Y-110704380D02*
X97543904Y-110704380D01*
X97496285Y-111180571D01*
X97543904Y-111132952D01*
X97639142Y-111085333D01*
X97877238Y-111085333D01*
X97972476Y-111132952D01*
X98020095Y-111180571D01*
X98067714Y-111275809D01*
X98067714Y-111513904D01*
X98020095Y-111609142D01*
X97972476Y-111656761D01*
X97877238Y-111704380D01*
X97639142Y-111704380D01*
X97543904Y-111656761D01*
X97496285Y-111609142D01*
X116165333Y-100179142D02*
X116117714Y-100226761D01*
X115974857Y-100274380D01*
X115879619Y-100274380D01*
X115736761Y-100226761D01*
X115641523Y-100131523D01*
X115593904Y-100036285D01*
X115546285Y-99845809D01*
X115546285Y-99702952D01*
X115593904Y-99512476D01*
X115641523Y-99417238D01*
X115736761Y-99322000D01*
X115879619Y-99274380D01*
X115974857Y-99274380D01*
X116117714Y-99322000D01*
X116165333Y-99369619D01*
X117022476Y-99274380D02*
X116832000Y-99274380D01*
X116736761Y-99322000D01*
X116689142Y-99369619D01*
X116593904Y-99512476D01*
X116546285Y-99702952D01*
X116546285Y-100083904D01*
X116593904Y-100179142D01*
X116641523Y-100226761D01*
X116736761Y-100274380D01*
X116927238Y-100274380D01*
X117022476Y-100226761D01*
X117070095Y-100179142D01*
X117117714Y-100083904D01*
X117117714Y-99845809D01*
X117070095Y-99750571D01*
X117022476Y-99702952D01*
X116927238Y-99655333D01*
X116736761Y-99655333D01*
X116641523Y-99702952D01*
X116593904Y-99750571D01*
X116546285Y-99845809D01*
X115149333Y-94591142D02*
X115101714Y-94638761D01*
X114958857Y-94686380D01*
X114863619Y-94686380D01*
X114720761Y-94638761D01*
X114625523Y-94543523D01*
X114577904Y-94448285D01*
X114530285Y-94257809D01*
X114530285Y-94114952D01*
X114577904Y-93924476D01*
X114625523Y-93829238D01*
X114720761Y-93734000D01*
X114863619Y-93686380D01*
X114958857Y-93686380D01*
X115101714Y-93734000D01*
X115149333Y-93781619D01*
X115482666Y-93686380D02*
X116149333Y-93686380D01*
X115720761Y-94686380D01*
X110499833Y-94591142D02*
X110452214Y-94638761D01*
X110309357Y-94686380D01*
X110214119Y-94686380D01*
X110071261Y-94638761D01*
X109976023Y-94543523D01*
X109928404Y-94448285D01*
X109880785Y-94257809D01*
X109880785Y-94114952D01*
X109928404Y-93924476D01*
X109976023Y-93829238D01*
X110071261Y-93734000D01*
X110214119Y-93686380D01*
X110309357Y-93686380D01*
X110452214Y-93734000D01*
X110499833Y-93781619D01*
X111071261Y-94114952D02*
X110976023Y-94067333D01*
X110928404Y-94019714D01*
X110880785Y-93924476D01*
X110880785Y-93876857D01*
X110928404Y-93781619D01*
X110976023Y-93734000D01*
X111071261Y-93686380D01*
X111261738Y-93686380D01*
X111356976Y-93734000D01*
X111404595Y-93781619D01*
X111452214Y-93876857D01*
X111452214Y-93924476D01*
X111404595Y-94019714D01*
X111356976Y-94067333D01*
X111261738Y-94114952D01*
X111071261Y-94114952D01*
X110976023Y-94162571D01*
X110928404Y-94210190D01*
X110880785Y-94305428D01*
X110880785Y-94495904D01*
X110928404Y-94591142D01*
X110976023Y-94638761D01*
X111071261Y-94686380D01*
X111261738Y-94686380D01*
X111356976Y-94638761D01*
X111404595Y-94591142D01*
X111452214Y-94495904D01*
X111452214Y-94305428D01*
X111404595Y-94210190D01*
X111356976Y-94162571D01*
X111261738Y-94114952D01*
X118782833Y-81924142D02*
X118735214Y-81971761D01*
X118592357Y-82019380D01*
X118497119Y-82019380D01*
X118354261Y-81971761D01*
X118259023Y-81876523D01*
X118211404Y-81781285D01*
X118163785Y-81590809D01*
X118163785Y-81447952D01*
X118211404Y-81257476D01*
X118259023Y-81162238D01*
X118354261Y-81067000D01*
X118497119Y-81019380D01*
X118592357Y-81019380D01*
X118735214Y-81067000D01*
X118782833Y-81114619D01*
X119259023Y-82019380D02*
X119449500Y-82019380D01*
X119544738Y-81971761D01*
X119592357Y-81924142D01*
X119687595Y-81781285D01*
X119735214Y-81590809D01*
X119735214Y-81209857D01*
X119687595Y-81114619D01*
X119639976Y-81067000D01*
X119544738Y-81019380D01*
X119354261Y-81019380D01*
X119259023Y-81067000D01*
X119211404Y-81114619D01*
X119163785Y-81209857D01*
X119163785Y-81447952D01*
X119211404Y-81543190D01*
X119259023Y-81590809D01*
X119354261Y-81638428D01*
X119544738Y-81638428D01*
X119639976Y-81590809D01*
X119687595Y-81543190D01*
X119735214Y-81447952D01*
X112387142Y-111482142D02*
X112339523Y-111529761D01*
X112196666Y-111577380D01*
X112101428Y-111577380D01*
X111958571Y-111529761D01*
X111863333Y-111434523D01*
X111815714Y-111339285D01*
X111768095Y-111148809D01*
X111768095Y-111005952D01*
X111815714Y-110815476D01*
X111863333Y-110720238D01*
X111958571Y-110625000D01*
X112101428Y-110577380D01*
X112196666Y-110577380D01*
X112339523Y-110625000D01*
X112387142Y-110672619D01*
X113339523Y-111577380D02*
X112768095Y-111577380D01*
X113053809Y-111577380D02*
X113053809Y-110577380D01*
X112958571Y-110720238D01*
X112863333Y-110815476D01*
X112768095Y-110863095D01*
X113958571Y-110577380D02*
X114053809Y-110577380D01*
X114149047Y-110625000D01*
X114196666Y-110672619D01*
X114244285Y-110767857D01*
X114291904Y-110958333D01*
X114291904Y-111196428D01*
X114244285Y-111386904D01*
X114196666Y-111482142D01*
X114149047Y-111529761D01*
X114053809Y-111577380D01*
X113958571Y-111577380D01*
X113863333Y-111529761D01*
X113815714Y-111482142D01*
X113768095Y-111386904D01*
X113720476Y-111196428D01*
X113720476Y-110958333D01*
X113768095Y-110767857D01*
X113815714Y-110672619D01*
X113863333Y-110625000D01*
X113958571Y-110577380D01*
X102417642Y-94845142D02*
X102370023Y-94892761D01*
X102227166Y-94940380D01*
X102131928Y-94940380D01*
X101989071Y-94892761D01*
X101893833Y-94797523D01*
X101846214Y-94702285D01*
X101798595Y-94511809D01*
X101798595Y-94368952D01*
X101846214Y-94178476D01*
X101893833Y-94083238D01*
X101989071Y-93988000D01*
X102131928Y-93940380D01*
X102227166Y-93940380D01*
X102370023Y-93988000D01*
X102417642Y-94035619D01*
X103370023Y-94940380D02*
X102798595Y-94940380D01*
X103084309Y-94940380D02*
X103084309Y-93940380D01*
X102989071Y-94083238D01*
X102893833Y-94178476D01*
X102798595Y-94226095D01*
X104227166Y-94273714D02*
X104227166Y-94940380D01*
X103989071Y-93892761D02*
X103750976Y-94607047D01*
X104370023Y-94607047D01*
X113847642Y-97385142D02*
X113800023Y-97432761D01*
X113657166Y-97480380D01*
X113561928Y-97480380D01*
X113419071Y-97432761D01*
X113323833Y-97337523D01*
X113276214Y-97242285D01*
X113228595Y-97051809D01*
X113228595Y-96908952D01*
X113276214Y-96718476D01*
X113323833Y-96623238D01*
X113419071Y-96528000D01*
X113561928Y-96480380D01*
X113657166Y-96480380D01*
X113800023Y-96528000D01*
X113847642Y-96575619D01*
X114800023Y-97480380D02*
X114228595Y-97480380D01*
X114514309Y-97480380D02*
X114514309Y-96480380D01*
X114419071Y-96623238D01*
X114323833Y-96718476D01*
X114228595Y-96766095D01*
X115133357Y-96480380D02*
X115752404Y-96480380D01*
X115419071Y-96861333D01*
X115561928Y-96861333D01*
X115657166Y-96908952D01*
X115704785Y-96956571D01*
X115752404Y-97051809D01*
X115752404Y-97289904D01*
X115704785Y-97385142D01*
X115657166Y-97432761D01*
X115561928Y-97480380D01*
X115276214Y-97480380D01*
X115180976Y-97432761D01*
X115133357Y-97385142D01*
X89803833Y-101511642D02*
X89756214Y-101559261D01*
X89613357Y-101606880D01*
X89518119Y-101606880D01*
X89375261Y-101559261D01*
X89280023Y-101464023D01*
X89232404Y-101368785D01*
X89184785Y-101178309D01*
X89184785Y-101035452D01*
X89232404Y-100844976D01*
X89280023Y-100749738D01*
X89375261Y-100654500D01*
X89518119Y-100606880D01*
X89613357Y-100606880D01*
X89756214Y-100654500D01*
X89803833Y-100702119D01*
X90184785Y-100702119D02*
X90232404Y-100654500D01*
X90327642Y-100606880D01*
X90565738Y-100606880D01*
X90660976Y-100654500D01*
X90708595Y-100702119D01*
X90756214Y-100797357D01*
X90756214Y-100892595D01*
X90708595Y-101035452D01*
X90137166Y-101606880D01*
X90756214Y-101606880D01*
X95550642Y-104117142D02*
X95503023Y-104164761D01*
X95360166Y-104212380D01*
X95264928Y-104212380D01*
X95122071Y-104164761D01*
X95026833Y-104069523D01*
X94979214Y-103974285D01*
X94931595Y-103783809D01*
X94931595Y-103640952D01*
X94979214Y-103450476D01*
X95026833Y-103355238D01*
X95122071Y-103260000D01*
X95264928Y-103212380D01*
X95360166Y-103212380D01*
X95503023Y-103260000D01*
X95550642Y-103307619D01*
X96503023Y-104212380D02*
X95931595Y-104212380D01*
X96217309Y-104212380D02*
X96217309Y-103212380D01*
X96122071Y-103355238D01*
X96026833Y-103450476D01*
X95931595Y-103498095D01*
X97455404Y-104212380D02*
X96883976Y-104212380D01*
X97169690Y-104212380D02*
X97169690Y-103212380D01*
X97074452Y-103355238D01*
X96979214Y-103450476D01*
X96883976Y-103498095D01*
X106418142Y-112625142D02*
X106370523Y-112672761D01*
X106227666Y-112720380D01*
X106132428Y-112720380D01*
X105989571Y-112672761D01*
X105894333Y-112577523D01*
X105846714Y-112482285D01*
X105799095Y-112291809D01*
X105799095Y-112148952D01*
X105846714Y-111958476D01*
X105894333Y-111863238D01*
X105989571Y-111768000D01*
X106132428Y-111720380D01*
X106227666Y-111720380D01*
X106370523Y-111768000D01*
X106418142Y-111815619D01*
X107370523Y-112720380D02*
X106799095Y-112720380D01*
X107084809Y-112720380D02*
X107084809Y-111720380D01*
X106989571Y-111863238D01*
X106894333Y-111958476D01*
X106799095Y-112006095D01*
X107751476Y-111815619D02*
X107799095Y-111768000D01*
X107894333Y-111720380D01*
X108132428Y-111720380D01*
X108227666Y-111768000D01*
X108275285Y-111815619D01*
X108322904Y-111910857D01*
X108322904Y-112006095D01*
X108275285Y-112148952D01*
X107703857Y-112720380D01*
X108322904Y-112720380D01*
X79081333Y-108307142D02*
X79033714Y-108354761D01*
X78890857Y-108402380D01*
X78795619Y-108402380D01*
X78652761Y-108354761D01*
X78557523Y-108259523D01*
X78509904Y-108164285D01*
X78462285Y-107973809D01*
X78462285Y-107830952D01*
X78509904Y-107640476D01*
X78557523Y-107545238D01*
X78652761Y-107450000D01*
X78795619Y-107402380D01*
X78890857Y-107402380D01*
X79033714Y-107450000D01*
X79081333Y-107497619D01*
X80033714Y-108402380D02*
X79462285Y-108402380D01*
X79748000Y-108402380D02*
X79748000Y-107402380D01*
X79652761Y-107545238D01*
X79557523Y-107640476D01*
X79462285Y-107688095D01*
X123872666Y-83843880D02*
X123872666Y-84558166D01*
X123825047Y-84701023D01*
X123729809Y-84796261D01*
X123586952Y-84843880D01*
X123491714Y-84843880D01*
X124872666Y-84843880D02*
X124301238Y-84843880D01*
X124586952Y-84843880D02*
X124586952Y-83843880D01*
X124491714Y-83986738D01*
X124396476Y-84081976D01*
X124301238Y-84129595D01*
X125079166Y-91546880D02*
X125079166Y-92261166D01*
X125031547Y-92404023D01*
X124936309Y-92499261D01*
X124793452Y-92546880D01*
X124698214Y-92546880D01*
X125983928Y-91880214D02*
X125983928Y-92546880D01*
X125745833Y-91499261D02*
X125507738Y-92213547D01*
X126126785Y-92213547D01*
X126325404Y-80017880D02*
X126325404Y-79017880D01*
X126563500Y-79017880D01*
X126706357Y-79065500D01*
X126801595Y-79160738D01*
X126849214Y-79255976D01*
X126896833Y-79446452D01*
X126896833Y-79589309D01*
X126849214Y-79779785D01*
X126801595Y-79875023D01*
X126706357Y-79970261D01*
X126563500Y-80017880D01*
X126325404Y-80017880D01*
X127849214Y-80017880D02*
X127277785Y-80017880D01*
X127563500Y-80017880D02*
X127563500Y-79017880D01*
X127468261Y-79160738D01*
X127373023Y-79255976D01*
X127277785Y-79303595D01*
X84797595Y-103592380D02*
X84797595Y-104401904D01*
X84845214Y-104497142D01*
X84892833Y-104544761D01*
X84988071Y-104592380D01*
X85178547Y-104592380D01*
X85273785Y-104544761D01*
X85321404Y-104497142D01*
X85369023Y-104401904D01*
X85369023Y-103592380D01*
X85797595Y-103687619D02*
X85845214Y-103640000D01*
X85940452Y-103592380D01*
X86178547Y-103592380D01*
X86273785Y-103640000D01*
X86321404Y-103687619D01*
X86369023Y-103782857D01*
X86369023Y-103878095D01*
X86321404Y-104020952D01*
X85749976Y-104592380D01*
X86369023Y-104592380D01*
X83216761Y-118657619D02*
X83121523Y-118610000D01*
X83026285Y-118514761D01*
X82883428Y-118371904D01*
X82788190Y-118324285D01*
X82692952Y-118324285D01*
X82740571Y-118562380D02*
X82645333Y-118514761D01*
X82550095Y-118419523D01*
X82502476Y-118229047D01*
X82502476Y-117895714D01*
X82550095Y-117705238D01*
X82645333Y-117610000D01*
X82740571Y-117562380D01*
X82931047Y-117562380D01*
X83026285Y-117610000D01*
X83121523Y-117705238D01*
X83169142Y-117895714D01*
X83169142Y-118229047D01*
X83121523Y-118419523D01*
X83026285Y-118514761D01*
X82931047Y-118562380D01*
X82740571Y-118562380D01*
X84121523Y-118562380D02*
X83550095Y-118562380D01*
X83835809Y-118562380D02*
X83835809Y-117562380D01*
X83740571Y-117705238D01*
X83645333Y-117800476D01*
X83550095Y-117848095D01*
X123023333Y-82240380D02*
X122690000Y-81764190D01*
X122451904Y-82240380D02*
X122451904Y-81240380D01*
X122832857Y-81240380D01*
X122928095Y-81288000D01*
X122975714Y-81335619D01*
X123023333Y-81430857D01*
X123023333Y-81573714D01*
X122975714Y-81668952D01*
X122928095Y-81716571D01*
X122832857Y-81764190D01*
X122451904Y-81764190D01*
X123975714Y-82240380D02*
X123404285Y-82240380D01*
X123690000Y-82240380D02*
X123690000Y-81240380D01*
X123594761Y-81383238D01*
X123499523Y-81478476D01*
X123404285Y-81526095D01*
X119467333Y-102560380D02*
X119134000Y-102084190D01*
X118895904Y-102560380D02*
X118895904Y-101560380D01*
X119276857Y-101560380D01*
X119372095Y-101608000D01*
X119419714Y-101655619D01*
X119467333Y-101750857D01*
X119467333Y-101893714D01*
X119419714Y-101988952D01*
X119372095Y-102036571D01*
X119276857Y-102084190D01*
X118895904Y-102084190D01*
X119848285Y-101655619D02*
X119895904Y-101608000D01*
X119991142Y-101560380D01*
X120229238Y-101560380D01*
X120324476Y-101608000D01*
X120372095Y-101655619D01*
X120419714Y-101750857D01*
X120419714Y-101846095D01*
X120372095Y-101988952D01*
X119800666Y-102560380D01*
X120419714Y-102560380D01*
X89821833Y-113735380D02*
X89488500Y-113259190D01*
X89250404Y-113735380D02*
X89250404Y-112735380D01*
X89631357Y-112735380D01*
X89726595Y-112783000D01*
X89774214Y-112830619D01*
X89821833Y-112925857D01*
X89821833Y-113068714D01*
X89774214Y-113163952D01*
X89726595Y-113211571D01*
X89631357Y-113259190D01*
X89250404Y-113259190D01*
X90155166Y-112735380D02*
X90774214Y-112735380D01*
X90440880Y-113116333D01*
X90583738Y-113116333D01*
X90678976Y-113163952D01*
X90726595Y-113211571D01*
X90774214Y-113306809D01*
X90774214Y-113544904D01*
X90726595Y-113640142D01*
X90678976Y-113687761D01*
X90583738Y-113735380D01*
X90298023Y-113735380D01*
X90202785Y-113687761D01*
X90155166Y-113640142D01*
X85177333Y-113736380D02*
X84844000Y-113260190D01*
X84605904Y-113736380D02*
X84605904Y-112736380D01*
X84986857Y-112736380D01*
X85082095Y-112784000D01*
X85129714Y-112831619D01*
X85177333Y-112926857D01*
X85177333Y-113069714D01*
X85129714Y-113164952D01*
X85082095Y-113212571D01*
X84986857Y-113260190D01*
X84605904Y-113260190D01*
X86034476Y-113069714D02*
X86034476Y-113736380D01*
X85796380Y-112688761D02*
X85558285Y-113403047D01*
X86177333Y-113403047D01*
X108989833Y-79636880D02*
X108656500Y-79160690D01*
X108418404Y-79636880D02*
X108418404Y-78636880D01*
X108799357Y-78636880D01*
X108894595Y-78684500D01*
X108942214Y-78732119D01*
X108989833Y-78827357D01*
X108989833Y-78970214D01*
X108942214Y-79065452D01*
X108894595Y-79113071D01*
X108799357Y-79160690D01*
X108418404Y-79160690D01*
X109894595Y-78636880D02*
X109418404Y-78636880D01*
X109370785Y-79113071D01*
X109418404Y-79065452D01*
X109513642Y-79017833D01*
X109751738Y-79017833D01*
X109846976Y-79065452D01*
X109894595Y-79113071D01*
X109942214Y-79208309D01*
X109942214Y-79446404D01*
X109894595Y-79541642D01*
X109846976Y-79589261D01*
X109751738Y-79636880D01*
X109513642Y-79636880D01*
X109418404Y-79589261D01*
X109370785Y-79541642D01*
X89368333Y-79645880D02*
X89035000Y-79169690D01*
X88796904Y-79645880D02*
X88796904Y-78645880D01*
X89177857Y-78645880D01*
X89273095Y-78693500D01*
X89320714Y-78741119D01*
X89368333Y-78836357D01*
X89368333Y-78979214D01*
X89320714Y-79074452D01*
X89273095Y-79122071D01*
X89177857Y-79169690D01*
X88796904Y-79169690D01*
X90225476Y-78645880D02*
X90035000Y-78645880D01*
X89939761Y-78693500D01*
X89892142Y-78741119D01*
X89796904Y-78883976D01*
X89749285Y-79074452D01*
X89749285Y-79455404D01*
X89796904Y-79550642D01*
X89844523Y-79598261D01*
X89939761Y-79645880D01*
X90130238Y-79645880D01*
X90225476Y-79598261D01*
X90273095Y-79550642D01*
X90320714Y-79455404D01*
X90320714Y-79217309D01*
X90273095Y-79122071D01*
X90225476Y-79074452D01*
X90130238Y-79026833D01*
X89939761Y-79026833D01*
X89844523Y-79074452D01*
X89796904Y-79122071D01*
X89749285Y-79217309D01*
X111196523Y-116276380D02*
X110863190Y-115800190D01*
X110625095Y-116276380D02*
X110625095Y-115276380D01*
X111006047Y-115276380D01*
X111101285Y-115324000D01*
X111148904Y-115371619D01*
X111196523Y-115466857D01*
X111196523Y-115609714D01*
X111148904Y-115704952D01*
X111101285Y-115752571D01*
X111006047Y-115800190D01*
X110625095Y-115800190D01*
X111625095Y-116276380D02*
X111625095Y-115276380D01*
X112196523Y-116276380D01*
X112196523Y-115276380D01*
X113196523Y-116276380D02*
X112625095Y-116276380D01*
X112910809Y-116276380D02*
X112910809Y-115276380D01*
X112815571Y-115419238D01*
X112720333Y-115514476D01*
X112625095Y-115562095D01*
X120785023Y-116276380D02*
X120451690Y-115800190D01*
X120213595Y-116276380D02*
X120213595Y-115276380D01*
X120594547Y-115276380D01*
X120689785Y-115324000D01*
X120737404Y-115371619D01*
X120785023Y-115466857D01*
X120785023Y-115609714D01*
X120737404Y-115704952D01*
X120689785Y-115752571D01*
X120594547Y-115800190D01*
X120213595Y-115800190D01*
X121213595Y-116276380D02*
X121213595Y-115276380D01*
X121785023Y-116276380D01*
X121785023Y-115276380D01*
X122213595Y-115371619D02*
X122261214Y-115324000D01*
X122356452Y-115276380D01*
X122594547Y-115276380D01*
X122689785Y-115324000D01*
X122737404Y-115371619D01*
X122785023Y-115466857D01*
X122785023Y-115562095D01*
X122737404Y-115704952D01*
X122165976Y-116276380D01*
X122785023Y-116276380D01*
M02*
