G04 #@! TF.GenerationSoftware,KiCad,Pcbnew,5.1.5+dfsg1-2build2*
G04 #@! TF.CreationDate,2020-05-22T20:54:53+02:00*
G04 #@! TF.ProjectId,KungFuFlash,4b756e67-4675-4466-9c61-73682e6b6963,1*
G04 #@! TF.SameCoordinates,Original*
G04 #@! TF.FileFunction,Soldermask,Top*
G04 #@! TF.FilePolarity,Negative*
%FSLAX46Y46*%
G04 Gerber Fmt 4.6, Leading zero omitted, Abs format (unit mm)*
G04 Created by KiCad (PCBNEW 5.1.5+dfsg1-2build2) date 2020-05-22 20:54:53*
%MOMM*%
%LPD*%
G04 APERTURE LIST*
%ADD10C,0.100000*%
G04 APERTURE END LIST*
D10*
G36*
X79096553Y-122078435D02*
G01*
X79118164Y-122089986D01*
X79141613Y-122097099D01*
X79165999Y-122099501D01*
X79830001Y-122099501D01*
X79854387Y-122097099D01*
X79877836Y-122089986D01*
X79899447Y-122078435D01*
X79909449Y-122070227D01*
X81626551Y-122070227D01*
X81636553Y-122078435D01*
X81658164Y-122089986D01*
X81681613Y-122097099D01*
X81705999Y-122099501D01*
X82370001Y-122099501D01*
X82394387Y-122097099D01*
X82417836Y-122089986D01*
X82439447Y-122078435D01*
X82449449Y-122070227D01*
X84166551Y-122070227D01*
X84176553Y-122078435D01*
X84198164Y-122089986D01*
X84221613Y-122097099D01*
X84245999Y-122099501D01*
X84910001Y-122099501D01*
X84934387Y-122097099D01*
X84957836Y-122089986D01*
X84979447Y-122078435D01*
X84989449Y-122070227D01*
X86706551Y-122070227D01*
X86716553Y-122078435D01*
X86738164Y-122089986D01*
X86761613Y-122097099D01*
X86785999Y-122099501D01*
X87450001Y-122099501D01*
X87474387Y-122097099D01*
X87497836Y-122089986D01*
X87519447Y-122078435D01*
X87529449Y-122070227D01*
X89246551Y-122070227D01*
X89256553Y-122078435D01*
X89278164Y-122089986D01*
X89301613Y-122097099D01*
X89325999Y-122099501D01*
X89990001Y-122099501D01*
X90014387Y-122097099D01*
X90037836Y-122089986D01*
X90059447Y-122078435D01*
X90069449Y-122070227D01*
X91786551Y-122070227D01*
X91796553Y-122078435D01*
X91818164Y-122089986D01*
X91841613Y-122097099D01*
X91865999Y-122099501D01*
X92530001Y-122099501D01*
X92554387Y-122097099D01*
X92577836Y-122089986D01*
X92599447Y-122078435D01*
X92609449Y-122070227D01*
X94326551Y-122070227D01*
X94336553Y-122078435D01*
X94358164Y-122089986D01*
X94381613Y-122097099D01*
X94405999Y-122099501D01*
X95070001Y-122099501D01*
X95094387Y-122097099D01*
X95117836Y-122089986D01*
X95139447Y-122078435D01*
X95149449Y-122070227D01*
X96866551Y-122070227D01*
X96876553Y-122078435D01*
X96898164Y-122089986D01*
X96921613Y-122097099D01*
X96945999Y-122099501D01*
X97610001Y-122099501D01*
X97634387Y-122097099D01*
X97657836Y-122089986D01*
X97679447Y-122078435D01*
X97689449Y-122070227D01*
X99406551Y-122070227D01*
X99416553Y-122078435D01*
X99438164Y-122089986D01*
X99461613Y-122097099D01*
X99485999Y-122099501D01*
X100150001Y-122099501D01*
X100174387Y-122097099D01*
X100197836Y-122089986D01*
X100219447Y-122078435D01*
X100229449Y-122070227D01*
X101946551Y-122070227D01*
X101956553Y-122078435D01*
X101978164Y-122089986D01*
X102001613Y-122097099D01*
X102025999Y-122099501D01*
X102690001Y-122099501D01*
X102714387Y-122097099D01*
X102737836Y-122089986D01*
X102759447Y-122078435D01*
X102769449Y-122070227D01*
X104486551Y-122070227D01*
X104496553Y-122078435D01*
X104518164Y-122089986D01*
X104541613Y-122097099D01*
X104565999Y-122099501D01*
X105230001Y-122099501D01*
X105254387Y-122097099D01*
X105277836Y-122089986D01*
X105299447Y-122078435D01*
X105309449Y-122070227D01*
X107026551Y-122070227D01*
X107036553Y-122078435D01*
X107058164Y-122089986D01*
X107081613Y-122097099D01*
X107105999Y-122099501D01*
X107770001Y-122099501D01*
X107794387Y-122097099D01*
X107817836Y-122089986D01*
X107839447Y-122078435D01*
X107849449Y-122070227D01*
X109566551Y-122070227D01*
X109576553Y-122078435D01*
X109598164Y-122089986D01*
X109621613Y-122097099D01*
X109645999Y-122099501D01*
X110310001Y-122099501D01*
X110334387Y-122097099D01*
X110357836Y-122089986D01*
X110379447Y-122078435D01*
X110389449Y-122070227D01*
X112106551Y-122070227D01*
X112116553Y-122078435D01*
X112138164Y-122089986D01*
X112161613Y-122097099D01*
X112185999Y-122099501D01*
X112850001Y-122099501D01*
X112874387Y-122097099D01*
X112897836Y-122089986D01*
X112919447Y-122078435D01*
X112929449Y-122070227D01*
X114646551Y-122070227D01*
X114656553Y-122078435D01*
X114678164Y-122089986D01*
X114701613Y-122097099D01*
X114725999Y-122099501D01*
X115390001Y-122099501D01*
X115414387Y-122097099D01*
X115437836Y-122089986D01*
X115459447Y-122078435D01*
X115469449Y-122070227D01*
X117186551Y-122070227D01*
X117196553Y-122078435D01*
X117218164Y-122089986D01*
X117241613Y-122097099D01*
X117265999Y-122099501D01*
X117930001Y-122099501D01*
X117954387Y-122097099D01*
X117977836Y-122089986D01*
X117999447Y-122078435D01*
X118009449Y-122070227D01*
X119726551Y-122070227D01*
X119736553Y-122078435D01*
X119758164Y-122089986D01*
X119781613Y-122097099D01*
X119805999Y-122099501D01*
X120470001Y-122099501D01*
X120494387Y-122097099D01*
X120517836Y-122089986D01*
X120539447Y-122078435D01*
X120549449Y-122070227D01*
X122266551Y-122070227D01*
X122276553Y-122078435D01*
X122298164Y-122089986D01*
X122321613Y-122097099D01*
X122345999Y-122099501D01*
X123010001Y-122099501D01*
X123034387Y-122097099D01*
X123057836Y-122089986D01*
X123079447Y-122078435D01*
X123089449Y-122070227D01*
X124806551Y-122070227D01*
X124816553Y-122078435D01*
X124838164Y-122089986D01*
X124861613Y-122097099D01*
X124885999Y-122099501D01*
X125550001Y-122099501D01*
X125574387Y-122097099D01*
X125597836Y-122089986D01*
X125619447Y-122078435D01*
X125629449Y-122070227D01*
X127346551Y-122070227D01*
X127356553Y-122078435D01*
X127378164Y-122089986D01*
X127401613Y-122097099D01*
X127425999Y-122099501D01*
X128090001Y-122099501D01*
X128114387Y-122097099D01*
X128137836Y-122089986D01*
X128159447Y-122078435D01*
X128169449Y-122070227D01*
X129886551Y-122070227D01*
X129896553Y-122078435D01*
X129918164Y-122089986D01*
X129941613Y-122097099D01*
X129965999Y-122099501D01*
X130630001Y-122099501D01*
X130654387Y-122097099D01*
X130677836Y-122089986D01*
X130699447Y-122078435D01*
X130709449Y-122070227D01*
X132426551Y-122070227D01*
X132436553Y-122078435D01*
X132458164Y-122089986D01*
X132481613Y-122097099D01*
X132505999Y-122099501D01*
X134108000Y-122099501D01*
X134108000Y-130399501D01*
X75688000Y-130399501D01*
X75688000Y-122099501D01*
X77290001Y-122099501D01*
X77314387Y-122097099D01*
X77337836Y-122089986D01*
X77359447Y-122078435D01*
X77369449Y-122070227D01*
X79086551Y-122070227D01*
X79096553Y-122078435D01*
G37*
G36*
X83763000Y-117214000D02*
G01*
X82861000Y-117214000D01*
X82861000Y-116212000D01*
X83763000Y-116212000D01*
X83763000Y-117214000D01*
G37*
G36*
X124812500Y-117186000D02*
G01*
X123460500Y-117186000D01*
X123460500Y-116284000D01*
X124812500Y-116284000D01*
X124812500Y-117186000D01*
G37*
G36*
X126462500Y-117186000D02*
G01*
X125110500Y-117186000D01*
X125110500Y-116284000D01*
X126462500Y-116284000D01*
X126462500Y-117186000D01*
G37*
G36*
X116887000Y-117164000D02*
G01*
X115535000Y-117164000D01*
X115535000Y-116262000D01*
X116887000Y-116262000D01*
X116887000Y-117164000D01*
G37*
G36*
X115237000Y-117164000D02*
G01*
X113885000Y-117164000D01*
X113885000Y-116262000D01*
X115237000Y-116262000D01*
X115237000Y-117164000D01*
G37*
G36*
X124812500Y-115386000D02*
G01*
X123460500Y-115386000D01*
X123460500Y-114484000D01*
X124812500Y-114484000D01*
X124812500Y-115386000D01*
G37*
G36*
X126462500Y-115386000D02*
G01*
X125110500Y-115386000D01*
X125110500Y-114484000D01*
X126462500Y-114484000D01*
X126462500Y-115386000D01*
G37*
G36*
X116887000Y-115364000D02*
G01*
X115535000Y-115364000D01*
X115535000Y-114462000D01*
X116887000Y-114462000D01*
X116887000Y-115364000D01*
G37*
G36*
X115237000Y-115364000D02*
G01*
X113885000Y-115364000D01*
X113885000Y-114462000D01*
X115237000Y-114462000D01*
X115237000Y-115364000D01*
G37*
G36*
X82813000Y-115214000D02*
G01*
X81911000Y-115214000D01*
X81911000Y-114212000D01*
X82813000Y-114212000D01*
X82813000Y-115214000D01*
G37*
G36*
X84713000Y-115214000D02*
G01*
X83811000Y-115214000D01*
X83811000Y-114212000D01*
X84713000Y-114212000D01*
X84713000Y-115214000D01*
G37*
G36*
X110126174Y-112598965D02*
G01*
X110163867Y-112610399D01*
X110198603Y-112628966D01*
X110229048Y-112653952D01*
X110254034Y-112684397D01*
X110272601Y-112719133D01*
X110284035Y-112756826D01*
X110288500Y-112802161D01*
X110288500Y-113638839D01*
X110284035Y-113684174D01*
X110272601Y-113721867D01*
X110254034Y-113756603D01*
X110229048Y-113787048D01*
X110198603Y-113812034D01*
X110163867Y-113830601D01*
X110126174Y-113842035D01*
X110080839Y-113846500D01*
X108994161Y-113846500D01*
X108948826Y-113842035D01*
X108911133Y-113830601D01*
X108876397Y-113812034D01*
X108845952Y-113787048D01*
X108820966Y-113756603D01*
X108802399Y-113721867D01*
X108790965Y-113684174D01*
X108786500Y-113638839D01*
X108786500Y-112802161D01*
X108790965Y-112756826D01*
X108802399Y-112719133D01*
X108820966Y-112684397D01*
X108845952Y-112653952D01*
X108876397Y-112628966D01*
X108911133Y-112610399D01*
X108948826Y-112598965D01*
X108994161Y-112594500D01*
X110080839Y-112594500D01*
X110126174Y-112598965D01*
G37*
G36*
X91477174Y-110886465D02*
G01*
X91514867Y-110897899D01*
X91549603Y-110916466D01*
X91580048Y-110941452D01*
X91605034Y-110971897D01*
X91623601Y-111006633D01*
X91635035Y-111044326D01*
X91639500Y-111089661D01*
X91639500Y-112176339D01*
X91635035Y-112221674D01*
X91623601Y-112259367D01*
X91605034Y-112294103D01*
X91580048Y-112324548D01*
X91549603Y-112349534D01*
X91514867Y-112368101D01*
X91477174Y-112379535D01*
X91431839Y-112384000D01*
X90595161Y-112384000D01*
X90549826Y-112379535D01*
X90512133Y-112368101D01*
X90477397Y-112349534D01*
X90446952Y-112324548D01*
X90421966Y-112294103D01*
X90403399Y-112259367D01*
X90391965Y-112221674D01*
X90387500Y-112176339D01*
X90387500Y-111089661D01*
X90391965Y-111044326D01*
X90403399Y-111006633D01*
X90421966Y-110971897D01*
X90446952Y-110941452D01*
X90477397Y-110916466D01*
X90512133Y-110897899D01*
X90549826Y-110886465D01*
X90595161Y-110882000D01*
X91431839Y-110882000D01*
X91477174Y-110886465D01*
G37*
G36*
X89427174Y-110886465D02*
G01*
X89464867Y-110897899D01*
X89499603Y-110916466D01*
X89530048Y-110941452D01*
X89555034Y-110971897D01*
X89573601Y-111006633D01*
X89585035Y-111044326D01*
X89589500Y-111089661D01*
X89589500Y-112176339D01*
X89585035Y-112221674D01*
X89573601Y-112259367D01*
X89555034Y-112294103D01*
X89530048Y-112324548D01*
X89499603Y-112349534D01*
X89464867Y-112368101D01*
X89427174Y-112379535D01*
X89381839Y-112384000D01*
X88545161Y-112384000D01*
X88499826Y-112379535D01*
X88462133Y-112368101D01*
X88427397Y-112349534D01*
X88396952Y-112324548D01*
X88371966Y-112294103D01*
X88353399Y-112259367D01*
X88341965Y-112221674D01*
X88337500Y-112176339D01*
X88337500Y-111089661D01*
X88341965Y-111044326D01*
X88353399Y-111006633D01*
X88371966Y-110971897D01*
X88396952Y-110941452D01*
X88427397Y-110916466D01*
X88462133Y-110897899D01*
X88499826Y-110886465D01*
X88545161Y-110882000D01*
X89381839Y-110882000D01*
X89427174Y-110886465D01*
G37*
G36*
X86832674Y-110886465D02*
G01*
X86870367Y-110897899D01*
X86905103Y-110916466D01*
X86935548Y-110941452D01*
X86960534Y-110971897D01*
X86979101Y-111006633D01*
X86990535Y-111044326D01*
X86995000Y-111089661D01*
X86995000Y-112176339D01*
X86990535Y-112221674D01*
X86979101Y-112259367D01*
X86960534Y-112294103D01*
X86935548Y-112324548D01*
X86905103Y-112349534D01*
X86870367Y-112368101D01*
X86832674Y-112379535D01*
X86787339Y-112384000D01*
X85950661Y-112384000D01*
X85905326Y-112379535D01*
X85867633Y-112368101D01*
X85832897Y-112349534D01*
X85802452Y-112324548D01*
X85777466Y-112294103D01*
X85758899Y-112259367D01*
X85747465Y-112221674D01*
X85743000Y-112176339D01*
X85743000Y-111089661D01*
X85747465Y-111044326D01*
X85758899Y-111006633D01*
X85777466Y-110971897D01*
X85802452Y-110941452D01*
X85832897Y-110916466D01*
X85867633Y-110897899D01*
X85905326Y-110886465D01*
X85950661Y-110882000D01*
X86787339Y-110882000D01*
X86832674Y-110886465D01*
G37*
G36*
X84782674Y-110886465D02*
G01*
X84820367Y-110897899D01*
X84855103Y-110916466D01*
X84885548Y-110941452D01*
X84910534Y-110971897D01*
X84929101Y-111006633D01*
X84940535Y-111044326D01*
X84945000Y-111089661D01*
X84945000Y-112176339D01*
X84940535Y-112221674D01*
X84929101Y-112259367D01*
X84910534Y-112294103D01*
X84885548Y-112324548D01*
X84855103Y-112349534D01*
X84820367Y-112368101D01*
X84782674Y-112379535D01*
X84737339Y-112384000D01*
X83900661Y-112384000D01*
X83855326Y-112379535D01*
X83817633Y-112368101D01*
X83782897Y-112349534D01*
X83752452Y-112324548D01*
X83727466Y-112294103D01*
X83708899Y-112259367D01*
X83697465Y-112221674D01*
X83693000Y-112176339D01*
X83693000Y-111089661D01*
X83697465Y-111044326D01*
X83708899Y-111006633D01*
X83727466Y-110971897D01*
X83752452Y-110941452D01*
X83782897Y-110916466D01*
X83817633Y-110897899D01*
X83855326Y-110886465D01*
X83900661Y-110882000D01*
X84737339Y-110882000D01*
X84782674Y-110886465D01*
G37*
G36*
X110126174Y-110548965D02*
G01*
X110163867Y-110560399D01*
X110198603Y-110578966D01*
X110229048Y-110603952D01*
X110254034Y-110634397D01*
X110272601Y-110669133D01*
X110284035Y-110706826D01*
X110288500Y-110752161D01*
X110288500Y-111588839D01*
X110284035Y-111634174D01*
X110272601Y-111671867D01*
X110254034Y-111706603D01*
X110229048Y-111737048D01*
X110198603Y-111762034D01*
X110163867Y-111780601D01*
X110126174Y-111792035D01*
X110080839Y-111796500D01*
X108994161Y-111796500D01*
X108948826Y-111792035D01*
X108911133Y-111780601D01*
X108876397Y-111762034D01*
X108845952Y-111737048D01*
X108820966Y-111706603D01*
X108802399Y-111671867D01*
X108790965Y-111634174D01*
X108786500Y-111588839D01*
X108786500Y-110752161D01*
X108790965Y-110706826D01*
X108802399Y-110669133D01*
X108820966Y-110634397D01*
X108845952Y-110603952D01*
X108876397Y-110578966D01*
X108911133Y-110560399D01*
X108948826Y-110548965D01*
X108994161Y-110544500D01*
X110080839Y-110544500D01*
X110126174Y-110548965D01*
G37*
G36*
X97709999Y-109191945D02*
G01*
X97747495Y-109203320D01*
X97782054Y-109221792D01*
X97812347Y-109246653D01*
X97837208Y-109276946D01*
X97855680Y-109311505D01*
X97867055Y-109349001D01*
X97871500Y-109394138D01*
X97871500Y-110132862D01*
X97867055Y-110177999D01*
X97855680Y-110215495D01*
X97837208Y-110250054D01*
X97812347Y-110280347D01*
X97782054Y-110305208D01*
X97747495Y-110323680D01*
X97709999Y-110335055D01*
X97664862Y-110339500D01*
X97026138Y-110339500D01*
X96981001Y-110335055D01*
X96943505Y-110323680D01*
X96908946Y-110305208D01*
X96878653Y-110280347D01*
X96853792Y-110250054D01*
X96835320Y-110215495D01*
X96823945Y-110177999D01*
X96819500Y-110132862D01*
X96819500Y-109394138D01*
X96823945Y-109349001D01*
X96835320Y-109311505D01*
X96853792Y-109276946D01*
X96878653Y-109246653D01*
X96908946Y-109221792D01*
X96943505Y-109203320D01*
X96981001Y-109191945D01*
X97026138Y-109187500D01*
X97664862Y-109187500D01*
X97709999Y-109191945D01*
G37*
G36*
X114432499Y-109142945D02*
G01*
X114469995Y-109154320D01*
X114504554Y-109172792D01*
X114534847Y-109197653D01*
X114559708Y-109227946D01*
X114578180Y-109262505D01*
X114589555Y-109300001D01*
X114594000Y-109345138D01*
X114594000Y-109983862D01*
X114589555Y-110028999D01*
X114578180Y-110066495D01*
X114559708Y-110101054D01*
X114534847Y-110131347D01*
X114504554Y-110156208D01*
X114469995Y-110174680D01*
X114432499Y-110186055D01*
X114387362Y-110190500D01*
X113648638Y-110190500D01*
X113603501Y-110186055D01*
X113566005Y-110174680D01*
X113531446Y-110156208D01*
X113501153Y-110131347D01*
X113476292Y-110101054D01*
X113457820Y-110066495D01*
X113446445Y-110028999D01*
X113442000Y-109983862D01*
X113442000Y-109345138D01*
X113446445Y-109300001D01*
X113457820Y-109262505D01*
X113476292Y-109227946D01*
X113501153Y-109197653D01*
X113531446Y-109172792D01*
X113566005Y-109154320D01*
X113603501Y-109142945D01*
X113648638Y-109138500D01*
X114387362Y-109138500D01*
X114432499Y-109142945D01*
G37*
G36*
X112682499Y-109142945D02*
G01*
X112719995Y-109154320D01*
X112754554Y-109172792D01*
X112784847Y-109197653D01*
X112809708Y-109227946D01*
X112828180Y-109262505D01*
X112839555Y-109300001D01*
X112844000Y-109345138D01*
X112844000Y-109983862D01*
X112839555Y-110028999D01*
X112828180Y-110066495D01*
X112809708Y-110101054D01*
X112784847Y-110131347D01*
X112754554Y-110156208D01*
X112719995Y-110174680D01*
X112682499Y-110186055D01*
X112637362Y-110190500D01*
X111898638Y-110190500D01*
X111853501Y-110186055D01*
X111816005Y-110174680D01*
X111781446Y-110156208D01*
X111751153Y-110131347D01*
X111726292Y-110101054D01*
X111707820Y-110066495D01*
X111696445Y-110028999D01*
X111692000Y-109983862D01*
X111692000Y-109345138D01*
X111696445Y-109300001D01*
X111707820Y-109262505D01*
X111726292Y-109227946D01*
X111751153Y-109197653D01*
X111781446Y-109172792D01*
X111816005Y-109154320D01*
X111853501Y-109142945D01*
X111898638Y-109138500D01*
X112637362Y-109138500D01*
X112682499Y-109142945D01*
G37*
G36*
X102782795Y-107021823D02*
G01*
X102789809Y-107023951D01*
X102803577Y-107031310D01*
X102826216Y-107040687D01*
X102850249Y-107045467D01*
X102874753Y-107045467D01*
X102898786Y-107040686D01*
X102921423Y-107031310D01*
X102935191Y-107023951D01*
X102942205Y-107021823D01*
X102955640Y-107020500D01*
X103269360Y-107020500D01*
X103282795Y-107021823D01*
X103289809Y-107023951D01*
X103303577Y-107031310D01*
X103326216Y-107040687D01*
X103350249Y-107045467D01*
X103374753Y-107045467D01*
X103398786Y-107040686D01*
X103421423Y-107031310D01*
X103435191Y-107023951D01*
X103442205Y-107021823D01*
X103455640Y-107020500D01*
X103769360Y-107020500D01*
X103782795Y-107021823D01*
X103789809Y-107023951D01*
X103803577Y-107031310D01*
X103826216Y-107040687D01*
X103850249Y-107045467D01*
X103874753Y-107045467D01*
X103898786Y-107040686D01*
X103921423Y-107031310D01*
X103935191Y-107023951D01*
X103942205Y-107021823D01*
X103955640Y-107020500D01*
X104269360Y-107020500D01*
X104282795Y-107021823D01*
X104289809Y-107023951D01*
X104303577Y-107031310D01*
X104326216Y-107040687D01*
X104350249Y-107045467D01*
X104374753Y-107045467D01*
X104398786Y-107040686D01*
X104421423Y-107031310D01*
X104435191Y-107023951D01*
X104442205Y-107021823D01*
X104455640Y-107020500D01*
X104769360Y-107020500D01*
X104782795Y-107021823D01*
X104789809Y-107023951D01*
X104803577Y-107031310D01*
X104826216Y-107040687D01*
X104850249Y-107045467D01*
X104874753Y-107045467D01*
X104898786Y-107040686D01*
X104921423Y-107031310D01*
X104935191Y-107023951D01*
X104942205Y-107021823D01*
X104955640Y-107020500D01*
X105269360Y-107020500D01*
X105282795Y-107021823D01*
X105289809Y-107023951D01*
X105303577Y-107031310D01*
X105326216Y-107040687D01*
X105350249Y-107045467D01*
X105374753Y-107045467D01*
X105398786Y-107040686D01*
X105421423Y-107031310D01*
X105435191Y-107023951D01*
X105442205Y-107021823D01*
X105455640Y-107020500D01*
X105769360Y-107020500D01*
X105782795Y-107021823D01*
X105789809Y-107023951D01*
X105803577Y-107031310D01*
X105826216Y-107040687D01*
X105850249Y-107045467D01*
X105874753Y-107045467D01*
X105898786Y-107040686D01*
X105921423Y-107031310D01*
X105935191Y-107023951D01*
X105942205Y-107021823D01*
X105955640Y-107020500D01*
X106269360Y-107020500D01*
X106282795Y-107021823D01*
X106289809Y-107023951D01*
X106303577Y-107031310D01*
X106326216Y-107040687D01*
X106350249Y-107045467D01*
X106374753Y-107045467D01*
X106398786Y-107040686D01*
X106421423Y-107031310D01*
X106435191Y-107023951D01*
X106442205Y-107021823D01*
X106455640Y-107020500D01*
X106769360Y-107020500D01*
X106782795Y-107021823D01*
X106789809Y-107023951D01*
X106803577Y-107031310D01*
X106826216Y-107040687D01*
X106850249Y-107045467D01*
X106874753Y-107045467D01*
X106898786Y-107040686D01*
X106921423Y-107031310D01*
X106935191Y-107023951D01*
X106942205Y-107021823D01*
X106955640Y-107020500D01*
X107269360Y-107020500D01*
X107282795Y-107021823D01*
X107289809Y-107023951D01*
X107303577Y-107031310D01*
X107326216Y-107040687D01*
X107350249Y-107045467D01*
X107374753Y-107045467D01*
X107398786Y-107040686D01*
X107421423Y-107031310D01*
X107435191Y-107023951D01*
X107442205Y-107021823D01*
X107455640Y-107020500D01*
X107769360Y-107020500D01*
X107782795Y-107021823D01*
X107789809Y-107023951D01*
X107803577Y-107031310D01*
X107826216Y-107040687D01*
X107850249Y-107045467D01*
X107874753Y-107045467D01*
X107898786Y-107040686D01*
X107921423Y-107031310D01*
X107935191Y-107023951D01*
X107942205Y-107021823D01*
X107955640Y-107020500D01*
X108269360Y-107020500D01*
X108282795Y-107021823D01*
X108289809Y-107023951D01*
X108303577Y-107031310D01*
X108326216Y-107040687D01*
X108350249Y-107045467D01*
X108374753Y-107045467D01*
X108398786Y-107040686D01*
X108421423Y-107031310D01*
X108435191Y-107023951D01*
X108442205Y-107021823D01*
X108455640Y-107020500D01*
X108769360Y-107020500D01*
X108782795Y-107021823D01*
X108789809Y-107023951D01*
X108803577Y-107031310D01*
X108826216Y-107040687D01*
X108850249Y-107045467D01*
X108874753Y-107045467D01*
X108898786Y-107040686D01*
X108921423Y-107031310D01*
X108935191Y-107023951D01*
X108942205Y-107021823D01*
X108955640Y-107020500D01*
X109269360Y-107020500D01*
X109282795Y-107021823D01*
X109289809Y-107023951D01*
X109303577Y-107031310D01*
X109326216Y-107040687D01*
X109350249Y-107045467D01*
X109374753Y-107045467D01*
X109398786Y-107040686D01*
X109421423Y-107031310D01*
X109435191Y-107023951D01*
X109442205Y-107021823D01*
X109455640Y-107020500D01*
X109769360Y-107020500D01*
X109782795Y-107021823D01*
X109789809Y-107023951D01*
X109803577Y-107031310D01*
X109826216Y-107040687D01*
X109850249Y-107045467D01*
X109874753Y-107045467D01*
X109898786Y-107040686D01*
X109921423Y-107031310D01*
X109935191Y-107023951D01*
X109942205Y-107021823D01*
X109955640Y-107020500D01*
X110269360Y-107020500D01*
X110282795Y-107021823D01*
X110289810Y-107023951D01*
X110296276Y-107027408D01*
X110301942Y-107032058D01*
X110306592Y-107037724D01*
X110310049Y-107044190D01*
X110312177Y-107051205D01*
X110313500Y-107064640D01*
X110313500Y-108628360D01*
X110312177Y-108641795D01*
X110310049Y-108648810D01*
X110306592Y-108655276D01*
X110301942Y-108660942D01*
X110296276Y-108665592D01*
X110289810Y-108669049D01*
X110282795Y-108671177D01*
X110269360Y-108672500D01*
X109955640Y-108672500D01*
X109942205Y-108671177D01*
X109935191Y-108669049D01*
X109921423Y-108661690D01*
X109898784Y-108652313D01*
X109874751Y-108647533D01*
X109850247Y-108647533D01*
X109826214Y-108652314D01*
X109803577Y-108661690D01*
X109789809Y-108669049D01*
X109782795Y-108671177D01*
X109769360Y-108672500D01*
X109455640Y-108672500D01*
X109442205Y-108671177D01*
X109435191Y-108669049D01*
X109421423Y-108661690D01*
X109398784Y-108652313D01*
X109374751Y-108647533D01*
X109350247Y-108647533D01*
X109326214Y-108652314D01*
X109303577Y-108661690D01*
X109289809Y-108669049D01*
X109282795Y-108671177D01*
X109269360Y-108672500D01*
X108955640Y-108672500D01*
X108942205Y-108671177D01*
X108935191Y-108669049D01*
X108921423Y-108661690D01*
X108898784Y-108652313D01*
X108874751Y-108647533D01*
X108850247Y-108647533D01*
X108826214Y-108652314D01*
X108803577Y-108661690D01*
X108789809Y-108669049D01*
X108782795Y-108671177D01*
X108769360Y-108672500D01*
X108455640Y-108672500D01*
X108442205Y-108671177D01*
X108435191Y-108669049D01*
X108421423Y-108661690D01*
X108398784Y-108652313D01*
X108374751Y-108647533D01*
X108350247Y-108647533D01*
X108326214Y-108652314D01*
X108303577Y-108661690D01*
X108289809Y-108669049D01*
X108282795Y-108671177D01*
X108269360Y-108672500D01*
X107955640Y-108672500D01*
X107942205Y-108671177D01*
X107935191Y-108669049D01*
X107921423Y-108661690D01*
X107898784Y-108652313D01*
X107874751Y-108647533D01*
X107850247Y-108647533D01*
X107826214Y-108652314D01*
X107803577Y-108661690D01*
X107789809Y-108669049D01*
X107782795Y-108671177D01*
X107769360Y-108672500D01*
X107455640Y-108672500D01*
X107442205Y-108671177D01*
X107435191Y-108669049D01*
X107421423Y-108661690D01*
X107398784Y-108652313D01*
X107374751Y-108647533D01*
X107350247Y-108647533D01*
X107326214Y-108652314D01*
X107303577Y-108661690D01*
X107289809Y-108669049D01*
X107282795Y-108671177D01*
X107269360Y-108672500D01*
X106955640Y-108672500D01*
X106942205Y-108671177D01*
X106935191Y-108669049D01*
X106921423Y-108661690D01*
X106898784Y-108652313D01*
X106874751Y-108647533D01*
X106850247Y-108647533D01*
X106826214Y-108652314D01*
X106803577Y-108661690D01*
X106789809Y-108669049D01*
X106782795Y-108671177D01*
X106769360Y-108672500D01*
X106455640Y-108672500D01*
X106442205Y-108671177D01*
X106435191Y-108669049D01*
X106421423Y-108661690D01*
X106398784Y-108652313D01*
X106374751Y-108647533D01*
X106350247Y-108647533D01*
X106326214Y-108652314D01*
X106303577Y-108661690D01*
X106289809Y-108669049D01*
X106282795Y-108671177D01*
X106269360Y-108672500D01*
X105955640Y-108672500D01*
X105942205Y-108671177D01*
X105935191Y-108669049D01*
X105921423Y-108661690D01*
X105898784Y-108652313D01*
X105874751Y-108647533D01*
X105850247Y-108647533D01*
X105826214Y-108652314D01*
X105803577Y-108661690D01*
X105789809Y-108669049D01*
X105782795Y-108671177D01*
X105769360Y-108672500D01*
X105455640Y-108672500D01*
X105442205Y-108671177D01*
X105435191Y-108669049D01*
X105421423Y-108661690D01*
X105398784Y-108652313D01*
X105374751Y-108647533D01*
X105350247Y-108647533D01*
X105326214Y-108652314D01*
X105303577Y-108661690D01*
X105289809Y-108669049D01*
X105282795Y-108671177D01*
X105269360Y-108672500D01*
X104955640Y-108672500D01*
X104942205Y-108671177D01*
X104935191Y-108669049D01*
X104921423Y-108661690D01*
X104898784Y-108652313D01*
X104874751Y-108647533D01*
X104850247Y-108647533D01*
X104826214Y-108652314D01*
X104803577Y-108661690D01*
X104789809Y-108669049D01*
X104782795Y-108671177D01*
X104769360Y-108672500D01*
X104455640Y-108672500D01*
X104442205Y-108671177D01*
X104435191Y-108669049D01*
X104421423Y-108661690D01*
X104398784Y-108652313D01*
X104374751Y-108647533D01*
X104350247Y-108647533D01*
X104326214Y-108652314D01*
X104303577Y-108661690D01*
X104289809Y-108669049D01*
X104282795Y-108671177D01*
X104269360Y-108672500D01*
X103955640Y-108672500D01*
X103942205Y-108671177D01*
X103935191Y-108669049D01*
X103921423Y-108661690D01*
X103898784Y-108652313D01*
X103874751Y-108647533D01*
X103850247Y-108647533D01*
X103826214Y-108652314D01*
X103803577Y-108661690D01*
X103789809Y-108669049D01*
X103782795Y-108671177D01*
X103769360Y-108672500D01*
X103455640Y-108672500D01*
X103442205Y-108671177D01*
X103435191Y-108669049D01*
X103421423Y-108661690D01*
X103398784Y-108652313D01*
X103374751Y-108647533D01*
X103350247Y-108647533D01*
X103326214Y-108652314D01*
X103303577Y-108661690D01*
X103289809Y-108669049D01*
X103282795Y-108671177D01*
X103269360Y-108672500D01*
X102955640Y-108672500D01*
X102942205Y-108671177D01*
X102935191Y-108669049D01*
X102921423Y-108661690D01*
X102898784Y-108652313D01*
X102874751Y-108647533D01*
X102850247Y-108647533D01*
X102826214Y-108652314D01*
X102803577Y-108661690D01*
X102789809Y-108669049D01*
X102782795Y-108671177D01*
X102769360Y-108672500D01*
X102455640Y-108672500D01*
X102442205Y-108671177D01*
X102435190Y-108669049D01*
X102428724Y-108665592D01*
X102423058Y-108660942D01*
X102418408Y-108655276D01*
X102414951Y-108648810D01*
X102412823Y-108641795D01*
X102411500Y-108628360D01*
X102411500Y-107064640D01*
X102412823Y-107051205D01*
X102414951Y-107044190D01*
X102418408Y-107037724D01*
X102423058Y-107032058D01*
X102428724Y-107027408D01*
X102435190Y-107023951D01*
X102442205Y-107021823D01*
X102455640Y-107020500D01*
X102769360Y-107020500D01*
X102782795Y-107021823D01*
G37*
G36*
X97709999Y-107441945D02*
G01*
X97747495Y-107453320D01*
X97782054Y-107471792D01*
X97812347Y-107496653D01*
X97837208Y-107526946D01*
X97855680Y-107561505D01*
X97867055Y-107599001D01*
X97871500Y-107644138D01*
X97871500Y-108382862D01*
X97867055Y-108427999D01*
X97855680Y-108465495D01*
X97837208Y-108500054D01*
X97812347Y-108530347D01*
X97782054Y-108555208D01*
X97747495Y-108573680D01*
X97709999Y-108585055D01*
X97664862Y-108589500D01*
X97026138Y-108589500D01*
X96981001Y-108585055D01*
X96943505Y-108573680D01*
X96908946Y-108555208D01*
X96878653Y-108530347D01*
X96853792Y-108500054D01*
X96835320Y-108465495D01*
X96823945Y-108427999D01*
X96819500Y-108382862D01*
X96819500Y-107644138D01*
X96823945Y-107599001D01*
X96835320Y-107561505D01*
X96853792Y-107526946D01*
X96878653Y-107496653D01*
X96908946Y-107471792D01*
X96943505Y-107453320D01*
X96981001Y-107441945D01*
X97026138Y-107437500D01*
X97664862Y-107437500D01*
X97709999Y-107441945D01*
G37*
G36*
X92312499Y-106080445D02*
G01*
X92349995Y-106091820D01*
X92384554Y-106110292D01*
X92414847Y-106135153D01*
X92439708Y-106165446D01*
X92458180Y-106200005D01*
X92469555Y-106237501D01*
X92474000Y-106282638D01*
X92474000Y-107021362D01*
X92469555Y-107066499D01*
X92458180Y-107103995D01*
X92439708Y-107138554D01*
X92414847Y-107168847D01*
X92384554Y-107193708D01*
X92349995Y-107212180D01*
X92312499Y-107223555D01*
X92267362Y-107228000D01*
X91628638Y-107228000D01*
X91583501Y-107223555D01*
X91546005Y-107212180D01*
X91511446Y-107193708D01*
X91481153Y-107168847D01*
X91456292Y-107138554D01*
X91437820Y-107103995D01*
X91426445Y-107066499D01*
X91422000Y-107021362D01*
X91422000Y-106282638D01*
X91426445Y-106237501D01*
X91437820Y-106200005D01*
X91456292Y-106165446D01*
X91481153Y-106135153D01*
X91511446Y-106110292D01*
X91546005Y-106091820D01*
X91583501Y-106080445D01*
X91628638Y-106076000D01*
X92267362Y-106076000D01*
X92312499Y-106080445D01*
G37*
G36*
X83460500Y-107177500D02*
G01*
X81358500Y-107177500D01*
X81358500Y-105575500D01*
X83460500Y-105575500D01*
X83460500Y-107177500D01*
G37*
G36*
X79709674Y-105749965D02*
G01*
X79747367Y-105761399D01*
X79782103Y-105779966D01*
X79812548Y-105804952D01*
X79837534Y-105835397D01*
X79856101Y-105870133D01*
X79867535Y-105907826D01*
X79872000Y-105953161D01*
X79872000Y-106789839D01*
X79867535Y-106835174D01*
X79856101Y-106872867D01*
X79837534Y-106907603D01*
X79812548Y-106938048D01*
X79782103Y-106963034D01*
X79747367Y-106981601D01*
X79709674Y-106993035D01*
X79664339Y-106997500D01*
X78577661Y-106997500D01*
X78532326Y-106993035D01*
X78494633Y-106981601D01*
X78459897Y-106963034D01*
X78429452Y-106938048D01*
X78404466Y-106907603D01*
X78385899Y-106872867D01*
X78374465Y-106835174D01*
X78370000Y-106789839D01*
X78370000Y-105953161D01*
X78374465Y-105907826D01*
X78385899Y-105870133D01*
X78404466Y-105835397D01*
X78429452Y-105804952D01*
X78459897Y-105779966D01*
X78494633Y-105761399D01*
X78532326Y-105749965D01*
X78577661Y-105745500D01*
X79664339Y-105745500D01*
X79709674Y-105749965D01*
G37*
G36*
X97682174Y-104663465D02*
G01*
X97719867Y-104674899D01*
X97754603Y-104693466D01*
X97785048Y-104718452D01*
X97810034Y-104748897D01*
X97828601Y-104783633D01*
X97840035Y-104821326D01*
X97844500Y-104866661D01*
X97844500Y-105953339D01*
X97840035Y-105998674D01*
X97828601Y-106036367D01*
X97810034Y-106071103D01*
X97785048Y-106101548D01*
X97754603Y-106126534D01*
X97719867Y-106145101D01*
X97682174Y-106156535D01*
X97636839Y-106161000D01*
X96800161Y-106161000D01*
X96754826Y-106156535D01*
X96717133Y-106145101D01*
X96682397Y-106126534D01*
X96651952Y-106101548D01*
X96626966Y-106071103D01*
X96608399Y-106036367D01*
X96596965Y-105998674D01*
X96592500Y-105953339D01*
X96592500Y-104866661D01*
X96596965Y-104821326D01*
X96608399Y-104783633D01*
X96626966Y-104748897D01*
X96651952Y-104718452D01*
X96682397Y-104693466D01*
X96717133Y-104674899D01*
X96754826Y-104663465D01*
X96800161Y-104659000D01*
X97636839Y-104659000D01*
X97682174Y-104663465D01*
G37*
G36*
X95632174Y-104663465D02*
G01*
X95669867Y-104674899D01*
X95704603Y-104693466D01*
X95735048Y-104718452D01*
X95760034Y-104748897D01*
X95778601Y-104783633D01*
X95790035Y-104821326D01*
X95794500Y-104866661D01*
X95794500Y-105953339D01*
X95790035Y-105998674D01*
X95778601Y-106036367D01*
X95760034Y-106071103D01*
X95735048Y-106101548D01*
X95704603Y-106126534D01*
X95669867Y-106145101D01*
X95632174Y-106156535D01*
X95586839Y-106161000D01*
X94750161Y-106161000D01*
X94704826Y-106156535D01*
X94667133Y-106145101D01*
X94632397Y-106126534D01*
X94601952Y-106101548D01*
X94576966Y-106071103D01*
X94558399Y-106036367D01*
X94546965Y-105998674D01*
X94542500Y-105953339D01*
X94542500Y-104866661D01*
X94546965Y-104821326D01*
X94558399Y-104783633D01*
X94576966Y-104748897D01*
X94601952Y-104718452D01*
X94632397Y-104693466D01*
X94667133Y-104674899D01*
X94704826Y-104663465D01*
X94750161Y-104659000D01*
X95586839Y-104659000D01*
X95632174Y-104663465D01*
G37*
G36*
X101482795Y-98221823D02*
G01*
X101489810Y-98223951D01*
X101496276Y-98227408D01*
X101501942Y-98232058D01*
X101506592Y-98237724D01*
X101510049Y-98244190D01*
X101512177Y-98251205D01*
X101513500Y-98264640D01*
X101513500Y-98578360D01*
X101512177Y-98591795D01*
X101510049Y-98598809D01*
X101502690Y-98612577D01*
X101493313Y-98635216D01*
X101488533Y-98659249D01*
X101488533Y-98683753D01*
X101493314Y-98707786D01*
X101502690Y-98730423D01*
X101510049Y-98744191D01*
X101512177Y-98751205D01*
X101513500Y-98764640D01*
X101513500Y-99078360D01*
X101512177Y-99091795D01*
X101510049Y-99098809D01*
X101502690Y-99112577D01*
X101493313Y-99135216D01*
X101488533Y-99159249D01*
X101488533Y-99183753D01*
X101493314Y-99207786D01*
X101502690Y-99230423D01*
X101510049Y-99244191D01*
X101512177Y-99251205D01*
X101513500Y-99264640D01*
X101513500Y-99578360D01*
X101512177Y-99591795D01*
X101510049Y-99598809D01*
X101502690Y-99612577D01*
X101493313Y-99635216D01*
X101488533Y-99659249D01*
X101488533Y-99683753D01*
X101493314Y-99707786D01*
X101502690Y-99730423D01*
X101510049Y-99744191D01*
X101512177Y-99751205D01*
X101513500Y-99764640D01*
X101513500Y-100078360D01*
X101512177Y-100091795D01*
X101510049Y-100098809D01*
X101502690Y-100112577D01*
X101493313Y-100135216D01*
X101488533Y-100159249D01*
X101488533Y-100183753D01*
X101493314Y-100207786D01*
X101502690Y-100230423D01*
X101510049Y-100244191D01*
X101512177Y-100251205D01*
X101513500Y-100264640D01*
X101513500Y-100578360D01*
X101512177Y-100591795D01*
X101510049Y-100598809D01*
X101502690Y-100612577D01*
X101493313Y-100635216D01*
X101488533Y-100659249D01*
X101488533Y-100683753D01*
X101493314Y-100707786D01*
X101502690Y-100730423D01*
X101510049Y-100744191D01*
X101512177Y-100751205D01*
X101513500Y-100764640D01*
X101513500Y-101078360D01*
X101512177Y-101091795D01*
X101510049Y-101098809D01*
X101502690Y-101112577D01*
X101493313Y-101135216D01*
X101488533Y-101159249D01*
X101488533Y-101183753D01*
X101493314Y-101207786D01*
X101502690Y-101230423D01*
X101510049Y-101244191D01*
X101512177Y-101251205D01*
X101513500Y-101264640D01*
X101513500Y-101578360D01*
X101512177Y-101591795D01*
X101510049Y-101598809D01*
X101502690Y-101612577D01*
X101493313Y-101635216D01*
X101488533Y-101659249D01*
X101488533Y-101683753D01*
X101493314Y-101707786D01*
X101502690Y-101730423D01*
X101510049Y-101744191D01*
X101512177Y-101751205D01*
X101513500Y-101764640D01*
X101513500Y-102078360D01*
X101512177Y-102091795D01*
X101510049Y-102098809D01*
X101502690Y-102112577D01*
X101493313Y-102135216D01*
X101488533Y-102159249D01*
X101488533Y-102183753D01*
X101493314Y-102207786D01*
X101502690Y-102230423D01*
X101510049Y-102244191D01*
X101512177Y-102251205D01*
X101513500Y-102264640D01*
X101513500Y-102578360D01*
X101512177Y-102591795D01*
X101510049Y-102598809D01*
X101502690Y-102612577D01*
X101493313Y-102635216D01*
X101488533Y-102659249D01*
X101488533Y-102683753D01*
X101493314Y-102707786D01*
X101502690Y-102730423D01*
X101510049Y-102744191D01*
X101512177Y-102751205D01*
X101513500Y-102764640D01*
X101513500Y-103078360D01*
X101512177Y-103091795D01*
X101510049Y-103098809D01*
X101502690Y-103112577D01*
X101493313Y-103135216D01*
X101488533Y-103159249D01*
X101488533Y-103183753D01*
X101493314Y-103207786D01*
X101502690Y-103230423D01*
X101510049Y-103244191D01*
X101512177Y-103251205D01*
X101513500Y-103264640D01*
X101513500Y-103578360D01*
X101512177Y-103591795D01*
X101510049Y-103598809D01*
X101502690Y-103612577D01*
X101493313Y-103635216D01*
X101488533Y-103659249D01*
X101488533Y-103683753D01*
X101493314Y-103707786D01*
X101502690Y-103730423D01*
X101510049Y-103744191D01*
X101512177Y-103751205D01*
X101513500Y-103764640D01*
X101513500Y-104078360D01*
X101512177Y-104091795D01*
X101510049Y-104098809D01*
X101502690Y-104112577D01*
X101493313Y-104135216D01*
X101488533Y-104159249D01*
X101488533Y-104183753D01*
X101493314Y-104207786D01*
X101502690Y-104230423D01*
X101510049Y-104244191D01*
X101512177Y-104251205D01*
X101513500Y-104264640D01*
X101513500Y-104578360D01*
X101512177Y-104591795D01*
X101510049Y-104598809D01*
X101502690Y-104612577D01*
X101493313Y-104635216D01*
X101488533Y-104659249D01*
X101488533Y-104683753D01*
X101493314Y-104707786D01*
X101502690Y-104730423D01*
X101510049Y-104744191D01*
X101512177Y-104751205D01*
X101513500Y-104764640D01*
X101513500Y-105078360D01*
X101512177Y-105091795D01*
X101510049Y-105098809D01*
X101502690Y-105112577D01*
X101493313Y-105135216D01*
X101488533Y-105159249D01*
X101488533Y-105183753D01*
X101493314Y-105207786D01*
X101502690Y-105230423D01*
X101510049Y-105244191D01*
X101512177Y-105251205D01*
X101513500Y-105264640D01*
X101513500Y-105578360D01*
X101512177Y-105591795D01*
X101510049Y-105598809D01*
X101502690Y-105612577D01*
X101493313Y-105635216D01*
X101488533Y-105659249D01*
X101488533Y-105683753D01*
X101493314Y-105707786D01*
X101502690Y-105730423D01*
X101510049Y-105744191D01*
X101512177Y-105751205D01*
X101513500Y-105764640D01*
X101513500Y-106078360D01*
X101512177Y-106091795D01*
X101510049Y-106098810D01*
X101506592Y-106105276D01*
X101501942Y-106110942D01*
X101496276Y-106115592D01*
X101489810Y-106119049D01*
X101482795Y-106121177D01*
X101469360Y-106122500D01*
X99905640Y-106122500D01*
X99892205Y-106121177D01*
X99885190Y-106119049D01*
X99878724Y-106115592D01*
X99873058Y-106110942D01*
X99868408Y-106105276D01*
X99864951Y-106098810D01*
X99862823Y-106091795D01*
X99861500Y-106078360D01*
X99861500Y-105764640D01*
X99862823Y-105751205D01*
X99864951Y-105744191D01*
X99872310Y-105730423D01*
X99881687Y-105707784D01*
X99886467Y-105683751D01*
X99886467Y-105659247D01*
X99881686Y-105635214D01*
X99872310Y-105612577D01*
X99864951Y-105598809D01*
X99862823Y-105591795D01*
X99861500Y-105578360D01*
X99861500Y-105264640D01*
X99862823Y-105251205D01*
X99864951Y-105244191D01*
X99872310Y-105230423D01*
X99881687Y-105207784D01*
X99886467Y-105183751D01*
X99886467Y-105159247D01*
X99881686Y-105135214D01*
X99872310Y-105112577D01*
X99864951Y-105098809D01*
X99862823Y-105091795D01*
X99861500Y-105078360D01*
X99861500Y-104764640D01*
X99862823Y-104751205D01*
X99864951Y-104744191D01*
X99872310Y-104730423D01*
X99881687Y-104707784D01*
X99886467Y-104683751D01*
X99886467Y-104659247D01*
X99881686Y-104635214D01*
X99872310Y-104612577D01*
X99864951Y-104598809D01*
X99862823Y-104591795D01*
X99861500Y-104578360D01*
X99861500Y-104264640D01*
X99862823Y-104251205D01*
X99864951Y-104244191D01*
X99872310Y-104230423D01*
X99881687Y-104207784D01*
X99886467Y-104183751D01*
X99886467Y-104159247D01*
X99881686Y-104135214D01*
X99872310Y-104112577D01*
X99864951Y-104098809D01*
X99862823Y-104091795D01*
X99861500Y-104078360D01*
X99861500Y-103764640D01*
X99862823Y-103751205D01*
X99864951Y-103744191D01*
X99872310Y-103730423D01*
X99881687Y-103707784D01*
X99886467Y-103683751D01*
X99886467Y-103659247D01*
X99881686Y-103635214D01*
X99872310Y-103612577D01*
X99864951Y-103598809D01*
X99862823Y-103591795D01*
X99861500Y-103578360D01*
X99861500Y-103264640D01*
X99862823Y-103251205D01*
X99864951Y-103244191D01*
X99872310Y-103230423D01*
X99881687Y-103207784D01*
X99886467Y-103183751D01*
X99886467Y-103159247D01*
X99881686Y-103135214D01*
X99872310Y-103112577D01*
X99864951Y-103098809D01*
X99862823Y-103091795D01*
X99861500Y-103078360D01*
X99861500Y-102764640D01*
X99862823Y-102751205D01*
X99864951Y-102744191D01*
X99872310Y-102730423D01*
X99881687Y-102707784D01*
X99886467Y-102683751D01*
X99886467Y-102659247D01*
X99881686Y-102635214D01*
X99872310Y-102612577D01*
X99864951Y-102598809D01*
X99862823Y-102591795D01*
X99861500Y-102578360D01*
X99861500Y-102264640D01*
X99862823Y-102251205D01*
X99864951Y-102244191D01*
X99872310Y-102230423D01*
X99881687Y-102207784D01*
X99886467Y-102183751D01*
X99886467Y-102159247D01*
X99881686Y-102135214D01*
X99872310Y-102112577D01*
X99864951Y-102098809D01*
X99862823Y-102091795D01*
X99861500Y-102078360D01*
X99861500Y-101764640D01*
X99862823Y-101751205D01*
X99864951Y-101744191D01*
X99872310Y-101730423D01*
X99881687Y-101707784D01*
X99886467Y-101683751D01*
X99886467Y-101659247D01*
X99881686Y-101635214D01*
X99872310Y-101612577D01*
X99864951Y-101598809D01*
X99862823Y-101591795D01*
X99861500Y-101578360D01*
X99861500Y-101264640D01*
X99862823Y-101251205D01*
X99864951Y-101244191D01*
X99872310Y-101230423D01*
X99881687Y-101207784D01*
X99886467Y-101183751D01*
X99886467Y-101159247D01*
X99881686Y-101135214D01*
X99872310Y-101112577D01*
X99864951Y-101098809D01*
X99862823Y-101091795D01*
X99861500Y-101078360D01*
X99861500Y-100764640D01*
X99862823Y-100751205D01*
X99864951Y-100744191D01*
X99872310Y-100730423D01*
X99881687Y-100707784D01*
X99886467Y-100683751D01*
X99886467Y-100659247D01*
X99881686Y-100635214D01*
X99872310Y-100612577D01*
X99864951Y-100598809D01*
X99862823Y-100591795D01*
X99861500Y-100578360D01*
X99861500Y-100264640D01*
X99862823Y-100251205D01*
X99864951Y-100244191D01*
X99872310Y-100230423D01*
X99881687Y-100207784D01*
X99886467Y-100183751D01*
X99886467Y-100159247D01*
X99881686Y-100135214D01*
X99872310Y-100112577D01*
X99864951Y-100098809D01*
X99862823Y-100091795D01*
X99861500Y-100078360D01*
X99861500Y-99764640D01*
X99862823Y-99751205D01*
X99864951Y-99744191D01*
X99872310Y-99730423D01*
X99881687Y-99707784D01*
X99886467Y-99683751D01*
X99886467Y-99659247D01*
X99881686Y-99635214D01*
X99872310Y-99612577D01*
X99864951Y-99598809D01*
X99862823Y-99591795D01*
X99861500Y-99578360D01*
X99861500Y-99264640D01*
X99862823Y-99251205D01*
X99864951Y-99244191D01*
X99872310Y-99230423D01*
X99881687Y-99207784D01*
X99886467Y-99183751D01*
X99886467Y-99159247D01*
X99881686Y-99135214D01*
X99872310Y-99112577D01*
X99864951Y-99098809D01*
X99862823Y-99091795D01*
X99861500Y-99078360D01*
X99861500Y-98764640D01*
X99862823Y-98751205D01*
X99864951Y-98744191D01*
X99872310Y-98730423D01*
X99881687Y-98707784D01*
X99886467Y-98683751D01*
X99886467Y-98659247D01*
X99881686Y-98635214D01*
X99872310Y-98612577D01*
X99864951Y-98598809D01*
X99862823Y-98591795D01*
X99861500Y-98578360D01*
X99861500Y-98264640D01*
X99862823Y-98251205D01*
X99864951Y-98244190D01*
X99868408Y-98237724D01*
X99873058Y-98232058D01*
X99878724Y-98227408D01*
X99885190Y-98223951D01*
X99892205Y-98221823D01*
X99905640Y-98220500D01*
X101469360Y-98220500D01*
X101482795Y-98221823D01*
G37*
G36*
X112832795Y-98221823D02*
G01*
X112839810Y-98223951D01*
X112846276Y-98227408D01*
X112851942Y-98232058D01*
X112856592Y-98237724D01*
X112860049Y-98244190D01*
X112862177Y-98251205D01*
X112863500Y-98264640D01*
X112863500Y-98578360D01*
X112862177Y-98591795D01*
X112860049Y-98598809D01*
X112852690Y-98612577D01*
X112843313Y-98635216D01*
X112838533Y-98659249D01*
X112838533Y-98683753D01*
X112843314Y-98707786D01*
X112852690Y-98730423D01*
X112860049Y-98744191D01*
X112862177Y-98751205D01*
X112863500Y-98764640D01*
X112863500Y-99078360D01*
X112862177Y-99091795D01*
X112860049Y-99098809D01*
X112852690Y-99112577D01*
X112843313Y-99135216D01*
X112838533Y-99159249D01*
X112838533Y-99183753D01*
X112843314Y-99207786D01*
X112852690Y-99230423D01*
X112860049Y-99244191D01*
X112862177Y-99251205D01*
X112863500Y-99264640D01*
X112863500Y-99578360D01*
X112862177Y-99591795D01*
X112860049Y-99598809D01*
X112852690Y-99612577D01*
X112843313Y-99635216D01*
X112838533Y-99659249D01*
X112838533Y-99683753D01*
X112843314Y-99707786D01*
X112852690Y-99730423D01*
X112860049Y-99744191D01*
X112862177Y-99751205D01*
X112863500Y-99764640D01*
X112863500Y-100078360D01*
X112862177Y-100091795D01*
X112860049Y-100098809D01*
X112852690Y-100112577D01*
X112843313Y-100135216D01*
X112838533Y-100159249D01*
X112838533Y-100183753D01*
X112843314Y-100207786D01*
X112852690Y-100230423D01*
X112860049Y-100244191D01*
X112862177Y-100251205D01*
X112863500Y-100264640D01*
X112863500Y-100578360D01*
X112862177Y-100591795D01*
X112860049Y-100598809D01*
X112852690Y-100612577D01*
X112843313Y-100635216D01*
X112838533Y-100659249D01*
X112838533Y-100683753D01*
X112843314Y-100707786D01*
X112852690Y-100730423D01*
X112860049Y-100744191D01*
X112862177Y-100751205D01*
X112863500Y-100764640D01*
X112863500Y-101078360D01*
X112862177Y-101091795D01*
X112860049Y-101098809D01*
X112852690Y-101112577D01*
X112843313Y-101135216D01*
X112838533Y-101159249D01*
X112838533Y-101183753D01*
X112843314Y-101207786D01*
X112852690Y-101230423D01*
X112860049Y-101244191D01*
X112862177Y-101251205D01*
X112863500Y-101264640D01*
X112863500Y-101578360D01*
X112862177Y-101591795D01*
X112860049Y-101598809D01*
X112852690Y-101612577D01*
X112843313Y-101635216D01*
X112838533Y-101659249D01*
X112838533Y-101683753D01*
X112843314Y-101707786D01*
X112852690Y-101730423D01*
X112860049Y-101744191D01*
X112862177Y-101751205D01*
X112863500Y-101764640D01*
X112863500Y-102078360D01*
X112862177Y-102091795D01*
X112860049Y-102098809D01*
X112852690Y-102112577D01*
X112843313Y-102135216D01*
X112838533Y-102159249D01*
X112838533Y-102183753D01*
X112843314Y-102207786D01*
X112852690Y-102230423D01*
X112860049Y-102244191D01*
X112862177Y-102251205D01*
X112863500Y-102264640D01*
X112863500Y-102578360D01*
X112862177Y-102591795D01*
X112860049Y-102598809D01*
X112852690Y-102612577D01*
X112843313Y-102635216D01*
X112838533Y-102659249D01*
X112838533Y-102683753D01*
X112843314Y-102707786D01*
X112852690Y-102730423D01*
X112860049Y-102744191D01*
X112862177Y-102751205D01*
X112863500Y-102764640D01*
X112863500Y-103078360D01*
X112862177Y-103091795D01*
X112860049Y-103098809D01*
X112852690Y-103112577D01*
X112843313Y-103135216D01*
X112838533Y-103159249D01*
X112838533Y-103183753D01*
X112843314Y-103207786D01*
X112852690Y-103230423D01*
X112860049Y-103244191D01*
X112862177Y-103251205D01*
X112863500Y-103264640D01*
X112863500Y-103578360D01*
X112862177Y-103591795D01*
X112860049Y-103598809D01*
X112852690Y-103612577D01*
X112843313Y-103635216D01*
X112838533Y-103659249D01*
X112838533Y-103683753D01*
X112843314Y-103707786D01*
X112852690Y-103730423D01*
X112860049Y-103744191D01*
X112862177Y-103751205D01*
X112863500Y-103764640D01*
X112863500Y-104078360D01*
X112862177Y-104091795D01*
X112860049Y-104098809D01*
X112852690Y-104112577D01*
X112843313Y-104135216D01*
X112838533Y-104159249D01*
X112838533Y-104183753D01*
X112843314Y-104207786D01*
X112852690Y-104230423D01*
X112860049Y-104244191D01*
X112862177Y-104251205D01*
X112863500Y-104264640D01*
X112863500Y-104578360D01*
X112862177Y-104591795D01*
X112860049Y-104598809D01*
X112852690Y-104612577D01*
X112843313Y-104635216D01*
X112838533Y-104659249D01*
X112838533Y-104683753D01*
X112843314Y-104707786D01*
X112852690Y-104730423D01*
X112860049Y-104744191D01*
X112862177Y-104751205D01*
X112863500Y-104764640D01*
X112863500Y-105078360D01*
X112862177Y-105091795D01*
X112860049Y-105098809D01*
X112852690Y-105112577D01*
X112843313Y-105135216D01*
X112838533Y-105159249D01*
X112838533Y-105183753D01*
X112843314Y-105207786D01*
X112852690Y-105230423D01*
X112860049Y-105244191D01*
X112862177Y-105251205D01*
X112863500Y-105264640D01*
X112863500Y-105578360D01*
X112862177Y-105591795D01*
X112860049Y-105598809D01*
X112852690Y-105612577D01*
X112843313Y-105635216D01*
X112838533Y-105659249D01*
X112838533Y-105683753D01*
X112843314Y-105707786D01*
X112852690Y-105730423D01*
X112860049Y-105744191D01*
X112862177Y-105751205D01*
X112863500Y-105764640D01*
X112863500Y-106078360D01*
X112862177Y-106091795D01*
X112860049Y-106098810D01*
X112856592Y-106105276D01*
X112851942Y-106110942D01*
X112846276Y-106115592D01*
X112839810Y-106119049D01*
X112832795Y-106121177D01*
X112819360Y-106122500D01*
X111255640Y-106122500D01*
X111242205Y-106121177D01*
X111235190Y-106119049D01*
X111228724Y-106115592D01*
X111223058Y-106110942D01*
X111218408Y-106105276D01*
X111214951Y-106098810D01*
X111212823Y-106091795D01*
X111211500Y-106078360D01*
X111211500Y-105764640D01*
X111212823Y-105751205D01*
X111214951Y-105744191D01*
X111222310Y-105730423D01*
X111231687Y-105707784D01*
X111236467Y-105683751D01*
X111236467Y-105659247D01*
X111231686Y-105635214D01*
X111222310Y-105612577D01*
X111214951Y-105598809D01*
X111212823Y-105591795D01*
X111211500Y-105578360D01*
X111211500Y-105264640D01*
X111212823Y-105251205D01*
X111214951Y-105244191D01*
X111222310Y-105230423D01*
X111231687Y-105207784D01*
X111236467Y-105183751D01*
X111236467Y-105159247D01*
X111231686Y-105135214D01*
X111222310Y-105112577D01*
X111214951Y-105098809D01*
X111212823Y-105091795D01*
X111211500Y-105078360D01*
X111211500Y-104764640D01*
X111212823Y-104751205D01*
X111214951Y-104744191D01*
X111222310Y-104730423D01*
X111231687Y-104707784D01*
X111236467Y-104683751D01*
X111236467Y-104659247D01*
X111231686Y-104635214D01*
X111222310Y-104612577D01*
X111214951Y-104598809D01*
X111212823Y-104591795D01*
X111211500Y-104578360D01*
X111211500Y-104264640D01*
X111212823Y-104251205D01*
X111214951Y-104244191D01*
X111222310Y-104230423D01*
X111231687Y-104207784D01*
X111236467Y-104183751D01*
X111236467Y-104159247D01*
X111231686Y-104135214D01*
X111222310Y-104112577D01*
X111214951Y-104098809D01*
X111212823Y-104091795D01*
X111211500Y-104078360D01*
X111211500Y-103764640D01*
X111212823Y-103751205D01*
X111214951Y-103744191D01*
X111222310Y-103730423D01*
X111231687Y-103707784D01*
X111236467Y-103683751D01*
X111236467Y-103659247D01*
X111231686Y-103635214D01*
X111222310Y-103612577D01*
X111214951Y-103598809D01*
X111212823Y-103591795D01*
X111211500Y-103578360D01*
X111211500Y-103264640D01*
X111212823Y-103251205D01*
X111214951Y-103244191D01*
X111222310Y-103230423D01*
X111231687Y-103207784D01*
X111236467Y-103183751D01*
X111236467Y-103159247D01*
X111231686Y-103135214D01*
X111222310Y-103112577D01*
X111214951Y-103098809D01*
X111212823Y-103091795D01*
X111211500Y-103078360D01*
X111211500Y-102764640D01*
X111212823Y-102751205D01*
X111214951Y-102744191D01*
X111222310Y-102730423D01*
X111231687Y-102707784D01*
X111236467Y-102683751D01*
X111236467Y-102659247D01*
X111231686Y-102635214D01*
X111222310Y-102612577D01*
X111214951Y-102598809D01*
X111212823Y-102591795D01*
X111211500Y-102578360D01*
X111211500Y-102264640D01*
X111212823Y-102251205D01*
X111214951Y-102244191D01*
X111222310Y-102230423D01*
X111231687Y-102207784D01*
X111236467Y-102183751D01*
X111236467Y-102159247D01*
X111231686Y-102135214D01*
X111222310Y-102112577D01*
X111214951Y-102098809D01*
X111212823Y-102091795D01*
X111211500Y-102078360D01*
X111211500Y-101764640D01*
X111212823Y-101751205D01*
X111214951Y-101744191D01*
X111222310Y-101730423D01*
X111231687Y-101707784D01*
X111236467Y-101683751D01*
X111236467Y-101659247D01*
X111231686Y-101635214D01*
X111222310Y-101612577D01*
X111214951Y-101598809D01*
X111212823Y-101591795D01*
X111211500Y-101578360D01*
X111211500Y-101264640D01*
X111212823Y-101251205D01*
X111214951Y-101244191D01*
X111222310Y-101230423D01*
X111231687Y-101207784D01*
X111236467Y-101183751D01*
X111236467Y-101159247D01*
X111231686Y-101135214D01*
X111222310Y-101112577D01*
X111214951Y-101098809D01*
X111212823Y-101091795D01*
X111211500Y-101078360D01*
X111211500Y-100764640D01*
X111212823Y-100751205D01*
X111214951Y-100744191D01*
X111222310Y-100730423D01*
X111231687Y-100707784D01*
X111236467Y-100683751D01*
X111236467Y-100659247D01*
X111231686Y-100635214D01*
X111222310Y-100612577D01*
X111214951Y-100598809D01*
X111212823Y-100591795D01*
X111211500Y-100578360D01*
X111211500Y-100264640D01*
X111212823Y-100251205D01*
X111214951Y-100244191D01*
X111222310Y-100230423D01*
X111231687Y-100207784D01*
X111236467Y-100183751D01*
X111236467Y-100159247D01*
X111231686Y-100135214D01*
X111222310Y-100112577D01*
X111214951Y-100098809D01*
X111212823Y-100091795D01*
X111211500Y-100078360D01*
X111211500Y-99764640D01*
X111212823Y-99751205D01*
X111214951Y-99744191D01*
X111222310Y-99730423D01*
X111231687Y-99707784D01*
X111236467Y-99683751D01*
X111236467Y-99659247D01*
X111231686Y-99635214D01*
X111222310Y-99612577D01*
X111214951Y-99598809D01*
X111212823Y-99591795D01*
X111211500Y-99578360D01*
X111211500Y-99264640D01*
X111212823Y-99251205D01*
X111214951Y-99244191D01*
X111222310Y-99230423D01*
X111231687Y-99207784D01*
X111236467Y-99183751D01*
X111236467Y-99159247D01*
X111231686Y-99135214D01*
X111222310Y-99112577D01*
X111214951Y-99098809D01*
X111212823Y-99091795D01*
X111211500Y-99078360D01*
X111211500Y-98764640D01*
X111212823Y-98751205D01*
X111214951Y-98744191D01*
X111222310Y-98730423D01*
X111231687Y-98707784D01*
X111236467Y-98683751D01*
X111236467Y-98659247D01*
X111231686Y-98635214D01*
X111222310Y-98612577D01*
X111214951Y-98598809D01*
X111212823Y-98591795D01*
X111211500Y-98578360D01*
X111211500Y-98264640D01*
X111212823Y-98251205D01*
X111214951Y-98244190D01*
X111218408Y-98237724D01*
X111223058Y-98232058D01*
X111228724Y-98227408D01*
X111235190Y-98223951D01*
X111242205Y-98221823D01*
X111255640Y-98220500D01*
X112819360Y-98220500D01*
X112832795Y-98221823D01*
G37*
G36*
X89760500Y-106027500D02*
G01*
X87658500Y-106027500D01*
X87658500Y-102125500D01*
X89760500Y-102125500D01*
X89760500Y-106027500D01*
G37*
G36*
X125526012Y-103688427D02*
G01*
X125675312Y-103718124D01*
X125839284Y-103786044D01*
X125986854Y-103884647D01*
X126112353Y-104010146D01*
X126210956Y-104157716D01*
X126278876Y-104321688D01*
X126297525Y-104415446D01*
X126313500Y-104495758D01*
X126313500Y-104673242D01*
X126311409Y-104683753D01*
X126278876Y-104847312D01*
X126210956Y-105011284D01*
X126112353Y-105158854D01*
X125986854Y-105284353D01*
X125839284Y-105382956D01*
X125675312Y-105450876D01*
X125526012Y-105480573D01*
X125501242Y-105485500D01*
X125323758Y-105485500D01*
X125298988Y-105480573D01*
X125149688Y-105450876D01*
X124985716Y-105382956D01*
X124838146Y-105284353D01*
X124712647Y-105158854D01*
X124614044Y-105011284D01*
X124546124Y-104847312D01*
X124513591Y-104683753D01*
X124511500Y-104673242D01*
X124511500Y-104495758D01*
X124527475Y-104415446D01*
X124546124Y-104321688D01*
X124614044Y-104157716D01*
X124712647Y-104010146D01*
X124838146Y-103884647D01*
X124985716Y-103786044D01*
X125149688Y-103718124D01*
X125298988Y-103688427D01*
X125323758Y-103683500D01*
X125501242Y-103683500D01*
X125526012Y-103688427D01*
G37*
G36*
X92312499Y-104330445D02*
G01*
X92349995Y-104341820D01*
X92384554Y-104360292D01*
X92414847Y-104385153D01*
X92439708Y-104415446D01*
X92458180Y-104450005D01*
X92469555Y-104487501D01*
X92474000Y-104532638D01*
X92474000Y-105271362D01*
X92469555Y-105316499D01*
X92458180Y-105353995D01*
X92439708Y-105388554D01*
X92414847Y-105418847D01*
X92384554Y-105443708D01*
X92349995Y-105462180D01*
X92312499Y-105473555D01*
X92267362Y-105478000D01*
X91628638Y-105478000D01*
X91583501Y-105473555D01*
X91546005Y-105462180D01*
X91511446Y-105443708D01*
X91481153Y-105418847D01*
X91456292Y-105388554D01*
X91437820Y-105353995D01*
X91426445Y-105316499D01*
X91422000Y-105271362D01*
X91422000Y-104532638D01*
X91426445Y-104487501D01*
X91437820Y-104450005D01*
X91456292Y-104415446D01*
X91481153Y-104385153D01*
X91511446Y-104360292D01*
X91546005Y-104341820D01*
X91583501Y-104330445D01*
X91628638Y-104326000D01*
X92267362Y-104326000D01*
X92312499Y-104330445D01*
G37*
G36*
X79709674Y-103699965D02*
G01*
X79747367Y-103711399D01*
X79782103Y-103729966D01*
X79812548Y-103754952D01*
X79837534Y-103785397D01*
X79856101Y-103820133D01*
X79867535Y-103857826D01*
X79872000Y-103903161D01*
X79872000Y-104739839D01*
X79867535Y-104785174D01*
X79856101Y-104822867D01*
X79837534Y-104857603D01*
X79812548Y-104888048D01*
X79782103Y-104913034D01*
X79747367Y-104931601D01*
X79709674Y-104943035D01*
X79664339Y-104947500D01*
X78577661Y-104947500D01*
X78532326Y-104943035D01*
X78494633Y-104931601D01*
X78459897Y-104913034D01*
X78429452Y-104888048D01*
X78404466Y-104857603D01*
X78385899Y-104822867D01*
X78374465Y-104785174D01*
X78370000Y-104739839D01*
X78370000Y-103903161D01*
X78374465Y-103857826D01*
X78385899Y-103820133D01*
X78404466Y-103785397D01*
X78429452Y-103754952D01*
X78459897Y-103729966D01*
X78494633Y-103711399D01*
X78532326Y-103699965D01*
X78577661Y-103695500D01*
X79664339Y-103695500D01*
X79709674Y-103699965D01*
G37*
G36*
X83460500Y-104877500D02*
G01*
X81358500Y-104877500D01*
X81358500Y-103275500D01*
X83460500Y-103275500D01*
X83460500Y-104877500D01*
G37*
G36*
X125526012Y-101148427D02*
G01*
X125675312Y-101178124D01*
X125839284Y-101246044D01*
X125986854Y-101344647D01*
X126112353Y-101470146D01*
X126210956Y-101617716D01*
X126278876Y-101781688D01*
X126313500Y-101955759D01*
X126313500Y-102133241D01*
X126278876Y-102307312D01*
X126210956Y-102471284D01*
X126112353Y-102618854D01*
X125986854Y-102744353D01*
X125839284Y-102842956D01*
X125675312Y-102910876D01*
X125526012Y-102940573D01*
X125501242Y-102945500D01*
X125323758Y-102945500D01*
X125298988Y-102940573D01*
X125149688Y-102910876D01*
X124985716Y-102842956D01*
X124838146Y-102744353D01*
X124712647Y-102618854D01*
X124614044Y-102471284D01*
X124546124Y-102307312D01*
X124511500Y-102133241D01*
X124511500Y-101955759D01*
X124546124Y-101781688D01*
X124614044Y-101617716D01*
X124712647Y-101470146D01*
X124838146Y-101344647D01*
X124985716Y-101246044D01*
X125149688Y-101178124D01*
X125298988Y-101148427D01*
X125323758Y-101143500D01*
X125501242Y-101143500D01*
X125526012Y-101148427D01*
G37*
G36*
X83460500Y-102577500D02*
G01*
X81358500Y-102577500D01*
X81358500Y-100975500D01*
X83460500Y-100975500D01*
X83460500Y-102577500D01*
G37*
G36*
X121113674Y-99646965D02*
G01*
X121151367Y-99658399D01*
X121186103Y-99676966D01*
X121216548Y-99701952D01*
X121241534Y-99732397D01*
X121260101Y-99767133D01*
X121271535Y-99804826D01*
X121276000Y-99850161D01*
X121276000Y-100936839D01*
X121271535Y-100982174D01*
X121260101Y-101019867D01*
X121241534Y-101054603D01*
X121216548Y-101085048D01*
X121186103Y-101110034D01*
X121151367Y-101128601D01*
X121113674Y-101140035D01*
X121068339Y-101144500D01*
X120231661Y-101144500D01*
X120186326Y-101140035D01*
X120148633Y-101128601D01*
X120113897Y-101110034D01*
X120083452Y-101085048D01*
X120058466Y-101054603D01*
X120039899Y-101019867D01*
X120028465Y-100982174D01*
X120024000Y-100936839D01*
X120024000Y-99850161D01*
X120028465Y-99804826D01*
X120039899Y-99767133D01*
X120058466Y-99732397D01*
X120083452Y-99701952D01*
X120113897Y-99676966D01*
X120148633Y-99658399D01*
X120186326Y-99646965D01*
X120231661Y-99642500D01*
X121068339Y-99642500D01*
X121113674Y-99646965D01*
G37*
G36*
X119063674Y-99646965D02*
G01*
X119101367Y-99658399D01*
X119136103Y-99676966D01*
X119166548Y-99701952D01*
X119191534Y-99732397D01*
X119210101Y-99767133D01*
X119221535Y-99804826D01*
X119226000Y-99850161D01*
X119226000Y-100936839D01*
X119221535Y-100982174D01*
X119210101Y-101019867D01*
X119191534Y-101054603D01*
X119166548Y-101085048D01*
X119136103Y-101110034D01*
X119101367Y-101128601D01*
X119063674Y-101140035D01*
X119018339Y-101144500D01*
X118181661Y-101144500D01*
X118136326Y-101140035D01*
X118098633Y-101128601D01*
X118063897Y-101110034D01*
X118033452Y-101085048D01*
X118008466Y-101054603D01*
X117989899Y-101019867D01*
X117978465Y-100982174D01*
X117974000Y-100936839D01*
X117974000Y-99850161D01*
X117978465Y-99804826D01*
X117989899Y-99767133D01*
X118008466Y-99732397D01*
X118033452Y-99701952D01*
X118063897Y-99676966D01*
X118098633Y-99658399D01*
X118136326Y-99646965D01*
X118181661Y-99642500D01*
X119018339Y-99642500D01*
X119063674Y-99646965D01*
G37*
G36*
X125511613Y-98605563D02*
G01*
X125675312Y-98638124D01*
X125839284Y-98706044D01*
X125986854Y-98804647D01*
X126112353Y-98930146D01*
X126210956Y-99077716D01*
X126278876Y-99241688D01*
X126308573Y-99390988D01*
X126313500Y-99415758D01*
X126313500Y-99593242D01*
X126311049Y-99605563D01*
X126278876Y-99767312D01*
X126210956Y-99931284D01*
X126112353Y-100078854D01*
X125986854Y-100204353D01*
X125839284Y-100302956D01*
X125675312Y-100370876D01*
X125526012Y-100400573D01*
X125501242Y-100405500D01*
X125323758Y-100405500D01*
X125298988Y-100400573D01*
X125149688Y-100370876D01*
X124985716Y-100302956D01*
X124838146Y-100204353D01*
X124712647Y-100078854D01*
X124614044Y-99931284D01*
X124546124Y-99767312D01*
X124513951Y-99605563D01*
X124511500Y-99593242D01*
X124511500Y-99415758D01*
X124516427Y-99390988D01*
X124546124Y-99241688D01*
X124614044Y-99077716D01*
X124712647Y-98930146D01*
X124838146Y-98804647D01*
X124985716Y-98706044D01*
X125149688Y-98638124D01*
X125313387Y-98605563D01*
X125323758Y-98603500D01*
X125501242Y-98603500D01*
X125511613Y-98605563D01*
G37*
G36*
X89409174Y-98757965D02*
G01*
X89446867Y-98769399D01*
X89481603Y-98787966D01*
X89512048Y-98812952D01*
X89537034Y-98843397D01*
X89555601Y-98878133D01*
X89567035Y-98915826D01*
X89571500Y-98961161D01*
X89571500Y-100047839D01*
X89567035Y-100093174D01*
X89555601Y-100130867D01*
X89537034Y-100165603D01*
X89512048Y-100196048D01*
X89481603Y-100221034D01*
X89446867Y-100239601D01*
X89409174Y-100251035D01*
X89363839Y-100255500D01*
X88527161Y-100255500D01*
X88481826Y-100251035D01*
X88444133Y-100239601D01*
X88409397Y-100221034D01*
X88378952Y-100196048D01*
X88353966Y-100165603D01*
X88335399Y-100130867D01*
X88323965Y-100093174D01*
X88319500Y-100047839D01*
X88319500Y-98961161D01*
X88323965Y-98915826D01*
X88335399Y-98878133D01*
X88353966Y-98843397D01*
X88378952Y-98812952D01*
X88409397Y-98787966D01*
X88444133Y-98769399D01*
X88481826Y-98757965D01*
X88527161Y-98753500D01*
X89363839Y-98753500D01*
X89409174Y-98757965D01*
G37*
G36*
X91459174Y-98757965D02*
G01*
X91496867Y-98769399D01*
X91531603Y-98787966D01*
X91562048Y-98812952D01*
X91587034Y-98843397D01*
X91605601Y-98878133D01*
X91617035Y-98915826D01*
X91621500Y-98961161D01*
X91621500Y-100047839D01*
X91617035Y-100093174D01*
X91605601Y-100130867D01*
X91587034Y-100165603D01*
X91562048Y-100196048D01*
X91531603Y-100221034D01*
X91496867Y-100239601D01*
X91459174Y-100251035D01*
X91413839Y-100255500D01*
X90577161Y-100255500D01*
X90531826Y-100251035D01*
X90494133Y-100239601D01*
X90459397Y-100221034D01*
X90428952Y-100196048D01*
X90403966Y-100165603D01*
X90385399Y-100130867D01*
X90373965Y-100093174D01*
X90369500Y-100047839D01*
X90369500Y-98961161D01*
X90373965Y-98915826D01*
X90385399Y-98878133D01*
X90403966Y-98843397D01*
X90428952Y-98812952D01*
X90459397Y-98787966D01*
X90494133Y-98769399D01*
X90531826Y-98757965D01*
X90577161Y-98753500D01*
X91413839Y-98753500D01*
X91459174Y-98757965D01*
G37*
G36*
X97618999Y-98919445D02*
G01*
X97656495Y-98930820D01*
X97691054Y-98949292D01*
X97721347Y-98974153D01*
X97746208Y-99004446D01*
X97764680Y-99039005D01*
X97776055Y-99076501D01*
X97780500Y-99121638D01*
X97780500Y-99760362D01*
X97776055Y-99805499D01*
X97764680Y-99842995D01*
X97746208Y-99877554D01*
X97721347Y-99907847D01*
X97691054Y-99932708D01*
X97656495Y-99951180D01*
X97618999Y-99962555D01*
X97573862Y-99967000D01*
X96835138Y-99967000D01*
X96790001Y-99962555D01*
X96752505Y-99951180D01*
X96717946Y-99932708D01*
X96687653Y-99907847D01*
X96662792Y-99877554D01*
X96644320Y-99842995D01*
X96632945Y-99805499D01*
X96628500Y-99760362D01*
X96628500Y-99121638D01*
X96632945Y-99076501D01*
X96644320Y-99039005D01*
X96662792Y-99004446D01*
X96687653Y-98974153D01*
X96717946Y-98949292D01*
X96752505Y-98930820D01*
X96790001Y-98919445D01*
X96835138Y-98915000D01*
X97573862Y-98915000D01*
X97618999Y-98919445D01*
G37*
G36*
X95868999Y-98919445D02*
G01*
X95906495Y-98930820D01*
X95941054Y-98949292D01*
X95971347Y-98974153D01*
X95996208Y-99004446D01*
X96014680Y-99039005D01*
X96026055Y-99076501D01*
X96030500Y-99121638D01*
X96030500Y-99760362D01*
X96026055Y-99805499D01*
X96014680Y-99842995D01*
X95996208Y-99877554D01*
X95971347Y-99907847D01*
X95941054Y-99932708D01*
X95906495Y-99951180D01*
X95868999Y-99962555D01*
X95823862Y-99967000D01*
X95085138Y-99967000D01*
X95040001Y-99962555D01*
X95002505Y-99951180D01*
X94967946Y-99932708D01*
X94937653Y-99907847D01*
X94912792Y-99877554D01*
X94894320Y-99842995D01*
X94882945Y-99805499D01*
X94878500Y-99760362D01*
X94878500Y-99121638D01*
X94882945Y-99076501D01*
X94894320Y-99039005D01*
X94912792Y-99004446D01*
X94937653Y-98974153D01*
X94967946Y-98949292D01*
X95002505Y-98930820D01*
X95040001Y-98919445D01*
X95085138Y-98915000D01*
X95823862Y-98915000D01*
X95868999Y-98919445D01*
G37*
G36*
X117621499Y-97903445D02*
G01*
X117658995Y-97914820D01*
X117693554Y-97933292D01*
X117723847Y-97958153D01*
X117748708Y-97988446D01*
X117767180Y-98023005D01*
X117778555Y-98060501D01*
X117783000Y-98105638D01*
X117783000Y-98744362D01*
X117778555Y-98789499D01*
X117767180Y-98826995D01*
X117748708Y-98861554D01*
X117723847Y-98891847D01*
X117693554Y-98916708D01*
X117658995Y-98935180D01*
X117621499Y-98946555D01*
X117576362Y-98951000D01*
X116837638Y-98951000D01*
X116792501Y-98946555D01*
X116755005Y-98935180D01*
X116720446Y-98916708D01*
X116690153Y-98891847D01*
X116665292Y-98861554D01*
X116646820Y-98826995D01*
X116635445Y-98789499D01*
X116631000Y-98744362D01*
X116631000Y-98105638D01*
X116635445Y-98060501D01*
X116646820Y-98023005D01*
X116665292Y-97988446D01*
X116690153Y-97958153D01*
X116720446Y-97933292D01*
X116755005Y-97914820D01*
X116792501Y-97903445D01*
X116837638Y-97899000D01*
X117576362Y-97899000D01*
X117621499Y-97903445D01*
G37*
G36*
X115871499Y-97903445D02*
G01*
X115908995Y-97914820D01*
X115943554Y-97933292D01*
X115973847Y-97958153D01*
X115998708Y-97988446D01*
X116017180Y-98023005D01*
X116028555Y-98060501D01*
X116033000Y-98105638D01*
X116033000Y-98744362D01*
X116028555Y-98789499D01*
X116017180Y-98826995D01*
X115998708Y-98861554D01*
X115973847Y-98891847D01*
X115943554Y-98916708D01*
X115908995Y-98935180D01*
X115871499Y-98946555D01*
X115826362Y-98951000D01*
X115087638Y-98951000D01*
X115042501Y-98946555D01*
X115005005Y-98935180D01*
X114970446Y-98916708D01*
X114940153Y-98891847D01*
X114915292Y-98861554D01*
X114896820Y-98826995D01*
X114885445Y-98789499D01*
X114881000Y-98744362D01*
X114881000Y-98105638D01*
X114885445Y-98060501D01*
X114896820Y-98023005D01*
X114915292Y-97988446D01*
X114940153Y-97958153D01*
X114970446Y-97933292D01*
X115005005Y-97914820D01*
X115042501Y-97903445D01*
X115087638Y-97899000D01*
X115826362Y-97899000D01*
X115871499Y-97903445D01*
G37*
G36*
X125526012Y-96068427D02*
G01*
X125675312Y-96098124D01*
X125839284Y-96166044D01*
X125986854Y-96264647D01*
X126112353Y-96390146D01*
X126210956Y-96537716D01*
X126278876Y-96701688D01*
X126313500Y-96875759D01*
X126313500Y-97053241D01*
X126278876Y-97227312D01*
X126210956Y-97391284D01*
X126112353Y-97538854D01*
X125986854Y-97664353D01*
X125839284Y-97762956D01*
X125675312Y-97830876D01*
X125526012Y-97860573D01*
X125501242Y-97865500D01*
X125323758Y-97865500D01*
X125298988Y-97860573D01*
X125149688Y-97830876D01*
X124985716Y-97762956D01*
X124838146Y-97664353D01*
X124712647Y-97538854D01*
X124614044Y-97391284D01*
X124546124Y-97227312D01*
X124511500Y-97053241D01*
X124511500Y-96875759D01*
X124546124Y-96701688D01*
X124614044Y-96537716D01*
X124712647Y-96390146D01*
X124838146Y-96264647D01*
X124985716Y-96166044D01*
X125149688Y-96098124D01*
X125298988Y-96068427D01*
X125323758Y-96063500D01*
X125501242Y-96063500D01*
X125526012Y-96068427D01*
G37*
G36*
X102782795Y-95671823D02*
G01*
X102789809Y-95673951D01*
X102803577Y-95681310D01*
X102826216Y-95690687D01*
X102850249Y-95695467D01*
X102874753Y-95695467D01*
X102898786Y-95690686D01*
X102921423Y-95681310D01*
X102935191Y-95673951D01*
X102942205Y-95671823D01*
X102955640Y-95670500D01*
X103269360Y-95670500D01*
X103282795Y-95671823D01*
X103289809Y-95673951D01*
X103303577Y-95681310D01*
X103326216Y-95690687D01*
X103350249Y-95695467D01*
X103374753Y-95695467D01*
X103398786Y-95690686D01*
X103421423Y-95681310D01*
X103435191Y-95673951D01*
X103442205Y-95671823D01*
X103455640Y-95670500D01*
X103769360Y-95670500D01*
X103782795Y-95671823D01*
X103789809Y-95673951D01*
X103803577Y-95681310D01*
X103826216Y-95690687D01*
X103850249Y-95695467D01*
X103874753Y-95695467D01*
X103898786Y-95690686D01*
X103921423Y-95681310D01*
X103935191Y-95673951D01*
X103942205Y-95671823D01*
X103955640Y-95670500D01*
X104269360Y-95670500D01*
X104282795Y-95671823D01*
X104289809Y-95673951D01*
X104303577Y-95681310D01*
X104326216Y-95690687D01*
X104350249Y-95695467D01*
X104374753Y-95695467D01*
X104398786Y-95690686D01*
X104421423Y-95681310D01*
X104435191Y-95673951D01*
X104442205Y-95671823D01*
X104455640Y-95670500D01*
X104769360Y-95670500D01*
X104782795Y-95671823D01*
X104789809Y-95673951D01*
X104803577Y-95681310D01*
X104826216Y-95690687D01*
X104850249Y-95695467D01*
X104874753Y-95695467D01*
X104898786Y-95690686D01*
X104921423Y-95681310D01*
X104935191Y-95673951D01*
X104942205Y-95671823D01*
X104955640Y-95670500D01*
X105269360Y-95670500D01*
X105282795Y-95671823D01*
X105289809Y-95673951D01*
X105303577Y-95681310D01*
X105326216Y-95690687D01*
X105350249Y-95695467D01*
X105374753Y-95695467D01*
X105398786Y-95690686D01*
X105421423Y-95681310D01*
X105435191Y-95673951D01*
X105442205Y-95671823D01*
X105455640Y-95670500D01*
X105769360Y-95670500D01*
X105782795Y-95671823D01*
X105789809Y-95673951D01*
X105803577Y-95681310D01*
X105826216Y-95690687D01*
X105850249Y-95695467D01*
X105874753Y-95695467D01*
X105898786Y-95690686D01*
X105921423Y-95681310D01*
X105935191Y-95673951D01*
X105942205Y-95671823D01*
X105955640Y-95670500D01*
X106269360Y-95670500D01*
X106282795Y-95671823D01*
X106289809Y-95673951D01*
X106303577Y-95681310D01*
X106326216Y-95690687D01*
X106350249Y-95695467D01*
X106374753Y-95695467D01*
X106398786Y-95690686D01*
X106421423Y-95681310D01*
X106435191Y-95673951D01*
X106442205Y-95671823D01*
X106455640Y-95670500D01*
X106769360Y-95670500D01*
X106782795Y-95671823D01*
X106789809Y-95673951D01*
X106803577Y-95681310D01*
X106826216Y-95690687D01*
X106850249Y-95695467D01*
X106874753Y-95695467D01*
X106898786Y-95690686D01*
X106921423Y-95681310D01*
X106935191Y-95673951D01*
X106942205Y-95671823D01*
X106955640Y-95670500D01*
X107269360Y-95670500D01*
X107282795Y-95671823D01*
X107289809Y-95673951D01*
X107303577Y-95681310D01*
X107326216Y-95690687D01*
X107350249Y-95695467D01*
X107374753Y-95695467D01*
X107398786Y-95690686D01*
X107421423Y-95681310D01*
X107435191Y-95673951D01*
X107442205Y-95671823D01*
X107455640Y-95670500D01*
X107769360Y-95670500D01*
X107782795Y-95671823D01*
X107789809Y-95673951D01*
X107803577Y-95681310D01*
X107826216Y-95690687D01*
X107850249Y-95695467D01*
X107874753Y-95695467D01*
X107898786Y-95690686D01*
X107921423Y-95681310D01*
X107935191Y-95673951D01*
X107942205Y-95671823D01*
X107955640Y-95670500D01*
X108269360Y-95670500D01*
X108282795Y-95671823D01*
X108289809Y-95673951D01*
X108303577Y-95681310D01*
X108326216Y-95690687D01*
X108350249Y-95695467D01*
X108374753Y-95695467D01*
X108398786Y-95690686D01*
X108421423Y-95681310D01*
X108435191Y-95673951D01*
X108442205Y-95671823D01*
X108455640Y-95670500D01*
X108769360Y-95670500D01*
X108782795Y-95671823D01*
X108789809Y-95673951D01*
X108803577Y-95681310D01*
X108826216Y-95690687D01*
X108850249Y-95695467D01*
X108874753Y-95695467D01*
X108898786Y-95690686D01*
X108921423Y-95681310D01*
X108935191Y-95673951D01*
X108942205Y-95671823D01*
X108955640Y-95670500D01*
X109269360Y-95670500D01*
X109282795Y-95671823D01*
X109289809Y-95673951D01*
X109303577Y-95681310D01*
X109326216Y-95690687D01*
X109350249Y-95695467D01*
X109374753Y-95695467D01*
X109398786Y-95690686D01*
X109421423Y-95681310D01*
X109435191Y-95673951D01*
X109442205Y-95671823D01*
X109455640Y-95670500D01*
X109769360Y-95670500D01*
X109782795Y-95671823D01*
X109789809Y-95673951D01*
X109803577Y-95681310D01*
X109826216Y-95690687D01*
X109850249Y-95695467D01*
X109874753Y-95695467D01*
X109898786Y-95690686D01*
X109921423Y-95681310D01*
X109935191Y-95673951D01*
X109942205Y-95671823D01*
X109955640Y-95670500D01*
X110269360Y-95670500D01*
X110282795Y-95671823D01*
X110289810Y-95673951D01*
X110296276Y-95677408D01*
X110301942Y-95682058D01*
X110306592Y-95687724D01*
X110310049Y-95694190D01*
X110312177Y-95701205D01*
X110313500Y-95714640D01*
X110313500Y-97278360D01*
X110312177Y-97291795D01*
X110310049Y-97298810D01*
X110306592Y-97305276D01*
X110301942Y-97310942D01*
X110296276Y-97315592D01*
X110289810Y-97319049D01*
X110282795Y-97321177D01*
X110269360Y-97322500D01*
X109955640Y-97322500D01*
X109942205Y-97321177D01*
X109935191Y-97319049D01*
X109921423Y-97311690D01*
X109898784Y-97302313D01*
X109874751Y-97297533D01*
X109850247Y-97297533D01*
X109826214Y-97302314D01*
X109803577Y-97311690D01*
X109789809Y-97319049D01*
X109782795Y-97321177D01*
X109769360Y-97322500D01*
X109455640Y-97322500D01*
X109442205Y-97321177D01*
X109435191Y-97319049D01*
X109421423Y-97311690D01*
X109398784Y-97302313D01*
X109374751Y-97297533D01*
X109350247Y-97297533D01*
X109326214Y-97302314D01*
X109303577Y-97311690D01*
X109289809Y-97319049D01*
X109282795Y-97321177D01*
X109269360Y-97322500D01*
X108955640Y-97322500D01*
X108942205Y-97321177D01*
X108935191Y-97319049D01*
X108921423Y-97311690D01*
X108898784Y-97302313D01*
X108874751Y-97297533D01*
X108850247Y-97297533D01*
X108826214Y-97302314D01*
X108803577Y-97311690D01*
X108789809Y-97319049D01*
X108782795Y-97321177D01*
X108769360Y-97322500D01*
X108455640Y-97322500D01*
X108442205Y-97321177D01*
X108435191Y-97319049D01*
X108421423Y-97311690D01*
X108398784Y-97302313D01*
X108374751Y-97297533D01*
X108350247Y-97297533D01*
X108326214Y-97302314D01*
X108303577Y-97311690D01*
X108289809Y-97319049D01*
X108282795Y-97321177D01*
X108269360Y-97322500D01*
X107955640Y-97322500D01*
X107942205Y-97321177D01*
X107935191Y-97319049D01*
X107921423Y-97311690D01*
X107898784Y-97302313D01*
X107874751Y-97297533D01*
X107850247Y-97297533D01*
X107826214Y-97302314D01*
X107803577Y-97311690D01*
X107789809Y-97319049D01*
X107782795Y-97321177D01*
X107769360Y-97322500D01*
X107455640Y-97322500D01*
X107442205Y-97321177D01*
X107435191Y-97319049D01*
X107421423Y-97311690D01*
X107398784Y-97302313D01*
X107374751Y-97297533D01*
X107350247Y-97297533D01*
X107326214Y-97302314D01*
X107303577Y-97311690D01*
X107289809Y-97319049D01*
X107282795Y-97321177D01*
X107269360Y-97322500D01*
X106955640Y-97322500D01*
X106942205Y-97321177D01*
X106935191Y-97319049D01*
X106921423Y-97311690D01*
X106898784Y-97302313D01*
X106874751Y-97297533D01*
X106850247Y-97297533D01*
X106826214Y-97302314D01*
X106803577Y-97311690D01*
X106789809Y-97319049D01*
X106782795Y-97321177D01*
X106769360Y-97322500D01*
X106455640Y-97322500D01*
X106442205Y-97321177D01*
X106435191Y-97319049D01*
X106421423Y-97311690D01*
X106398784Y-97302313D01*
X106374751Y-97297533D01*
X106350247Y-97297533D01*
X106326214Y-97302314D01*
X106303577Y-97311690D01*
X106289809Y-97319049D01*
X106282795Y-97321177D01*
X106269360Y-97322500D01*
X105955640Y-97322500D01*
X105942205Y-97321177D01*
X105935191Y-97319049D01*
X105921423Y-97311690D01*
X105898784Y-97302313D01*
X105874751Y-97297533D01*
X105850247Y-97297533D01*
X105826214Y-97302314D01*
X105803577Y-97311690D01*
X105789809Y-97319049D01*
X105782795Y-97321177D01*
X105769360Y-97322500D01*
X105455640Y-97322500D01*
X105442205Y-97321177D01*
X105435191Y-97319049D01*
X105421423Y-97311690D01*
X105398784Y-97302313D01*
X105374751Y-97297533D01*
X105350247Y-97297533D01*
X105326214Y-97302314D01*
X105303577Y-97311690D01*
X105289809Y-97319049D01*
X105282795Y-97321177D01*
X105269360Y-97322500D01*
X104955640Y-97322500D01*
X104942205Y-97321177D01*
X104935191Y-97319049D01*
X104921423Y-97311690D01*
X104898784Y-97302313D01*
X104874751Y-97297533D01*
X104850247Y-97297533D01*
X104826214Y-97302314D01*
X104803577Y-97311690D01*
X104789809Y-97319049D01*
X104782795Y-97321177D01*
X104769360Y-97322500D01*
X104455640Y-97322500D01*
X104442205Y-97321177D01*
X104435191Y-97319049D01*
X104421423Y-97311690D01*
X104398784Y-97302313D01*
X104374751Y-97297533D01*
X104350247Y-97297533D01*
X104326214Y-97302314D01*
X104303577Y-97311690D01*
X104289809Y-97319049D01*
X104282795Y-97321177D01*
X104269360Y-97322500D01*
X103955640Y-97322500D01*
X103942205Y-97321177D01*
X103935191Y-97319049D01*
X103921423Y-97311690D01*
X103898784Y-97302313D01*
X103874751Y-97297533D01*
X103850247Y-97297533D01*
X103826214Y-97302314D01*
X103803577Y-97311690D01*
X103789809Y-97319049D01*
X103782795Y-97321177D01*
X103769360Y-97322500D01*
X103455640Y-97322500D01*
X103442205Y-97321177D01*
X103435191Y-97319049D01*
X103421423Y-97311690D01*
X103398784Y-97302313D01*
X103374751Y-97297533D01*
X103350247Y-97297533D01*
X103326214Y-97302314D01*
X103303577Y-97311690D01*
X103289809Y-97319049D01*
X103282795Y-97321177D01*
X103269360Y-97322500D01*
X102955640Y-97322500D01*
X102942205Y-97321177D01*
X102935191Y-97319049D01*
X102921423Y-97311690D01*
X102898784Y-97302313D01*
X102874751Y-97297533D01*
X102850247Y-97297533D01*
X102826214Y-97302314D01*
X102803577Y-97311690D01*
X102789809Y-97319049D01*
X102782795Y-97321177D01*
X102769360Y-97322500D01*
X102455640Y-97322500D01*
X102442205Y-97321177D01*
X102435190Y-97319049D01*
X102428724Y-97315592D01*
X102423058Y-97310942D01*
X102418408Y-97305276D01*
X102414951Y-97298810D01*
X102412823Y-97291795D01*
X102411500Y-97278360D01*
X102411500Y-95714640D01*
X102412823Y-95701205D01*
X102414951Y-95694190D01*
X102418408Y-95687724D01*
X102423058Y-95682058D01*
X102428724Y-95677408D01*
X102435190Y-95673951D01*
X102442205Y-95671823D01*
X102455640Y-95670500D01*
X102769360Y-95670500D01*
X102782795Y-95671823D01*
G37*
G36*
X115793999Y-95045945D02*
G01*
X115831495Y-95057320D01*
X115866054Y-95075792D01*
X115896347Y-95100653D01*
X115921208Y-95130946D01*
X115939680Y-95165505D01*
X115951055Y-95203001D01*
X115955500Y-95248138D01*
X115955500Y-95886862D01*
X115951055Y-95931999D01*
X115939680Y-95969495D01*
X115921208Y-96004054D01*
X115896347Y-96034347D01*
X115866054Y-96059208D01*
X115831495Y-96077680D01*
X115793999Y-96089055D01*
X115748862Y-96093500D01*
X115010138Y-96093500D01*
X114965001Y-96089055D01*
X114927505Y-96077680D01*
X114892946Y-96059208D01*
X114862653Y-96034347D01*
X114837792Y-96004054D01*
X114819320Y-95969495D01*
X114807945Y-95931999D01*
X114803500Y-95886862D01*
X114803500Y-95248138D01*
X114807945Y-95203001D01*
X114819320Y-95165505D01*
X114837792Y-95130946D01*
X114862653Y-95100653D01*
X114892946Y-95075792D01*
X114927505Y-95057320D01*
X114965001Y-95045945D01*
X115010138Y-95041500D01*
X115748862Y-95041500D01*
X115793999Y-95045945D01*
G37*
G36*
X114043999Y-95045945D02*
G01*
X114081495Y-95057320D01*
X114116054Y-95075792D01*
X114146347Y-95100653D01*
X114171208Y-95130946D01*
X114189680Y-95165505D01*
X114201055Y-95203001D01*
X114205500Y-95248138D01*
X114205500Y-95886862D01*
X114201055Y-95931999D01*
X114189680Y-95969495D01*
X114171208Y-96004054D01*
X114146347Y-96034347D01*
X114116054Y-96059208D01*
X114081495Y-96077680D01*
X114043999Y-96089055D01*
X113998862Y-96093500D01*
X113260138Y-96093500D01*
X113215001Y-96089055D01*
X113177505Y-96077680D01*
X113142946Y-96059208D01*
X113112653Y-96034347D01*
X113087792Y-96004054D01*
X113069320Y-95969495D01*
X113057945Y-95931999D01*
X113053500Y-95886862D01*
X113053500Y-95248138D01*
X113057945Y-95203001D01*
X113069320Y-95165505D01*
X113087792Y-95130946D01*
X113112653Y-95100653D01*
X113142946Y-95075792D01*
X113177505Y-95057320D01*
X113215001Y-95045945D01*
X113260138Y-95041500D01*
X113998862Y-95041500D01*
X114043999Y-95045945D01*
G37*
G36*
X126313500Y-95325500D02*
G01*
X124511500Y-95325500D01*
X124511500Y-93523500D01*
X126313500Y-93523500D01*
X126313500Y-95325500D01*
G37*
G36*
X102599999Y-92505945D02*
G01*
X102637495Y-92517320D01*
X102672054Y-92535792D01*
X102702347Y-92560653D01*
X102727208Y-92590946D01*
X102745680Y-92625505D01*
X102757055Y-92663001D01*
X102761500Y-92708138D01*
X102761500Y-93346862D01*
X102757055Y-93391999D01*
X102745680Y-93429495D01*
X102727208Y-93464054D01*
X102702347Y-93494347D01*
X102672054Y-93519208D01*
X102637495Y-93537680D01*
X102599999Y-93549055D01*
X102554862Y-93553500D01*
X101816138Y-93553500D01*
X101771001Y-93549055D01*
X101733505Y-93537680D01*
X101698946Y-93519208D01*
X101668653Y-93494347D01*
X101643792Y-93464054D01*
X101625320Y-93429495D01*
X101613945Y-93391999D01*
X101609500Y-93346862D01*
X101609500Y-92708138D01*
X101613945Y-92663001D01*
X101625320Y-92625505D01*
X101643792Y-92590946D01*
X101668653Y-92560653D01*
X101698946Y-92535792D01*
X101733505Y-92517320D01*
X101771001Y-92505945D01*
X101816138Y-92501500D01*
X102554862Y-92501500D01*
X102599999Y-92505945D01*
G37*
G36*
X104349999Y-92505945D02*
G01*
X104387495Y-92517320D01*
X104422054Y-92535792D01*
X104452347Y-92560653D01*
X104477208Y-92590946D01*
X104495680Y-92625505D01*
X104507055Y-92663001D01*
X104511500Y-92708138D01*
X104511500Y-93346862D01*
X104507055Y-93391999D01*
X104495680Y-93429495D01*
X104477208Y-93464054D01*
X104452347Y-93494347D01*
X104422054Y-93519208D01*
X104387495Y-93537680D01*
X104349999Y-93549055D01*
X104304862Y-93553500D01*
X103566138Y-93553500D01*
X103521001Y-93549055D01*
X103483505Y-93537680D01*
X103448946Y-93519208D01*
X103418653Y-93494347D01*
X103393792Y-93464054D01*
X103375320Y-93429495D01*
X103363945Y-93391999D01*
X103359500Y-93346862D01*
X103359500Y-92708138D01*
X103363945Y-92663001D01*
X103375320Y-92625505D01*
X103393792Y-92590946D01*
X103418653Y-92560653D01*
X103448946Y-92535792D01*
X103483505Y-92517320D01*
X103521001Y-92505945D01*
X103566138Y-92501500D01*
X104304862Y-92501500D01*
X104349999Y-92505945D01*
G37*
G36*
X114791999Y-92251945D02*
G01*
X114829495Y-92263320D01*
X114864054Y-92281792D01*
X114894347Y-92306653D01*
X114919208Y-92336946D01*
X114937680Y-92371505D01*
X114949055Y-92409001D01*
X114953500Y-92454138D01*
X114953500Y-93092862D01*
X114949055Y-93137999D01*
X114937680Y-93175495D01*
X114919208Y-93210054D01*
X114894347Y-93240347D01*
X114864054Y-93265208D01*
X114829495Y-93283680D01*
X114791999Y-93295055D01*
X114746862Y-93299500D01*
X114008138Y-93299500D01*
X113963001Y-93295055D01*
X113925505Y-93283680D01*
X113890946Y-93265208D01*
X113860653Y-93240347D01*
X113835792Y-93210054D01*
X113817320Y-93175495D01*
X113805945Y-93137999D01*
X113801500Y-93092862D01*
X113801500Y-92454138D01*
X113805945Y-92409001D01*
X113817320Y-92371505D01*
X113835792Y-92336946D01*
X113860653Y-92306653D01*
X113890946Y-92281792D01*
X113925505Y-92263320D01*
X113963001Y-92251945D01*
X114008138Y-92247500D01*
X114746862Y-92247500D01*
X114791999Y-92251945D01*
G37*
G36*
X116541999Y-92251945D02*
G01*
X116579495Y-92263320D01*
X116614054Y-92281792D01*
X116644347Y-92306653D01*
X116669208Y-92336946D01*
X116687680Y-92371505D01*
X116699055Y-92409001D01*
X116703500Y-92454138D01*
X116703500Y-93092862D01*
X116699055Y-93137999D01*
X116687680Y-93175495D01*
X116669208Y-93210054D01*
X116644347Y-93240347D01*
X116614054Y-93265208D01*
X116579495Y-93283680D01*
X116541999Y-93295055D01*
X116496862Y-93299500D01*
X115758138Y-93299500D01*
X115713001Y-93295055D01*
X115675505Y-93283680D01*
X115640946Y-93265208D01*
X115610653Y-93240347D01*
X115585792Y-93210054D01*
X115567320Y-93175495D01*
X115555945Y-93137999D01*
X115551500Y-93092862D01*
X115551500Y-92454138D01*
X115555945Y-92409001D01*
X115567320Y-92371505D01*
X115585792Y-92336946D01*
X115610653Y-92306653D01*
X115640946Y-92281792D01*
X115675505Y-92263320D01*
X115713001Y-92251945D01*
X115758138Y-92247500D01*
X116496862Y-92247500D01*
X116541999Y-92251945D01*
G37*
G36*
X111955999Y-92188445D02*
G01*
X111993495Y-92199820D01*
X112028054Y-92218292D01*
X112058347Y-92243153D01*
X112083208Y-92273446D01*
X112101680Y-92308005D01*
X112113055Y-92345501D01*
X112117500Y-92390638D01*
X112117500Y-93029362D01*
X112113055Y-93074499D01*
X112101680Y-93111995D01*
X112083208Y-93146554D01*
X112058347Y-93176847D01*
X112028054Y-93201708D01*
X111993495Y-93220180D01*
X111955999Y-93231555D01*
X111910862Y-93236000D01*
X111172138Y-93236000D01*
X111127001Y-93231555D01*
X111089505Y-93220180D01*
X111054946Y-93201708D01*
X111024653Y-93176847D01*
X110999792Y-93146554D01*
X110981320Y-93111995D01*
X110969945Y-93074499D01*
X110965500Y-93029362D01*
X110965500Y-92390638D01*
X110969945Y-92345501D01*
X110981320Y-92308005D01*
X110999792Y-92273446D01*
X111024653Y-92243153D01*
X111054946Y-92218292D01*
X111089505Y-92199820D01*
X111127001Y-92188445D01*
X111172138Y-92184000D01*
X111910862Y-92184000D01*
X111955999Y-92188445D01*
G37*
G36*
X110205999Y-92188445D02*
G01*
X110243495Y-92199820D01*
X110278054Y-92218292D01*
X110308347Y-92243153D01*
X110333208Y-92273446D01*
X110351680Y-92308005D01*
X110363055Y-92345501D01*
X110367500Y-92390638D01*
X110367500Y-93029362D01*
X110363055Y-93074499D01*
X110351680Y-93111995D01*
X110333208Y-93146554D01*
X110308347Y-93176847D01*
X110278054Y-93201708D01*
X110243495Y-93220180D01*
X110205999Y-93231555D01*
X110160862Y-93236000D01*
X109422138Y-93236000D01*
X109377001Y-93231555D01*
X109339505Y-93220180D01*
X109304946Y-93201708D01*
X109274653Y-93176847D01*
X109249792Y-93146554D01*
X109231320Y-93111995D01*
X109219945Y-93074499D01*
X109215500Y-93029362D01*
X109215500Y-92390638D01*
X109219945Y-92345501D01*
X109231320Y-92308005D01*
X109249792Y-92273446D01*
X109274653Y-92243153D01*
X109304946Y-92218292D01*
X109339505Y-92199820D01*
X109377001Y-92188445D01*
X109422138Y-92184000D01*
X110160862Y-92184000D01*
X110205999Y-92188445D01*
G37*
G36*
X136079486Y-89401229D02*
G01*
X136091423Y-89402405D01*
X136152685Y-89420989D01*
X136213948Y-89439573D01*
X136326868Y-89499930D01*
X136425843Y-89581157D01*
X136507070Y-89680132D01*
X136567427Y-89793052D01*
X136604595Y-89915578D01*
X136617145Y-90043000D01*
X136604595Y-90170422D01*
X136567427Y-90292948D01*
X136507070Y-90405868D01*
X136425843Y-90504843D01*
X136326868Y-90586070D01*
X136213948Y-90646427D01*
X136152685Y-90665011D01*
X136091423Y-90683595D01*
X136079486Y-90684771D01*
X135995932Y-90693000D01*
X135132068Y-90693000D01*
X135048514Y-90684771D01*
X135036577Y-90683595D01*
X134975315Y-90665011D01*
X134914052Y-90646427D01*
X134801132Y-90586070D01*
X134702157Y-90504843D01*
X134620930Y-90405868D01*
X134560573Y-90292948D01*
X134523405Y-90170422D01*
X134510855Y-90043000D01*
X134523405Y-89915578D01*
X134560573Y-89793052D01*
X134620930Y-89680132D01*
X134702157Y-89581157D01*
X134801132Y-89499930D01*
X134914052Y-89439573D01*
X134975315Y-89420989D01*
X135036577Y-89402405D01*
X135048514Y-89401229D01*
X135132068Y-89393000D01*
X135995932Y-89393000D01*
X136079486Y-89401229D01*
G37*
G36*
X113441000Y-90405000D02*
G01*
X111339000Y-90405000D01*
X111339000Y-87903000D01*
X113441000Y-87903000D01*
X113441000Y-90405000D01*
G37*
G36*
X117141000Y-90405000D02*
G01*
X115039000Y-90405000D01*
X115039000Y-87903000D01*
X117141000Y-87903000D01*
X117141000Y-90405000D01*
G37*
G36*
X133031621Y-88301682D02*
G01*
X133144721Y-88335990D01*
X133248955Y-88391704D01*
X133340317Y-88466683D01*
X133415296Y-88558045D01*
X133471010Y-88662279D01*
X133505318Y-88775379D01*
X133516903Y-88893000D01*
X133505318Y-89010621D01*
X133471010Y-89123721D01*
X133415296Y-89227955D01*
X133340317Y-89319317D01*
X133248955Y-89394296D01*
X133144721Y-89450010D01*
X133031621Y-89484318D01*
X132943474Y-89493000D01*
X132684526Y-89493000D01*
X132596379Y-89484318D01*
X132483279Y-89450010D01*
X132379045Y-89394296D01*
X132287683Y-89319317D01*
X132212704Y-89227955D01*
X132156990Y-89123721D01*
X132122682Y-89010621D01*
X132111097Y-88893000D01*
X132122682Y-88775379D01*
X132156990Y-88662279D01*
X132212704Y-88558045D01*
X132287683Y-88466683D01*
X132379045Y-88391704D01*
X132483279Y-88335990D01*
X132596379Y-88301682D01*
X132684526Y-88293000D01*
X132943474Y-88293000D01*
X133031621Y-88301682D01*
G37*
G36*
X133535400Y-88018000D02*
G01*
X130785400Y-88018000D01*
X130785400Y-84922600D01*
X133535400Y-84922600D01*
X133535400Y-88018000D01*
G37*
G36*
X125526012Y-85527427D02*
G01*
X125675312Y-85557124D01*
X125839284Y-85625044D01*
X125986854Y-85723647D01*
X126112353Y-85849146D01*
X126210956Y-85996716D01*
X126278876Y-86160688D01*
X126313500Y-86334759D01*
X126313500Y-86512241D01*
X126278876Y-86686312D01*
X126210956Y-86850284D01*
X126112353Y-86997854D01*
X125986854Y-87123353D01*
X125839284Y-87221956D01*
X125675312Y-87289876D01*
X125526012Y-87319573D01*
X125501242Y-87324500D01*
X125323758Y-87324500D01*
X125298988Y-87319573D01*
X125149688Y-87289876D01*
X124985716Y-87221956D01*
X124838146Y-87123353D01*
X124712647Y-86997854D01*
X124614044Y-86850284D01*
X124546124Y-86686312D01*
X124511500Y-86512241D01*
X124511500Y-86334759D01*
X124546124Y-86160688D01*
X124614044Y-85996716D01*
X124712647Y-85849146D01*
X124838146Y-85723647D01*
X124985716Y-85625044D01*
X125149688Y-85557124D01*
X125298988Y-85527427D01*
X125323758Y-85522500D01*
X125501242Y-85522500D01*
X125526012Y-85527427D01*
G37*
G36*
X123773500Y-87324500D02*
G01*
X121971500Y-87324500D01*
X121971500Y-85522500D01*
X123773500Y-85522500D01*
X123773500Y-87324500D01*
G37*
G36*
X133031621Y-83451682D02*
G01*
X133144721Y-83485990D01*
X133248955Y-83541704D01*
X133340317Y-83616683D01*
X133415296Y-83708045D01*
X133471010Y-83812279D01*
X133505318Y-83925379D01*
X133516903Y-84043000D01*
X133505318Y-84160621D01*
X133471010Y-84273721D01*
X133415296Y-84377955D01*
X133340317Y-84469317D01*
X133248955Y-84544296D01*
X133144721Y-84600010D01*
X133031621Y-84634318D01*
X132943474Y-84643000D01*
X132684526Y-84643000D01*
X132596379Y-84634318D01*
X132483279Y-84600010D01*
X132379045Y-84544296D01*
X132287683Y-84469317D01*
X132212704Y-84377955D01*
X132156990Y-84273721D01*
X132122682Y-84160621D01*
X132111097Y-84043000D01*
X132122682Y-83925379D01*
X132156990Y-83812279D01*
X132212704Y-83708045D01*
X132287683Y-83616683D01*
X132379045Y-83541704D01*
X132483279Y-83485990D01*
X132596379Y-83451682D01*
X132684526Y-83443000D01*
X132943474Y-83443000D01*
X133031621Y-83451682D01*
G37*
G36*
X88044499Y-83488945D02*
G01*
X88081995Y-83500320D01*
X88116554Y-83518792D01*
X88146847Y-83543653D01*
X88171708Y-83573946D01*
X88190180Y-83608505D01*
X88201555Y-83646001D01*
X88206000Y-83691138D01*
X88206000Y-84329862D01*
X88201555Y-84374999D01*
X88190180Y-84412495D01*
X88171708Y-84447054D01*
X88146847Y-84477347D01*
X88116554Y-84502208D01*
X88081995Y-84520680D01*
X88044499Y-84532055D01*
X87999362Y-84536500D01*
X87260638Y-84536500D01*
X87215501Y-84532055D01*
X87178005Y-84520680D01*
X87143446Y-84502208D01*
X87113153Y-84477347D01*
X87088292Y-84447054D01*
X87069820Y-84412495D01*
X87058445Y-84374999D01*
X87054000Y-84329862D01*
X87054000Y-83691138D01*
X87058445Y-83646001D01*
X87069820Y-83608505D01*
X87088292Y-83573946D01*
X87113153Y-83543653D01*
X87143446Y-83518792D01*
X87178005Y-83500320D01*
X87215501Y-83488945D01*
X87260638Y-83484500D01*
X87999362Y-83484500D01*
X88044499Y-83488945D01*
G37*
G36*
X89794499Y-83488945D02*
G01*
X89831995Y-83500320D01*
X89866554Y-83518792D01*
X89896847Y-83543653D01*
X89921708Y-83573946D01*
X89940180Y-83608505D01*
X89951555Y-83646001D01*
X89956000Y-83691138D01*
X89956000Y-84329862D01*
X89951555Y-84374999D01*
X89940180Y-84412495D01*
X89921708Y-84447054D01*
X89896847Y-84477347D01*
X89866554Y-84502208D01*
X89831995Y-84520680D01*
X89794499Y-84532055D01*
X89749362Y-84536500D01*
X89010638Y-84536500D01*
X88965501Y-84532055D01*
X88928005Y-84520680D01*
X88893446Y-84502208D01*
X88863153Y-84477347D01*
X88838292Y-84447054D01*
X88819820Y-84412495D01*
X88808445Y-84374999D01*
X88804000Y-84329862D01*
X88804000Y-83691138D01*
X88808445Y-83646001D01*
X88819820Y-83608505D01*
X88838292Y-83573946D01*
X88863153Y-83543653D01*
X88893446Y-83518792D01*
X88928005Y-83500320D01*
X88965501Y-83488945D01*
X89010638Y-83484500D01*
X89749362Y-83484500D01*
X89794499Y-83488945D01*
G37*
G36*
X94041499Y-83488945D02*
G01*
X94078995Y-83500320D01*
X94113554Y-83518792D01*
X94143847Y-83543653D01*
X94168708Y-83573946D01*
X94187180Y-83608505D01*
X94198555Y-83646001D01*
X94203000Y-83691138D01*
X94203000Y-84329862D01*
X94198555Y-84374999D01*
X94187180Y-84412495D01*
X94168708Y-84447054D01*
X94143847Y-84477347D01*
X94113554Y-84502208D01*
X94078995Y-84520680D01*
X94041499Y-84532055D01*
X93996362Y-84536500D01*
X93257638Y-84536500D01*
X93212501Y-84532055D01*
X93175005Y-84520680D01*
X93140446Y-84502208D01*
X93110153Y-84477347D01*
X93085292Y-84447054D01*
X93066820Y-84412495D01*
X93055445Y-84374999D01*
X93051000Y-84329862D01*
X93051000Y-83691138D01*
X93055445Y-83646001D01*
X93066820Y-83608505D01*
X93085292Y-83573946D01*
X93110153Y-83543653D01*
X93140446Y-83518792D01*
X93175005Y-83500320D01*
X93212501Y-83488945D01*
X93257638Y-83484500D01*
X93996362Y-83484500D01*
X94041499Y-83488945D01*
G37*
G36*
X95791499Y-83488945D02*
G01*
X95828995Y-83500320D01*
X95863554Y-83518792D01*
X95893847Y-83543653D01*
X95918708Y-83573946D01*
X95937180Y-83608505D01*
X95948555Y-83646001D01*
X95953000Y-83691138D01*
X95953000Y-84329862D01*
X95948555Y-84374999D01*
X95937180Y-84412495D01*
X95918708Y-84447054D01*
X95893847Y-84477347D01*
X95863554Y-84502208D01*
X95828995Y-84520680D01*
X95791499Y-84532055D01*
X95746362Y-84536500D01*
X95007638Y-84536500D01*
X94962501Y-84532055D01*
X94925005Y-84520680D01*
X94890446Y-84502208D01*
X94860153Y-84477347D01*
X94835292Y-84447054D01*
X94816820Y-84412495D01*
X94805445Y-84374999D01*
X94801000Y-84329862D01*
X94801000Y-83691138D01*
X94805445Y-83646001D01*
X94816820Y-83608505D01*
X94835292Y-83573946D01*
X94860153Y-83543653D01*
X94890446Y-83518792D01*
X94925005Y-83500320D01*
X94962501Y-83488945D01*
X95007638Y-83484500D01*
X95746362Y-83484500D01*
X95791499Y-83488945D01*
G37*
G36*
X136079486Y-82251229D02*
G01*
X136091423Y-82252405D01*
X136152685Y-82270989D01*
X136213948Y-82289573D01*
X136326868Y-82349930D01*
X136425843Y-82431157D01*
X136507070Y-82530132D01*
X136567427Y-82643052D01*
X136604595Y-82765578D01*
X136617145Y-82893000D01*
X136604595Y-83020422D01*
X136567427Y-83142948D01*
X136507070Y-83255868D01*
X136425843Y-83354843D01*
X136326868Y-83436070D01*
X136213948Y-83496427D01*
X136152685Y-83515011D01*
X136091423Y-83533595D01*
X136079486Y-83534771D01*
X135995932Y-83543000D01*
X135132068Y-83543000D01*
X135048514Y-83534771D01*
X135036577Y-83533595D01*
X134975315Y-83515011D01*
X134914052Y-83496427D01*
X134801132Y-83436070D01*
X134702157Y-83354843D01*
X134620930Y-83255868D01*
X134560573Y-83142948D01*
X134523405Y-83020422D01*
X134510855Y-82893000D01*
X134523405Y-82765578D01*
X134560573Y-82643052D01*
X134620930Y-82530132D01*
X134702157Y-82431157D01*
X134801132Y-82349930D01*
X134914052Y-82289573D01*
X134975315Y-82270989D01*
X135036577Y-82252405D01*
X135048514Y-82251229D01*
X135132068Y-82243000D01*
X135995932Y-82243000D01*
X136079486Y-82251229D01*
G37*
G36*
X98485000Y-81499500D02*
G01*
X97683000Y-81499500D01*
X97683000Y-79797500D01*
X98485000Y-79797500D01*
X98485000Y-81499500D01*
G37*
G36*
X100685000Y-81499500D02*
G01*
X99883000Y-81499500D01*
X99883000Y-79797500D01*
X100685000Y-79797500D01*
X100685000Y-81499500D01*
G37*
G36*
X102885000Y-81499500D02*
G01*
X102083000Y-81499500D01*
X102083000Y-79797500D01*
X102885000Y-79797500D01*
X102885000Y-81499500D01*
G37*
G36*
X103985000Y-81499500D02*
G01*
X103183000Y-81499500D01*
X103183000Y-79797500D01*
X103985000Y-79797500D01*
X103985000Y-81499500D01*
G37*
G36*
X107585000Y-80899500D02*
G01*
X106309999Y-80899500D01*
X106285613Y-80901902D01*
X106262164Y-80909015D01*
X106240553Y-80920566D01*
X106221611Y-80936111D01*
X106206066Y-80955053D01*
X106194515Y-80976664D01*
X106187402Y-81000113D01*
X106185000Y-81024499D01*
X106185000Y-81499500D01*
X105383000Y-81499500D01*
X105383000Y-79797500D01*
X106158001Y-79797500D01*
X106182387Y-79795098D01*
X106205836Y-79787985D01*
X106227447Y-79776434D01*
X106246389Y-79760889D01*
X106261934Y-79741947D01*
X106273485Y-79720336D01*
X106280598Y-79696887D01*
X106283000Y-79672501D01*
X106283000Y-79397500D01*
X107585000Y-79397500D01*
X107585000Y-80899500D01*
G37*
G36*
X101785000Y-81499500D02*
G01*
X100983000Y-81499500D01*
X100983000Y-79797500D01*
X101785000Y-79797500D01*
X101785000Y-81499500D01*
G37*
G36*
X99585000Y-81499500D02*
G01*
X98783000Y-81499500D01*
X98783000Y-79797500D01*
X99585000Y-79797500D01*
X99585000Y-81499500D01*
G37*
G36*
X105085000Y-81499500D02*
G01*
X104283000Y-81499500D01*
X104283000Y-79797500D01*
X105085000Y-79797500D01*
X105085000Y-81499500D01*
G37*
G36*
X97385000Y-81499500D02*
G01*
X96583000Y-81499500D01*
X96583000Y-79797500D01*
X97385000Y-79797500D01*
X97385000Y-81499500D01*
G37*
G36*
X124733174Y-79453965D02*
G01*
X124770867Y-79465399D01*
X124805603Y-79483966D01*
X124836048Y-79508952D01*
X124861034Y-79539397D01*
X124879601Y-79574133D01*
X124891035Y-79611826D01*
X124895500Y-79657161D01*
X124895500Y-80743839D01*
X124891035Y-80789174D01*
X124879601Y-80826867D01*
X124861034Y-80861603D01*
X124836048Y-80892048D01*
X124805603Y-80917034D01*
X124770867Y-80935601D01*
X124733174Y-80947035D01*
X124687839Y-80951500D01*
X123851161Y-80951500D01*
X123805826Y-80947035D01*
X123768133Y-80935601D01*
X123733397Y-80917034D01*
X123702952Y-80892048D01*
X123677966Y-80861603D01*
X123659399Y-80826867D01*
X123647965Y-80789174D01*
X123643500Y-80743839D01*
X123643500Y-79657161D01*
X123647965Y-79611826D01*
X123659399Y-79574133D01*
X123677966Y-79539397D01*
X123702952Y-79508952D01*
X123733397Y-79483966D01*
X123768133Y-79465399D01*
X123805826Y-79453965D01*
X123851161Y-79449500D01*
X124687839Y-79449500D01*
X124733174Y-79453965D01*
G37*
G36*
X122683174Y-79453965D02*
G01*
X122720867Y-79465399D01*
X122755603Y-79483966D01*
X122786048Y-79508952D01*
X122811034Y-79539397D01*
X122829601Y-79574133D01*
X122841035Y-79611826D01*
X122845500Y-79657161D01*
X122845500Y-80743839D01*
X122841035Y-80789174D01*
X122829601Y-80826867D01*
X122811034Y-80861603D01*
X122786048Y-80892048D01*
X122755603Y-80917034D01*
X122720867Y-80935601D01*
X122683174Y-80947035D01*
X122637839Y-80951500D01*
X121801161Y-80951500D01*
X121755826Y-80947035D01*
X121718133Y-80935601D01*
X121683397Y-80917034D01*
X121652952Y-80892048D01*
X121627966Y-80861603D01*
X121609399Y-80826867D01*
X121597965Y-80789174D01*
X121593500Y-80743839D01*
X121593500Y-79657161D01*
X121597965Y-79611826D01*
X121609399Y-79574133D01*
X121627966Y-79539397D01*
X121652952Y-79508952D01*
X121683397Y-79483966D01*
X121718133Y-79465399D01*
X121755826Y-79453965D01*
X121801161Y-79449500D01*
X122637839Y-79449500D01*
X122683174Y-79453965D01*
G37*
G36*
X93185000Y-80899500D02*
G01*
X91483000Y-80899500D01*
X91483000Y-79397500D01*
X93185000Y-79397500D01*
X93185000Y-80899500D01*
G37*
G36*
X118488999Y-79615445D02*
G01*
X118526495Y-79626820D01*
X118561054Y-79645292D01*
X118591347Y-79670153D01*
X118616208Y-79700446D01*
X118634680Y-79735005D01*
X118646055Y-79772501D01*
X118650500Y-79817638D01*
X118650500Y-80456362D01*
X118646055Y-80501499D01*
X118634680Y-80538995D01*
X118616208Y-80573554D01*
X118591347Y-80603847D01*
X118561054Y-80628708D01*
X118526495Y-80647180D01*
X118488999Y-80658555D01*
X118443862Y-80663000D01*
X117705138Y-80663000D01*
X117660001Y-80658555D01*
X117622505Y-80647180D01*
X117587946Y-80628708D01*
X117557653Y-80603847D01*
X117532792Y-80573554D01*
X117514320Y-80538995D01*
X117502945Y-80501499D01*
X117498500Y-80456362D01*
X117498500Y-79817638D01*
X117502945Y-79772501D01*
X117514320Y-79735005D01*
X117532792Y-79700446D01*
X117557653Y-79670153D01*
X117587946Y-79645292D01*
X117622505Y-79626820D01*
X117660001Y-79615445D01*
X117705138Y-79611000D01*
X118443862Y-79611000D01*
X118488999Y-79615445D01*
G37*
G36*
X113126999Y-79615445D02*
G01*
X113164495Y-79626820D01*
X113199054Y-79645292D01*
X113229347Y-79670153D01*
X113254208Y-79700446D01*
X113272680Y-79735005D01*
X113284055Y-79772501D01*
X113288500Y-79817638D01*
X113288500Y-80456362D01*
X113284055Y-80501499D01*
X113272680Y-80538995D01*
X113254208Y-80573554D01*
X113229347Y-80603847D01*
X113199054Y-80628708D01*
X113164495Y-80647180D01*
X113126999Y-80658555D01*
X113081862Y-80663000D01*
X112343138Y-80663000D01*
X112298001Y-80658555D01*
X112260505Y-80647180D01*
X112225946Y-80628708D01*
X112195653Y-80603847D01*
X112170792Y-80573554D01*
X112152320Y-80538995D01*
X112140945Y-80501499D01*
X112136500Y-80456362D01*
X112136500Y-79817638D01*
X112140945Y-79772501D01*
X112152320Y-79735005D01*
X112170792Y-79700446D01*
X112195653Y-79670153D01*
X112225946Y-79645292D01*
X112260505Y-79626820D01*
X112298001Y-79615445D01*
X112343138Y-79611000D01*
X113081862Y-79611000D01*
X113126999Y-79615445D01*
G37*
G36*
X120238999Y-79615445D02*
G01*
X120276495Y-79626820D01*
X120311054Y-79645292D01*
X120341347Y-79670153D01*
X120366208Y-79700446D01*
X120384680Y-79735005D01*
X120396055Y-79772501D01*
X120400500Y-79817638D01*
X120400500Y-80456362D01*
X120396055Y-80501499D01*
X120384680Y-80538995D01*
X120366208Y-80573554D01*
X120341347Y-80603847D01*
X120311054Y-80628708D01*
X120276495Y-80647180D01*
X120238999Y-80658555D01*
X120193862Y-80663000D01*
X119455138Y-80663000D01*
X119410001Y-80658555D01*
X119372505Y-80647180D01*
X119337946Y-80628708D01*
X119307653Y-80603847D01*
X119282792Y-80573554D01*
X119264320Y-80538995D01*
X119252945Y-80501499D01*
X119248500Y-80456362D01*
X119248500Y-79817638D01*
X119252945Y-79772501D01*
X119264320Y-79735005D01*
X119282792Y-79700446D01*
X119307653Y-79670153D01*
X119337946Y-79645292D01*
X119372505Y-79626820D01*
X119410001Y-79615445D01*
X119455138Y-79611000D01*
X120193862Y-79611000D01*
X120238999Y-79615445D01*
G37*
G36*
X114876999Y-79615445D02*
G01*
X114914495Y-79626820D01*
X114949054Y-79645292D01*
X114979347Y-79670153D01*
X115004208Y-79700446D01*
X115022680Y-79735005D01*
X115034055Y-79772501D01*
X115038500Y-79817638D01*
X115038500Y-80456362D01*
X115034055Y-80501499D01*
X115022680Y-80538995D01*
X115004208Y-80573554D01*
X114979347Y-80603847D01*
X114949054Y-80628708D01*
X114914495Y-80647180D01*
X114876999Y-80658555D01*
X114831862Y-80663000D01*
X114093138Y-80663000D01*
X114048001Y-80658555D01*
X114010505Y-80647180D01*
X113975946Y-80628708D01*
X113945653Y-80603847D01*
X113920792Y-80573554D01*
X113902320Y-80538995D01*
X113890945Y-80501499D01*
X113886500Y-80456362D01*
X113886500Y-79817638D01*
X113890945Y-79772501D01*
X113902320Y-79735005D01*
X113920792Y-79700446D01*
X113945653Y-79670153D01*
X113975946Y-79645292D01*
X114010505Y-79626820D01*
X114048001Y-79615445D01*
X114093138Y-79611000D01*
X114831862Y-79611000D01*
X114876999Y-79615445D01*
G37*
G36*
X128543174Y-77104465D02*
G01*
X128580867Y-77115899D01*
X128615603Y-77134466D01*
X128646048Y-77159452D01*
X128671034Y-77189897D01*
X128689601Y-77224633D01*
X128701035Y-77262326D01*
X128705500Y-77307661D01*
X128705500Y-78394339D01*
X128701035Y-78439674D01*
X128689601Y-78477367D01*
X128671034Y-78512103D01*
X128646048Y-78542548D01*
X128615603Y-78567534D01*
X128580867Y-78586101D01*
X128543174Y-78597535D01*
X128497839Y-78602000D01*
X127661161Y-78602000D01*
X127615826Y-78597535D01*
X127578133Y-78586101D01*
X127543397Y-78567534D01*
X127512952Y-78542548D01*
X127487966Y-78512103D01*
X127469399Y-78477367D01*
X127457965Y-78439674D01*
X127453500Y-78394339D01*
X127453500Y-77307661D01*
X127457965Y-77262326D01*
X127469399Y-77224633D01*
X127487966Y-77189897D01*
X127512952Y-77159452D01*
X127543397Y-77134466D01*
X127578133Y-77115899D01*
X127615826Y-77104465D01*
X127661161Y-77100000D01*
X128497839Y-77100000D01*
X128543174Y-77104465D01*
G37*
G36*
X126493174Y-77104465D02*
G01*
X126530867Y-77115899D01*
X126565603Y-77134466D01*
X126596048Y-77159452D01*
X126621034Y-77189897D01*
X126639601Y-77224633D01*
X126651035Y-77262326D01*
X126655500Y-77307661D01*
X126655500Y-78394339D01*
X126651035Y-78439674D01*
X126639601Y-78477367D01*
X126621034Y-78512103D01*
X126596048Y-78542548D01*
X126565603Y-78567534D01*
X126530867Y-78586101D01*
X126493174Y-78597535D01*
X126447839Y-78602000D01*
X125611161Y-78602000D01*
X125565826Y-78597535D01*
X125528133Y-78586101D01*
X125493397Y-78567534D01*
X125462952Y-78542548D01*
X125437966Y-78512103D01*
X125419399Y-78477367D01*
X125407965Y-78439674D01*
X125403500Y-78394339D01*
X125403500Y-77307661D01*
X125407965Y-77262326D01*
X125419399Y-77224633D01*
X125437966Y-77189897D01*
X125462952Y-77159452D01*
X125493397Y-77134466D01*
X125528133Y-77115899D01*
X125565826Y-77104465D01*
X125611161Y-77100000D01*
X126447839Y-77100000D01*
X126493174Y-77104465D01*
G37*
G36*
X90187174Y-76929965D02*
G01*
X90224867Y-76941399D01*
X90259603Y-76959966D01*
X90290048Y-76984952D01*
X90315034Y-77015397D01*
X90333601Y-77050133D01*
X90345035Y-77087826D01*
X90349500Y-77133161D01*
X90349500Y-77969839D01*
X90345035Y-78015174D01*
X90333601Y-78052867D01*
X90315034Y-78087603D01*
X90290048Y-78118048D01*
X90259603Y-78143034D01*
X90224867Y-78161601D01*
X90187174Y-78173035D01*
X90141839Y-78177500D01*
X89055161Y-78177500D01*
X89009826Y-78173035D01*
X88972133Y-78161601D01*
X88937397Y-78143034D01*
X88906952Y-78118048D01*
X88881966Y-78087603D01*
X88863399Y-78052867D01*
X88851965Y-78015174D01*
X88847500Y-77969839D01*
X88847500Y-77133161D01*
X88851965Y-77087826D01*
X88863399Y-77050133D01*
X88881966Y-77015397D01*
X88906952Y-76984952D01*
X88937397Y-76959966D01*
X88972133Y-76941399D01*
X89009826Y-76929965D01*
X89055161Y-76925500D01*
X90141839Y-76925500D01*
X90187174Y-76929965D01*
G37*
G36*
X109808674Y-76929965D02*
G01*
X109846367Y-76941399D01*
X109881103Y-76959966D01*
X109911548Y-76984952D01*
X109936534Y-77015397D01*
X109955101Y-77050133D01*
X109966535Y-77087826D01*
X109971000Y-77133161D01*
X109971000Y-77969839D01*
X109966535Y-78015174D01*
X109955101Y-78052867D01*
X109936534Y-78087603D01*
X109911548Y-78118048D01*
X109881103Y-78143034D01*
X109846367Y-78161601D01*
X109808674Y-78173035D01*
X109763339Y-78177500D01*
X108676661Y-78177500D01*
X108631326Y-78173035D01*
X108593633Y-78161601D01*
X108558897Y-78143034D01*
X108528452Y-78118048D01*
X108503466Y-78087603D01*
X108484899Y-78052867D01*
X108473465Y-78015174D01*
X108469000Y-77969839D01*
X108469000Y-77133161D01*
X108473465Y-77087826D01*
X108484899Y-77050133D01*
X108503466Y-77015397D01*
X108528452Y-76984952D01*
X108558897Y-76959966D01*
X108593633Y-76941399D01*
X108631326Y-76929965D01*
X108676661Y-76925500D01*
X109763339Y-76925500D01*
X109808674Y-76929965D01*
G37*
G36*
X90187174Y-74879965D02*
G01*
X90224867Y-74891399D01*
X90259603Y-74909966D01*
X90290048Y-74934952D01*
X90315034Y-74965397D01*
X90333601Y-75000133D01*
X90345035Y-75037826D01*
X90349500Y-75083161D01*
X90349500Y-75919839D01*
X90345035Y-75965174D01*
X90333601Y-76002867D01*
X90315034Y-76037603D01*
X90290048Y-76068048D01*
X90259603Y-76093034D01*
X90224867Y-76111601D01*
X90187174Y-76123035D01*
X90141839Y-76127500D01*
X89055161Y-76127500D01*
X89009826Y-76123035D01*
X88972133Y-76111601D01*
X88937397Y-76093034D01*
X88906952Y-76068048D01*
X88881966Y-76037603D01*
X88863399Y-76002867D01*
X88851965Y-75965174D01*
X88847500Y-75919839D01*
X88847500Y-75083161D01*
X88851965Y-75037826D01*
X88863399Y-75000133D01*
X88881966Y-74965397D01*
X88906952Y-74934952D01*
X88937397Y-74909966D01*
X88972133Y-74891399D01*
X89009826Y-74879965D01*
X89055161Y-74875500D01*
X90141839Y-74875500D01*
X90187174Y-74879965D01*
G37*
G36*
X109808674Y-74879965D02*
G01*
X109846367Y-74891399D01*
X109881103Y-74909966D01*
X109911548Y-74934952D01*
X109936534Y-74965397D01*
X109955101Y-75000133D01*
X109966535Y-75037826D01*
X109971000Y-75083161D01*
X109971000Y-75919839D01*
X109966535Y-75965174D01*
X109955101Y-76002867D01*
X109936534Y-76037603D01*
X109911548Y-76068048D01*
X109881103Y-76093034D01*
X109846367Y-76111601D01*
X109808674Y-76123035D01*
X109763339Y-76127500D01*
X108676661Y-76127500D01*
X108631326Y-76123035D01*
X108593633Y-76111601D01*
X108558897Y-76093034D01*
X108528452Y-76068048D01*
X108503466Y-76037603D01*
X108484899Y-76002867D01*
X108473465Y-75965174D01*
X108469000Y-75919839D01*
X108469000Y-75083161D01*
X108473465Y-75037826D01*
X108484899Y-75000133D01*
X108503466Y-74965397D01*
X108528452Y-74934952D01*
X108558897Y-74909966D01*
X108593633Y-74891399D01*
X108631326Y-74879965D01*
X108676661Y-74875500D01*
X109763339Y-74875500D01*
X109808674Y-74879965D01*
G37*
G36*
X119138064Y-73855889D02*
G01*
X119329333Y-73935115D01*
X119329335Y-73935116D01*
X119501473Y-74050135D01*
X119647865Y-74196527D01*
X119757206Y-74360167D01*
X119762885Y-74368667D01*
X119842111Y-74559936D01*
X119882500Y-74762984D01*
X119882500Y-74970016D01*
X119842111Y-75173064D01*
X119766406Y-75355833D01*
X119762884Y-75364335D01*
X119647865Y-75536473D01*
X119501473Y-75682865D01*
X119329335Y-75797884D01*
X119329334Y-75797885D01*
X119329333Y-75797885D01*
X119138064Y-75877111D01*
X118935016Y-75917500D01*
X118727984Y-75917500D01*
X118524936Y-75877111D01*
X118333667Y-75797885D01*
X118333666Y-75797885D01*
X118333665Y-75797884D01*
X118161527Y-75682865D01*
X118015135Y-75536473D01*
X117900116Y-75364335D01*
X117896594Y-75355833D01*
X117820889Y-75173064D01*
X117780500Y-74970016D01*
X117780500Y-74762984D01*
X117820889Y-74559936D01*
X117900115Y-74368667D01*
X117905795Y-74360167D01*
X118015135Y-74196527D01*
X118161527Y-74050135D01*
X118333665Y-73935116D01*
X118333667Y-73935115D01*
X118524936Y-73855889D01*
X118727984Y-73815500D01*
X118935016Y-73815500D01*
X119138064Y-73855889D01*
G37*
G36*
X112638064Y-73855889D02*
G01*
X112829333Y-73935115D01*
X112829335Y-73935116D01*
X113001473Y-74050135D01*
X113147865Y-74196527D01*
X113257206Y-74360167D01*
X113262885Y-74368667D01*
X113342111Y-74559936D01*
X113382500Y-74762984D01*
X113382500Y-74970016D01*
X113342111Y-75173064D01*
X113266406Y-75355833D01*
X113262884Y-75364335D01*
X113147865Y-75536473D01*
X113001473Y-75682865D01*
X112829335Y-75797884D01*
X112829334Y-75797885D01*
X112829333Y-75797885D01*
X112638064Y-75877111D01*
X112435016Y-75917500D01*
X112227984Y-75917500D01*
X112024936Y-75877111D01*
X111833667Y-75797885D01*
X111833666Y-75797885D01*
X111833665Y-75797884D01*
X111661527Y-75682865D01*
X111515135Y-75536473D01*
X111400116Y-75364335D01*
X111396594Y-75355833D01*
X111320889Y-75173064D01*
X111280500Y-74970016D01*
X111280500Y-74762984D01*
X111320889Y-74559936D01*
X111400115Y-74368667D01*
X111405795Y-74360167D01*
X111515135Y-74196527D01*
X111661527Y-74050135D01*
X111833665Y-73935116D01*
X111833667Y-73935115D01*
X112024936Y-73855889D01*
X112227984Y-73815500D01*
X112435016Y-73815500D01*
X112638064Y-73855889D01*
G37*
G36*
X86412564Y-73855889D02*
G01*
X86603833Y-73935115D01*
X86603835Y-73935116D01*
X86775973Y-74050135D01*
X86922365Y-74196527D01*
X87031706Y-74360167D01*
X87037385Y-74368667D01*
X87116611Y-74559936D01*
X87157000Y-74762984D01*
X87157000Y-74970016D01*
X87116611Y-75173064D01*
X87040906Y-75355833D01*
X87037384Y-75364335D01*
X86922365Y-75536473D01*
X86775973Y-75682865D01*
X86603835Y-75797884D01*
X86603834Y-75797885D01*
X86603833Y-75797885D01*
X86412564Y-75877111D01*
X86209516Y-75917500D01*
X86002484Y-75917500D01*
X85799436Y-75877111D01*
X85608167Y-75797885D01*
X85608166Y-75797885D01*
X85608165Y-75797884D01*
X85436027Y-75682865D01*
X85289635Y-75536473D01*
X85174616Y-75364335D01*
X85171094Y-75355833D01*
X85095389Y-75173064D01*
X85055000Y-74970016D01*
X85055000Y-74762984D01*
X85095389Y-74559936D01*
X85174615Y-74368667D01*
X85180295Y-74360167D01*
X85289635Y-74196527D01*
X85436027Y-74050135D01*
X85608165Y-73935116D01*
X85608167Y-73935115D01*
X85799436Y-73855889D01*
X86002484Y-73815500D01*
X86209516Y-73815500D01*
X86412564Y-73855889D01*
G37*
G36*
X79912564Y-73855889D02*
G01*
X80103833Y-73935115D01*
X80103835Y-73935116D01*
X80275973Y-74050135D01*
X80422365Y-74196527D01*
X80531706Y-74360167D01*
X80537385Y-74368667D01*
X80616611Y-74559936D01*
X80657000Y-74762984D01*
X80657000Y-74970016D01*
X80616611Y-75173064D01*
X80540906Y-75355833D01*
X80537384Y-75364335D01*
X80422365Y-75536473D01*
X80275973Y-75682865D01*
X80103835Y-75797884D01*
X80103834Y-75797885D01*
X80103833Y-75797885D01*
X79912564Y-75877111D01*
X79709516Y-75917500D01*
X79502484Y-75917500D01*
X79299436Y-75877111D01*
X79108167Y-75797885D01*
X79108166Y-75797885D01*
X79108165Y-75797884D01*
X78936027Y-75682865D01*
X78789635Y-75536473D01*
X78674616Y-75364335D01*
X78671094Y-75355833D01*
X78595389Y-75173064D01*
X78555000Y-74970016D01*
X78555000Y-74762984D01*
X78595389Y-74559936D01*
X78674615Y-74368667D01*
X78680295Y-74360167D01*
X78789635Y-74196527D01*
X78936027Y-74050135D01*
X79108165Y-73935116D01*
X79108167Y-73935115D01*
X79299436Y-73855889D01*
X79502484Y-73815500D01*
X79709516Y-73815500D01*
X79912564Y-73855889D01*
G37*
G36*
X130481564Y-73847389D02*
G01*
X130672833Y-73926615D01*
X130672835Y-73926616D01*
X130685556Y-73935116D01*
X130844973Y-74041635D01*
X130991365Y-74188027D01*
X131106385Y-74360167D01*
X131185611Y-74551436D01*
X131226000Y-74754484D01*
X131226000Y-74961516D01*
X131185611Y-75164564D01*
X131106385Y-75355833D01*
X131106384Y-75355835D01*
X130991365Y-75527973D01*
X130844973Y-75674365D01*
X130672835Y-75789384D01*
X130672834Y-75789385D01*
X130672833Y-75789385D01*
X130481564Y-75868611D01*
X130278516Y-75909000D01*
X130071484Y-75909000D01*
X129868436Y-75868611D01*
X129677167Y-75789385D01*
X129677166Y-75789385D01*
X129677165Y-75789384D01*
X129505027Y-75674365D01*
X129358635Y-75527973D01*
X129243616Y-75355835D01*
X129243615Y-75355833D01*
X129164389Y-75164564D01*
X129124000Y-74961516D01*
X129124000Y-74754484D01*
X129164389Y-74551436D01*
X129243615Y-74360167D01*
X129358635Y-74188027D01*
X129505027Y-74041635D01*
X129664444Y-73935116D01*
X129677165Y-73926616D01*
X129677167Y-73926615D01*
X129868436Y-73847389D01*
X130071484Y-73807000D01*
X130278516Y-73807000D01*
X130481564Y-73847389D01*
G37*
G36*
X123981564Y-73847389D02*
G01*
X124172833Y-73926615D01*
X124172835Y-73926616D01*
X124185556Y-73935116D01*
X124344973Y-74041635D01*
X124491365Y-74188027D01*
X124606385Y-74360167D01*
X124685611Y-74551436D01*
X124726000Y-74754484D01*
X124726000Y-74961516D01*
X124685611Y-75164564D01*
X124606385Y-75355833D01*
X124606384Y-75355835D01*
X124491365Y-75527973D01*
X124344973Y-75674365D01*
X124172835Y-75789384D01*
X124172834Y-75789385D01*
X124172833Y-75789385D01*
X123981564Y-75868611D01*
X123778516Y-75909000D01*
X123571484Y-75909000D01*
X123368436Y-75868611D01*
X123177167Y-75789385D01*
X123177166Y-75789385D01*
X123177165Y-75789384D01*
X123005027Y-75674365D01*
X122858635Y-75527973D01*
X122743616Y-75355835D01*
X122743615Y-75355833D01*
X122664389Y-75164564D01*
X122624000Y-74961516D01*
X122624000Y-74754484D01*
X122664389Y-74551436D01*
X122743615Y-74360167D01*
X122858635Y-74188027D01*
X123005027Y-74041635D01*
X123164444Y-73935116D01*
X123177165Y-73926616D01*
X123177167Y-73926615D01*
X123368436Y-73847389D01*
X123571484Y-73807000D01*
X123778516Y-73807000D01*
X123981564Y-73847389D01*
G37*
G36*
X107585000Y-71699500D02*
G01*
X106283000Y-71699500D01*
X106283000Y-69397500D01*
X107585000Y-69397500D01*
X107585000Y-71699500D01*
G37*
G36*
X92085000Y-71699500D02*
G01*
X90783000Y-71699500D01*
X90783000Y-69397500D01*
X92085000Y-69397500D01*
X92085000Y-71699500D01*
G37*
G36*
X119138064Y-69355889D02*
G01*
X119329333Y-69435115D01*
X119329335Y-69435116D01*
X119501473Y-69550135D01*
X119647865Y-69696527D01*
X119757206Y-69860167D01*
X119762885Y-69868667D01*
X119842111Y-70059936D01*
X119882500Y-70262984D01*
X119882500Y-70470016D01*
X119842111Y-70673064D01*
X119766406Y-70855833D01*
X119762884Y-70864335D01*
X119647865Y-71036473D01*
X119501473Y-71182865D01*
X119329335Y-71297884D01*
X119329334Y-71297885D01*
X119329333Y-71297885D01*
X119138064Y-71377111D01*
X118935016Y-71417500D01*
X118727984Y-71417500D01*
X118524936Y-71377111D01*
X118333667Y-71297885D01*
X118333666Y-71297885D01*
X118333665Y-71297884D01*
X118161527Y-71182865D01*
X118015135Y-71036473D01*
X117900116Y-70864335D01*
X117896594Y-70855833D01*
X117820889Y-70673064D01*
X117780500Y-70470016D01*
X117780500Y-70262984D01*
X117820889Y-70059936D01*
X117900115Y-69868667D01*
X117905795Y-69860167D01*
X118015135Y-69696527D01*
X118161527Y-69550135D01*
X118333665Y-69435116D01*
X118333667Y-69435115D01*
X118524936Y-69355889D01*
X118727984Y-69315500D01*
X118935016Y-69315500D01*
X119138064Y-69355889D01*
G37*
G36*
X112638064Y-69355889D02*
G01*
X112829333Y-69435115D01*
X112829335Y-69435116D01*
X113001473Y-69550135D01*
X113147865Y-69696527D01*
X113257206Y-69860167D01*
X113262885Y-69868667D01*
X113342111Y-70059936D01*
X113382500Y-70262984D01*
X113382500Y-70470016D01*
X113342111Y-70673064D01*
X113266406Y-70855833D01*
X113262884Y-70864335D01*
X113147865Y-71036473D01*
X113001473Y-71182865D01*
X112829335Y-71297884D01*
X112829334Y-71297885D01*
X112829333Y-71297885D01*
X112638064Y-71377111D01*
X112435016Y-71417500D01*
X112227984Y-71417500D01*
X112024936Y-71377111D01*
X111833667Y-71297885D01*
X111833666Y-71297885D01*
X111833665Y-71297884D01*
X111661527Y-71182865D01*
X111515135Y-71036473D01*
X111400116Y-70864335D01*
X111396594Y-70855833D01*
X111320889Y-70673064D01*
X111280500Y-70470016D01*
X111280500Y-70262984D01*
X111320889Y-70059936D01*
X111400115Y-69868667D01*
X111405795Y-69860167D01*
X111515135Y-69696527D01*
X111661527Y-69550135D01*
X111833665Y-69435116D01*
X111833667Y-69435115D01*
X112024936Y-69355889D01*
X112227984Y-69315500D01*
X112435016Y-69315500D01*
X112638064Y-69355889D01*
G37*
G36*
X86412564Y-69355889D02*
G01*
X86603833Y-69435115D01*
X86603835Y-69435116D01*
X86775973Y-69550135D01*
X86922365Y-69696527D01*
X87031706Y-69860167D01*
X87037385Y-69868667D01*
X87116611Y-70059936D01*
X87157000Y-70262984D01*
X87157000Y-70470016D01*
X87116611Y-70673064D01*
X87040906Y-70855833D01*
X87037384Y-70864335D01*
X86922365Y-71036473D01*
X86775973Y-71182865D01*
X86603835Y-71297884D01*
X86603834Y-71297885D01*
X86603833Y-71297885D01*
X86412564Y-71377111D01*
X86209516Y-71417500D01*
X86002484Y-71417500D01*
X85799436Y-71377111D01*
X85608167Y-71297885D01*
X85608166Y-71297885D01*
X85608165Y-71297884D01*
X85436027Y-71182865D01*
X85289635Y-71036473D01*
X85174616Y-70864335D01*
X85171094Y-70855833D01*
X85095389Y-70673064D01*
X85055000Y-70470016D01*
X85055000Y-70262984D01*
X85095389Y-70059936D01*
X85174615Y-69868667D01*
X85180295Y-69860167D01*
X85289635Y-69696527D01*
X85436027Y-69550135D01*
X85608165Y-69435116D01*
X85608167Y-69435115D01*
X85799436Y-69355889D01*
X86002484Y-69315500D01*
X86209516Y-69315500D01*
X86412564Y-69355889D01*
G37*
G36*
X79912564Y-69355889D02*
G01*
X80103833Y-69435115D01*
X80103835Y-69435116D01*
X80275973Y-69550135D01*
X80422365Y-69696527D01*
X80531706Y-69860167D01*
X80537385Y-69868667D01*
X80616611Y-70059936D01*
X80657000Y-70262984D01*
X80657000Y-70470016D01*
X80616611Y-70673064D01*
X80540906Y-70855833D01*
X80537384Y-70864335D01*
X80422365Y-71036473D01*
X80275973Y-71182865D01*
X80103835Y-71297884D01*
X80103834Y-71297885D01*
X80103833Y-71297885D01*
X79912564Y-71377111D01*
X79709516Y-71417500D01*
X79502484Y-71417500D01*
X79299436Y-71377111D01*
X79108167Y-71297885D01*
X79108166Y-71297885D01*
X79108165Y-71297884D01*
X78936027Y-71182865D01*
X78789635Y-71036473D01*
X78674616Y-70864335D01*
X78671094Y-70855833D01*
X78595389Y-70673064D01*
X78555000Y-70470016D01*
X78555000Y-70262984D01*
X78595389Y-70059936D01*
X78674615Y-69868667D01*
X78680295Y-69860167D01*
X78789635Y-69696527D01*
X78936027Y-69550135D01*
X79108165Y-69435116D01*
X79108167Y-69435115D01*
X79299436Y-69355889D01*
X79502484Y-69315500D01*
X79709516Y-69315500D01*
X79912564Y-69355889D01*
G37*
G36*
X130481564Y-69347389D02*
G01*
X130672833Y-69426615D01*
X130672835Y-69426616D01*
X130685556Y-69435116D01*
X130844973Y-69541635D01*
X130991365Y-69688027D01*
X131106385Y-69860167D01*
X131185611Y-70051436D01*
X131226000Y-70254484D01*
X131226000Y-70461516D01*
X131185611Y-70664564D01*
X131106385Y-70855833D01*
X131106384Y-70855835D01*
X130991365Y-71027973D01*
X130844973Y-71174365D01*
X130672835Y-71289384D01*
X130672834Y-71289385D01*
X130672833Y-71289385D01*
X130481564Y-71368611D01*
X130278516Y-71409000D01*
X130071484Y-71409000D01*
X129868436Y-71368611D01*
X129677167Y-71289385D01*
X129677166Y-71289385D01*
X129677165Y-71289384D01*
X129505027Y-71174365D01*
X129358635Y-71027973D01*
X129243616Y-70855835D01*
X129243615Y-70855833D01*
X129164389Y-70664564D01*
X129124000Y-70461516D01*
X129124000Y-70254484D01*
X129164389Y-70051436D01*
X129243615Y-69860167D01*
X129358635Y-69688027D01*
X129505027Y-69541635D01*
X129664444Y-69435116D01*
X129677165Y-69426616D01*
X129677167Y-69426615D01*
X129868436Y-69347389D01*
X130071484Y-69307000D01*
X130278516Y-69307000D01*
X130481564Y-69347389D01*
G37*
G36*
X123981564Y-69347389D02*
G01*
X124172833Y-69426615D01*
X124172835Y-69426616D01*
X124185556Y-69435116D01*
X124344973Y-69541635D01*
X124491365Y-69688027D01*
X124606385Y-69860167D01*
X124685611Y-70051436D01*
X124726000Y-70254484D01*
X124726000Y-70461516D01*
X124685611Y-70664564D01*
X124606385Y-70855833D01*
X124606384Y-70855835D01*
X124491365Y-71027973D01*
X124344973Y-71174365D01*
X124172835Y-71289384D01*
X124172834Y-71289385D01*
X124172833Y-71289385D01*
X123981564Y-71368611D01*
X123778516Y-71409000D01*
X123571484Y-71409000D01*
X123368436Y-71368611D01*
X123177167Y-71289385D01*
X123177166Y-71289385D01*
X123177165Y-71289384D01*
X123005027Y-71174365D01*
X122858635Y-71027973D01*
X122743616Y-70855835D01*
X122743615Y-70855833D01*
X122664389Y-70664564D01*
X122624000Y-70461516D01*
X122624000Y-70254484D01*
X122664389Y-70051436D01*
X122743615Y-69860167D01*
X122858635Y-69688027D01*
X123005027Y-69541635D01*
X123164444Y-69435116D01*
X123177165Y-69426616D01*
X123177167Y-69426615D01*
X123368436Y-69347389D01*
X123571484Y-69307000D01*
X123778516Y-69307000D01*
X123981564Y-69347389D01*
G37*
M02*
