G04 #@! TF.GenerationSoftware,KiCad,Pcbnew,5.1.5+dfsg1-2build2*
G04 #@! TF.CreationDate,2020-05-22T20:54:53+02:00*
G04 #@! TF.ProjectId,KungFuFlash,4b756e67-4675-4466-9c61-73682e6b6963,1*
G04 #@! TF.SameCoordinates,Original*
G04 #@! TF.FileFunction,Soldermask,Bot*
G04 #@! TF.FilePolarity,Negative*
%FSLAX46Y46*%
G04 Gerber Fmt 4.6, Leading zero omitted, Abs format (unit mm)*
G04 Created by KiCad (PCBNEW 5.1.5+dfsg1-2build2) date 2020-05-22 20:54:53*
%MOMM*%
%LPD*%
G04 APERTURE LIST*
%ADD10C,0.100000*%
G04 APERTURE END LIST*
D10*
G36*
X79096553Y-122078435D02*
G01*
X79118164Y-122089986D01*
X79141613Y-122097099D01*
X79165999Y-122099501D01*
X79830001Y-122099501D01*
X79854387Y-122097099D01*
X79877836Y-122089986D01*
X79899447Y-122078435D01*
X79909449Y-122070227D01*
X81626551Y-122070227D01*
X81636553Y-122078435D01*
X81658164Y-122089986D01*
X81681613Y-122097099D01*
X81705999Y-122099501D01*
X82370001Y-122099501D01*
X82394387Y-122097099D01*
X82417836Y-122089986D01*
X82439447Y-122078435D01*
X82449449Y-122070227D01*
X84166551Y-122070227D01*
X84176553Y-122078435D01*
X84198164Y-122089986D01*
X84221613Y-122097099D01*
X84245999Y-122099501D01*
X84910001Y-122099501D01*
X84934387Y-122097099D01*
X84957836Y-122089986D01*
X84979447Y-122078435D01*
X84989449Y-122070227D01*
X86706551Y-122070227D01*
X86716553Y-122078435D01*
X86738164Y-122089986D01*
X86761613Y-122097099D01*
X86785999Y-122099501D01*
X87450001Y-122099501D01*
X87474387Y-122097099D01*
X87497836Y-122089986D01*
X87519447Y-122078435D01*
X87529449Y-122070227D01*
X89246551Y-122070227D01*
X89256553Y-122078435D01*
X89278164Y-122089986D01*
X89301613Y-122097099D01*
X89325999Y-122099501D01*
X89990001Y-122099501D01*
X90014387Y-122097099D01*
X90037836Y-122089986D01*
X90059447Y-122078435D01*
X90069449Y-122070227D01*
X91786551Y-122070227D01*
X91796553Y-122078435D01*
X91818164Y-122089986D01*
X91841613Y-122097099D01*
X91865999Y-122099501D01*
X92530001Y-122099501D01*
X92554387Y-122097099D01*
X92577836Y-122089986D01*
X92599447Y-122078435D01*
X92609449Y-122070227D01*
X94326551Y-122070227D01*
X94336553Y-122078435D01*
X94358164Y-122089986D01*
X94381613Y-122097099D01*
X94405999Y-122099501D01*
X95070001Y-122099501D01*
X95094387Y-122097099D01*
X95117836Y-122089986D01*
X95139447Y-122078435D01*
X95149449Y-122070227D01*
X96866551Y-122070227D01*
X96876553Y-122078435D01*
X96898164Y-122089986D01*
X96921613Y-122097099D01*
X96945999Y-122099501D01*
X97610001Y-122099501D01*
X97634387Y-122097099D01*
X97657836Y-122089986D01*
X97679447Y-122078435D01*
X97689449Y-122070227D01*
X99406551Y-122070227D01*
X99416553Y-122078435D01*
X99438164Y-122089986D01*
X99461613Y-122097099D01*
X99485999Y-122099501D01*
X100150001Y-122099501D01*
X100174387Y-122097099D01*
X100197836Y-122089986D01*
X100219447Y-122078435D01*
X100229449Y-122070227D01*
X101946551Y-122070227D01*
X101956553Y-122078435D01*
X101978164Y-122089986D01*
X102001613Y-122097099D01*
X102025999Y-122099501D01*
X102690001Y-122099501D01*
X102714387Y-122097099D01*
X102737836Y-122089986D01*
X102759447Y-122078435D01*
X102769449Y-122070227D01*
X104486551Y-122070227D01*
X104496553Y-122078435D01*
X104518164Y-122089986D01*
X104541613Y-122097099D01*
X104565999Y-122099501D01*
X105230001Y-122099501D01*
X105254387Y-122097099D01*
X105277836Y-122089986D01*
X105299447Y-122078435D01*
X105309449Y-122070227D01*
X107026551Y-122070227D01*
X107036553Y-122078435D01*
X107058164Y-122089986D01*
X107081613Y-122097099D01*
X107105999Y-122099501D01*
X107770001Y-122099501D01*
X107794387Y-122097099D01*
X107817836Y-122089986D01*
X107839447Y-122078435D01*
X107849449Y-122070227D01*
X109566551Y-122070227D01*
X109576553Y-122078435D01*
X109598164Y-122089986D01*
X109621613Y-122097099D01*
X109645999Y-122099501D01*
X110310001Y-122099501D01*
X110334387Y-122097099D01*
X110357836Y-122089986D01*
X110379447Y-122078435D01*
X110389449Y-122070227D01*
X112106551Y-122070227D01*
X112116553Y-122078435D01*
X112138164Y-122089986D01*
X112161613Y-122097099D01*
X112185999Y-122099501D01*
X112850001Y-122099501D01*
X112874387Y-122097099D01*
X112897836Y-122089986D01*
X112919447Y-122078435D01*
X112929449Y-122070227D01*
X114646551Y-122070227D01*
X114656553Y-122078435D01*
X114678164Y-122089986D01*
X114701613Y-122097099D01*
X114725999Y-122099501D01*
X115390001Y-122099501D01*
X115414387Y-122097099D01*
X115437836Y-122089986D01*
X115459447Y-122078435D01*
X115469449Y-122070227D01*
X117186551Y-122070227D01*
X117196553Y-122078435D01*
X117218164Y-122089986D01*
X117241613Y-122097099D01*
X117265999Y-122099501D01*
X117930001Y-122099501D01*
X117954387Y-122097099D01*
X117977836Y-122089986D01*
X117999447Y-122078435D01*
X118009449Y-122070227D01*
X119726551Y-122070227D01*
X119736553Y-122078435D01*
X119758164Y-122089986D01*
X119781613Y-122097099D01*
X119805999Y-122099501D01*
X120470001Y-122099501D01*
X120494387Y-122097099D01*
X120517836Y-122089986D01*
X120539447Y-122078435D01*
X120549449Y-122070227D01*
X122266551Y-122070227D01*
X122276553Y-122078435D01*
X122298164Y-122089986D01*
X122321613Y-122097099D01*
X122345999Y-122099501D01*
X123010001Y-122099501D01*
X123034387Y-122097099D01*
X123057836Y-122089986D01*
X123079447Y-122078435D01*
X123089449Y-122070227D01*
X124806551Y-122070227D01*
X124816553Y-122078435D01*
X124838164Y-122089986D01*
X124861613Y-122097099D01*
X124885999Y-122099501D01*
X125550001Y-122099501D01*
X125574387Y-122097099D01*
X125597836Y-122089986D01*
X125619447Y-122078435D01*
X125629449Y-122070227D01*
X127346551Y-122070227D01*
X127356553Y-122078435D01*
X127378164Y-122089986D01*
X127401613Y-122097099D01*
X127425999Y-122099501D01*
X128090001Y-122099501D01*
X128114387Y-122097099D01*
X128137836Y-122089986D01*
X128159447Y-122078435D01*
X128169449Y-122070227D01*
X129886551Y-122070227D01*
X129896553Y-122078435D01*
X129918164Y-122089986D01*
X129941613Y-122097099D01*
X129965999Y-122099501D01*
X130630001Y-122099501D01*
X130654387Y-122097099D01*
X130677836Y-122089986D01*
X130699447Y-122078435D01*
X130709449Y-122070227D01*
X132426551Y-122070227D01*
X132436553Y-122078435D01*
X132458164Y-122089986D01*
X132481613Y-122097099D01*
X132505999Y-122099501D01*
X134108000Y-122099501D01*
X134108000Y-130399501D01*
X75688000Y-130399501D01*
X75688000Y-122099501D01*
X77290001Y-122099501D01*
X77314387Y-122097099D01*
X77337836Y-122089986D01*
X77359447Y-122078435D01*
X77369449Y-122070227D01*
X79086551Y-122070227D01*
X79096553Y-122078435D01*
G37*
G36*
X125526012Y-103688427D02*
G01*
X125675312Y-103718124D01*
X125839284Y-103786044D01*
X125986854Y-103884647D01*
X126112353Y-104010146D01*
X126210956Y-104157716D01*
X126278876Y-104321688D01*
X126313500Y-104495759D01*
X126313500Y-104673241D01*
X126278876Y-104847312D01*
X126210956Y-105011284D01*
X126112353Y-105158854D01*
X125986854Y-105284353D01*
X125839284Y-105382956D01*
X125675312Y-105450876D01*
X125526012Y-105480573D01*
X125501242Y-105485500D01*
X125323758Y-105485500D01*
X125298988Y-105480573D01*
X125149688Y-105450876D01*
X124985716Y-105382956D01*
X124838146Y-105284353D01*
X124712647Y-105158854D01*
X124614044Y-105011284D01*
X124546124Y-104847312D01*
X124511500Y-104673241D01*
X124511500Y-104495759D01*
X124546124Y-104321688D01*
X124614044Y-104157716D01*
X124712647Y-104010146D01*
X124838146Y-103884647D01*
X124985716Y-103786044D01*
X125149688Y-103718124D01*
X125298988Y-103688427D01*
X125323758Y-103683500D01*
X125501242Y-103683500D01*
X125526012Y-103688427D01*
G37*
G36*
X125526012Y-101148427D02*
G01*
X125675312Y-101178124D01*
X125839284Y-101246044D01*
X125986854Y-101344647D01*
X126112353Y-101470146D01*
X126210956Y-101617716D01*
X126278876Y-101781688D01*
X126313500Y-101955759D01*
X126313500Y-102133241D01*
X126278876Y-102307312D01*
X126210956Y-102471284D01*
X126112353Y-102618854D01*
X125986854Y-102744353D01*
X125839284Y-102842956D01*
X125675312Y-102910876D01*
X125526012Y-102940573D01*
X125501242Y-102945500D01*
X125323758Y-102945500D01*
X125298988Y-102940573D01*
X125149688Y-102910876D01*
X124985716Y-102842956D01*
X124838146Y-102744353D01*
X124712647Y-102618854D01*
X124614044Y-102471284D01*
X124546124Y-102307312D01*
X124511500Y-102133241D01*
X124511500Y-101955759D01*
X124546124Y-101781688D01*
X124614044Y-101617716D01*
X124712647Y-101470146D01*
X124838146Y-101344647D01*
X124985716Y-101246044D01*
X125149688Y-101178124D01*
X125298988Y-101148427D01*
X125323758Y-101143500D01*
X125501242Y-101143500D01*
X125526012Y-101148427D01*
G37*
G36*
X125526012Y-98608427D02*
G01*
X125675312Y-98638124D01*
X125839284Y-98706044D01*
X125986854Y-98804647D01*
X126112353Y-98930146D01*
X126210956Y-99077716D01*
X126278876Y-99241688D01*
X126313500Y-99415759D01*
X126313500Y-99593241D01*
X126278876Y-99767312D01*
X126210956Y-99931284D01*
X126112353Y-100078854D01*
X125986854Y-100204353D01*
X125839284Y-100302956D01*
X125675312Y-100370876D01*
X125526012Y-100400573D01*
X125501242Y-100405500D01*
X125323758Y-100405500D01*
X125298988Y-100400573D01*
X125149688Y-100370876D01*
X124985716Y-100302956D01*
X124838146Y-100204353D01*
X124712647Y-100078854D01*
X124614044Y-99931284D01*
X124546124Y-99767312D01*
X124511500Y-99593241D01*
X124511500Y-99415759D01*
X124546124Y-99241688D01*
X124614044Y-99077716D01*
X124712647Y-98930146D01*
X124838146Y-98804647D01*
X124985716Y-98706044D01*
X125149688Y-98638124D01*
X125298988Y-98608427D01*
X125323758Y-98603500D01*
X125501242Y-98603500D01*
X125526012Y-98608427D01*
G37*
G36*
X125526012Y-96068427D02*
G01*
X125675312Y-96098124D01*
X125839284Y-96166044D01*
X125986854Y-96264647D01*
X126112353Y-96390146D01*
X126210956Y-96537716D01*
X126278876Y-96701688D01*
X126313500Y-96875759D01*
X126313500Y-97053241D01*
X126278876Y-97227312D01*
X126210956Y-97391284D01*
X126112353Y-97538854D01*
X125986854Y-97664353D01*
X125839284Y-97762956D01*
X125675312Y-97830876D01*
X125526012Y-97860573D01*
X125501242Y-97865500D01*
X125323758Y-97865500D01*
X125298988Y-97860573D01*
X125149688Y-97830876D01*
X124985716Y-97762956D01*
X124838146Y-97664353D01*
X124712647Y-97538854D01*
X124614044Y-97391284D01*
X124546124Y-97227312D01*
X124511500Y-97053241D01*
X124511500Y-96875759D01*
X124546124Y-96701688D01*
X124614044Y-96537716D01*
X124712647Y-96390146D01*
X124838146Y-96264647D01*
X124985716Y-96166044D01*
X125149688Y-96098124D01*
X125298988Y-96068427D01*
X125323758Y-96063500D01*
X125501242Y-96063500D01*
X125526012Y-96068427D01*
G37*
G36*
X126313500Y-95325500D02*
G01*
X124511500Y-95325500D01*
X124511500Y-93523500D01*
X126313500Y-93523500D01*
X126313500Y-95325500D01*
G37*
G36*
X136079486Y-89401229D02*
G01*
X136091423Y-89402405D01*
X136152685Y-89420989D01*
X136213948Y-89439573D01*
X136326868Y-89499930D01*
X136425843Y-89581157D01*
X136507070Y-89680132D01*
X136567427Y-89793052D01*
X136604595Y-89915578D01*
X136617145Y-90043000D01*
X136604595Y-90170422D01*
X136567427Y-90292948D01*
X136507070Y-90405868D01*
X136425843Y-90504843D01*
X136326868Y-90586070D01*
X136213948Y-90646427D01*
X136152685Y-90665011D01*
X136091423Y-90683595D01*
X136079486Y-90684771D01*
X135995932Y-90693000D01*
X135132068Y-90693000D01*
X135048514Y-90684771D01*
X135036577Y-90683595D01*
X134975315Y-90665011D01*
X134914052Y-90646427D01*
X134801132Y-90586070D01*
X134702157Y-90504843D01*
X134620930Y-90405868D01*
X134560573Y-90292948D01*
X134523405Y-90170422D01*
X134510855Y-90043000D01*
X134523405Y-89915578D01*
X134560573Y-89793052D01*
X134620930Y-89680132D01*
X134702157Y-89581157D01*
X134801132Y-89499930D01*
X134914052Y-89439573D01*
X134975315Y-89420989D01*
X135036577Y-89402405D01*
X135048514Y-89401229D01*
X135132068Y-89393000D01*
X135995932Y-89393000D01*
X136079486Y-89401229D01*
G37*
G36*
X133031621Y-88301682D02*
G01*
X133144721Y-88335990D01*
X133248955Y-88391704D01*
X133340317Y-88466683D01*
X133415296Y-88558045D01*
X133471010Y-88662279D01*
X133505318Y-88775379D01*
X133516903Y-88893000D01*
X133505318Y-89010621D01*
X133471010Y-89123721D01*
X133415296Y-89227955D01*
X133340317Y-89319317D01*
X133248955Y-89394296D01*
X133144721Y-89450010D01*
X133031621Y-89484318D01*
X132943474Y-89493000D01*
X132684526Y-89493000D01*
X132596379Y-89484318D01*
X132483279Y-89450010D01*
X132379045Y-89394296D01*
X132287683Y-89319317D01*
X132212704Y-89227955D01*
X132156990Y-89123721D01*
X132122682Y-89010621D01*
X132111097Y-88893000D01*
X132122682Y-88775379D01*
X132156990Y-88662279D01*
X132212704Y-88558045D01*
X132287683Y-88466683D01*
X132379045Y-88391704D01*
X132483279Y-88335990D01*
X132596379Y-88301682D01*
X132684526Y-88293000D01*
X132943474Y-88293000D01*
X133031621Y-88301682D01*
G37*
G36*
X125526012Y-85527427D02*
G01*
X125675312Y-85557124D01*
X125839284Y-85625044D01*
X125986854Y-85723647D01*
X126112353Y-85849146D01*
X126210956Y-85996716D01*
X126278876Y-86160688D01*
X126313500Y-86334759D01*
X126313500Y-86512241D01*
X126278876Y-86686312D01*
X126210956Y-86850284D01*
X126112353Y-86997854D01*
X125986854Y-87123353D01*
X125839284Y-87221956D01*
X125675312Y-87289876D01*
X125526012Y-87319573D01*
X125501242Y-87324500D01*
X125323758Y-87324500D01*
X125298988Y-87319573D01*
X125149688Y-87289876D01*
X124985716Y-87221956D01*
X124838146Y-87123353D01*
X124712647Y-86997854D01*
X124614044Y-86850284D01*
X124546124Y-86686312D01*
X124511500Y-86512241D01*
X124511500Y-86334759D01*
X124546124Y-86160688D01*
X124614044Y-85996716D01*
X124712647Y-85849146D01*
X124838146Y-85723647D01*
X124985716Y-85625044D01*
X125149688Y-85557124D01*
X125298988Y-85527427D01*
X125323758Y-85522500D01*
X125501242Y-85522500D01*
X125526012Y-85527427D01*
G37*
G36*
X123773500Y-87324500D02*
G01*
X121971500Y-87324500D01*
X121971500Y-85522500D01*
X123773500Y-85522500D01*
X123773500Y-87324500D01*
G37*
G36*
X133031621Y-83451682D02*
G01*
X133144721Y-83485990D01*
X133248955Y-83541704D01*
X133340317Y-83616683D01*
X133415296Y-83708045D01*
X133471010Y-83812279D01*
X133505318Y-83925379D01*
X133516903Y-84043000D01*
X133505318Y-84160621D01*
X133471010Y-84273721D01*
X133415296Y-84377955D01*
X133340317Y-84469317D01*
X133248955Y-84544296D01*
X133144721Y-84600010D01*
X133031621Y-84634318D01*
X132943474Y-84643000D01*
X132684526Y-84643000D01*
X132596379Y-84634318D01*
X132483279Y-84600010D01*
X132379045Y-84544296D01*
X132287683Y-84469317D01*
X132212704Y-84377955D01*
X132156990Y-84273721D01*
X132122682Y-84160621D01*
X132111097Y-84043000D01*
X132122682Y-83925379D01*
X132156990Y-83812279D01*
X132212704Y-83708045D01*
X132287683Y-83616683D01*
X132379045Y-83541704D01*
X132483279Y-83485990D01*
X132596379Y-83451682D01*
X132684526Y-83443000D01*
X132943474Y-83443000D01*
X133031621Y-83451682D01*
G37*
G36*
X136079486Y-82251229D02*
G01*
X136091423Y-82252405D01*
X136152685Y-82270989D01*
X136213948Y-82289573D01*
X136326868Y-82349930D01*
X136425843Y-82431157D01*
X136507070Y-82530132D01*
X136567427Y-82643052D01*
X136604595Y-82765578D01*
X136617145Y-82893000D01*
X136604595Y-83020422D01*
X136567427Y-83142948D01*
X136507070Y-83255868D01*
X136425843Y-83354843D01*
X136326868Y-83436070D01*
X136213948Y-83496427D01*
X136152685Y-83515011D01*
X136091423Y-83533595D01*
X136079486Y-83534771D01*
X135995932Y-83543000D01*
X135132068Y-83543000D01*
X135048514Y-83534771D01*
X135036577Y-83533595D01*
X134975315Y-83515011D01*
X134914052Y-83496427D01*
X134801132Y-83436070D01*
X134702157Y-83354843D01*
X134620930Y-83255868D01*
X134560573Y-83142948D01*
X134523405Y-83020422D01*
X134510855Y-82893000D01*
X134523405Y-82765578D01*
X134560573Y-82643052D01*
X134620930Y-82530132D01*
X134702157Y-82431157D01*
X134801132Y-82349930D01*
X134914052Y-82289573D01*
X134975315Y-82270989D01*
X135036577Y-82252405D01*
X135048514Y-82251229D01*
X135132068Y-82243000D01*
X135995932Y-82243000D01*
X136079486Y-82251229D01*
G37*
G36*
X112638064Y-73855889D02*
G01*
X112829333Y-73935115D01*
X112829335Y-73935116D01*
X113001473Y-74050135D01*
X113147865Y-74196527D01*
X113257206Y-74360167D01*
X113262885Y-74368667D01*
X113342111Y-74559936D01*
X113382500Y-74762984D01*
X113382500Y-74970016D01*
X113342111Y-75173064D01*
X113266406Y-75355833D01*
X113262884Y-75364335D01*
X113147865Y-75536473D01*
X113001473Y-75682865D01*
X112829335Y-75797884D01*
X112829334Y-75797885D01*
X112829333Y-75797885D01*
X112638064Y-75877111D01*
X112435016Y-75917500D01*
X112227984Y-75917500D01*
X112024936Y-75877111D01*
X111833667Y-75797885D01*
X111833666Y-75797885D01*
X111833665Y-75797884D01*
X111661527Y-75682865D01*
X111515135Y-75536473D01*
X111400116Y-75364335D01*
X111396594Y-75355833D01*
X111320889Y-75173064D01*
X111280500Y-74970016D01*
X111280500Y-74762984D01*
X111320889Y-74559936D01*
X111400115Y-74368667D01*
X111405795Y-74360167D01*
X111515135Y-74196527D01*
X111661527Y-74050135D01*
X111833665Y-73935116D01*
X111833667Y-73935115D01*
X112024936Y-73855889D01*
X112227984Y-73815500D01*
X112435016Y-73815500D01*
X112638064Y-73855889D01*
G37*
G36*
X86412564Y-73855889D02*
G01*
X86603833Y-73935115D01*
X86603835Y-73935116D01*
X86775973Y-74050135D01*
X86922365Y-74196527D01*
X87031706Y-74360167D01*
X87037385Y-74368667D01*
X87116611Y-74559936D01*
X87157000Y-74762984D01*
X87157000Y-74970016D01*
X87116611Y-75173064D01*
X87040906Y-75355833D01*
X87037384Y-75364335D01*
X86922365Y-75536473D01*
X86775973Y-75682865D01*
X86603835Y-75797884D01*
X86603834Y-75797885D01*
X86603833Y-75797885D01*
X86412564Y-75877111D01*
X86209516Y-75917500D01*
X86002484Y-75917500D01*
X85799436Y-75877111D01*
X85608167Y-75797885D01*
X85608166Y-75797885D01*
X85608165Y-75797884D01*
X85436027Y-75682865D01*
X85289635Y-75536473D01*
X85174616Y-75364335D01*
X85171094Y-75355833D01*
X85095389Y-75173064D01*
X85055000Y-74970016D01*
X85055000Y-74762984D01*
X85095389Y-74559936D01*
X85174615Y-74368667D01*
X85180295Y-74360167D01*
X85289635Y-74196527D01*
X85436027Y-74050135D01*
X85608165Y-73935116D01*
X85608167Y-73935115D01*
X85799436Y-73855889D01*
X86002484Y-73815500D01*
X86209516Y-73815500D01*
X86412564Y-73855889D01*
G37*
G36*
X119138064Y-73855889D02*
G01*
X119329333Y-73935115D01*
X119329335Y-73935116D01*
X119501473Y-74050135D01*
X119647865Y-74196527D01*
X119757206Y-74360167D01*
X119762885Y-74368667D01*
X119842111Y-74559936D01*
X119882500Y-74762984D01*
X119882500Y-74970016D01*
X119842111Y-75173064D01*
X119766406Y-75355833D01*
X119762884Y-75364335D01*
X119647865Y-75536473D01*
X119501473Y-75682865D01*
X119329335Y-75797884D01*
X119329334Y-75797885D01*
X119329333Y-75797885D01*
X119138064Y-75877111D01*
X118935016Y-75917500D01*
X118727984Y-75917500D01*
X118524936Y-75877111D01*
X118333667Y-75797885D01*
X118333666Y-75797885D01*
X118333665Y-75797884D01*
X118161527Y-75682865D01*
X118015135Y-75536473D01*
X117900116Y-75364335D01*
X117896594Y-75355833D01*
X117820889Y-75173064D01*
X117780500Y-74970016D01*
X117780500Y-74762984D01*
X117820889Y-74559936D01*
X117900115Y-74368667D01*
X117905795Y-74360167D01*
X118015135Y-74196527D01*
X118161527Y-74050135D01*
X118333665Y-73935116D01*
X118333667Y-73935115D01*
X118524936Y-73855889D01*
X118727984Y-73815500D01*
X118935016Y-73815500D01*
X119138064Y-73855889D01*
G37*
G36*
X79912564Y-73855889D02*
G01*
X80103833Y-73935115D01*
X80103835Y-73935116D01*
X80275973Y-74050135D01*
X80422365Y-74196527D01*
X80531706Y-74360167D01*
X80537385Y-74368667D01*
X80616611Y-74559936D01*
X80657000Y-74762984D01*
X80657000Y-74970016D01*
X80616611Y-75173064D01*
X80540906Y-75355833D01*
X80537384Y-75364335D01*
X80422365Y-75536473D01*
X80275973Y-75682865D01*
X80103835Y-75797884D01*
X80103834Y-75797885D01*
X80103833Y-75797885D01*
X79912564Y-75877111D01*
X79709516Y-75917500D01*
X79502484Y-75917500D01*
X79299436Y-75877111D01*
X79108167Y-75797885D01*
X79108166Y-75797885D01*
X79108165Y-75797884D01*
X78936027Y-75682865D01*
X78789635Y-75536473D01*
X78674616Y-75364335D01*
X78671094Y-75355833D01*
X78595389Y-75173064D01*
X78555000Y-74970016D01*
X78555000Y-74762984D01*
X78595389Y-74559936D01*
X78674615Y-74368667D01*
X78680295Y-74360167D01*
X78789635Y-74196527D01*
X78936027Y-74050135D01*
X79108165Y-73935116D01*
X79108167Y-73935115D01*
X79299436Y-73855889D01*
X79502484Y-73815500D01*
X79709516Y-73815500D01*
X79912564Y-73855889D01*
G37*
G36*
X123981564Y-73847389D02*
G01*
X124172833Y-73926615D01*
X124172835Y-73926616D01*
X124185556Y-73935116D01*
X124344973Y-74041635D01*
X124491365Y-74188027D01*
X124606385Y-74360167D01*
X124685611Y-74551436D01*
X124726000Y-74754484D01*
X124726000Y-74961516D01*
X124685611Y-75164564D01*
X124606385Y-75355833D01*
X124606384Y-75355835D01*
X124491365Y-75527973D01*
X124344973Y-75674365D01*
X124172835Y-75789384D01*
X124172834Y-75789385D01*
X124172833Y-75789385D01*
X123981564Y-75868611D01*
X123778516Y-75909000D01*
X123571484Y-75909000D01*
X123368436Y-75868611D01*
X123177167Y-75789385D01*
X123177166Y-75789385D01*
X123177165Y-75789384D01*
X123005027Y-75674365D01*
X122858635Y-75527973D01*
X122743616Y-75355835D01*
X122743615Y-75355833D01*
X122664389Y-75164564D01*
X122624000Y-74961516D01*
X122624000Y-74754484D01*
X122664389Y-74551436D01*
X122743615Y-74360167D01*
X122858635Y-74188027D01*
X123005027Y-74041635D01*
X123164444Y-73935116D01*
X123177165Y-73926616D01*
X123177167Y-73926615D01*
X123368436Y-73847389D01*
X123571484Y-73807000D01*
X123778516Y-73807000D01*
X123981564Y-73847389D01*
G37*
G36*
X130481564Y-73847389D02*
G01*
X130672833Y-73926615D01*
X130672835Y-73926616D01*
X130685556Y-73935116D01*
X130844973Y-74041635D01*
X130991365Y-74188027D01*
X131106385Y-74360167D01*
X131185611Y-74551436D01*
X131226000Y-74754484D01*
X131226000Y-74961516D01*
X131185611Y-75164564D01*
X131106385Y-75355833D01*
X131106384Y-75355835D01*
X130991365Y-75527973D01*
X130844973Y-75674365D01*
X130672835Y-75789384D01*
X130672834Y-75789385D01*
X130672833Y-75789385D01*
X130481564Y-75868611D01*
X130278516Y-75909000D01*
X130071484Y-75909000D01*
X129868436Y-75868611D01*
X129677167Y-75789385D01*
X129677166Y-75789385D01*
X129677165Y-75789384D01*
X129505027Y-75674365D01*
X129358635Y-75527973D01*
X129243616Y-75355835D01*
X129243615Y-75355833D01*
X129164389Y-75164564D01*
X129124000Y-74961516D01*
X129124000Y-74754484D01*
X129164389Y-74551436D01*
X129243615Y-74360167D01*
X129358635Y-74188027D01*
X129505027Y-74041635D01*
X129664444Y-73935116D01*
X129677165Y-73926616D01*
X129677167Y-73926615D01*
X129868436Y-73847389D01*
X130071484Y-73807000D01*
X130278516Y-73807000D01*
X130481564Y-73847389D01*
G37*
G36*
X79912564Y-69355889D02*
G01*
X80103833Y-69435115D01*
X80103835Y-69435116D01*
X80275973Y-69550135D01*
X80422365Y-69696527D01*
X80531706Y-69860167D01*
X80537385Y-69868667D01*
X80616611Y-70059936D01*
X80657000Y-70262984D01*
X80657000Y-70470016D01*
X80616611Y-70673064D01*
X80540906Y-70855833D01*
X80537384Y-70864335D01*
X80422365Y-71036473D01*
X80275973Y-71182865D01*
X80103835Y-71297884D01*
X80103834Y-71297885D01*
X80103833Y-71297885D01*
X79912564Y-71377111D01*
X79709516Y-71417500D01*
X79502484Y-71417500D01*
X79299436Y-71377111D01*
X79108167Y-71297885D01*
X79108166Y-71297885D01*
X79108165Y-71297884D01*
X78936027Y-71182865D01*
X78789635Y-71036473D01*
X78674616Y-70864335D01*
X78671094Y-70855833D01*
X78595389Y-70673064D01*
X78555000Y-70470016D01*
X78555000Y-70262984D01*
X78595389Y-70059936D01*
X78674615Y-69868667D01*
X78680295Y-69860167D01*
X78789635Y-69696527D01*
X78936027Y-69550135D01*
X79108165Y-69435116D01*
X79108167Y-69435115D01*
X79299436Y-69355889D01*
X79502484Y-69315500D01*
X79709516Y-69315500D01*
X79912564Y-69355889D01*
G37*
G36*
X86412564Y-69355889D02*
G01*
X86603833Y-69435115D01*
X86603835Y-69435116D01*
X86775973Y-69550135D01*
X86922365Y-69696527D01*
X87031706Y-69860167D01*
X87037385Y-69868667D01*
X87116611Y-70059936D01*
X87157000Y-70262984D01*
X87157000Y-70470016D01*
X87116611Y-70673064D01*
X87040906Y-70855833D01*
X87037384Y-70864335D01*
X86922365Y-71036473D01*
X86775973Y-71182865D01*
X86603835Y-71297884D01*
X86603834Y-71297885D01*
X86603833Y-71297885D01*
X86412564Y-71377111D01*
X86209516Y-71417500D01*
X86002484Y-71417500D01*
X85799436Y-71377111D01*
X85608167Y-71297885D01*
X85608166Y-71297885D01*
X85608165Y-71297884D01*
X85436027Y-71182865D01*
X85289635Y-71036473D01*
X85174616Y-70864335D01*
X85171094Y-70855833D01*
X85095389Y-70673064D01*
X85055000Y-70470016D01*
X85055000Y-70262984D01*
X85095389Y-70059936D01*
X85174615Y-69868667D01*
X85180295Y-69860167D01*
X85289635Y-69696527D01*
X85436027Y-69550135D01*
X85608165Y-69435116D01*
X85608167Y-69435115D01*
X85799436Y-69355889D01*
X86002484Y-69315500D01*
X86209516Y-69315500D01*
X86412564Y-69355889D01*
G37*
G36*
X112638064Y-69355889D02*
G01*
X112829333Y-69435115D01*
X112829335Y-69435116D01*
X113001473Y-69550135D01*
X113147865Y-69696527D01*
X113257206Y-69860167D01*
X113262885Y-69868667D01*
X113342111Y-70059936D01*
X113382500Y-70262984D01*
X113382500Y-70470016D01*
X113342111Y-70673064D01*
X113266406Y-70855833D01*
X113262884Y-70864335D01*
X113147865Y-71036473D01*
X113001473Y-71182865D01*
X112829335Y-71297884D01*
X112829334Y-71297885D01*
X112829333Y-71297885D01*
X112638064Y-71377111D01*
X112435016Y-71417500D01*
X112227984Y-71417500D01*
X112024936Y-71377111D01*
X111833667Y-71297885D01*
X111833666Y-71297885D01*
X111833665Y-71297884D01*
X111661527Y-71182865D01*
X111515135Y-71036473D01*
X111400116Y-70864335D01*
X111396594Y-70855833D01*
X111320889Y-70673064D01*
X111280500Y-70470016D01*
X111280500Y-70262984D01*
X111320889Y-70059936D01*
X111400115Y-69868667D01*
X111405795Y-69860167D01*
X111515135Y-69696527D01*
X111661527Y-69550135D01*
X111833665Y-69435116D01*
X111833667Y-69435115D01*
X112024936Y-69355889D01*
X112227984Y-69315500D01*
X112435016Y-69315500D01*
X112638064Y-69355889D01*
G37*
G36*
X119138064Y-69355889D02*
G01*
X119329333Y-69435115D01*
X119329335Y-69435116D01*
X119501473Y-69550135D01*
X119647865Y-69696527D01*
X119757206Y-69860167D01*
X119762885Y-69868667D01*
X119842111Y-70059936D01*
X119882500Y-70262984D01*
X119882500Y-70470016D01*
X119842111Y-70673064D01*
X119766406Y-70855833D01*
X119762884Y-70864335D01*
X119647865Y-71036473D01*
X119501473Y-71182865D01*
X119329335Y-71297884D01*
X119329334Y-71297885D01*
X119329333Y-71297885D01*
X119138064Y-71377111D01*
X118935016Y-71417500D01*
X118727984Y-71417500D01*
X118524936Y-71377111D01*
X118333667Y-71297885D01*
X118333666Y-71297885D01*
X118333665Y-71297884D01*
X118161527Y-71182865D01*
X118015135Y-71036473D01*
X117900116Y-70864335D01*
X117896594Y-70855833D01*
X117820889Y-70673064D01*
X117780500Y-70470016D01*
X117780500Y-70262984D01*
X117820889Y-70059936D01*
X117900115Y-69868667D01*
X117905795Y-69860167D01*
X118015135Y-69696527D01*
X118161527Y-69550135D01*
X118333665Y-69435116D01*
X118333667Y-69435115D01*
X118524936Y-69355889D01*
X118727984Y-69315500D01*
X118935016Y-69315500D01*
X119138064Y-69355889D01*
G37*
G36*
X123981564Y-69347389D02*
G01*
X124172833Y-69426615D01*
X124172835Y-69426616D01*
X124185556Y-69435116D01*
X124344973Y-69541635D01*
X124491365Y-69688027D01*
X124606385Y-69860167D01*
X124685611Y-70051436D01*
X124726000Y-70254484D01*
X124726000Y-70461516D01*
X124685611Y-70664564D01*
X124606385Y-70855833D01*
X124606384Y-70855835D01*
X124491365Y-71027973D01*
X124344973Y-71174365D01*
X124172835Y-71289384D01*
X124172834Y-71289385D01*
X124172833Y-71289385D01*
X123981564Y-71368611D01*
X123778516Y-71409000D01*
X123571484Y-71409000D01*
X123368436Y-71368611D01*
X123177167Y-71289385D01*
X123177166Y-71289385D01*
X123177165Y-71289384D01*
X123005027Y-71174365D01*
X122858635Y-71027973D01*
X122743616Y-70855835D01*
X122743615Y-70855833D01*
X122664389Y-70664564D01*
X122624000Y-70461516D01*
X122624000Y-70254484D01*
X122664389Y-70051436D01*
X122743615Y-69860167D01*
X122858635Y-69688027D01*
X123005027Y-69541635D01*
X123164444Y-69435116D01*
X123177165Y-69426616D01*
X123177167Y-69426615D01*
X123368436Y-69347389D01*
X123571484Y-69307000D01*
X123778516Y-69307000D01*
X123981564Y-69347389D01*
G37*
G36*
X130481564Y-69347389D02*
G01*
X130672833Y-69426615D01*
X130672835Y-69426616D01*
X130685556Y-69435116D01*
X130844973Y-69541635D01*
X130991365Y-69688027D01*
X131106385Y-69860167D01*
X131185611Y-70051436D01*
X131226000Y-70254484D01*
X131226000Y-70461516D01*
X131185611Y-70664564D01*
X131106385Y-70855833D01*
X131106384Y-70855835D01*
X130991365Y-71027973D01*
X130844973Y-71174365D01*
X130672835Y-71289384D01*
X130672834Y-71289385D01*
X130672833Y-71289385D01*
X130481564Y-71368611D01*
X130278516Y-71409000D01*
X130071484Y-71409000D01*
X129868436Y-71368611D01*
X129677167Y-71289385D01*
X129677166Y-71289385D01*
X129677165Y-71289384D01*
X129505027Y-71174365D01*
X129358635Y-71027973D01*
X129243616Y-70855835D01*
X129243615Y-70855833D01*
X129164389Y-70664564D01*
X129124000Y-70461516D01*
X129124000Y-70254484D01*
X129164389Y-70051436D01*
X129243615Y-69860167D01*
X129358635Y-69688027D01*
X129505027Y-69541635D01*
X129664444Y-69435116D01*
X129677165Y-69426616D01*
X129677167Y-69426615D01*
X129868436Y-69347389D01*
X130071484Y-69307000D01*
X130278516Y-69307000D01*
X130481564Y-69347389D01*
G37*
M02*
